<?xml version="1.0" encoding="utf-8"?>
<!-- Generator: Adobe Illustrator 22.0.0, SVG Export Plug-In . SVG Version: 6.00 Build 0)  -->
<svg version="1.1" id="Layer_1" xmlns="http://www.w3.org/2000/svg" xmlns:xlink="http://www.w3.org/1999/xlink" x="0px" y="0px"
	 viewBox="0 0 283 309.3" enable-background="new 0 0 283 309.3" xml:space="preserve">
<rect x="-19.5" y="-6.4" display="none" fill="#EDB841" width="322" height="322"/>
<g>
	<g>
		<g>
			<g>
				<linearGradient id="SVGID_1_" gradientUnits="userSpaceOnUse" x1="-9.094947e-13" y1="154.64" x2="283.0024" y2="154.64">
					<stop  offset="0" style="stop-color:#EFF0F5"/>
					<stop  offset="0.5" style="stop-color:#DBDEE7"/>
					<stop  offset="1" style="stop-color:#C9CDDB"/>
				</linearGradient>
				<path fill="url(#SVGID_1_)" d="M207.8,42.7c0.3,0.5,0.6,1,0.9,1.6c0,0,16-14.8,28.8,8.1c10.5,18.6,23.6,28.8,38.7,26.5
					c-9.8,11.8-8,28.2,2.5,46.9c12.9,22.9-8.1,28.8-8.1,28.8c0.3,0.5,0.6,1.1,0.9,1.6c-0.3,0.5-0.6,1-0.9,1.6c0,0,20.8,6.4,7.4,29
					c-10.9,18.4-13.2,34.8-3.6,46.8c-15.1-2.6-28.4,7.2-39.3,25.6c-13.4,22.6-29,7.4-29,7.4c-0.3,0.5-0.6,1-1,1.5
					c-0.6,0-1.2,0-1.8,0c0,0,4.8,21.2-21.4,20.9c-21.4-0.2-36.7,6-42.3,20.3c-5.3-14.4-20.5-21-41.8-21.2
					C71.7,287.7,77,266.6,77,266.6c-0.6,0-1.2,0-1.8-0.1c-0.3-0.5-0.6-1-0.9-1.6c0,0-16,14.8-28.8-8.1
					c-10.5-18.6-23.6-28.8-38.7-26.5c9.8-11.8,8-28.2-2.5-46.8c-12.9-22.9,8.1-28.8,8.1-28.8c-0.3-0.5-0.6-1.1-0.9-1.6
					c0.3-0.5,0.6-1,0.9-1.6c0,0-20.8-6.4-7.4-29c10.9-18.4,13.2-34.8,3.6-46.8c15.1,2.7,28.4-7.2,39.3-25.6c13.4-22.6,29-7.4,29-7.4
					c0.3-0.5,0.6-1,0.9-1.5c0.6,0,1.2,0,1.8,0c0,0-4.8-21.2,21.4-20.9c21.4,0.3,36.7-6,42.3-20.3c5.2,14.4,20.4,21,41.8,21.2
					c26.2,0.3,20.9,21.4,20.9,21.4C206.6,42.7,207.2,42.7,207.8,42.7z"/>
				<linearGradient id="SVGID_2_" gradientUnits="userSpaceOnUse" x1="10.4881" y1="154.625" x2="272.4987" y2="154.625">
					<stop  offset="0" style="stop-color:#41837E"/>
					<stop  offset="0.5169" style="stop-color:#007169"/>
					<stop  offset="1" style="stop-color:#00473D"/>
				</linearGradient>
				<path fill="url(#SVGID_2_)" d="M202.9,51c0.3,0.5,0.6,0.9,0.8,1.4c0,0,14.8-13.7,26.7,7.5c9.7,17.3,21.8,26.7,35.8,24.5
					c-9.1,10.9-7.4,26.1,2.4,43.4c11.9,21.2-7.5,26.7-7.5,26.7c0.3,0.5,0.5,1,0.8,1.5c-0.3,0.5-0.5,1-0.8,1.5c0,0,19.3,6,6.9,26.9
					c-10.1,17-12.2,32.2-3.3,43.3c-14-2.5-26.3,6.7-36.4,23.7c-12.4,20.9-26.9,6.9-26.9,6.9c-0.3,0.5-0.6,1-0.9,1.4
					c-0.6,0-1.1,0-1.7,0c0,0,4.5,19.6-19.8,19.4c-19.8-0.2-34,5.6-39.2,18.8c-4.9-13.3-18.9-19.4-38.7-19.7
					c-24.3-0.3-19.4-19.8-19.4-19.8c-0.6,0-1.1,0-1.7,0c-0.3-0.5-0.6-1-0.8-1.4c0,0-14.8,13.7-26.7-7.5
					c-9.7-17.3-21.8-26.7-35.8-24.5c9.1-10.9,7.4-26.1-2.3-43.4c-11.9-21.2,7.5-26.7,7.5-26.7c-0.3-0.5-0.5-1-0.8-1.5
					c0.3-0.5,0.5-1,0.8-1.5c0,0-19.3-6-6.9-26.9c10.1-17,12.2-32.2,3.3-43.3c14,2.5,26.3-6.7,36.4-23.7C67.1,37,81.6,51,81.6,51
					c0.3-0.5,0.6-1,0.9-1.4c0.5,0,1.1,0,1.7,0c0,0-4.5-19.7,19.8-19.4c19.8,0.2,34-5.6,39.2-18.8c4.9,13.3,18.9,19.4,38.7,19.7
					c24.3,0.3,19.4,19.8,19.4,19.8C201.8,51,202.4,51,202.9,51z"/>
				<linearGradient id="SVGID_3_" gradientUnits="userSpaceOnUse" x1="26.8755" y1="154.6299" x2="256.1355" y2="154.6299">
					<stop  offset="0" style="stop-color:#EFF0F5"/>
					<stop  offset="0.5" style="stop-color:#DBDEE7"/>
					<stop  offset="1" style="stop-color:#C9CDDB"/>
				</linearGradient>
				<path fill="url(#SVGID_3_)" d="M141.5,46.8c59.6,0,107.9,48.3,107.9,107.9s-48.3,107.9-107.9,107.9
					c-59.6,0-107.9-48.3-107.9-107.9C33.6,95.1,81.9,46.8,141.5,46.8 M141.5,40C78.3,40,26.9,91.4,26.9,154.6
					s51.4,114.6,114.6,114.6c63.2,0,114.6-51.4,114.6-114.6C256.1,91.4,204.7,40,141.5,40L141.5,40z"/>
			</g>
		</g>
		<g display="none">
			<path display="inline" fill="#EEA565" d="M93.2,126.3c0.6,0,1.1-0.1,1.6-0.3s0.9-0.6,1.1-1.2c0.1-0.4,0.2-0.7,0.3-1
				c0.1-0.3,0.1-0.6,0.2-0.9c0.4-0.3,0.8-0.6,1.1-0.9c0,0.1,0,0.1,0.1,0.1c0,0.1,0,0.1,0,0.2c-0.1,0.5-0.2,1-0.3,1.5
				c0.1,0.8,0.4,1.4,1,1.8c1-1.5,2.2-2.9,3.5-4.3c0.6-0.4,1.2-0.8,1.9-1.2c0.7-0.3,1.5-0.6,2.2-0.6c1.4,0.1,2.5,0.7,3.1,1.8
				c0.2,0.4,0.3,0.7,0.4,1c0.1,0.3,0.1,0.6,0.1,1.1c0,0.3,0,0.6-0.1,0.8s-0.2,0.5-0.3,0.9c-0.4,0.8-0.8,1.4-1.4,1.8
				s-1.3,0.9-2.2,1.2c-0.6,0.2-1.2,0.3-2,0.4c-0.8,0.1-1.5,0.1-2.3,0.1c-0.9,0-1.7-0.1-2.6-0.4c-0.8-0.3-1.6-0.7-2.2-1.4h-0.1
				c-0.9,1.1-2.3,1.7-4.1,1.6v0.1c-1.3-0.2-2.3-0.7-2.9-1.4c-0.6-0.8-1-1.9-1.1-3.3h-0.1c-0.4,1.3-1.3,2.3-2.5,3v0.1
				c0.6,0.2,1,0.4,1.2,0.8c0.3,0.3,0.4,0.8,0.4,1.5c0,0.3-0.1,0.7-0.3,1.2c-0.2,0.5-0.4,0.9-0.6,1.2c-3.1,2.3-6.5,3.9-10.1,4.8
				s-7.2,1.3-10.7,1.3c-2.8-0.1-5.3-0.5-7.3-1.2c-2-0.7-3.7-1.6-5.1-2.8c-1.4-1.2-2.3-2-2.8-2.6c-0.5-0.6-1-1.4-1.6-2.5
				c0-0.1,0-0.1,0.1-0.2c0-0.1,0-0.1,0.1,0V128c0.1,0.1,0.8,0.7,1.9,1.8c1.3,1.2,3.2,2.4,5.8,3.6c2.6,1.2,5.7,1.8,9.3,1.8
				c3.4,0.1,6.7-0.3,10.1-1.1c3.3-0.8,6.5-2.2,9.5-4.1c0.1-0.1,0.1-0.1,0.2-0.2c0.1-0.1,0.2-0.1,0.3-0.2c0.1-0.1,0.1-0.2,0-0.3
				c-0.3-0.6-0.9-0.9-1.8-1.1c-1-0.2-1.9-0.2-2.7-0.2c-0.3,0-0.4,0-0.6,0c0-0.1,0-0.1-0.1-0.1v-0.1c0.3-0.5,0.5-1,0.8-1.5
				c0-0.1,0-0.3,0.1-0.4c1.6-0.3,3.2-0.7,4.6-1.4c0.8-0.8,1.2-1.5,1.4-2.1s0.3-1.6,0.2-2.9c0-1-0.1-2.2-0.1-3.6s-0.2-2.6-0.2-3.7
				c0.4-0.6,0.9-1.2,1.4-1.6h0.1h0.1c0.2,3.7,0.3,7.4,0.4,11c0,1.4,0.3,2.6,1,3.8c0.6,0.5,1.3,0.8,2.3,0.9L93.2,126.3L93.2,126.3z
				 M94,131.2l1.3-2h0.2v0.1c0.2,3.5,0.3,7.3,0.3,11.4c0,1.3,0.9,1.9,2.6,1.9h1c0.6,0,1.4-0.1,2.4-0.4v-0.1c-1.3-0.8-2-1.8-2-3.2
				c0-0.7,0.3-1.4,0.8-2.1c0.9-1.5,2-2.3,3.3-2.3c1.6,0,2.8,0.9,3.7,2.7l-0.3,0.3c-0.8-0.7-1.7-1-2.9-1c-0.9,0-1.6,0.2-2.2,0.5
				c-0.6,0.3-0.8,0.6-0.8,0.9c0,0.8,0.5,1.6,1.4,2.4c0.8,0.6,1.4,0.9,2,0.9c0.9,0,2.5-0.3,4.6-1l0.1-0.1l0.1,0.1l-0.9,2
				c-1.4,0.5-2.5,0.9-3.5,1.1c-1.3,0.3-2.1,0.5-2.3,0.7c-1.7,0.6-3,0.9-3.9,0.9h-0.5c-1.9,0-3.1-0.6-3.6-1.7
				c-0.6,1.1-1.7,1.7-3.2,1.7h-0.3c-1.1,0-1.9-0.1-2.4-0.4c-0.6-0.3-1-0.7-1.3-1.2c-0.6,1.1-1.8,1.6-3.6,1.6H64.3h-0.5l-0.4-0.1
				c-0.4-0.1-0.7-0.2-0.9-0.3c-0.8-0.4-1.5-1.1-2.2-2.1l-1-1.4c-0.3-0.3-0.5-0.4-0.8-0.4c-1.5,0.1-2.8,1.5-3.9,4.3l-0.5,1.1
				c-0.6,1.4-1.3,2.2-2.1,2.2c-0.4,0-0.7-0.1-1-0.4c-1.4-0.9-2.1-3.1-2.1-6.6c0.1-1.9,0.4-2.9,0.8-3c-0.1,0.9-0.2,1.8-0.3,2.7
				c0,2.3,0.5,3.9,1.5,4.8c0.3,0.3,0.6,0.5,0.9,0.5h0.5c0.6-0.1,1.2-1,1.9-2.7c0.7-1.7,1.3-2.8,1.8-3.5c0.8-1.2,1.7-1.8,2.5-1.8
				c0.7,0,1.4,0.7,2.2,2.1c0.6,1.1,1.6,1.9,3,2.4l0.3,0.1h0.7h12.1H84c0.9,0,1.6-0.1,2.1-0.4s0.9-0.6,1.1-1.1l0.4-1.7l1.2-0.9
				l0.1,0.2c-0.3,0.9-0.4,1.5-0.4,1.8c0,1.4,0.9,2.1,2.8,2.1c0.9,0,1.7-0.2,2.3-0.6c0.5-0.3,0.8-0.9,0.8-1.9
				C94.3,138.7,94.2,135.7,94,131.2z M70.2,139.8v-0.3l1.5-1.5l0.1-0.1v0.9l0.1,3.1c0.1,1.3,0.1,2.6,0.2,4c0,2.1,0,4.4,0,6.9
				c0,0.4,0.2,0.8,0.5,1.2c0.3,0.4,1,0.7,1.9,0.7h12.3c1.5,0.1,2.7-0.5,3.5-1.6l0.9-1.2l1.2-0.5l0.1,0.1c-0.8,1.1-1.1,1.9-1.1,2.4
				c0.1,0.6,0.3,0.9,0.8,0.9c0.4,0,0.9-0.1,1.4-0.5c0.3-0.2,0.5-0.4,0.7-0.7c0.1-0.3,0.3-0.7,0.4-1.4c0.1-0.2,0.1-0.4,0.2-0.6
				l0.9-0.6H96c-0.2,0.7-0.3,1.3-0.3,1.7c0,0.6,0.2,1.1,0.6,1.4c0.4,0.3,0.8,0.5,1.1,0.5c0.3,0,0.5-0.1,0.7-0.2
				c0.2-0.1,0.3-0.3,0.3-0.6c0-0.6-0.2-1.5-0.5-2.6c0.4-0.6,0.9-1.1,1.5-1.5l0.1,0.1c0.2,1.3,0.3,2.2,0.3,2.8c0,0.4-0.1,0.8-0.2,1.2
				c-0.1,0.4-0.3,0.8-0.5,1c-0.3,0.6-0.7,1-1.1,1.4c-0.4,0.4-0.9,0.5-1.4,0.5c-0.7,0-1.3-0.5-2-1.4h-0.1c-0.4,0.4-0.9,0.8-1.3,1
				c-0.4,0.3-1,0.4-1.6,0.4c-0.9,0-1.4-0.5-1.5-1.4H90c-0.5,0.6-1.1,0.9-1.7,1.1c-0.6,0.2-1.2,0.3-1.8,0.3H73.2
				c-0.4,0-0.8-0.1-0.9-0.3c-0.5-0.4-0.9-0.9-1.1-1.5c-0.3,0.5-0.6,0.9-1.2,1.3c-0.5,0.4-1.2,0.5-2,0.5h-7c-0.5,0-0.9-0.1-1.3-0.4
				c-0.4-0.3-0.8-0.6-1.1-1.1h-0.1c-0.1,0.7-0.4,1.3-0.8,1.8s-0.8,0.8-1.4,0.8c-1.1,0-2.1-0.5-2.9-1.5c-0.8-1-1.2-2.2-1.3-3.7
				c-1.3,1.1-1.9,1.9-1.9,2.6s0.3,1.9,0.8,3.6c0.5,1.4,0.9,2.7,1.3,3.9c0.3,1.2,0.5,1.9,0.5,2.3c0,0.8-0.1,1.6-0.4,2.4h-0.2
				c-0.4-1.8-1.1-3.7-1.9-5.7c-0.3-1.1-0.6-2.1-0.9-3c-0.3-0.9-0.4-1.7-0.4-2.3c0-0.7,0.1-1.4,0.3-2c0.3-1.3,0.9-2.2,1.7-2.8
				c0.2-0.2,0.3-0.4,0.5-0.5c1.1-0.9,2-1.8,2.7-2.6h0.2c0.9,0.7,1.7,1.5,2.5,2.4c0.5,0.6,0.9,1.1,1.3,1.7c0.2,0.3,0.4,0.6,0.7,0.9
				c0.3,0.3,0.6,0.6,1.1,0.8s0.9,0.3,1.4,0.3H68c0.6,0,1.3-0.2,1.9-0.6c0.3-0.1,0.4-0.3,0.6-0.6c0.1-0.3,0.2-0.7,0.2-1.3
				c0-3.3-0.1-6.7-0.4-10.1V142L70.2,139.8z M54.9,137.2c-0.4-0.5-0.7-0.8-0.9-0.8c-0.2,0-0.3,0.2-0.4,0.6l0.1-0.1
				c0.1-0.2,0.1-0.3,0.2-0.2c-0.3,0.4-0.4,0.7-0.4,0.9c0,0.1,0,0.1,0.1,0.2c0.1,0,0.3,0,0.5,0.1c-0.3,0.6-0.8,1.1-1.3,1.5
				c-0.7,0.6-1.2,1-1.4,1.2l-0.8,0.6l0.4-0.1c0.2-0.1,0.5-0.3,0.9-0.7c1.1-0.8,1.9-1.5,2.3-2.4c0-0.1,0-0.1,0.1-0.1
				c0.2,0.1,0.3,0.1,0.5,0.1c0.1,0,0.2,0,0.3-0.1C55.1,137.7,55.1,137.4,54.9,137.2z M52.7,116.5c0.6-0.5,1-0.9,1.2-1.2
				c-0.1-0.1-0.2-0.2-0.4-0.3c-0.2-0.1-0.3-0.3-0.3-0.5c0-0.1,0.1-0.3,0.3-0.5c0.2-0.2,0.4-0.3,0.6-0.3c0.2,0,0.3,0.1,0.4,0.4
				c-0.1,0.2-0.2,0.5-0.3,0.8c0.3,0.2,0.3,0.4,0.3,0.6c0,0.1,0,0.3-0.1,0.4c-0.1-0.3-0.2-0.4-0.4-0.6c-0.2,0.4-0.5,0.8-1,1.3
				c-0.5,0.5-1.3,0.9-2.3,1.1C51.4,117.4,52.1,117,52.7,116.5z M53.5,130.6c-1.6-0.7-2.5-2.9-2.5-6.5v-0.7c0-0.8,0-1.3,0.1-1.4
				l0.1-0.1c0.1,0,0.2,0.2,0.2,0.6c0.1,2.8,0.5,4.6,1.1,5.4c0.4,0.6,0.9,0.9,1.6,0.9c0.7,0,1.2-0.8,1.5-2.4c0.1-0.3,0.2-0.7,0.3-1.2
				c0.5-3,1.2-5.2,2.2-6.6c0.4-0.6,0.8-0.8,1-0.8c0.1,0,0.1,0,0.2,0.1l0.2,0.1c0.1,0.3,0.1,0.5,0.1,0.8c0,0.5-0.1,1.1-0.2,1.8
				c-0.2,1.2-0.3,2.2-0.3,3.1c0,0.8,0.1,1.4,0.3,2.1c0.4,1.1,1.4,1.7,2.8,1.7c1.5,0,2.7-0.8,3.7-2.4l0.1-0.9c0-2.2-0.4-4.3-1.1-6.2
				l-0.1-0.5c-0.1-0.1-0.2-0.3-0.3-0.5c0.4-1.1,0.8-1.8,0.9-2.2c0.6,1,1.1,2.8,1.6,5.4c0.5,2.6,0.8,4.1,1,4.5c0.8,1.3,1.6,2,2.6,2
				c0.9,0,1.8-0.3,2.5-0.9c-0.1-0.3-0.5-1.4-1.4-3.1c-0.9-1.8-1.4-3.6-1.7-5.4l-0.4-0.5l1.2-2.2c0.1,0.3,0.4,0.8,0.9,1.7
				c0.5,0.9,0.9,1.5,1.2,2c0.1,0.3,0.2,0.5,0.2,0.6v0.1c-0.1,0-0.4-0.1-0.8-0.4c-0.3-0.2-0.5-0.3-0.6-0.3c0.4,1.5,0.9,2.7,1.3,3.6
				c0.4,0.9,0.7,1.8,0.7,2.8v0.3c0,0.8-0.3,1.6-0.8,2.6c-0.5,1-1.3,1.5-2.4,1.5c-2.1-0.1-3.4-1.4-4.1-3.9l-0.1-0.5
				c-0.3,1.5-0.6,2.5-0.8,3c-0.9,1.6-2.1,2.4-3.6,2.4s-2.6-0.7-3.4-2c-0.4-0.7-0.6-1.5-0.7-2.4l0.4-5c0-0.1,0-0.2,0-0.3
				c-0.6,0.6-1.1,2.1-1.5,4.7c-0.4,2.6-0.8,4.2-1.1,4.8c-0.4,0.5-0.8,0.8-1.2,0.8S53.8,130.7,53.5,130.6z M56.7,116.6
				c-0.4-0.5-0.7-0.8-0.9-0.8c-0.2,0-0.3,0.2-0.4,0.6h0.1c0.1-0.2,0.1-0.3,0.2-0.2c-0.3,0.3-0.4,0.6-0.4,0.8c0,0.1,0,0.1,0.1,0.2
				c0.1,0.1,0.3,0.1,0.5,0.2c-0.3,0.5-0.8,1-1.3,1.4c-0.7,0.6-1.2,1-1.4,1.2l-0.8,0.7l0.4-0.2c0.2-0.1,0.5-0.3,0.9-0.6
				c1.1-0.8,1.9-1.6,2.3-2.4l0.1-0.1c0.2,0.1,0.3,0.1,0.5,0.1c0.1,0,0.2,0,0.3-0.1C57,117.2,56.9,116.9,56.7,116.6z M54.4,154.9
				c0.2,0.2,0.4,0.4,0.8,0.5c0.3,0.2,0.7,0.2,1.2,0.2c0.3,0,0.5-0.1,0.8-0.2c0.3-0.1,0.4-0.3,0.4-0.5c0-0.3-0.2-0.7-0.7-1.2
				c-0.5-0.8-1.4-1.8-2.7-2.8c-0.1,0.1-0.2,0.1-0.3,0.2c-0.1,0.2-0.3,0.4-0.5,0.5s-0.3,0.4-0.3,0.6
				C53.1,153.3,53.5,154.2,54.4,154.9z M53.8,114.2c-0.2,0-0.3,0-0.4,0.1c0,0.2,0.2,0.4,0.6,0.6C54.1,114.4,54,114.2,53.8,114.2z
				 M58.3,193.4c0.7-0.7,1.1-1.6,1.1-2.8c0-1.3-0.7-2-2.1-2c-0.7,0-1.3,0.2-1.7,0.7c0-0.8,0.5-1.9,1.5-3.4s1.9-2.7,2.8-3.6
				c0.2-0.2,0.3-0.4,0.3-0.6c0-0.1-0.1-0.2-0.2-0.3l-0.3,0.2c-1.3,0.7-2.5,2.1-3.8,4.1c-1.6,2.3-2.3,4.2-2.3,5.8
				c0,1.9,0.8,2.8,2.4,2.8C56.8,194.5,57.6,194.2,58.3,193.4z M54.2,137.6c-0.4-0.1-0.6-0.2-0.6-0.3c0.1-0.2,0.3-0.3,0.4-0.3
				c0.1,0,0.2,0.1,0.2,0.3C54.2,137.3,54.2,137.4,54.2,137.6z M61.5,160.2c0.1-0.1,0.1-0.2,0.1-0.3c0.1-0.6,0-0.9-0.3-1h-0.1
				c-0.3-0.1-0.6,0-0.8,0.3V159h-0.1c-0.5,0.4-0.9,0.6-1.2,0.8c-0.4,0.1-0.9,0.2-1.7,0.2h-3.8v0.1c0.1,0,0.2,0,0.3,0.1l2,0.4
				c0.1,0,0.2,0,0.3,0c1.4-0.1,2.4-0.1,2.8-0.3c0.3-0.1,0.6-0.3,0.8-0.5c0.1-0.2,0.2-0.3,0.3-0.3c0.2,0.5,0.5,0.9,0.9,1.1h0.1
				C61.3,160.4,61.5,160.3,61.5,160.2z M54.9,137.7c-0.1,0.1-0.3,0-0.6-0.1c0-0.1,0-0.2,0.1-0.3v-0.1
				C54.6,137.4,54.7,137.5,54.9,137.7z M62.4,145.6c-2.9,0.4-5.2,0.9-7,1.2l-0.4,0.9c0.4-0.1,1-0.3,1.6-0.4c1.4-0.3,3.2-0.6,5.3-0.9
				L62.4,145.6z M55.1,166c0-0.3,0.2-0.9,0.5-1.8l0.2-0.2V164c0.1-0.1,0.1-0.1,0.1,0s0,0.1,0,0.2s-0.1,0.3-0.2,0.6
				c-0.1,0.4-0.2,0.6-0.2,0.8c0,0.4,0.1,0.7,0.3,0.7c0.1,0,0.2-0.1,0.3-0.3v-0.2c0-0.1,0,0,0,0.2c0,0.3,0,0.4,0,0.6
				c-0.1,0.2-0.3,0.3-0.4,0.4h-0.1C55.2,166.9,55.1,166.6,55.1,166z M56.1,117c-0.4-0.1-0.6-0.2-0.6-0.3c0.1-0.2,0.3-0.3,0.4-0.3
				c0.1,0,0.2,0.1,0.2,0.3C56.1,116.8,56.1,116.8,56.1,117z M56.7,117.1c-0.1,0.1-0.3,0-0.6-0.1c0-0.1,0-0.2,0-0.3v-0.1
				C56.4,116.8,56.6,116.9,56.7,117.1z M57.6,113.5c0-0.4,0.2-1.3,0.7-2.4l0.1-0.3l0.1-0.2c0.1,0,0.1,0,0.1,0.1s0,0.1,0,0.2
				c0,0.1-0.1,0.3-0.3,0.8s-0.3,0.9-0.3,1.1c0,0.6,0.1,0.8,0.4,0.8c0.1,0,0.3-0.1,0.4-0.4l0.1-0.3c0-0.1,0,0,0,0.3
				c0,0.3,0,0.6-0.1,0.8c-0.1,0.3-0.3,0.4-0.5,0.5C57.8,114.6,57.6,114.2,57.6,113.5z M70.9,165.1c5,0.5,9.5,0.7,13.5,0.7h0.4
				c2.9,0.1,5.9-0.1,9.2-0.4c3.3-0.3,6.3-1.1,9.1-2.4c1.3-0.6,2.5-1.4,3.5-2.4c0.3-0.3,0.6-0.7,1-1.4c0.3-0.7,0.6-1.5,0.7-2.5
				c-0.7,0.1-1.4,0.2-2.1,0.2c-0.6,0-1.1-0.1-1.7-0.1c-0.5-0.1-1-0.3-1.5-0.5c-0.6-0.4-0.9-0.8-1.1-1.3c-0.2-0.5-0.2-1-0.2-1.6
				c0-0.3,0.1-0.6,0.2-0.9c0.1-0.4,0.3-0.7,0.5-0.9c0-0.1,0-0.1,0-0.2c0.4-0.5,0.8-0.9,1.2-1.4s1-0.6,1.7-0.6
				c0.9,0.1,1.6,0.5,2.1,1.1c0.5,0.6,1,1.4,1.4,2.3c0.2,0.4,0.4,1.1,0.6,1.9s0.3,1.6,0.3,2.3c0,0.8-0.1,1.6-0.3,2.5
				s-0.6,1.6-1.1,2.4c-1.8,2.2-3.9,3.7-6.5,4.6c-2.6,0.9-5.2,1.4-7.7,1.6c-2.5,0.3-5.2,0.4-8,0.3h-2.3c-3.5,0.1-7.1-0.1-10.6-0.5
				s-7-1.1-10.2-2.3l-0.2-0.1c-1.5-0.6-2.9-1.4-4.2-2.4c-0.1-0.1-0.1-0.1-0.1-0.2s0.1-0.1,0.2,0C61.8,163.8,65.9,164.6,70.9,165.1z
				 M60.5,159.2c0.2,0,0.3,0.1,0.5,0.2c0.1,0.1,0.1,0.3,0.2,0.7C60.8,159.7,60.6,159.4,60.5,159.2z M66.7,109
				c-2,0.3-3.6,0.6-4.8,0.9l-0.3,0.8c0.3-0.1,0.7-0.2,1-0.3c1-0.3,2.2-0.5,3.7-0.8L66.7,109z M63.1,105.9c1.8-2,2.7-3.3,2.7-3.9
				c0-0.7-0.3-1-0.8-1c-0.4,0-0.7,0.1-0.9,0.2c-0.2,0.2-0.4,0.3-0.4,0.3l-0.1-0.1l0.1-0.6c0.3-1.4,1-2.1,2.1-2.1
				c0.9,0,1.4,0.6,1.4,1.7c0,0.9-0.4,1.9-1.1,3s-1.6,2-2.8,2.8c-0.4,0.3-0.7,0.5-0.8,0.5C62.6,106.6,62.8,106.3,63.1,105.9z
				 M63.3,114.2c-0.1-0.2-0.2-0.5-0.3-1.1c-0.1-0.6-0.1-0.9-0.2-1.1l0.2-0.8c0.2,0,0.3,0.4,0.3,1.3s0.2,1.3,0.7,1.3
				c0.3-0.1,0.6-0.2,0.7-0.4l0.1-0.5c0-0.5-0.2-1-0.5-1.6l0.4-0.8c0,0.1,0.1,0.4,0.3,1c0.2,0.6,0.3,1,0.4,1c0.3,0.4,0.5,0.6,0.8,0.6
				s0.4-0.1,0.5-0.2c-0.1-0.2-0.2-0.4-0.3-0.8c-0.2-0.3-0.3-0.7-0.3-1l0.3-0.8v0.1c0,0.1,0,0.2,0.1,0.4c0,0.2,0.2,0.6,0.4,1.1
				c0.1,0.3,0.2,0.6,0.2,1c0,0.6-0.3,0.9-0.8,0.9c-0.4-0.1-0.8-0.4-0.9-0.9l-0.2,0.7c-0.1,0.3-0.3,0.5-0.6,0.7
				c-0.1,0.1-0.3,0.1-0.6,0.1C63.6,114.4,63.4,114.4,63.3,114.2z M65.2,150.6c0-0.4,0.2-1.3,0.7-2.5l0.2-0.3l0.1-0.2
				c0.1-0.1,0.1-0.1,0.1,0.1s0,0.2,0,0.2s-0.1,0.4-0.3,0.9s-0.3,0.9-0.3,1.2c0,0.6,0.1,0.9,0.4,0.9c0.1,0,0.3-0.1,0.4-0.4l0.1-0.3
				c0-0.1,0,0,0,0.3c0,0.3,0,0.6-0.1,0.9c-0.1,0.3-0.3,0.4-0.5,0.5h-0.1C65.4,151.8,65.2,151.4,65.2,150.6z M66.1,132.3
				c0-0.4,0.2-1.3,0.7-2.4l0.2-0.4l0.1-0.2c0.1-0.1,0.1-0.1,0.1,0.1c0,0.1,0,0.2,0,0.2s-0.1,0.4-0.3,0.9s-0.3,0.9-0.3,1.2
				c0,0.6,0.1,0.9,0.4,0.9c0.1-0.1,0.3-0.2,0.4-0.5l0.1-0.3c0-0.1,0,0,0,0.3c0,0.3,0,0.6-0.1,0.9c-0.1,0.3-0.3,0.4-0.5,0.5h-0.1
				C66.3,133.4,66.1,133,66.1,132.3z M168.9,216.7c-8.3-2.8-15-6.6-19.9-11.5c-4.6-4.6-8-10.3-10.3-16.8c-1.3-3.9-2.9-10.5-4.6-19.7
				c0,5.4-0.7,9.1-2.1,11.3c-6.1,9-14,17.1-23.7,24.4C98,212,89.2,215.8,82,215.8c-4.3,0-7.5-1.8-9.8-5.4c-1.9-3-2.8-6.7-2.8-11
				c0-8.6,1.8-17.4,5.4-26.4c0.8-1.9,1.4-2.8,1.7-2.8c0.2,0.1,0.3,0.3,0.3,0.6c0,0.6-0.2,1.6-0.5,2.9c-2.6,8.8-3.8,15.4-3.8,19.7
				c0,3.3,1.1,5.9,3.2,7.7c1.8,1.6,4.2,2.4,7.1,2.4c7.8,0,17.8-4.9,30.2-14.8c11.5-9.2,17.9-16.4,19-21.6
				c-0.8-7.1-3.8-17.7-8.8-31.8c-4.8-13.2-7.3-19.7-7.4-19.7c0-2.5,0.7-5.9,2-10.3c0.1-0.4,0.3-0.6,0.6-0.6s0.6,0.2,0.9,0.6
				c1.7,1.9,4,6,7,12.2c3.7,7.8,6.4,15.5,8.2,23.3c1.6,9,3.3,17.9,5.1,26.9c3.7,17.6,11.5,28.7,23.4,33.4c0-9.3,2.4-15.4,7.2-18.3
				c4.1-2.5,11.3-5.7,21.4-9.7h-46.1c-1.3,0-2-0.1-2.4-0.3c-0.3-0.2-0.5-0.6-0.5-1.2l0.1-1c0.5-5.3,2.1-9.6,4.8-13
				c7.8-9.8,20.5-19,38.1-27.7l-3.2-6.3c-0.6-1.3-0.9-3-0.9-5.1c0-3.2,0.8-5.9,2.4-8c1.9-2.7,4.7-4,8.6-4c2.9,0,7.2,1.9,12.7,5.6
				c5.8,3.9,8.7,7.2,8.7,9.9c-0.8,3.5-1.9,6.8-3.1,9.9c-4.7,1.4-10.4,3.1-17,5.2l0.1,2.1c0,2.5-0.4,3.8-1.2,3.8
				c-0.8,0-1.5-1.4-2.4-4.3c-5.1,1.9-11.5,5.4-19.4,10.3c-7.5,4.6-12.9,8.7-16.3,12.3c4.4,0.3,10.8,0.5,19.2,0.5
				c10.1,0,22.8-0.3,38.1-0.8c14-0.4,20.9-0.7,20.9-0.8c0.9,0,1.4,0.2,1.4,0.5c0,0.3-1.1,3.3-3.3,9c-0.4,0.9-1,1.6-2,1.9
				c-41.6,13.2-62.4,21.4-62.4,24.4c0,2.6,6.4,6.7,19.1,12.4c0.6,0.3,0.9,0.9,0.9,1.7l-0.9,8.4c-0.1,0.9-0.7,1.3-1.7,1.3
				C179.9,219.6,174.9,218.7,168.9,216.7z M70.3,111.1c0-0.4,0.2-1,0.6-2l0.1-0.3l0.1-0.1c0.1-0.1,0.1-0.1,0.1,0c0,0.1,0,0.1,0,0.2
				c0,0.1-0.1,0.3-0.2,0.7c-0.2,0.4-0.2,0.7-0.2,0.9c0,0.4,0.1,0.7,0.3,0.8c0.1-0.1,0.2-0.2,0.3-0.4l0.1-0.3v0.3
				c0,0.3,0,0.5-0.1,0.7c-0.1,0.3-0.2,0.4-0.3,0.4h-0.1C70.5,112,70.3,111.7,70.3,111.1z M70.8,161.6c0-0.4,0.3-1.3,0.8-2.5l0.1-0.4
				l0.1-0.1c0.1-0.1,0.1-0.1,0.1,0s0,0.1,0,0.2s-0.1,0.4-0.3,0.9s-0.3,0.9-0.3,1.2c0,0.6,0.1,0.9,0.4,0.9c0.2,0,0.3-0.1,0.4-0.4
				l0.1-0.3c0.1-0.1,0.1,0,0.1,0.3c-0.1,0.3-0.1,0.6-0.2,0.9c-0.1,0.3-0.3,0.4-0.5,0.5C71.1,162.8,70.8,162.4,70.8,161.6z
				 M77.1,131.5c-0.1-0.1-0.1-0.2-0.1-0.3l0.1-1.7c0-3.1-0.7-9.5-2.2-19.2l-0.3-0.4l1.1-1.7l0.7,1.3c1.1,2,1.6,3.1,1.7,3.4l-0.1,0.2
				c-0.2-0.1-0.6-0.4-1.2-1h-0.2l-0.1,0.1c1.3,7.5,1.9,12.4,1.9,14.8c-0.1,1.1-0.4,2.4-0.9,3.9c-0.1,0.3-0.2,0.4-0.3,0.5L77.1,131.5
				L77.1,131.5z M77.3,150.3c0-0.5,0.3-1.4,0.8-2.5l0.2-0.4v-0.1c0.1-0.1,0.1-0.1,0.1,0s0,0.1,0,0.2c0,0.1-0.1,0.4-0.3,0.9
				s-0.3,0.9-0.3,1.1c0,0.6,0.2,0.9,0.5,0.9c0.1-0.1,0.2-0.2,0.3-0.5l0.1-0.3c0.1-0.1,0.1,0,0.1,0.3c-0.1,0.4-0.1,0.7-0.2,0.9
				c-0.1,0.3-0.3,0.4-0.4,0.5h-0.1C77.6,151.4,77.3,151,77.3,150.3z M77.9,97.9c0.1-0.1,0.6-0.4,1.4-1c0.8-0.6,3.1-1.9,7-3.9
				c4.4-2.4,6.7-3.8,6.7-4.1c0-0.9-3.3-1.3-9.9-1.3l-4.5,0.2c-0.8,0-1.1-0.1-1.1-0.3c0-0.2,0.9-1.8,2.8-5c0.7-1.1,1.9-1.8,3.8-2.2
				c0.6-0.1,2.1-0.2,4.5-0.2c7.6,0,11.4,0.9,11.4,2.6c0,0.8-0.9,2.4-2.7,4.9c-2,2.8-3.9,4.9-5.7,6.2c-1.2,0.8-5.1,2.1-11.8,3.8
				L78.1,98C78,98,77.9,97.9,77.9,97.9z M90,160.1c0.1-0.3,0.2-0.6,0.1-0.9l-0.6,0.9c0.1,0.1,0.1,0.2,0.1,0.4c-0.3,0-0.4,0-0.6,0
				c-0.4,0-0.6-0.2-0.6-0.7c0.1-0.1,0.1-0.2,0.2-0.3c-0.1,0-0.3,0.1-0.6,0.3c-0.4,0.3-0.8,0.5-0.9,0.6s-0.4,0-0.8-0.3
				c-0.3-0.3-0.9-0.2-1.7,0.4c-0.6,0.5-1.3,0.9-1.9,1.2c-0.9,0.6-2.2,1-3.9,1.3c1.8,0.1,3.5-0.5,5-1.6c0.6-0.5,1.2-0.7,1.6-0.7
				c0.2,0,0.3,0.1,0.5,0.2c0.3,0.2,0.5,0.3,0.7,0.3s0.5-0.2,0.8-0.5l0.4-0.5c-0.1,0.6,0.1,1,0.6,1C89.1,161.4,89.6,161,90,160.1z
				 M80.8,139.3c0-0.4,0.3-1.3,0.8-2.5l0.1-0.4l0.1-0.1c0.1-0.1,0.1-0.1,0.1,0s0,0.1,0,0.2s-0.1,0.4-0.3,0.9s-0.3,0.9-0.3,1.2
				c0,0.6,0.1,0.9,0.4,0.9c0.1,0,0.3-0.1,0.4-0.4l0.1-0.3c0-0.1,0,0,0,0.3c0,0.3,0,0.6-0.1,0.9c-0.1,0.3-0.3,0.4-0.5,0.5
				C81.1,140.5,80.8,140.1,80.8,139.3z M81.5,114.3c0-0.7,0.3-1.9,1-3.7l0.2-0.5l0.1-0.2c0.1-0.1,0.1-0.1,0.1,0c0,0.1,0,0.3,0,0.4
				s-0.2,0.5-0.4,1.2s-0.4,1.3-0.4,1.7c0,0.8,0.2,1.3,0.6,1.3c0.2-0.1,0.3-0.3,0.5-0.7l0.1-0.4c0.1-0.1,0.1,0.1,0.1,0.4
				c-0.1,0.5-0.1,0.9-0.2,1.2c-0.2,0.4-0.4,0.6-0.6,0.8h-0.1C81.8,115.9,81.5,115.4,81.5,114.3z M82.5,121.6c0-0.5,0.3-1.3,0.8-2.5
				l0.1-0.4l0.1-0.1c0.1-0.1,0.1-0.1,0.1,0s0,0.1,0,0.2s-0.1,0.4-0.3,0.9s-0.3,0.9-0.3,1.1c0,0.6,0.1,0.9,0.4,0.9
				c0.2-0.1,0.3-0.2,0.4-0.5l0.1-0.3c0.1,0,0.1,0.1,0.1,0.3c-0.1,0.4-0.1,0.7-0.2,0.9c-0.1,0.3-0.3,0.4-0.5,0.5
				C82.8,122.6,82.5,122.3,82.5,121.6z M83.3,147.1c0.4-0.6,0.9-1.1,1.3-1.5c0.6,0.5,1.2,1.1,1.8,1.7c-0.4,0.6-0.8,1.1-1.2,1.4
				C84.5,148.1,83.9,147.6,83.3,147.1z M92,191c0-0.8-0.4-2.2-1.3-4.2c-0.8-2.1-1.4-3.1-1.7-3.1c-0.3,0-0.4,0.1-0.5,0.2
				s-0.3,0.2-0.7,0.2c-0.3,0-0.8-0.3-1.4-0.9c-0.6-0.6-0.9-1-0.9-1.3c0-0.2,0.3-0.7,0.8-1.6c0.5-0.9,0.8-1.3,0.9-1.3
				c1.3,0,2.4,0.7,3.3,2.2c1,1.5,1.6,3.4,2,5.7c0.1,0.3,0.1,0.4,0.1,0.5h0.1c0.1,0,0.1-0.1,0.2-0.4V187c0.2-1.4,0.7-3.5,1.4-6.3
				c0.9-1.9,1.8-2.9,2.7-2.9c0.5,0,1,0.3,1.5,0.9c0.5,0.6,0.7,1.1,0.7,1.5c0,0.3-0.1,0.7-0.2,1.3c-0.2,0.5-0.4,0.8-0.6,0.8
				c-0.1,0-0.4-0.2-0.8-0.7c-0.4-0.5-0.8-0.7-1.1-0.7c-0.9,0-1.7,2.1-2.4,6.2c-0.3,1.8-0.7,3-1.1,3.8c-0.3,0.5-0.5,0.8-0.7,0.8
				S92,191.4,92,191z M86.4,146.8c0.4-0.6,0.9-1.1,1.3-1.5c0.6,0.5,1.2,1.1,1.8,1.8c-0.4,0.6-0.8,1.1-1.2,1.5
				C87.7,147.9,87,147.3,86.4,146.8z M87.8,133.3c1,0.4,1.5,1,1.6,1.7c0,0.6-0.1,0.9-0.4,1.1c-0.5,0.4-1,0.6-1.5,0.4
				c-0.6-0.2-0.8-0.7-0.7-1.4c0.2-0.8,0.6-1.6,1.2-2.4c0.1-0.1,0.1-0.2,0.1-0.1v0.2L87.8,133.3z M87.2,134.9c-0.1,0.4,0,0.6,0.3,0.7
				c0.4,0.1,0.9,0.1,1.4-0.2c-0.2-0.4-0.7-0.8-1.5-1.1C87.3,134.6,87.2,134.9,87.2,134.9z M95.3,109.3c-2,0.4-3.6,0.7-4.8,1
				l-0.3,0.8c0.3-0.1,0.7-0.2,1.1-0.3c0.9-0.3,2.1-0.5,3.6-0.8L95.3,109.3z M91.9,114.6c-0.1-0.2-0.2-0.5-0.2-1.1s-0.1-1-0.2-1.1
				l0.2-0.9c0.2,0.1,0.3,0.5,0.3,1.4c0,0.8,0.3,1.3,0.7,1.4c0.3-0.1,0.5-0.2,0.8-0.5v-0.4c0-0.5-0.2-1-0.5-1.6l0.4-0.8
				c0.1,0.1,0.2,0.4,0.3,1.1s0.3,1,0.3,1.1c0.3,0.4,0.5,0.6,0.8,0.6s0.4-0.1,0.5-0.2c-0.1-0.2-0.2-0.5-0.3-0.8s-0.3-0.7-0.3-0.9
				c0.2-0.6,0.3-0.9,0.4-0.9v0.1c0,0.1,0,0.2,0,0.5s0.1,0.6,0.4,1c0.1,0.3,0.2,0.7,0.2,1.1c0,0.6-0.3,0.9-0.8,0.9
				c-0.4-0.1-0.8-0.4-1-0.9l-0.2,0.7c-0.1,0.3-0.3,0.5-0.6,0.7c-0.1,0.1-0.3,0.1-0.6,0.1C92.2,114.8,92,114.7,91.9,114.6z
				 M99.6,146.5c-2.9,0.4-5.2,0.9-7.1,1.2l-0.3,0.9c0.4-0.1,0.9-0.3,1.5-0.4c1.4-0.3,3.2-0.6,5.4-0.9L99.6,146.5z M92.3,237
				c0-0.1,0.5-0.7,1.4-1.8c4.6-5,6.9-8.3,6.9-10s-0.7-2.4-2.2-2.4c-0.8,0-1.5,0.2-2.1,0.6c-0.6,0.4-1,0.6-1.1,0.7l-0.3-0.2l0.3-1.3
				c0.8-3.4,2.5-5.2,5.2-5.2c2.3,0,3.4,1.4,3.4,4.3c0,2.1-0.9,4.5-2.6,7.2s-4,5.1-6.8,7.1C93.2,236.7,92.6,237.1,92.3,237
				C92.3,237.1,92.3,237.1,92.3,237z M105.9,115.7c-5,1.1-9.1,1.9-12.2,2.6l-0.5,0.9c0.8-0.3,1.7-0.5,2.7-0.8c2.4-0.6,5.5-1.2,9.2-2
				L105.9,115.7z M95.7,161.4c0-0.4,0.3-1.3,0.8-2.5l0.1-0.4l0.1-0.1c0.1-0.1,0.1-0.1,0.1,0s0,0.1,0,0.2c0,0.1-0.1,0.4-0.3,0.9
				s-0.3,0.9-0.3,1.2c0,0.6,0.1,0.9,0.4,0.9c0.2,0,0.3-0.1,0.4-0.4L97,161c0.1-0.1,0.1,0,0.1,0.3c-0.1,0.3-0.1,0.6-0.2,0.9
				c-0.1,0.3-0.3,0.4-0.5,0.5C95.9,162.6,95.7,162.2,95.7,161.4z M99,99.2c42.6-15.9,64.1-23.8,64.3-23.8c0.1,0,0.2,0.1,0.2,0.3
				s-0.1,0.4-0.2,0.8c-0.8,1.8-1.3,2.9-1.6,3.2c-0.4,0.3-10.5,4.2-30.5,11.7c-20.4,7.7-31.8,12.2-34.2,13.5
				C97.3,103.2,98,101.3,99,99.2z M106.5,130.4c-2.9,0.4-5.2,0.8-7.1,1.1l-0.3,0.9c0.4-0.1,0.9-0.2,1.5-0.3c1.4-0.3,3.2-0.6,5.3-0.9
				L106.5,130.4z M104.7,125.9c0.8-0.2,1.6-0.4,2.1-0.6c0.3-0.2,0.6-0.4,0.9-0.6c0.3-0.2,0.4-0.4,0.4-0.8c-0.1-0.8-0.4-1.4-0.8-1.8
				c-0.4-0.5-1.1-0.7-2.1-0.7c-1.2,0.1-2.3,0.6-3.3,1.5c-1,0.9-1.9,1.8-2.6,2.8c0.9,0.3,1.9,0.4,3,0.4l0.1,0.1
				C103.1,126.3,103.9,126.2,104.7,125.9z M100.1,113c0-0.5,0.2-1.3,0.7-2.4l0.2-0.4v-0.1c0.1-0.1,0.1-0.1,0.1,0s0,0.1,0,0.2
				c0,0.1-0.1,0.4-0.3,0.8s-0.3,0.8-0.3,1.1c0,0.6,0.2,0.9,0.5,0.9c0.1-0.1,0.2-0.2,0.3-0.4l0.1-0.4v0.4c0,0.3,0,0.6-0.1,0.8
				c-0.1,0.3-0.3,0.4-0.4,0.5h-0.1C100.3,114.1,100.1,113.7,100.1,113z M103.5,151.9c-0.4,0.3-0.6,0.7-0.6,1.3
				c0,0.4,0.2,0.7,0.6,0.9c0.4,0.2,0.9,0.4,1.4,0.5c0.5,0.1,1,0.1,1.4,0.1c0.1-0.1,0.3-0.1,0.5-0.1s0.4,0,0.6,0s0.4,0,0.4-0.1
				c-0.1-0.7-0.4-1.4-0.9-2c-0.5-0.6-1.1-1-1.9-1C104.4,151.6,103.9,151.7,103.5,151.9z M106.9,146.9c0-0.4,0.2-1.3,0.7-2.4l0.2-0.4
				l0.1-0.2c0.1-0.1,0.1-0.1,0.1,0.1s0,0.2,0,0.2s-0.1,0.4-0.3,0.9s-0.3,0.9-0.3,1.2c0,0.6,0.1,0.9,0.4,0.9c0.1-0.1,0.3-0.2,0.4-0.5
				l0.1-0.3c0-0.1,0,0,0,0.3c0,0.3,0,0.6-0.1,0.9c-0.1,0.3-0.3,0.4-0.5,0.5h-0.1C107.1,148,106.9,147.6,106.9,146.9z M115.5,78.1
				c0.4-0.4,0.7-1,0.7-1.7c0-0.8-0.4-1.1-1.2-1.1c-0.4,0-0.8,0.1-1,0.4c0-0.4,0.3-1.1,0.9-2c0.6-0.9,1.2-1.6,1.7-2.1l0.1-0.3
				c0-0.1,0-0.2-0.1-0.2h-0.2c-0.7,0.4-1.5,1.3-2.4,2.6c-0.9,1.3-1.3,2.4-1.3,3.4c0,1.1,0.5,1.7,1.5,1.7
				C114.6,78.8,115.1,78.6,115.5,78.1z M126,228.6c0-1.4-0.8-4-2.4-7.9s-2.7-5.9-3.3-5.9c-0.5,0-0.8,0.1-0.9,0.4s-0.5,0.4-1.1,0.4
				c-0.7,0-1.6-0.5-2.7-1.6c-1.1-1-1.7-1.9-1.7-2.5c0-0.3,0.5-1.2,1.4-2.8c0.9-1.6,1.5-2.4,1.8-2.4c2.3,0,4.3,1.4,6.2,4.1
				s3.1,6.3,3.8,10.8l0.3,0.9l0.4-0.9c0.4-2.6,1.3-6.6,2.7-11.9c1.6-3.7,3.3-5.6,5.1-5.6c0.9,0,1.9,0.6,2.8,1.8
				c0.9,1.2,1.4,2.1,1.4,2.8c0,0.5-0.2,1.2-0.5,2.1c-0.4,1.2-0.8,1.8-1.3,1.8c-0.2,0-0.6-0.4-1.3-1.4s-1.4-1.4-2.2-1.4
				c-1.6,0-3.2,3.9-4.6,11.7c-0.6,3.4-1.2,5.8-2,7.1c-0.6,0.9-1,1.4-1.4,1.4C126.2,229.8,126,229.4,126,228.6z M117.1,171.3
				c0.4-0.4,0.6-0.9,0.6-1.5c-0.1-0.7-0.5-1-1.2-1c-0.3,0-0.6,0.1-0.9,0.4c0-0.4,0.3-1.1,0.8-1.9c0.5-0.8,1.1-1.4,1.6-1.9
				c0.1-0.1,0.1-0.2,0.1-0.3l-0.1-0.2c-0.5,0-1.3,0.8-2.3,2.4c-0.8,1.2-1.2,2.2-1.2,3.1c0,1,0.4,1.5,1.3,1.5
				C116.2,171.9,116.6,171.7,117.1,171.3z M125.4,248.2c0.4-0.4,0.7-1,0.7-1.7c0-0.8-0.4-1.1-1.2-1.1c-0.4,0-0.7,0.1-1,0.4
				c0-0.4,0.3-1.1,0.9-2c0.6-0.9,1.2-1.6,1.7-2.1l0.1-0.4v-0.2l-0.2,0.1c-0.8,0.4-1.6,1.3-2.4,2.6c-0.9,1.3-1.3,2.4-1.3,3.4
				c0,1.1,0.5,1.7,1.5,1.7C124.5,248.9,124.9,248.7,125.4,248.2z M130.8,103.3c11.5-4.1,23.6-8.6,36.4-13.3c0.4-0.2,0.8-0.3,1-0.3
				c0.2,0,0.3,0.1,0.3,0.4l-0.2,0.8c-0.8,1.8-1.4,2.9-1.9,3.3c-10.7,3.8-23.3,8.7-37.7,14.7C129.2,107.2,129.9,105.3,130.8,103.3z
				 M134.1,76.6c0-0.2,0.4-0.7,1.2-1.5c3.8-4.2,5.7-7,5.7-8.4s-0.6-2.1-1.9-2.1c-0.7,0-1.3,0.2-1.7,0.5s-0.8,0.5-0.9,0.5l-0.2-0.1
				l0.2-1.1c0.6-2.9,2.1-4.3,4.3-4.3c1.9,0,2.8,1.2,2.8,3.6c0,1.8-0.7,3.8-2.2,6.1c-1.5,2.3-3.4,4.3-5.7,5.9
				C134.9,76.3,134.3,76.6,134.1,76.6C134.2,76.6,134.1,76.6,134.1,76.6z M144.1,133c-0.9-1.2-1.3-2.9-1.3-5v-5.1
				c0-0.4-0.3-0.7-0.9-0.9c-0.6-0.2-0.9-0.6-0.9-1.3c0-1.1,0.4-2.2,1.4-3.2c0.9-1,1.6-1.5,2-1.5c0.6,0,0.9,1.1,0.9,3.4
				c0,1.1-0.1,2.1-0.3,2.9c-0.2,0.8-0.3,1.5-0.3,2c0,1.2,0.3,2.4,0.8,3.6s1.2,1.8,2.1,1.8c1.1,0,2.2-0.5,3.1-1.5
				c0.9-1,1.4-2.2,1.4-3.6c0-0.8-0.2-2.1-0.7-3.9c-0.4-1.9-0.7-3.1-0.7-3.6c0-0.4,0.2-1,0.6-1.9s0.7-1.3,0.9-1.3
				c0.4,0,0.9,1.3,1.5,3.8s0.9,4.4,0.9,5.6c0,3.4,1.4,5.2,4,5.2c1.1,0,1.9-0.6,2.2-1.7c-2.3-4.1-3.5-7.2-3.5-9.3
				c0-1.3,0.3-2.3,0.9-3.3c0.4-0.6,0.7-1,0.9-1c0.2,0,0.3,0.4,0.4,1.2c0.1,1.2,0.3,2.2,0.6,2.9l1.7,4.2c0.6,1.6,0.9,2.9,0.9,3.8
				c0,1.6-0.4,3.2-1,5c-0.9,2.2-2.2,3.3-3.7,3.3c-2.3,0-4-1.6-5-4.8c-1.1,4.1-3.1,6.2-6.1,6.2C145.9,134.8,145,134.2,144.1,133z
				 M153.5,242.4c0-5.4,1.6-11.2,4.7-17.2c0.8-1.5,1.3-2.3,1.4-2.3c0.1,0,0.1,0,0.1,0.1c0,0.3-0.2,1.1-0.7,2.4
				c-2.1,6.3-3.1,10.6-3.1,13.2c0,3.4,0.9,5.2,2.7,5.2c1.1,0,2.3-1.3,3.7-3.9c0.2-0.4,0.3-0.6,0.5-0.6c0.1,0,0.1,0,0.1,0.1
				c0,0.1,0.1,0.1,0.1,0.3l-0.1,0.4c-1.1,6-2.9,9-5.4,9C154.8,249.1,153.5,246.8,153.5,242.4z M160.3,111.6c0-0.2,0.6-0.7,1.8-1.4
				l14.6-8.7c5.8-3.5,10.2-6.8,13.1-9.8c-3.8-2-5.7-4.1-5.7-6.2c0-2.6,1.2-5,3.7-7.2c1.9-1.8,3.5-2.6,5-2.6c2.1,0,3.1,1.5,3.1,4.6
				c0,2.2-0.5,4.6-1.4,7.3c1.9,1.1,3.2,2.1,3.7,2.8c0,1.1-0.9,2.8-2.6,5.3c-0.4-0.8-1.6-1.8-3.5-2.8c-2.1,2.9-4.8,5.6-8.1,8.1
				c-3.8,2.8-7.2,4.8-10.3,6.2c-0.7,0.3-4.3,1.7-10.8,4.1c-1.1,0.4-1.8,0.6-2.1,0.6C160.4,111.8,160.3,111.7,160.3,111.6z
				 M172.8,72.9c0.4-0.4,0.7-1,0.7-1.7c0-0.8-0.4-1.1-1.2-1.1c-0.4,0-0.7,0.1-1,0.3c0-0.4,0.3-1.1,0.9-2c0.6-0.9,1.2-1.6,1.7-2.1
				c0.1-0.1,0.1-0.2,0.1-0.3v-0.1c0-0.1,0-0.1-0.1-0.1l-0.2,0.1c-0.7,0.4-1.5,1.3-2.4,2.6c-0.9,1.3-1.3,2.4-1.3,3.4
				c0,1.1,0.5,1.6,1.5,1.6C172,73.5,172.4,73.3,172.8,72.9z M184,235.3c0.4-0.4,0.7-1,0.7-1.7c0-0.8-0.4-1.1-1.2-1.1
				c-0.4,0-0.7,0.1-1,0.4c0-0.4,0.3-1.1,0.9-2c0.6-0.9,1.2-1.6,1.7-2.1l0.1-0.3c0-0.1,0-0.2-0.1-0.2h-0.2c-0.7,0.4-1.5,1.3-2.4,2.6
				c-0.9,1.3-1.3,2.4-1.3,3.4c0,1.1,0.5,1.7,1.5,1.7C183.2,236,183.6,235.8,184,235.3z M200.8,123.9c0-1-1.9-2.3-5.7-3.9
				c-3.2-1.4-5.7-2.1-7.5-2.1c-1.2,0-1.8,0.3-1.8,0.8c0,0.6,1.4,3.7,4.3,9.1C195.6,126,199.2,124.7,200.8,123.9z M192.5,84
				c0-2.1-0.6-3.2-1.9-3.2c-0.5,0-1.1,0.2-1.9,0.7s-1.2,0.9-1.2,1.3c0,0.9,1.5,2.1,4.6,3.6C192.4,85.5,192.5,84.7,192.5,84z
				 M197.6,214c-1.3-1.1-1.9-2.4-1.9-3.9c0-2.8,1.2-5.7,3.6-8.6c4.9-5.2,7.4-7.9,7.4-8.1c0-0.3-0.3-0.5-0.8-0.7
				c-1.8-0.6-3.6-0.9-5.6-0.9c-1.1,0-2.4,0.3-3.7,0.9l-0.4,0.1c-0.1,0-0.2-0.1-0.2-0.2l0.1-0.5c0.8-1.9,1.7-3.3,2.6-4
				s2.5-1.1,4.6-1.1c4.8,0,7.2,1.2,7.2,3.6c0,1.8-1.5,4.3-4.6,7.5l-6.6,6.7c-0.9,1.3-1.4,2.3-1.4,3.2c0,1.9,2.2,2.9,6.7,2.9
				c4.1,0,8.5-0.7,13.2-2.1c1-0.3,1.6-0.5,1.9-0.5l0.1,0.1c0,0.2-0.5,0.7-1.4,1.6c-4.1,3.7-9.4,5.6-15.9,5.6
				C200.6,215.6,198.9,215.1,197.6,214z M201,154.8c3.1-3.3,4.6-5.6,4.6-6.7c0-1.1-0.5-1.6-1.5-1.6c-0.6,0-1,0.1-1.4,0.4
				c-0.4,0.3-0.6,0.4-0.7,0.5l-0.2-0.2l0.1-0.9c0.5-2.3,1.7-3.5,3.5-3.5c1.5,0,2.3,1,2.3,2.9c0,1.4-0.6,3-1.7,4.8
				c-1.2,1.8-2.7,3.4-4.6,4.7c-0.8,0.5-1.2,0.8-1.3,0.8C200,155.9,200.3,155.5,201,154.8z M218.2,108c0.4-0.4,0.7-1,0.7-1.7
				c0-0.8-0.4-1.1-1.3-1.1c-0.4,0-0.7,0.1-0.9,0.4c0-0.4,0.3-1.1,0.9-2c0.6-0.9,1.1-1.6,1.6-2.1c0.1-0.1,0.2-0.2,0.2-0.3
				c0-0.1,0-0.2-0.1-0.2l-0.2,0.1c-0.8,0.4-1.6,1.3-2.4,2.6c-0.9,1.3-1.3,2.4-1.3,3.4c0,1.1,0.5,1.6,1.5,1.6
				C217.3,108.7,217.7,108.5,218.2,108z M224.5,141.8c0-5.4,1.6-11.2,4.7-17.2c0.8-1.4,1.3-2.2,1.4-2.3c0.1,0,0.1,0,0.1,0.1
				c0,0.3-0.2,1.1-0.7,2.4c-2.1,6.3-3.1,10.6-3.1,13.2c0,3.4,0.9,5.2,2.8,5.2c1.1,0,2.3-1.3,3.6-3.9c0.2-0.4,0.3-0.6,0.5-0.6
				c0.1,0,0.1,0,0.1,0.1c0,0.1,0.1,0.2,0.1,0.3l-0.1,0.4c-1.1,6-2.9,9-5.4,9C225.8,148.5,224.5,146.2,224.5,141.8z M226.4,191.1
				c0-0.1,0.2-0.3,0.6-0.7c1.8-2,2.7-3.4,2.7-4.2c0-0.5-0.3-0.8-0.9-0.8c-0.3,0-0.6,0.1-0.9,0.2l-0.4,0.3l-0.2-0.1
				c0.1-0.1,0.1-0.2,0.1-0.5c0.3-1.4,1-2.2,2.1-2.2c0.9,0,1.4,0.6,1.4,1.8c0,0.8-0.4,1.8-1,2.9c-0.7,1.1-1.6,2-2.7,2.8
				C226.8,191,226.5,191.2,226.4,191.1L226.4,191.1L226.4,191.1z"/>
		</g>
	</g>
</g>
<g display="none">
	<g display="inline">
		<g id="XMLID_4_">
			<g>
				<path fill="#EC5B1A" d="M240.1,147.7c-1.4,0-2.7,3.2-3.8,9.7l-1.7-0.3c0.3-2.2,1.1-5.4,2.2-9.5c1.3-3.2,2.8-4.7,4.3-4.7
					c0.8,0,1.6,0.5,2.4,1.6c0.7,0.9,1,1.7,1,2.3c0,0.5-0.1,1-0.4,1.8c-0.3,1-0.7,1.5-1.1,1.5c-0.2,0-0.5-0.4-1.1-1.1
					C241.3,148,240.7,147.7,240.1,147.7z"/>
				<path fill="#EC5B1A" d="M236.2,157.5c-0.5,2.8-1.1,4.9-1.7,6c-0.4,0.8-0.8,1.2-1.1,1.2c-0.3,0-0.4-0.4-0.4-1.1
					c0-1.2-0.7-3.4-2-6.7c-1.3-3.3-2.3-5-2.8-5c-0.4,0-0.6,0.1-0.7,0.4c-0.1,0.2-0.4,0.4-0.9,0.4c-0.6,0-1.4-0.4-2.3-1.3
					c-1-0.9-1.4-1.6-1.4-2.1c0-0.2,0.4-1,1.2-2.4c0.8-1.3,1.3-2,1.5-2c2,0,3.7,1.2,5.2,3.5c1.5,2.3,2.6,5.3,3.3,9.1
					c0.1,0.4,0.1,0.6,0.1,0.7c0.1,0.1,0.1,0.1,0.2,0c0-0.1,0.1-0.3,0.3-0.7c0-0.1,0-0.3,0.1-0.4l1.7,0.3
					C236.2,157.4,236.2,157.5,236.2,157.5z"/>
				<path fill="#EB9F16" d="M229.6,193.6c0-2.1,1-4.6,3-7.5c1.7-2.6,3.4-4.3,4.9-5.3c0.3-0.2,0.5-0.2,0.6,0c0.1,0.2,0,0.5-0.3,0.8
					c-1.2,1.1-2.4,2.5-3.5,4.4c-1.3,2-2,3.4-2,4.4c0.6-0.5,1.3-0.7,2.1-0.7c1.8,0,2.7,0.8,2.7,2.4c0,1.5-0.5,2.7-1.5,3.6
					c-0.9,0.8-1.8,1.3-2.8,1.3C230.6,197.1,229.6,196,229.6,193.6z"/>
				<path fill="#0C697B" d="M233.8,120.9c-1.5,2.4-3.4,4.4-5.8,6c-0.9,0.7-1.5,1-1.7,1c0,0,0,0,0-0.1c0-0.1,0.4-0.6,1.2-1.5
					c3.9-4.2,5.8-7.1,5.8-8.5c0-1.4-0.6-2-1.9-2c-0.7,0-1.3,0.2-1.9,0.6c-0.4,0.3-0.7,0.4-0.8,0.5c-0.1-0.1-0.2-0.1-0.3-0.2
					c0-0.1,0.1-0.5,0.2-1.1c0.6-2.9,2.1-4.4,4.4-4.4c1.9,0,2.9,1.2,2.9,3.6C236,116.7,235.2,118.7,233.8,120.9z"/>
				<path fill="#EC5B1A" d="M223.7,175.7c-0.8,1.2-1.8,2.3-3,3.1c-0.5,0.3-0.8,0.5-0.9,0.5c0,0,0,0,0,0c0-0.1,0.2-0.3,0.6-0.8
					c2-2.2,3-3.6,3-4.4c0-0.7-0.3-1-1-1c-0.3,0-0.7,0.1-1,0.3c-0.2,0.1-0.4,0.2-0.4,0.2c0,0-0.1-0.1-0.1-0.1c0-0.1,0.1-0.3,0.1-0.6
					c0.3-1.5,1.1-2.3,2.3-2.3c1,0,1.5,0.6,1.5,1.8C224.8,173.5,224.4,174.5,223.7,175.7z"/>
				<path fill="#0C697B" d="M219.8,219.8c2-2.2,3-3.6,3-4.4c0-0.7-0.3-1-1-1c-0.3,0-0.7,0.1-1,0.3c-0.2,0.1-0.3,0.2-0.4,0.2
					c0,0-0.1-0.1-0.1-0.1c0-0.1,0.1-0.3,0.1-0.6c0.3-1.5,1.1-2.3,2.3-2.3c1,0,1.5,0.6,1.5,1.8c0,0.9-0.4,1.9-1.1,3.1
					c-0.8,1.2-1.8,2.3-3,3.1c-0.5,0.3-0.8,0.5-0.9,0.5c0,0,0,0,0,0C219.2,220.5,219.4,220.2,219.8,219.8z"/>
				<path fill="#EC5B1A" d="M220.3,93.4c-0.7,1-1,1.8-1,2.3c0.3-0.3,0.7-0.4,1.1-0.4c0.9,0,1.4,0.4,1.4,1.2c0,0.8-0.3,1.4-0.8,1.9
					c-0.4,0.4-0.9,0.6-1.4,0.6c-1.1,0-1.6-0.6-1.6-1.8c0-1.1,0.5-2.4,1.5-3.8c0.9-1.3,1.7-2.2,2.5-2.7c0.2-0.1,0.3-0.1,0.3,0
					c0.1,0.1,0,0.3-0.1,0.4C221.5,91.7,220.9,92.4,220.3,93.4z"/>
				<path fill="#EB9F16" d="M215.7,135c0-1.1,0.5-2.4,1.5-3.8c0.9-1.3,1.7-2.2,2.5-2.7c0.2-0.1,0.3-0.1,0.3,0c0.1,0.1,0,0.3-0.1,0.4
					c-0.6,0.5-1.2,1.3-1.8,2.3c-0.7,1-1,1.8-1,2.3c0.3-0.3,0.7-0.4,1.1-0.4c0.9,0,1.4,0.4,1.4,1.2c0,0.8-0.3,1.4-0.8,1.9
					c-0.4,0.4-0.9,0.6-1.4,0.6C216.3,136.8,215.7,136.2,215.7,135z"/>
				<path fill="#0C697B" d="M205.9,233.1c-0.2-0.9-0.1-2.8,0.2-5.7c0.4-4,0.7-8.6,0.7-13.9c0-4.8-1.2-24.4-3.7-58.9
					c-2.4-34.5-3.6-53.8-3.6-57.9c0-4.8-0.8-8.7-2.2-11.8c0-1.7,1.4-5.9,4.2-12.4c0.3-0.8,0.6-1.2,0.9-1.2c0.3,0,0.6,0.4,1,1.3
					c0.8,1.7,2.6,6.4,5.5,14c3,8,4.8,12.8,5.3,14.7c0.4,1.4,0.6,2.4,0.6,3.1c0,2.2-2.1,0.9-6.3-3.9c-0.5-0.7-0.7-0.4-0.7,0.9
					c0,0.5,1.1,15.7,3.3,45.9c2.2,30.1,3.3,47.1,3.3,50.8c0,11.6-1.8,21.8-5.3,30.6c-0.7,1.8-1.3,3.1-1.8,3.9c-0.4,0.7-0.7,1-0.9,1
					C206.1,233.6,206,233.4,205.9,233.1z"/>
				<path fill="#0C697B" d="M190.2,68c0.3-1.5,1.1-2.3,2.3-2.3c1,0,1.5,0.6,1.5,1.8c0,0.9-0.4,1.9-1.1,3.1c-0.8,1.2-1.8,2.3-3,3.1
					c-0.5,0.3-0.8,0.5-0.9,0.5c0,0,0,0,0,0c0-0.1,0.2-0.3,0.6-0.8c2-2.2,3-3.6,3-4.4c0-0.7-0.3-1-1-1c-0.3,0-0.7,0.1-1,0.3
					c-0.2,0.1-0.3,0.2-0.4,0.2c0,0-0.1-0.1-0.1-0.1C190.1,68.5,190.2,68.3,190.2,68z"/>
				<path fill="#EC5B1A" d="M185.4,245.6c-0.8,1.2-1.8,2.3-3,3.1c-0.5,0.3-0.8,0.5-0.9,0.5c0,0,0,0,0,0c0-0.1,0.2-0.3,0.6-0.8
					c2-2.2,3-3.6,3-4.4c0-0.7-0.3-1-1-1c-0.3,0-0.7,0.1-1,0.3c-0.2,0.1-0.3,0.2-0.4,0.2c0,0-0.1-0.1-0.1-0.1c0-0.1,0.1-0.3,0.1-0.6
					c0.3-1.5,1.1-2.3,2.3-2.3c1,0,1.5,0.6,1.5,1.8C186.5,243.4,186.2,244.4,185.4,245.6z"/>
				<path fill="#0C697B" d="M181.8,88.9c1.1-2.7,2.4-4.1,3.7-4.1c0.7,0,1.4,0.5,2.1,1.4c0.6,0.8,0.9,1.5,0.9,2
					c0,0.4-0.1,0.9-0.3,1.5c-0.3,0.8-0.6,1.3-0.9,1.3c-0.1,0-0.5-0.3-1-1c-0.5-0.6-1-1-1.6-1c-1.2,0-2.3,2.8-3.3,8.3l-1.5-0.3
					C180.1,95.2,180.8,92.5,181.8,88.9z"/>
				<path fill="#0C697B" d="M179.8,97.5c0-0.1,0-0.2,0.1-0.4l1.5,0.3c0,0,0,0.1,0,0.1c-0.4,2.4-0.9,4.2-1.5,5.2c-0.4,0.7-0.7,1-1,1
					c-0.2,0-0.4-0.3-0.4-0.9c0-0.8-0.4-2.2-1.1-4.2l2.1-0.5c0,0,0.1,0,0.1-0.1C179.6,98,179.7,97.8,179.8,97.5z"/>
				<path fill="#EB9F16" d="M178.4,135.4c3.3-3.6,5-6.1,5-7.3c0-1.2-0.5-1.7-1.6-1.7c-0.6,0-1.1,0.2-1.6,0.5
					c-0.4,0.2-0.6,0.4-0.7,0.4c-0.1-0.1-0.1-0.1-0.2-0.1c0-0.1,0.1-0.4,0.2-0.9c0.5-2.5,1.8-3.8,3.8-3.8c1.6,0,2.5,1,2.5,3.1
					c0,1.5-0.6,3.3-1.9,5.2c-1.3,2-2.9,3.8-5,5.2c-0.8,0.6-1.3,0.9-1.4,0.9c0,0,0,0,0-0.1C177.3,136.6,177.7,136.1,178.4,135.4z"/>
				<path fill="#0C697B" d="M179.3,97.5c0.1,0.3,0.1,0.5,0.1,0.6c0,0,0,0,0,0.1l-2.1,0.5c-0.2-0.5-0.4-1-0.6-1.5
					c-1.1-2.9-1.9-4.3-2.4-4.3c-0.3,0-0.5,0.1-0.6,0.3c-0.1,0.2-0.4,0.3-0.8,0.3c-0.5,0-1.2-0.4-2-1.1c-0.8-0.7-1.2-1.3-1.2-1.8
					c0-0.2,0.3-0.9,1-2c0.7-1.2,1.1-1.7,1.3-1.7c1.7,0,3.2,1,4.5,3C177.9,91.7,178.8,94.3,179.3,97.5z"/>
				<path fill="#EC5B1A" d="M171.1,60.3c-0.5,0-0.9,0.1-1.4,0.4c-0.3,0.2-0.5,0.3-0.5,0.3c-0.1-0.1-0.1-0.1-0.2-0.1
					c0-0.1,0.1-0.4,0.2-0.8c0.5-2.1,1.5-3.1,3.1-3.1c1.4,0,2,0.9,2,2.6c0,1.3-0.5,2.7-1.6,4.3c-1.1,1.7-2.4,3.1-4.1,4.3
					c-0.7,0.5-1.1,0.7-1.2,0.7c0,0,0,0,0,0c0-0.1,0.3-0.5,0.9-1.1c2.8-3,4.2-5.1,4.2-6.1C172.5,60.8,172,60.3,171.1,60.3z"/>
				<path fill="#EC5B1A" d="M157.4,77.3c0.9-1.3,1.7-2.2,2.5-2.7c0.2-0.1,0.3-0.1,0.3,0c0.1,0.1,0,0.3-0.1,0.4
					c-0.6,0.5-1.2,1.3-1.8,2.2c-0.7,1-1,1.8-1,2.3c0.3-0.3,0.7-0.4,1.1-0.4c0.9,0,1.4,0.4,1.4,1.2c0,0.7-0.3,1.4-0.8,1.9
					c-0.4,0.4-0.9,0.6-1.4,0.6c-1.1,0-1.6-0.6-1.6-1.8C155.9,80.1,156.4,78.8,157.4,77.3z"/>
				<path fill="#EC5B1A" d="M158.5,132.5c-0.9,2-1.9,3-3.3,3c-2.1,0-3.6-1.5-4.5-4.4l-2.2-0.4c0.9-0.9,1.3-2,1.3-3.2
					c0-0.7-0.2-1.9-0.6-3.6c-0.4-1.7-0.6-2.8-0.6-3.2c0-0.4,0.2-0.9,0.6-1.8c0.4-0.8,0.6-1.2,0.8-1.2c0.3,0,0.8,1.1,1.3,3.4
					c0.5,2.3,0.8,3.9,0.8,5c0,3.1,1.2,4.7,3.6,4.7c1,0,1.7-0.5,1.9-1.6l1.6,0.2C159.2,130.5,158.9,131.5,158.5,132.5z"/>
				<path fill="#EC5B1A" d="M156.5,118.1c0.1,1,0.3,1.9,0.5,2.6c0,0.1,0.5,1.4,1.5,3.9c0.6,1.5,0.9,2.6,0.9,3.4c0,0.5,0,1-0.1,1.6
					l-1.6-0.2c-2.1-3.7-3.1-6.5-3.1-8.4c0-1.1,0.3-2.1,0.8-3c0.4-0.6,0.6-0.9,0.8-1C156.3,117,156.4,117.4,156.5,118.1z"/>
				<path fill="#0C697B" d="M152.5,256.2c0-0.8-0.5-2.4-1.4-4.8c-0.9-2.4-1.6-3.6-2-3.6c-0.3,0-0.5,0.1-0.5,0.3
					c-0.1,0.2-0.3,0.3-0.7,0.3c-0.4,0-1-0.3-1.7-0.9c-0.7-0.6-1-1.1-1-1.5c0-0.2,0.3-0.7,0.8-1.7c0.6-1,0.9-1.4,1.1-1.4
					c1.4,0,2.6,0.8,3.7,2.5c1.1,1.6,1.9,3.8,2.3,6.5c0,0.3,0.1,0.4,0.1,0.5c0.1,0.1,0.1,0.1,0.1,0c0,0,0.1-0.2,0.2-0.5
					c0.2-1.6,0.8-4,1.6-7.1c0.9-2.3,2-3.4,3.1-3.4c0.6,0,1.1,0.4,1.7,1.2c0.5,0.7,0.7,1.2,0.7,1.6c0,0.3-0.1,0.8-0.3,1.3
					c-0.2,0.7-0.5,1-0.8,1c-0.1,0-0.4-0.3-0.8-0.8c-0.4-0.5-0.8-0.8-1.3-0.8c-1,0-1.9,2.4-2.7,7c-0.4,2-0.8,3.5-1.2,4.3
					c-0.3,0.6-0.6,0.9-0.8,0.9C152.6,257,152.5,256.8,152.5,256.2z"/>
				<path fill="#EC5B1A" d="M148.5,130.7l2.2,0.4c-1,3.7-2.8,5.6-5.5,5.6c-1,0-1.9-0.5-2.6-1.5c-0.9-1.2-1.3-2.8-1.3-4.7v-3.3h1.8
					c0,1.1,0.2,2.1,0.7,3.1c0.5,1.2,1.2,1.7,2,1.7C146.7,132.1,147.6,131.6,148.5,130.7z"/>
				<path fill="#0C697B" d="M138.1,86.2c-0.4-0.3-0.4-0.7-0.2-1.2l1.7-3c0.2-0.3,0.4-0.3,0.7,0c5.8,4.3,8.7,10.1,8.7,17.5
					c0,2.3-0.4,4.5-1.2,6.5c-0.4,0.9-0.7,1.3-1,1.3c-0.4,0-0.4-0.6-0.2-1.7c0.2-1,0.3-2.3,0.3-3.9C146.9,96.6,144,91.4,138.1,86.2z"
					/>
				<path fill="#0C697B" d="M144.4,61.4c0-1.5,0.7-3.3,2.1-5.3c1.2-1.8,2.4-3.1,3.5-3.8c0.2-0.1,0.4-0.1,0.4,0
					c0.1,0.2,0,0.4-0.2,0.6c-0.8,0.8-1.7,1.8-2.5,3.1c-0.9,1.4-1.4,2.5-1.4,3.1c0.4-0.4,0.9-0.5,1.5-0.5c1.3,0,1.9,0.6,1.9,1.7
					c0,1-0.4,1.9-1.1,2.6c-0.6,0.6-1.3,0.9-2,0.9C145.1,63.9,144.4,63.1,144.4,61.4z"/>
				<path fill="#EC5B1A" d="M143.1,127.2h-1.8v-1.3c0-0.4-0.3-0.6-0.8-0.8c-0.5-0.2-0.7-0.5-0.7-1.2c0-1,0.4-2,1.3-3
					c0.8-0.9,1.4-1.3,1.8-1.3c0.5,0,0.8,1,0.8,3c0,1-0.1,1.9-0.3,2.6C143.1,126.1,143.1,126.7,143.1,127.2z"/>
				<path fill="#EB9F16" d="M165.8,107.2c-9.8,3.5-21.2,8-34.2,13.4c0.4-1.5,1-3.2,1.9-5c10.4-3.8,21.3-7.8,33-12
					c0.6-0.2,0.9-0.3,1.1-0.2c0.1,0.1,0.1,0.4-0.1,1C166.8,105.9,166.2,106.9,165.8,107.2z"/>
				<path fill="#EB9F16" d="M132,194.9c-0.2,1.8-0.8,3.5-1.6,4.9c-0.8,1.5-1.7,2.2-2.7,2.2c-1.1,0-1.9-0.5-2.4-1.6
					c-0.5-1.1-0.8-2.6-0.7-4.6c0.1-2.3,0.8-5.3,2.1-9c1.1-3.1,2.1-5.3,3-6.5c0.5-0.7,0.9-1.1,1-1.2c0,0.1-0.1,0.6-0.4,1.3
					c-1.9,4.3-3.1,8.3-3.6,12c-0.1,0.4-0.1,0.9-0.1,1.3c0,2.9,0.7,4.3,2.2,4.2c0.9-0.1,1.8-1.1,2.9-3.1c0.1-0.2,0.2-0.4,0.3-0.4
					c0.1-0.1,0.1,0,0.2,0.1C132,194.5,132,194.6,132,194.9z"/>
				<path fill="#EC5B1A" d="M128.3,56.4c0-0.7-0.3-1-1-1c-0.3,0-0.7,0.1-1,0.3c-0.2,0.1-0.3,0.2-0.4,0.2c0,0-0.1-0.1-0.1-0.1
					c0-0.1,0.1-0.3,0.1-0.6c0.3-1.5,1.1-2.3,2.3-2.3c1,0,1.5,0.6,1.5,1.8c0,0.9-0.4,1.9-1.1,3.1c-0.8,1.2-1.8,2.2-3,3.1
					c-0.5,0.3-0.8,0.5-0.9,0.5c0,0,0,0,0,0c0-0.1,0.2-0.3,0.6-0.8C127.3,58.5,128.3,57.1,128.3,56.4z"/>
				<path fill="#0C697B" d="M128.3,79c-0.8,1.2-1.8,2.3-3,3.1c-0.5,0.3-0.8,0.5-0.9,0.5c0,0,0,0,0,0c0-0.1,0.2-0.3,0.6-0.8
					c2-2.2,3-3.6,3-4.4c0-0.7-0.3-1-1-1c-0.3,0-0.7,0.1-1,0.3c-0.2,0.1-0.3,0.2-0.4,0.2c0,0-0.1-0.1-0.1-0.1c0-0.1,0.1-0.3,0.1-0.6
					c0.3-1.5,1.1-2.3,2.3-2.3c1,0,1.5,0.6,1.5,1.8C129.4,76.8,129,77.8,128.3,79z"/>
				<path fill="#EB9F16" d="M123,147.3c0.3-1.9,0.9-4.6,1.9-8.2c1.1-2.7,2.4-4.1,3.7-4.1c0.7,0,1.4,0.5,2.1,1.4
					c0.6,0.8,0.9,1.5,0.9,2c0,0.4-0.1,0.9-0.3,1.5c-0.3,0.8-0.6,1.3-0.9,1.3c-0.2,0-0.5-0.3-1-1c-0.5-0.6-1-1-1.6-1
					c-1.2,0-2.3,2.8-3.3,8.3L123,147.3z"/>
				<path fill="#EB9F16" d="M122.7,148.2c0-0.1,0.1-0.3,0.2-0.6c0-0.1,0-0.2,0.1-0.4l1.5,0.3c0,0,0,0.1,0,0.2
					c-0.4,2.4-0.9,4.2-1.5,5.2c-0.4,0.7-0.7,1-1,1c-0.2,0-0.4-0.3-0.4-0.9c0-0.8-0.4-2.2-1.1-4.2L122.7,148.2
					C122.7,148.3,122.7,148.3,122.7,148.2z"/>
				<path fill="#EC5B1A" d="M120.6,253.7c0-1.1,0.5-2.4,1.5-3.8c0.9-1.3,1.7-2.2,2.5-2.7c0.2-0.1,0.3-0.1,0.3,0
					c0.1,0.1,0,0.3-0.1,0.4c-0.6,0.6-1.2,1.3-1.8,2.3c-0.7,1-1,1.8-1,2.3c0.3-0.3,0.7-0.4,1.1-0.4c0.9,0,1.4,0.4,1.4,1.2
					c0,0.8-0.3,1.4-0.8,1.9c-0.4,0.4-0.9,0.6-1.4,0.6C121.2,255.5,120.6,254.9,120.6,253.7z"/>
				<path fill="#EB9F16" d="M122.5,147.6c0.1,0.3,0.1,0.5,0.1,0.6c0,0,0,0,0,0.1l-2.1,0.5c-0.2-0.5-0.4-1-0.6-1.5
					c-1.1-2.9-1.9-4.3-2.4-4.3c-0.3,0-0.5,0.1-0.6,0.3c-0.1,0.2-0.4,0.3-0.8,0.3c-0.5,0-1.2-0.4-2-1.1s-1.2-1.3-1.2-1.8
					c0-0.2,0.3-0.9,1-2c0.7-1.2,1.1-1.7,1.3-1.7c1.7,0,3.2,1,4.5,3C121,141.9,122,144.5,122.5,147.6z"/>
				<path fill="#0C697B" d="M119.4,110.5c0.3-0.3,0.5-0.5,0.7-0.7c0.2-0.2,0.3-0.2,0.4-0.1c0.4,0.6,0.8,1.1,1.2,1.5
					c0.4,0.4,0.8,0.7,1.2,0.9c0.3,0.2,0.6,0.4,0.9,0.5c0.3,0.1,0.4,0.2,0.5,0.3c0.1,0.1,0,0.3-0.3,0.7c-0.3,0.4-0.6,0.9-1,1.3
					c-0.4,0.5-0.8,0.9-1.2,1.3c-0.4,0.4-0.7,0.6-0.9,0.6c-0.3,0.1-0.7,0-1.1-0.1c-0.5-0.2-0.9-0.4-1.3-0.7c-0.4-0.3-0.8-0.7-1.1-1
					c-0.3-0.4-0.5-0.7-0.5-1c0-0.1,0-0.3,0.2-0.6c0.2-0.3,0.4-0.6,0.6-0.9c0.3-0.4,0.5-0.7,0.8-1.1
					C118.8,111.1,119.1,110.8,119.4,110.5z"/>
				<path fill="#EB9F16" d="M113.8,92.2c-0.3,0.2-0.6,0.4-0.9,0.6c-0.3,0.2-0.6,0.4-1,0.6c-0.3,0.2-0.6,0.3-0.8,0.4
					c-0.1,0.1-0.2,0.1-0.3,0.1c-0.1,0-0.1,0,0-0.2c0.1-0.1,0.1-0.3,0.2-0.5c0.1-0.2,0.2-0.4,0.3-0.4c0.6-0.3,1.1-0.7,1.7-1
					c0.5-0.3,1.1-0.6,1.6-1c0.2-0.2,0.4-0.2,0.4-0.1c0,0.1,0,0.2-0.1,0.3c-0.1,0.1-0.2,0.3-0.3,0.5c-0.1,0.2-0.2,0.3-0.3,0.3
					C114.3,91.9,114.1,92,113.8,92.2z"/>
				<path fill="#EC5B1A" d="M111.1,104.5c-0.2,0.5-0.4,1-0.7,1.5c-0.2,0.5-0.4,1-0.6,1.5c-0.2,0.5-0.4,0.8-0.5,1.1
					c1.1,0,2.2-0.2,3.2-0.7c1-0.5,1.9-1,2.7-1.6c0.8-0.6,1.4-1.2,1.9-1.7c0.5-0.6,0.8-0.9,0.8-1.2c0-0.2-0.1-0.4-0.3-0.7
					c-0.2-0.3-0.5-0.5-0.9-0.7c-0.4-0.2-0.8-0.4-1.2-0.5c-0.5-0.1-0.9-0.2-1.4-0.2c-0.7,0-1.2,0.2-1.6,0.5c-0.3,0.3-0.7,0.7-0.9,1.3
					C111.5,103.6,111.3,104,111.1,104.5z M108.4,108.6c0.1-0.3,0.3-0.6,0.5-1.2c0.2-0.5,0.5-1.1,0.7-1.6c0.3-0.6,0.5-1.1,0.7-1.6
					c0.2-0.5,0.4-0.9,0.5-1.1c0.4-0.8,0.7-1.5,1.1-2c0.4-0.5,0.7-0.9,1.1-1.2c0.3-0.3,0.7-0.5,1-0.6c0.3-0.1,0.6-0.2,0.8-0.2
					c0.5,0,0.9,0,1.3,0.1c0.3,0.1,0.6,0.2,0.9,0.3s0.5,0.3,0.8,0.4c0.3,0.1,0.6,0.2,1.1,0.2c0.6,0,1.2-0.1,1.7-0.3
					c0.3-0.1,0.5,0,0.5,0.1c0.1,0.2,0.1,0.4,0,0.6c-0.1,0.2-0.2,0.4-0.4,0.7c-0.2,0.3-0.4,0.6-0.6,0.9c-1,1.5-1.9,2.9-2.8,4.4
					c-0.9,1.5-1.9,2.8-2.9,4c-1,1.2-2.1,2.3-3.4,3.1c-1.2,0.9-2.7,1.4-4.3,1.6V108c0.2,0.2,0.5,0.3,0.7,0.4
					C107.9,108.5,108.2,108.5,108.4,108.6z"/>
				<path fill="#EB9F16" d="M105.3,61.6c0-0.1,0.1-0.4,0.1-0.8c0.5-2.1,1.5-3.1,3.1-3.1c1.4,0,2,0.9,2,2.6c0,1.3-0.5,2.7-1.6,4.3
					c-1.1,1.7-2.5,3.1-4.1,4.3c-0.7,0.5-1.1,0.7-1.2,0.7c0,0,0,0,0,0c0-0.1,0.3-0.5,0.8-1.1c2.8-3,4.2-5.1,4.2-6.1
					c0-1-0.5-1.4-1.4-1.4c-0.5,0-0.9,0.1-1.3,0.4c-0.3,0.2-0.5,0.3-0.5,0.3C105.5,61.6,105.4,61.6,105.3,61.6z"/>
				<path fill="#EC5B1A" d="M105.4,86c0.1-0.2,0.2-0.3,0.3-0.3c0.2,0,0.2,0.1,0.2,0.3c-0.1,0.6-0.2,1.4-0.3,2.4
					c-0.1,1-0.1,2-0.2,3.2c0,1.1-0.1,2.3-0.1,3.6c0,1.2-0.1,2.4-0.1,3.6c0,1.2,0,2.2,0,3.2c0,1,0,1.8,0.1,2.4c0,0.9,0.2,1.6,0.5,2.3
					c0.3,0.6,0.6,1.2,1.1,1.5v7.2c-0.2,0-0.5,0-0.9-0.1c-0.3-0.1-0.6-0.2-0.7-0.2c0,1.7-0.1,3.6-0.4,5.6c-0.3,1.7-0.6,3.5-1.1,5.3
					l-1.5-0.4c0.5-1.7,0.8-3.5,0.9-5.2c0-1,0.1-2.2,0.1-3.6c0-1.4,0-2.8-0.1-4.3c0-1.5-0.1-3.1-0.1-4.7c0-1.6-0.1-3.2-0.2-4.7
					c0-1.5-0.1-3-0.1-4.3c0-1.4,0-2.6,0.1-3.6c0-0.4,0.1-1,0.3-1.7c0.2-0.8,0.4-1.6,0.7-2.5c0.3-0.9,0.5-1.7,0.8-2.6
					C105,87.2,105.2,86.5,105.4,86z"/>
				<path fill="#0C697B" d="M100.1,201.4c-2.8,12-4.6,19.2-5.4,21.7c-1.1,3.4-2.7,6.2-4.8,8.3c-1.7,1.7-3.2,2.6-4.4,2.6
					c-5.6,0-9.9-3.5-12.9-10.6c-2.5-5.9-3.7-12.9-3.7-21.2c0-5.8,0.9-12.1,2.7-18.9c0.4-1.5,0.8-2.7,1.2-3.4
					c0.5-0.9,0.9-1.1,1.1-0.4c0.2,0.8,0.1,2.2-0.3,4.3c-1,5.2-1.5,9.9-1.5,14.2c0,16.8,3.5,25.2,10.6,25.2c3,0,5.5-2.3,7.5-6.8
					c1.3-2.8,2.8-8.2,4.5-16.2c2-8.8,3.8-15.2,5.2-19.3c1.6-4.7,3.7-8.8,6.1-12.4c2.6-4.1,4.9-6.1,6.8-6.1c1.6,0,2.4,1.7,2.4,5.1
					c0,2.8-0.8,8.4-2.4,17c-1.6,8.5-2.4,14.2-2.4,17.2c0,6.4,1.3,11.3,4,14.9c2.6,3.6,6.3,5.4,11.1,5.4c8.5,0,14.9-2.7,19.2-8
					c3.4-4.2,5.1-9.4,5.1-15.7c0-6-0.5-11.7-1.5-17.3c-0.7-3.9-1.6-7.6-2.8-11.2c-1-3.1-1.5-4.5-1.5-4.3c0-3.4,1.1-8.1,3.4-14
					c0.5-1.3,0.9-1.9,1.2-1.9c0.3,0,0.9,0.8,1.7,2.5c3.2,6.6,5.7,16.7,7.5,30.4c1.7,12.8,4.2,21.9,7.5,27.4
					c3.2,5.5,8.2,8.3,14.9,8.3c5.6,0,9.2-2,11-6c0-1.4-1.2-4.4-3.5-8.9c-3-5.8-5.1-10.6-6.3-14.3c-2.5-7.6-4.2-14.8-5.1-21.5
					c-0.4-2.6-0.6-4.2-0.8-4.8c-0.3-1.4-1-2.8-2-4.1c0.7-2.3,1.8-5.5,3.3-9.6c0.5-1.2,0.9-1.8,1.3-1.8c0.4,0,1,0.6,1.9,1.8
					c3.9,5.5,7.2,10.4,9.9,14.7c1.1,1.8,1.6,3.1,1.6,3.8c0,0.5-0.2,0.8-0.7,0.8c-1,0-2.8-0.8-5.4-2.5c-0.3,0-0.5,0.2-0.6,0.5
					c0.9,3.2,2.3,7.7,4.3,13.3c4.5,12.7,6.7,22,6.7,27.8s-0.9,10.9-2.6,15.2c-2.9,7.4-7.9,11-15,11c-7.6,0-13.5-3.3-17.9-9.9
					c-2.6-3.9-5-9.8-7-17.7c-0.9,7.9-3.4,14.7-7.5,20.4c-5.1,6.9-11.6,10.4-19.4,10.4c-8.7,0-14.8-4.1-18.3-12.5
					c-1.9-4.7-2.9-10.2-2.9-16.5c0-8.3,1-16.1,3-23.3c0.5-1.9,0.8-3.2,0.8-3.9c0-0.3-0.1-0.5-0.3-0.5c-0.3,0-1.1,1-2.4,2.9
					C104.3,186,102.2,192.1,100.1,201.4z"/>
				<path fill="#EB9F16" d="M103,237.3c0,1.3-0.5,2.7-1.6,4.3c-1.1,1.7-2.4,3.1-4.1,4.3c-0.7,0.5-1.1,0.7-1.2,0.7c0,0,0,0,0,0
					c0-0.1,0.3-0.5,0.9-1.1c2.8-3,4.2-5.1,4.2-6.1c0-1-0.5-1.4-1.3-1.4c-0.5,0-1,0.1-1.3,0.4c-0.3,0.2-0.5,0.3-0.6,0.3
					c-0.1-0.1-0.1-0.1-0.2-0.1c0-0.1,0.1-0.4,0.2-0.8c0.5-2.1,1.5-3.1,3.1-3.1C102.3,234.8,103,235.6,103,237.3z"/>
				<path fill="#EB9F16" d="M99,114.2c-0.3,0.4-0.6,0.9-1,1.3c-0.4,0.5-0.8,0.9-1.2,1.3c-0.4,0.4-0.7,0.6-0.9,0.6
					c-0.3,0.1-0.7,0-1.1-0.1c-0.5-0.2-0.9-0.4-1.3-0.7c-0.4-0.3-0.8-0.7-1.1-1c-0.3-0.4-0.5-0.7-0.5-1c0-0.1,0-0.3,0.2-0.6
					c0.2-0.3,0.4-0.6,0.6-0.9c0.3-0.4,0.5-0.7,0.8-1.1c0.3-0.4,0.6-0.7,0.9-1c0.3-0.3,0.5-0.5,0.7-0.7c0.2-0.2,0.3-0.2,0.4-0.1
					c0.4,0.6,0.8,1.1,1.2,1.5c0.4,0.4,0.8,0.7,1.2,1c0.3,0.2,0.6,0.4,0.9,0.5c0.3,0.1,0.4,0.2,0.5,0.3
					C99.3,113.5,99.2,113.8,99,114.2z"/>
				<path fill="#EC5B1A" d="M94.3,89.5c-0.1,0.1-0.3,0.2-0.6,0.4c-0.3,0.2-0.6,0.4-0.9,0.6c-0.3,0.2-0.6,0.4-1,0.6
					c-0.3,0.2-0.6,0.3-0.8,0.4c-0.1,0.1-0.2,0.1-0.2,0.1c-0.1,0-0.1,0,0-0.2c0.1-0.1,0.1-0.3,0.2-0.5c0.1-0.2,0.2-0.4,0.3-0.4
					c0.6-0.3,1.1-0.7,1.7-1c0.5-0.3,1.1-0.6,1.6-1c0.3-0.2,0.4-0.2,0.4-0.1c0,0.1,0,0.2-0.2,0.3c-0.1,0.2-0.2,0.3-0.3,0.5
					C94.5,89.3,94.4,89.4,94.3,89.5z"/>
				<path fill="#0C697B" d="M88,68.6c-0.7,1-1,1.8-1,2.3c0.3-0.3,0.7-0.4,1.1-0.4c0.9,0,1.4,0.4,1.4,1.2c0,0.7-0.3,1.4-0.8,1.9
					c-0.4,0.4-0.9,0.6-1.4,0.6c-1.1,0-1.6-0.6-1.6-1.8c0-1.1,0.5-2.4,1.5-3.8c0.9-1.3,1.7-2.2,2.5-2.7c0.2-0.1,0.3-0.1,0.3,0
					c0.1,0.1,0,0.3-0.1,0.4C89.3,66.9,88.6,67.7,88,68.6z"/>
				<path fill="#0C697B" d="M86.3,106.3c1.1,0,2.2-0.2,3.2-0.7c1-0.5,1.9-1,2.7-1.6c0.8-0.6,1.4-1.2,1.9-1.7c0.5-0.6,0.8-1,0.8-1.2
					c0-0.2-0.1-0.4-0.3-0.7c-0.2-0.3-0.5-0.5-0.9-0.7c-0.4-0.2-0.8-0.4-1.2-0.5c-0.5-0.1-0.9-0.2-1.4-0.2c-0.7,0-1.2,0.2-1.6,0.5
					c-0.3,0.3-0.7,0.7-0.9,1.3c-0.2,0.3-0.4,0.8-0.6,1.3c-0.2,0.5-0.4,1-0.7,1.5c-0.2,0.5-0.4,1-0.6,1.5
					C86.6,105.7,86.4,106,86.3,106.3z M85.9,105.2c0.2-0.5,0.5-1.1,0.7-1.6c0.2-0.6,0.5-1.1,0.7-1.6c0.2-0.5,0.4-0.9,0.5-1.1
					c0.4-0.8,0.7-1.5,1.1-2c0.4-0.5,0.7-0.9,1.1-1.2c0.3-0.3,0.7-0.5,1-0.6c0.3-0.1,0.6-0.2,0.8-0.2c0.5,0,0.9,0,1.3,0.1
					c0.3,0.1,0.6,0.2,0.9,0.3c0.3,0.1,0.5,0.3,0.8,0.4c0.3,0.1,0.6,0.2,1.1,0.2c0.6,0,1.2-0.1,1.7-0.3c0.3-0.1,0.5,0,0.5,0.2
					c0.1,0.2,0.1,0.4,0,0.6c-0.1,0.2-0.2,0.4-0.4,0.7c-0.2,0.3-0.4,0.6-0.6,0.9c-1,1.5-1.9,2.9-2.8,4.4s-1.9,2.8-2.9,4
					c-1,1.2-2.1,2.3-3.4,3.1c-1.2,0.8-2.7,1.4-4.3,1.6v0v-7.2c0.2,0.2,0.5,0.3,0.7,0.4c0.3,0.1,0.5,0.1,0.8,0.2
					C85.5,106.1,85.7,105.7,85.9,105.2z"/>
				<path fill="#EC5B1A" d="M87.3,123.1c-0.3,0.2-0.6,0.3-0.8,0.4c-0.1,0.1-0.2,0.1-0.2,0.1c-0.1,0-0.1,0,0-0.2
					c0.1-0.1,0.1-0.3,0.2-0.5c0.1-0.2,0.2-0.4,0.3-0.4c0.6-0.3,1.1-0.7,1.7-1c0.5-0.3,1.1-0.6,1.6-1c0.2-0.2,0.4-0.2,0.4-0.1
					c0,0.1,0,0.2-0.2,0.3c-0.1,0.2-0.2,0.3-0.3,0.5c-0.1,0.2-0.2,0.3-0.3,0.3c-0.1,0.1-0.3,0.2-0.6,0.4c-0.3,0.2-0.6,0.4-0.9,0.6
					C88,122.7,87.6,122.9,87.3,123.1z"/>
				<path fill="#EC5B1A" d="M88.9,125.1c0,0.2,0,0.4,0,0.7c0,0.3,0,0.6,0,0.9c0,0.3,0.1,0.5,0.2,0.8c0.1,0.2,0.3,0.3,0.6,0.3
					c0.2,0,0.4-0.1,0.5-0.2c0.2-0.1,0.2-0.3,0.2-0.5v-1.3c0-0.1,0.1-0.3,0.2-0.6c0.1-0.3,0.2-0.5,0.3-0.6c0.1-0.4,0.2-0.5,0.3-0.4
					c0,0.1,0,0.3,0.1,0.5c0.1,0.3,0.1,0.5,0.1,0.7c0,0.2,0,0.4,0,0.8c0,0.4-0.1,0.7-0.2,1.1c-0.1,0.4-0.3,0.7-0.5,1
					c-0.2,0.3-0.4,0.6-0.7,0.8c-0.3,0.2-0.6,0.3-0.9,0.3c-0.2,0-0.4-0.1-0.6-0.2c-0.2-0.2-0.3-0.4-0.4-0.7c0-0.1-0.1-0.1-0.2,0
					c-0.2,0.2-0.4,0.4-0.7,0.6c-0.3,0.2-0.6,0.4-1,0.4c-0.2,0-0.4-0.1-0.6-0.2c-0.2-0.1-0.3-0.3-0.4-0.5c-0.1-0.2-0.1-0.4-0.2-0.6
					c0-0.2-0.1-0.4-0.1-0.5c0-0.5,0.1-1,0.3-1.5c0.2-0.5,0.4-0.9,0.6-1.3c0.1-0.1,0.2-0.2,0.3-0.2c0.1,0,0.1,0.1,0.1,0.3
					c-0.1,0.3-0.2,0.6-0.3,0.9c-0.1,0.3-0.1,0.6,0,1c0.1,0.6,0.3,0.9,0.8,0.9c0.3,0,0.6-0.1,0.8-0.3c0.2-0.2,0.4-0.5,0.5-0.7
					c0.1-0.3,0.2-0.6,0.3-0.9c0.1-0.3,0.1-0.5,0.2-0.7c0-0.2,0.1-0.3,0.2-0.3C88.9,124.8,88.9,124.9,88.9,125.1z"/>
				<path fill="#EC5B1A" d="M86.3,185c-0.6,0.5-1.2,1.3-1.8,2.3c-0.7,1-1,1.8-1,2.3c0.3-0.3,0.7-0.4,1.1-0.4c0.9,0,1.4,0.4,1.4,1.2
					c0,0.8-0.3,1.4-0.8,1.9c-0.4,0.4-0.9,0.6-1.4,0.6c-1.1,0-1.6-0.6-1.6-1.8c0-1.1,0.5-2.4,1.5-3.8c0.9-1.3,1.7-2.2,2.5-2.7
					c0.2-0.1,0.3-0.1,0.3,0C86.5,184.7,86.4,184.9,86.3,185z"/>
				<path fill="#EB9F16" d="M82.2,155.9c0.2-0.9,0.5-1.8,1-2.7c-0.5-1.8-0.4-3.2,0.4-3.9c0.6-0.6,1.3-0.9,2.1-0.9
					c0.8,0,1.7,0.3,2.7,0.8c3.5,1.9,5.9,4.3,7,7.1c0.1,0.2,0.1,0.4,0.1,0.7c0,0.5-0.1,1-0.2,1.5l-1.6,0c0-0.1-0.1-0.3-0.2-0.5
					c-0.8-1.7-2.1-2.9-3.9-3.7c0,1.6-0.2,3-0.5,4l-1.4-0.3c0.2-0.9,0.2-1.8,0-2.8c-0.3-1.1-0.7-1.6-1.4-1.6c-0.4,0-0.9,0.3-1.6,1
					c-0.6,0.6-0.9,1.1-1,1.4L82.2,155.9z"/>
				<path fill="#0C697B" d="M83,94.2c-0.1,1.3-0.2,2.7-0.3,4.2c-0.1,1.5-0.1,3.1,0,4.8c0,0.4,0.1,0.9,0.3,1.4
					c0.2,0.5,0.5,0.9,0.8,1.1v0v7.2c-0.4,0-0.7-0.1-1-0.3c-0.3-0.2-0.6-0.4-0.8-0.6c-0.2-0.2-0.4-0.5-0.6-0.8
					c-0.2-0.3-0.3-0.5-0.4-0.7l-1.2-0.2c0.4-0.6,0.6-1.4,0.6-2.2c0-0.5,0-1.4,0.1-2.4c0-1.1,0.1-2.2,0.1-3.4
					c0.1-1.2,0.1-2.3,0.2-3.4c0.1-1.1,0.1-1.9,0.2-2.5c0.1-0.4,0.2-1,0.4-1.7c0.2-0.7,0.4-1.5,0.7-2.3c0.3-0.8,0.5-1.6,0.8-2.4
					c0.3-0.8,0.5-1.4,0.6-1.8c0.1-0.2,0.2-0.4,0.3-0.3c0.1,0,0.2,0.1,0.1,0.3c-0.1,0.6-0.3,1.5-0.5,2.5C83.3,91.8,83.1,92.9,83,94.2
					z"/>
				<path fill="#0C697B" d="M81,110.6c-0.3,0.8-0.7,1.8-1.3,2.8c-0.6,1-1.2,1.9-2,2.8c-0.8,0.9-1.6,1.6-2.5,2.2
					c-0.9,0.6-1.8,0.9-2.6,0.9V112c0.7,0.5,1.5,0.7,2.4,0.7c0.9,0,1.7-0.2,2.5-0.5c0.8-0.4,1.5-0.9,2-1.6c0.1-0.1,0.1-0.2,0.2-0.3
					L81,110.6z"/>
				<path fill="#EC5B1A" d="M78.6,120.8c0.4-1.5,0.9-2.8,1.3-4.1c0.5-1.3,0.9-2.4,1.3-3.3c0.2-0.4,0.3-0.5,0.5-0.4
					c0.2,0.1,0.2,0.3,0,0.8c-0.3,1-0.7,2.1-1.1,3.3c-0.4,1.3-0.7,2.5-1,3.8c-0.3,1.3-0.5,2.6-0.7,4c-0.2,1.3-0.2,2.6-0.1,3.8
					c0.1,1.5,0.4,2.7,1,3.8c0.6,1,1.3,1.9,2.2,2.6c0.9,0.7,1.9,1.2,3,1.5c1.1,0.3,2.3,0.5,3.5,0.5c2.5,0,4.6-0.5,6.4-1.5
					c1.8-1,3.3-2.3,4.5-4c1.2-1.6,2.1-3.4,2.7-5.4c0.1-0.3,0.2-0.5,0.2-0.7l1.5,0.4c-0.1,0.4-0.2,0.7-0.3,1.1
					c-0.7,2.2-1.5,4.2-2.5,6.3c-1,2-2.2,3.8-3.5,5.4c-1.3,1.6-2.8,2.9-4.5,3.8c-1.7,0.9-3.6,1.4-5.6,1.5c-1.6,0-3-0.3-4.3-0.9
					c-1.3-0.6-2.4-1.5-3.3-2.6c-0.9-1.2-1.6-2.6-2-4.2c-0.5-1.7-0.7-3.6-0.6-5.7c0-1.7,0.2-3.4,0.5-5
					C77.9,123.8,78.2,122.2,78.6,120.8z"/>
				<path fill="#0C697B" d="M78.4,82.4c0.5-0.3,1.1-0.6,1.7-1c0.3-0.2,0.4-0.2,0.4-0.1c0,0.1-0.1,0.2-0.2,0.3
					c-0.1,0.2-0.2,0.3-0.3,0.5c-0.1,0.2-0.2,0.3-0.3,0.4c-0.1,0.1-0.3,0.2-0.6,0.4c-0.3,0.2-0.6,0.4-0.9,0.6c-0.3,0.2-0.6,0.4-1,0.6
					c-0.3,0.2-0.6,0.4-0.8,0.5c-0.1,0-0.2,0.1-0.2,0.1c-0.1,0-0.1-0.1,0-0.2c0-0.1,0.1-0.3,0.2-0.5c0.1-0.2,0.2-0.4,0.3-0.4
					C77.3,83,77.9,82.7,78.4,82.4z"/>
				<path fill="#0C697B" d="M71.8,86.1c0,1-0.1,2.2-0.2,3.6c-0.1,1.4-0.2,2.9-0.3,4.5c-0.1,1.6-0.2,3.2-0.3,4.8
					c-0.1,1.6-0.2,3.1-0.2,4.4c-0.1,2.3,0,4.1,0.2,5.5c0.2,1.4,0.7,2.4,1.5,3.1v0v7.2c-1,0-1.9-0.4-2.6-1.3
					c-0.7-0.9-1.1-2.1-1.2-3.6c0-0.7,0-1.6,0-2.6c0-1.1,0-2.2,0-3.5c0-1.3,0.1-2.6,0.1-3.9c0-1.4,0.1-2.7,0.2-4.1
					c0.1-1.3,0.2-2.6,0.2-3.8c0.1-1.2,0.1-2.3,0.2-3.3c0-0.2,0.1-0.7,0.3-1.3c0.1-0.6,0.3-1.2,0.5-1.9c0.2-0.7,0.4-1.4,0.6-2.1
					c0.2-0.7,0.4-1.3,0.5-1.8c0.1-0.3,0.2-0.4,0.3-0.4C71.8,85.7,71.8,85.8,71.8,86.1z"/>
				<path fill="#EB9F16" d="M66.4,174.2c3.5-2.1,7-4.1,10.4-6.2c4-2.4,7.1-4.6,9.3-6.7c-2.8-0.6-4.2-1.9-4.2-3.8
					c0-0.6,0.1-1.2,0.2-1.7l1.4,0.2c0,0.1,0,0.1,0,0.1c0,0.8,1.4,1.4,4.1,1.8l1.4,0.3c0.2,0.1,1.7,0.3,4.3,0.6c0.1,0,0.3,0,0.3-0.1
					c0.1-0.1,0.1-0.2,0-0.3l1.6,0c-0.2,0.5-0.4,1.1-0.7,1.8c-0.6,1.3-1.2,1.9-1.7,1.9c-0.2,0-1.9-0.2-4.9-0.5
					c-1.5,2.1-3.5,4.1-5.8,5.8c-2.7,2-5.2,3.5-7.5,4.5c-0.5,0.3-3.1,1.2-7.9,3c-0.7,0.3-1.3,0.4-1.5,0.4c-0.1,0-0.2,0-0.2-0.1
					C65.2,175.1,65.6,174.8,66.4,174.2z"/>
				<path fill="#0C697B" d="M63.8,131.8c-1,1.4-1.4,2.5-1.4,3.1c0.4-0.4,0.9-0.5,1.5-0.5c1.3,0,1.9,0.6,1.9,1.7c0,1-0.4,1.9-1.1,2.6
					c-0.6,0.6-1.3,0.9-2,0.9c-1.5,0-2.3-0.8-2.3-2.5c0-1.5,0.7-3.3,2.1-5.3c1.2-1.8,2.4-3.1,3.5-3.8c0.2-0.1,0.4-0.1,0.4,0
					c0.1,0.2,0,0.4-0.2,0.6C65.5,129.4,64.7,130.4,63.8,131.8z"/>
				<path fill="#EC5B1A" d="M56.2,153.4c1,0,1.9,0.6,2.7,1.8c0.8,1.2,1.4,2.7,1.7,4.7c0,0.2,0.1,0.3,0.1,0.3c0,0.1,0.1,0.1,0.1,0
					c0,0,0.1-0.2,0.1-0.3c0.2-1.1,0.5-2.9,1.2-5.1c0.7-1.6,1.4-2.4,2.2-2.4c0.4,0,0.8,0.3,1.2,0.8c0.4,0.5,0.5,0.9,0.5,1.2
					c0,0.2-0.1,0.5-0.2,0.9c-0.2,0.5-0.3,0.8-0.6,0.8c-0.1,0-0.3-0.2-0.6-0.6c-0.3-0.4-0.6-0.6-0.9-0.6c-0.7,0-1.4,1.7-2,5.1
					c-0.3,1.5-0.6,2.5-0.9,3.1c-0.2,0.4-0.4,0.6-0.6,0.6c-0.2,0-0.2-0.2-0.2-0.6c0-0.6-0.3-1.7-1-3.5c-0.7-1.7-1.2-2.6-1.4-2.6
					c-0.2,0-0.3,0.1-0.4,0.2c-0.1,0.1-0.2,0.2-0.5,0.2c-0.3,0-0.7-0.2-1.2-0.7c-0.5-0.5-0.7-0.8-0.7-1.1c0-0.1,0.2-0.5,0.6-1.2
					C55.8,153.7,56.1,153.4,56.2,153.4z"/>
				<path fill="#EB9F16" d="M63.2,92.5c0.1,1,0.1,2,0.1,3.2c0,1.2,0,2.3-0.1,3.5c0,1.2-0.1,2.3-0.1,3.5c0,1.2-0.1,2.3-0.1,3.2
					c-0.1,1.2-0.3,2.6-0.7,4.2c-0.4,1.5-0.9,3-1.6,4.3c-0.6,1.4-1.4,2.5-2.3,3.4c-0.9,0.9-1.8,1.4-2.8,1.4v-7.2
					c0.7,0.3,1.4,0.4,2,0.4c0.6-0.1,1.1-0.3,1.5-0.6c0.4-0.3,0.7-0.7,1-1.3c0.3-0.5,0.4-1,0.4-1.5c0-0.7,0.1-1.5,0.1-2.4
					c0-0.8,0-1.6-0.1-2.4c0-0.8-0.1-1.6-0.1-2.3c0-0.7,0-1.3,0-1.9c0-0.6,0.3-1.5,0.7-2.8c0.4-1.3,0.9-2.9,1.5-4.7
					c0.1-0.3,0.1-0.4,0.3-0.4C63.1,92.1,63.2,92.3,63.2,92.5z"/>
				<path fill="#0C697B" d="M54.4,197.6c0.5-2.1,1.5-3.1,3.1-3.1c1.4,0,2,0.9,2,2.6c0,1.3-0.5,2.7-1.6,4.3c-1.1,1.7-2.4,3.1-4.1,4.3
					c-0.7,0.5-1.1,0.7-1.2,0.7c0,0,0,0,0,0c0-0.1,0.3-0.5,0.9-1.1c2.8-3,4.2-5.1,4.2-6.1c0-1-0.5-1.5-1.4-1.5
					c-0.5,0-0.9,0.1-1.3,0.4c-0.3,0.2-0.5,0.3-0.5,0.3c-0.1-0.1-0.1-0.1-0.2-0.1C54.3,198.2,54.4,198,54.4,197.6z"/>
				<path fill="#EC5B1A" d="M58.7,175.6c0,0.9-0.4,2-1.1,3.1c-0.8,1.2-1.8,2.3-3,3.1c-0.5,0.3-0.8,0.5-0.9,0.5c0,0,0,0,0,0
					c0-0.1,0.2-0.3,0.6-0.8c2-2.2,3-3.6,3-4.4c0-0.7-0.3-1-1-1c-0.3,0-0.7,0.1-1,0.3c-0.2,0.1-0.3,0.2-0.4,0.2c0,0-0.1-0.1-0.1-0.1
					c0-0.1,0.1-0.3,0.1-0.6c0.3-1.5,1.1-2.3,2.3-2.3C58.2,173.7,58.7,174.4,58.7,175.6z"/>
				<path fill="#EC5B1A" d="M56,106.7c-0.2,0.3-0.5,0.7-0.8,0.9c-0.3,0.3-0.6,0.5-1,0.7c-0.4,0.2-0.7,0.3-1.1,0.3
					c-0.1,0-0.3,0-0.5,0c-0.2,0-0.4-0.1-0.6-0.2c-0.1-0.1-0.1-0.1-0.1-0.2c0-0.1,0.1-0.1,0.2-0.2c0.2,0,0.4-0.1,0.7-0.2
					c0.3-0.1,0.5-0.2,0.7-0.3c0.2-0.1,0.5-0.2,0.7-0.3c0.2-0.1,0.4-0.2,0.5-0.3c0.1-0.1,0.2-0.2,0.3-0.2c0-0.1,0-0.1-0.3-0.3
					c-0.3-0.2-0.5-0.3-0.8-0.5c-0.3-0.1-0.4-0.2-0.5-0.2c-0.2,0-0.4,0-0.6,0.1c-0.2,0.1-0.4,0.1-0.6,0.2c-0.1,0.1-0.2,0.1-0.3,0.1
					c-0.1,0-0.1-0.1-0.1-0.2c0-0.2,0.1-0.4,0.3-0.6c0.2-0.2,0.4-0.4,0.6-0.5c0.3-0.1,0.5-0.3,0.8-0.4c0.3-0.1,0.6-0.1,0.8-0.1
					c0.2,0,0.4,0,0.6,0.1c0.3,0.1,0.5,0.1,0.6,0.2c0.2,0.1,0.3,0.2,0.5,0.4s0.2,0.3,0.2,0.5C56.3,106,56.2,106.4,56,106.7z"/>
				<path fill="#EB9F16" d="M55.7,112.1v7.2c-1.1,0-1.9-0.2-2.4-0.4c-0.5-0.3-0.8-0.6-1-0.9c-0.8-0.2-1.5-0.2-2.2-0.1
					c-0.6,0.1-1.2,0.3-1.7,0.6c-0.5,0.3-0.9,0.6-1.3,1.1c-0.4,0.4-0.7,0.9-0.9,1.5c-0.2,0.3-0.4,0.5-0.6,0.4
					c-0.2-0.1-0.3-0.3-0.1-0.7c0.2-0.8,0.6-1.7,1.2-2.7c0.5-1,1.1-1.9,1.8-2.8c0.7-0.9,1.5-1.7,2.3-2.4c0.8-0.7,1.7-1.2,2.6-1.4
					c0.5-0.1,1-0.2,1.4-0.2C55.1,111.4,55.5,111.6,55.7,112.1z"/>
				<path fill="#EB9F16" d="M44.3,179.4c0.9-1.3,1.7-2.2,2.5-2.7c0.2-0.1,0.3-0.1,0.3,0c0.1,0.1,0,0.3-0.1,0.4
					c-0.6,0.5-1.2,1.3-1.8,2.3c-0.7,1-1,1.8-1,2.3c0.3-0.3,0.7-0.4,1.1-0.4c0.9,0,1.4,0.4,1.4,1.2c0,0.8-0.3,1.4-0.8,1.9
					c-0.4,0.4-0.9,0.6-1.4,0.6c-1.1,0-1.6-0.6-1.6-1.8C42.8,182.1,43.3,180.9,44.3,179.4z"/>
				<path fill="#EC5B1A" d="M45.5,131c0-1-0.5-1.4-1.4-1.4c-0.5,0-0.9,0.1-1.3,0.4c-0.3,0.2-0.5,0.3-0.5,0.3
					c-0.1-0.1-0.1-0.1-0.2-0.1c0-0.1,0.1-0.4,0.1-0.8c0.5-2.1,1.5-3.1,3.1-3.1c1.4,0,2,0.8,2,2.6c0,1.3-0.5,2.7-1.6,4.3
					c-1.1,1.7-2.5,3.1-4.1,4.3c-0.7,0.5-1.1,0.7-1.2,0.7c0,0,0,0,0,0c0-0.1,0.3-0.5,0.8-1.1C44.1,134.1,45.5,132.1,45.5,131z"/>
				<path fill="#0C697B" d="M41.8,153.7c-1,1.4-1.4,2.5-1.4,3.1c0.4-0.4,0.9-0.5,1.5-0.5c1.3,0,1.9,0.6,1.9,1.7c0,1-0.4,1.9-1.1,2.6
					c-0.6,0.6-1.3,0.9-2,0.9c-1.5,0-2.3-0.8-2.3-2.5c0-1.5,0.7-3.3,2.1-5.3c1.2-1.8,2.4-3.1,3.5-3.8c0.2-0.1,0.4-0.1,0.4,0
					c0.1,0.2,0,0.4-0.2,0.6C43.5,151.4,42.6,152.4,41.8,153.7z"/>
			</g>
			<g>
			</g>
		</g>
	</g>
</g>
<g>
	<linearGradient id="SVGID_4_" gradientUnits="userSpaceOnUse" x1="127.0069" y1="154.64" x2="151.3356" y2="154.64">
		<stop  offset="0" style="stop-color:#EFF0F5"/>
		<stop  offset="0.5" style="stop-color:#DBDEE7"/>
		<stop  offset="1" style="stop-color:#C9CDDB"/>
	</linearGradient>
	<path fill="url(#SVGID_4_)" d="M130.1,90.5c0-6.6-1.1-12.1-3.1-16.4c0-2.4,1.9-8.1,5.8-17.2c0.5-1.1,0.9-1.6,1.4-1.6
		c0.3,0,0.8,0.6,1.3,1.8c1.1,2.4,3.7,8.9,7.7,19.5c4.2,11,6.7,17.8,7.3,20.4c0.6,1.9,0.8,3.4,0.8,4.3c0,3.1-2.9,1.2-8.8-5.6
		c-0.7-0.8-1-0.4-1,1.4c0,0.6,1.2,17.4,3.6,50.3c2.4,32.9,3.6,52,3.6,57.3c0,16.1-2.5,30.2-7.4,42.4c-1,2.5-1.9,4.3-2.5,5.5l0,0
		c-1,1.6-1.5,1.8-1.8,0.6c-0.3-1.2-0.2-3.8,0.3-7.8c0.6-5.5,1-12,1-19.4c0-6.6-1.4-29.4-4.1-68.4C131.5,118.6,130.1,96.3,130.1,90.5
		L130.1,90.5L130.1,90.5L130.1,90.5z"/>
	<linearGradient id="SVGID_5_" gradientUnits="userSpaceOnUse" x1="54.5498" y1="163.1363" x2="230.7748" y2="163.1363">
		<stop  offset="0" style="stop-color:#EFF0F5"/>
		<stop  offset="0.5" style="stop-color:#DBDEE7"/>
		<stop  offset="1" style="stop-color:#C9CDDB"/>
	</linearGradient>
	<path fill="url(#SVGID_5_)" d="M210.7,158.7c-3.5-10.6-5.9-20.6-7.1-29.8c-0.5-3.6-0.8-5.8-1-6.6c-0.5-1.9-1.4-3.8-2.8-5.7
		c1-3.2,2.5-7.6,4.6-13.4c0.7-1.7,1.3-2.5,1.9-2.5c0.5,0,1.4,0.8,2.6,2.5c5.4,7.6,10,14.4,13.8,20.4c1.5,2.5,2.3,4.2,2.3,5.3
		c0,0.8-0.3,1.1-1,1.1c-1.4,0-3.9-1.1-7.4-3.4c-0.3,0-0.6,0.2-0.8,0.7c1.2,4.5,3.2,10.7,6,18.5c6.2,17.7,9.3,30.6,9.3,38.6
		c0,8.1-1.2,15.1-3.6,21.1c-4,10.2-10.9,15.3-20.8,15.3c-10.5,0-18.8-4.6-24.8-13.7c-3.6-5.4-6.9-13.6-9.7-24.5
		c-1.2,11-4.7,20.4-10.5,28.4c-7,9.6-16.1,14.4-27,14.4c-12.1,0-20.5-5.8-25.4-17.3c-2.7-6.5-4-14.1-4-22.9
		c0-11.6,1.4-22.4,4.1-32.4c0.8-2.7,1.1-4.5,1.1-5.4c0-0.5-0.1-0.7-0.4-0.7c-0.5,0-1.6,1.3-3.3,4c-2.7,4.2-5.5,12.8-8.5,25.7
		c-3.9,16.6-6.4,26.7-7.6,30.1c-1.6,4.7-3.8,8.6-6.7,11.5c-2.3,2.4-4.4,3.6-6.1,3.6c-7.7,0-13.7-4.9-17.9-14.7
		c-3.5-8.2-5.2-18-5.2-29.5c0-8.1,1.2-16.8,3.7-26.3c0.6-2.1,1.1-3.7,1.7-4.7c0.7-1.3,1.3-1.5,1.5-0.5c0.3,1.1,0.1,3.1-0.4,5.9
		c-1.4,7.2-2.1,13.8-2.1,19.8c0,23.3,4.9,35,14.7,35c4.2,0,7.7-3.1,10.4-9.4c1.7-3.9,3.8-11.4,6.3-22.5c2.8-12.2,5.2-21.2,7.3-26.8
		c2.3-6.5,5.1-12.2,8.5-17.3c3.6-5.6,6.8-8.5,9.5-8.5c2.2,0,3.3,2.3,3.3,7c0,3.9-1.1,11.7-3.3,23.5c-2.2,11.8-3.3,19.8-3.3,23.9
		c0,8.8,1.8,15.7,5.5,20.7c3.7,5,8.8,7.5,15.4,7.5c11.9,0,20.8-3.7,26.7-11.2c4.7-5.9,7-13.1,7-21.8c0-8.3-0.7-16.3-2.1-24
		c-1-5.5-2.3-10.6-3.9-15.5c-1.4-4.3-2.1-6.3-2.1-6c0-4.8,1.6-11.3,4.7-19.5c0.7-1.8,1.2-2.7,1.7-2.7c0.5,0,1.3,1.2,2.4,3.5
		c4.4,9.2,7.9,23.3,10.5,42.2c2.4,17.7,5.9,30.4,10.4,38.1c4.5,7.6,11.4,11.4,20.6,11.4c7.7,0,12.8-2.8,15.2-8.4
		c0-1.9-1.6-6.1-4.9-12.4C215.4,170.5,212.4,163.9,210.7,158.7L210.7,158.7L210.7,158.7L210.7,158.7z"/>
	<linearGradient id="SVGID_6_" gradientUnits="userSpaceOnUse" x1="163.9659" y1="86.9195" x2="182.2488" y2="86.9195">
		<stop  offset="0" style="stop-color:#EFF0F5"/>
		<stop  offset="0.5" style="stop-color:#DBDEE7"/>
		<stop  offset="1" style="stop-color:#C9CDDB"/>
	</linearGradient>
	<path fill="url(#SVGID_6_)" d="M182.2,87.9c0,1.4-0.3,2.7-0.9,4.2c-0.8,1.9-1.8,2.8-3.1,2.8c-2,0-3.4-1.4-4.2-4
		c-0.9,3.5-2.6,5.2-5.1,5.2c-0.9,0-1.7-0.5-2.4-1.4c-0.8-1.1-1.2-2.6-1.2-4.4v-4.2c0-0.3-0.2-0.6-0.7-0.7c-0.5-0.1-0.7-0.5-0.7-1.1
		c0-0.9,0.4-1.9,1.2-2.7c0.7-0.8,1.3-1.2,1.7-1.2c0.5,0,0.7,0.9,0.7,2.8c0,1-0.1,1.8-0.2,2.4c-0.2,0.6-0.2,1.2-0.2,1.7
		c0,1,0.2,2,0.6,2.9c0.5,1.1,1.1,1.6,1.8,1.6c0.9,0,1.8-0.4,2.6-1.3c0.8-0.8,1.2-1.8,1.2-3c0-0.6-0.2-1.8-0.6-3.4
		c-0.4-1.6-0.6-2.6-0.6-3c0-0.3,0.2-0.9,0.5-1.6c0.3-0.7,0.6-1.1,0.8-1.1c0.3,0,0.7,1,1.2,3.2c0.5,2.1,0.8,3.6,0.8,4.7
		c0,2.9,1.1,4.4,3.4,4.4c1,0,1.6-0.5,1.8-1.5c-1.9-3.4-2.9-6-2.9-7.8c0-1,0.2-2,0.8-2.7c0.4-0.6,0.6-0.9,0.7-0.9
		c0.2,0,0.2,0.3,0.3,1c0.1,1,0.2,1.8,0.5,2.4c0,0.1,0.5,1.3,1.4,3.6C182,86.1,182.2,87.2,182.2,87.9L182.2,87.9L182.2,87.9
		L182.2,87.9z"/>
	<linearGradient id="SVGID_7_" gradientUnits="userSpaceOnUse" x1="149.6755" y1="72.1442" x2="183.0201" y2="72.1442">
		<stop  offset="0" style="stop-color:#EFF0F5"/>
		<stop  offset="0.5" style="stop-color:#DBDEE7"/>
		<stop  offset="1" style="stop-color:#C9CDDB"/>
	</linearGradient>
	<path fill="url(#SVGID_7_)" d="M151.4,75.5c9.6-3.5,19.8-7.2,30.5-11.1c0.5-0.2,0.9-0.3,1-0.2c0.1,0.1,0.1,0.4-0.1,0.9
		c-0.6,1.5-1.1,2.4-1.5,2.7c-9,3.2-19.6,7.4-31.7,12.4C150,78.7,150.6,77.2,151.4,75.5L151.4,75.5L151.4,75.5L151.4,75.5z"/>
	<linearGradient id="SVGID_8_" gradientUnits="userSpaceOnUse" x1="62.1445" y1="123.481" x2="97.2779" y2="123.481">
		<stop  offset="0" style="stop-color:#EFF0F5"/>
		<stop  offset="0.5" style="stop-color:#DBDEE7"/>
		<stop  offset="1" style="stop-color:#C9CDDB"/>
	</linearGradient>
	<path fill="url(#SVGID_8_)" d="M94.9,119c-0.9-2-2.4-3.4-4.6-4.3c0,1.9-0.2,3.4-0.6,4.6c0.3,0.1,1.9,0.3,5,0.7c0.2,0,0.3,0,0.4-0.1
		C95.2,119.8,95.1,119.5,94.9,119L94.9,119L94.9,119L94.9,119z M88.1,119c0.3-1,0.3-2.1,0-3.2c-0.3-1.2-0.9-1.9-1.7-1.9
		c-0.5,0-1.1,0.4-1.9,1.2c-0.8,0.8-1.2,1.4-1.2,1.8C83.4,117.9,85,118.6,88.1,119L88.1,119L88.1,119L88.1,119z M83,113.5
		c-0.6-2.2-0.5-3.7,0.4-4.6c0.7-0.7,1.5-1,2.4-1c0.9,0,1.9,0.3,3.1,0.9c4.1,2.3,6.8,5,8.1,8.2c0.1,0.2,0.2,0.5,0.2,0.8
		c0,1.1-0.4,2.4-1.1,3.8c-0.7,1.4-1.4,2.2-2,2.2c-0.2,0-2.2-0.2-5.7-0.6c-1.8,2.5-4,4.7-6.7,6.7c-3.1,2.3-6,4.1-8.6,5.2
		c-0.6,0.3-3.6,1.4-9.1,3.5c-0.9,0.3-1.4,0.5-1.8,0.5c-0.1,0-0.2,0-0.2-0.1c0-0.2,0.5-0.6,1.5-1.2c4-2.4,8.1-4.8,12.1-7.1
		c4.6-2.7,8.2-5.3,10.7-7.7c-3.2-0.7-4.8-2.2-4.8-4.3C81.6,116.7,82.1,115,83,113.5L83,113.5L83,113.5L83,113.5z"/>
	<linearGradient id="SVGID_9_" gradientUnits="userSpaceOnUse" x1="164.1398" y1="236.7629" x2="186.7914" y2="236.7629">
		<stop  offset="0" style="stop-color:#EFF0F5"/>
		<stop  offset="0.5" style="stop-color:#DBDEE7"/>
		<stop  offset="1" style="stop-color:#C9CDDB"/>
	</linearGradient>
	<path fill="url(#SVGID_9_)" d="M166.8,226.2c1.8,0,3.6,1.8,5.5,5.3c1.7,3.2,2.8,6.8,3.5,10.8c0.1,0.4,0.1,0.6,0.1,0.7
		c0.1,0.1,0.1,0.1,0.2,0c0-0.1,0.1-0.3,0.3-0.7c0.5-3.4,1.4-7.9,2.8-13.5c1.3-3.1,2.7-4.7,4.3-4.7c0.8,0,1.6,0.5,2.4,1.6
		c0.7,0.9,1,1.7,1,2.3c0,0.5-0.1,1-0.4,1.8c-0.3,1-0.7,1.5-1.1,1.5c-0.2,0-0.6-0.4-1.1-1.1c-0.6-0.7-1.2-1.1-1.8-1.1
		c-1.3,0-2.7,4.5-4.4,13.4c-0.5,2.8-1.1,4.8-1.7,6c-0.4,0.8-0.8,1.2-1.1,1.2c-0.3,0-0.4-0.4-0.4-1.1c0-1.2-0.7-4-2.2-8.4
		c-1.5-4.6-2.5-6.8-3.1-6.8c-0.4,0-0.6,0.1-0.7,0.4c-0.1,0.2-0.4,0.4-0.9,0.4c-0.6,0-1.4-0.4-2.3-1.3c-1-0.9-1.4-1.6-1.4-2.1
		c0-0.2,0.4-1,1.2-2.3C166.1,226.8,166.6,226.2,166.8,226.2L166.8,226.2L166.8,226.2L166.8,226.2z"/>
	<linearGradient id="SVGID_10_" gradientUnits="userSpaceOnUse" x1="93.3438" y1="236.6675" x2="109.6601" y2="236.6675">
		<stop  offset="0" style="stop-color:#EFF0F5"/>
		<stop  offset="0.5" style="stop-color:#DBDEE7"/>
		<stop  offset="1" style="stop-color:#C9CDDB"/>
	</linearGradient>
	<path fill="url(#SVGID_10_)" d="M95.3,229.1c1.3,0,2.6,1.3,4,3.8c1.2,2.3,2,4.9,2.5,7.7c0,0.3,0.1,0.4,0.1,0.5c0,0.1,0.1,0.1,0.1,0
		c0,0,0.1-0.2,0.2-0.5c0.4-2.5,1-5.7,2-9.7c0.9-2.2,2-3.4,3.1-3.4c0.6,0,1.1,0.4,1.7,1.1c0.5,0.7,0.7,1.2,0.7,1.6
		c0,0.3-0.1,0.7-0.3,1.3c-0.2,0.7-0.5,1-0.8,1c-0.1,0-0.4-0.3-0.8-0.8c-0.4-0.5-0.9-0.8-1.3-0.8c-0.9,0-2,3.2-3.1,9.6
		c-0.4,2-0.8,3.5-1.2,4.3c-0.3,0.6-0.6,0.9-0.8,0.9c-0.2,0-0.3-0.3-0.3-0.8c0-0.9-0.5-2.9-1.6-6.1c-1.1-3.3-1.8-4.9-2.2-4.9
		c-0.3,0-0.5,0.1-0.5,0.2c-0.1,0.2-0.3,0.3-0.7,0.3c-0.4,0-1-0.3-1.7-0.9c-0.7-0.6-1-1.1-1-1.5c0-0.2,0.3-0.7,0.8-1.7
		C94.8,229.5,95.1,229.1,95.3,229.1L95.3,229.1L95.3,229.1L95.3,229.1z"/>
	<linearGradient id="SVGID_11_" gradientUnits="userSpaceOnUse" x1="98.3625" y1="71.111" x2="105.2903" y2="71.111">
		<stop  offset="0" style="stop-color:#EFF0F5"/>
		<stop  offset="0.5" style="stop-color:#DBDEE7"/>
		<stop  offset="1" style="stop-color:#C9CDDB"/>
	</linearGradient>
	<path fill="url(#SVGID_11_)" d="M105.3,67.7c0,1.3-0.5,2.7-1.6,4.3c-1.1,1.7-2.5,3.1-4.1,4.3c-0.7,0.5-1.1,0.7-1.2,0.7c0,0,0,0,0,0
		c0-0.1,0.3-0.5,0.8-1.1c2.8-3,4.2-5.1,4.2-6.1c0-1-0.5-1.5-1.4-1.5c-0.5,0-0.9,0.1-1.3,0.4c-0.3,0.2-0.5,0.3-0.6,0.3
		c0,0-0.1-0.1-0.2-0.1c0-0.1,0.1-0.4,0.2-0.8c0.5-2.1,1.5-3.1,3.1-3.1C104.6,65.1,105.3,66,105.3,67.7L105.3,67.7L105.3,67.7
		L105.3,67.7z"/>
	<linearGradient id="SVGID_12_" gradientUnits="userSpaceOnUse" x1="55.6396" y1="108.8937" x2="60.2564" y2="108.8937">
		<stop  offset="0" style="stop-color:#EFF0F5"/>
		<stop  offset="0.5" style="stop-color:#DBDEE7"/>
		<stop  offset="1" style="stop-color:#C9CDDB"/>
	</linearGradient>
	<path fill="url(#SVGID_12_)" d="M60.3,106.6c0,0.9-0.4,1.8-1,2.9c-0.7,1.1-1.6,2.1-2.8,2.9c-0.4,0.3-0.7,0.5-0.8,0.5c0,0,0,0,0,0
		c0-0.1,0.2-0.3,0.6-0.7c1.9-2,2.8-3.4,2.8-4.1c0-0.6-0.3-1-0.9-1c-0.3,0-0.6,0.1-0.9,0.3c-0.2,0.1-0.3,0.2-0.4,0.2
		c0,0-0.1-0.1-0.1-0.1c0-0.1,0.1-0.2,0.1-0.5c0.3-1.4,1-2.1,2.1-2.1C59.8,104.9,60.3,105.5,60.3,106.6L60.3,106.6L60.3,106.6
		L60.3,106.6z"/>
	<linearGradient id="SVGID_13_" gradientUnits="userSpaceOnUse" x1="234.8414" y1="137.3452" x2="239.4582" y2="137.3452">
		<stop  offset="0" style="stop-color:#EFF0F5"/>
		<stop  offset="0.5" style="stop-color:#DBDEE7"/>
		<stop  offset="1" style="stop-color:#C9CDDB"/>
	</linearGradient>
	<path fill="url(#SVGID_13_)" d="M239.5,135.1c0,0.9-0.4,1.8-1.1,2.9c-0.7,1.1-1.6,2.1-2.8,2.9c-0.4,0.3-0.7,0.5-0.8,0.5
		c0,0,0,0,0,0c0-0.1,0.2-0.3,0.6-0.7c1.9-2,2.8-3.4,2.8-4.1c0-0.6-0.3-1-0.9-1c-0.3,0-0.6,0.1-0.9,0.3c-0.2,0.1-0.3,0.2-0.4,0.2
		c0,0-0.1-0.1-0.1-0.1c0-0.1,0.1-0.2,0.1-0.5c0.3-1.4,1-2.1,2.1-2.1C239,133.4,239.5,133.9,239.5,135.1L239.5,135.1L239.5,135.1
		L239.5,135.1z"/>
	<linearGradient id="SVGID_14_" gradientUnits="userSpaceOnUse" x1="206.0273" y1="87.3747" x2="210.0581" y2="87.3747">
		<stop  offset="0" style="stop-color:#EFF0F5"/>
		<stop  offset="0.5" style="stop-color:#DBDEE7"/>
		<stop  offset="1" style="stop-color:#C9CDDB"/>
	</linearGradient>
	<path fill="url(#SVGID_14_)" d="M207.5,91.3c0.5,0,0.9-0.2,1.3-0.6c0.5-0.5,0.7-1,0.7-1.7c0-0.8-0.4-1.1-1.3-1.1
		c-0.4,0-0.7,0.1-1,0.4c0-0.5,0.3-1.1,0.9-2.1c0.6-0.9,1.1-1.6,1.7-2.1c0.1-0.1,0.2-0.3,0.1-0.4c0-0.1-0.1-0.1-0.3,0
		c-0.7,0.4-1.5,1.3-2.3,2.5c-1,1.4-1.4,2.6-1.4,3.5C206,90.7,206.5,91.3,207.5,91.3L207.5,91.3L207.5,91.3L207.5,91.3z"/>
	<linearGradient id="SVGID_15_" gradientUnits="userSpaceOnUse" x1="43.5012" y1="147.6185" x2="47.5357" y2="147.6185">
		<stop  offset="0" style="stop-color:#EFF0F5"/>
		<stop  offset="0.5" style="stop-color:#DBDEE7"/>
		<stop  offset="1" style="stop-color:#C9CDDB"/>
	</linearGradient>
	<path fill="url(#SVGID_15_)" d="M45,151.5c0.5,0,0.9-0.2,1.3-0.6c0.5-0.5,0.7-1,0.7-1.7c0-0.8-0.4-1.1-1.3-1.1
		c-0.4,0-0.7,0.1-1,0.4c0-0.5,0.3-1.1,0.9-2.1c0.6-0.9,1.1-1.6,1.7-2.1c0.1-0.2,0.2-0.3,0.1-0.4c0-0.1-0.1-0.1-0.3,0
		c-0.7,0.4-1.5,1.3-2.3,2.5c-1,1.4-1.4,2.6-1.4,3.5C43.5,150.9,44,151.5,45,151.5L45,151.5L45,151.5L45,151.5z"/>
	<linearGradient id="SVGID_16_" gradientUnits="userSpaceOnUse" x1="235.4701" y1="177.4809" x2="239.5012" y2="177.4809">
		<stop  offset="0" style="stop-color:#EFF0F5"/>
		<stop  offset="0.5" style="stop-color:#DBDEE7"/>
		<stop  offset="1" style="stop-color:#C9CDDB"/>
	</linearGradient>
	<path fill="url(#SVGID_16_)" d="M237,181.4c0.5,0,0.9-0.2,1.3-0.6c0.5-0.5,0.7-1,0.7-1.7c0-0.8-0.4-1.1-1.3-1.1
		c-0.4,0-0.7,0.1-1,0.4c0-0.5,0.3-1.1,0.9-2.1c0.6-0.9,1.1-1.6,1.7-2.1c0.1-0.1,0.2-0.3,0.1-0.4c0-0.1-0.1-0.1-0.3,0
		c-0.7,0.4-1.5,1.3-2.3,2.5c-1,1.4-1.4,2.6-1.4,3.5C235.5,180.8,236,181.4,237,181.4L237,181.4L237,181.4L237,181.4z"/>
	<linearGradient id="SVGID_17_" gradientUnits="userSpaceOnUse" x1="77.6032" y1="96.2949" x2="91.1907" y2="96.2949">
		<stop  offset="0" style="stop-color:#EFF0F5"/>
		<stop  offset="0.5" style="stop-color:#DBDEE7"/>
		<stop  offset="1" style="stop-color:#C9CDDB"/>
	</linearGradient>
	<path fill="url(#SVGID_17_)" d="M91.2,92.5c0,0.4-0.6,1.4-1.6,2.9c-1.2,1.7-2.4,3-3.5,3.8c-0.7,0.5-3.1,1.3-7.1,2.3
		c-0.7,0.2-1.1,0.2-1.1,0.2c0.1-0.1,0.3-0.3,0.7-0.6c0.5-0.4,1.9-1.2,4.3-2.4c2.2-1.2,3.5-1.9,3.9-2.3c0.1-0.1,0.1-0.1,0.1-0.2
		c0-0.5-2-0.8-6-0.8c0,0-0.8,0-2.3,0.1c-0.7,0-1.1,0-1.1-0.1c0-0.1,0.1-0.3,0.3-0.6l1.4-2.4c0.4-0.7,1.2-1.1,2.3-1.3
		c0.4-0.1,1.3-0.1,2.8-0.1C88.9,90.9,91.2,91.4,91.2,92.5L91.2,92.5L91.2,92.5L91.2,92.5z"/>
</g>
</svg>
