<?xml version="1.0" encoding="utf-8"?>
<!-- Generator: Adobe Illustrator 14.0.0, SVG Export Plug-In . SVG Version: 6.00 Build 43363)  -->
<svg version="1.1" xmlns="http://www.w3.org/2000/svg" xmlns:xlink="http://www.w3.org/1999/xlink" x="0px" y="0px" width="792px"
	 height="612px" viewBox="0 0 792 612" enable-background="new 0 0 792 612" xml:space="preserve">
<g id="pen">
	<path fill="#BAA174" stroke="#000000" stroke-width="0.5" d="M613.19,30.871c0,0,4.486-3.313,19.333-5.42
		c0,0,1.276-5.239,1.022-6.454c-0.255-1.215-15.551-2.53-24.719,5.219C606.785,25.941,610.285,26.12,613.19,30.871z"/>
	<path fill="#B89D6C" stroke="#000000" stroke-width="0.5" d="M612.532,29.65c0,0,6.896-9.076,20.261-4.331
		c0,0,0.108,2.696-1.351,6.45c-0.751,1.932-0.102,19.668-0.102,19.668l-6.804,1.668c0,0-5.2-13.806-8.277-16.404
		S612.532,29.65,612.532,29.65z"/>
	<path fill="#CABC98" stroke="#000000" stroke-width="0.5" d="M625.199,63.45c0,0-1.061-8.159-1.336-10.064
		c-0.273-1.905,6.543-4.34,8.662-1.112c0.65,0.989,1.183,8.3,1.368,9.526C634.078,63.025,626.797,64.623,625.199,63.45z"/>
	<path fill="#C0CED8" d="M628.831,59.259c-0.362-1.25-0.524-2.55-0.887-3.801c-0.163-0.56-1.061-0.392-0.896,0.174
		c0.362,1.252,0.569,2.539,0.889,3.802c0.302,1.196,0.717,2.394,0.838,3.626c0.058,0.585,0.953,0.407,0.896-0.174
		C629.55,61.669,629.173,60.432,628.831,59.259z"/>
	<path fill="#FAFAE6" d="M628.02,51.927c0.293-0.486-0.479-0.927-0.796-0.443c-0.066,0.102-0.183,0.172-0.307,0.231
		c-0.019-0.018-0.036-0.036-0.054-0.054c-0.148-0.148-0.373-0.17-0.553-0.071c-0.661,0.362-0.74,1.162-0.013,1.505
		c0.672,0.317,1.541,0.101,1.849-0.611C628.242,52.263,628.16,52.059,628.02,51.927z"/>
	<polygon fill="#332A1C" points="625.866,54.813 627.483,64.243 629.1,63.031 626.944,54.679 	"/>
	<path fill="#332A1C" d="M619.066,30.001c0,0-2.826,0.859,0.314,5.762c3.143,4.903,4.607,12.135,4.713,13.729
		c0.104,1.594,3.352-0.123,3.352-0.123s-0.098-20.131-0.838-21.084C625.866,27.332,620.533,28.775,619.066,30.001z"/>
	<path fill="#AA8625" stroke="#000000" stroke-width="0.5" d="M674.214,192.562c3.209-1.373,15.182-0.092,9.931,4.705
		c-4.898,4.478-8.362,4.182-8.362,4.182S672.059,193.359,674.214,192.562z"/>
	<path fill="#231F16" d="M678.382,193.057c0,0,3.413,5.345,2.524,6.236c-0.892,0.89-2.969,1.633-2.969,1.633l-2.229-8.463
		C675.709,192.463,678.233,192.315,678.382,193.057z"/>
	<path fill="#AA8625" stroke="#000000" stroke-width="0.5" d="M431.489,261.863h-58.188c0,0-1.761,0.833-2.674,1.289
		c-0.913,0.457-0.749-7.678-0.064-8.363s2.282-0.685,2.738,0.457c0.456,1.141,58.188,0.913,58.188,0.913s6.39-0.228,6.846,1.141
		S434.455,262.547,431.489,261.863z"/>
	<polygon fill="#5C2E10" points="368.641,259.861 437.324,259.487 433.6,261.615 368.869,261.687 	"/>
	<path fill="#CABAA3" d="M431.75,258.582c0,0-56.979,0.307-58.203,0.307c-1.225,0-1.838-2.45,0.613-2.145
		c2.449,0.307,56.057,0,57.588,0.307S431.75,258.582,431.75,258.582z"/>
	<path fill="#AA8625" stroke="#000000" stroke-width="0.5" d="M444.039,187.246h92.872c0,0-0.685,5.705-2.51,6.389
		s-2.51,0.685-4.792-1.597h-85.57V187.246z"/>
	<path fill="#673D17" d="M445.494,191.816c0,0,81.688-0.231,84.365-0.053c0,0,3.469,4.409,4.326-0.876
		c0.171-1.057-86.763-0.933-88.369-0.893C444.947,190.016,445.494,191.816,445.494,191.816z"/>
	<path fill="#C9B66D" d="M521.154,188.744c0,0-67.303,0.714-70.873,0C446.71,188.029,516.512,187.851,521.154,188.744z"/>
	<path fill="#663915" stroke="#000000" stroke-width="0.5" d="M556.598,365.587c0,0-5.473,8.864,5.976,10.685
		c8.443,1.344,17.547,2.907,17.547,2.907s1.487,2.281,5.191,1.411c1.632-0.384,1.44-1.152,2.129-2.98h10.976l5.511-3.736
		l-14.397,0.077l2.092-5.75l-14.114-0.521c0,0-1.322,6.108,2.337,7.154c0,0-11.131-0.48-12.282-2.111
		c-1.15-1.632,2.105-7.135,2.105-7.135H556.598z"/>
	<path fill="#A2834B" stroke="#000000" stroke-width="0.5" d="M541.813,396.278c-16.03,3.352-33.905,5.538-51.681,5.994
		c0,0-34.928,0.302-41.378-22.21c-6.623-23.111-1.825-167.945-3.651-197.153c-1.825-29.208,23.41-40.312,41.666-39.096
		c18.255,1.217,39.264,5.02,44.74,36.053c0,0,2.363,148.68-0.68,167.543c-3.043,18.862-61.387,61.252-119.804,12.572
		c-58.416-48.68-46.853-109.53-43.812-132.044c3.043-22.514,50.999-76.072,69.259-85.816c22.853-12.195,58.255-20.366,94.367-15.274
		c37.941,5.349,37.181,21.312,36.57,37.807c-0.495,13.378-1.916,25.861,5.021,26.014c6.678,0.148,7.148-9.585,7.148-22.363
		s6.532-35.34-17.053-48.223c-20.781-11.352-38.319-16.278-87.607-10.192c-49.289,6.085-99.794,76.062-102.229,79.712
		c-2.433,3.651-20.688,67.543-12.168,93.1c8.518,25.558,29.815,91.275,59.632,97.36s39.881,13.604,61.916,14.148
		c24.792,0.611,58.524-21.874,61.699-48.861c4.073-34.637,1.734-155.138,0.519-170.351c-1.218-15.212-21.298-51.722-69.977-43.812
		c-15.206,2.472-40.663,12.823-41.271,48.115c-1.378,79.85-7.224,224.376,22.407,228.143c25.159,3.197,27.993,2.434,40.771,4.26
		c15.165,2.168,28.051,1.984,39.227,0.517C535.444,412.222,542.854,396.061,541.813,396.278z"/>
	<polygon fill="#7C5522" stroke="#000000" stroke-width="0.5" points="431.85,225.007 431.85,299.84 445.221,299.84 
		445.221,220.752 	"/>
	<path fill="#7D5321" d="M437.121,176.506c0,0,1.663-37.027,49.228-39.348c6.749-0.33,43.628,4.115,49.556,32.269
		c5.926,28.153-3.623,5.927-3.623,5.927s-4.281-31.94-45.769-32.104c-41.489-0.165-44.782,36.22-44.946,38.854
		c-0.166,2.634-1.811-15.806,5.104-24.202S438.932,163.335,437.121,176.506z"/>
	<path fill="#C69D2D" d="M519.06,401.271c0,0,3.771,1.968,11.476,0.164c7.706-1.803-9.345,11.148-9.345,11.148
		s-2.295,0.329-12.788-0.491S519.06,401.271,519.06,401.271z"/>
	<path fill="#C69D2D" d="M449.52,372.689c0,0-1.249,4.065,1.926,11.314c3.174,7.25-12.662-7.162-12.662-7.162
		s-0.74-2.196-1.842-12.664C435.84,353.711,449.52,372.689,449.52,372.689z"/>
	<path fill="#6D4822" d="M475.832,391.598c6.773,1.054,21.374,3.914,44.854-13.095c23.481-17.009-4.665,1.506-4.665,1.506
		s-15.202,8.729-31.308,8.88C468.607,389.039,475.832,391.598,475.832,391.598z"/>
	<path fill="#5D3713" d="M487.271,386.932c0,0,20.171-0.601,30.707-10.234c10.535-9.634-12.343,8.429-29.051,8.277
		C472.221,384.824,487.271,386.932,487.271,386.932z"/>
	<path fill="#5A3413" d="M492.991,381.513c0,0,9.634,0.302,22.88-8.729c13.245-9.031-0.452-1.355-0.452-1.355
		s-11.741,6.172-19.417,7.376C488.325,380.009,492.991,381.513,492.991,381.513z"/>
	<path fill="#4C2811" d="M542.362,345.238c0,0-1.506,13.095-5.871,16.557c-4.364,3.462-5.569-6.321,0.302-16.406
		C542.663,335.305,542.362,345.238,542.362,345.238z"/>
	<path fill="#3E210F" d="M541.084,112.546c0,0-29.918-3.182-69.405,1.542c-39.489,4.725-24.867,19.368-24.867,19.368
		s19.823-12.197,53.789-17.496S533.768,112.541,541.084,112.546z"/>
	<path fill="#71471C" d="M414.326,158.302c0,0,39.271-44.802,124.364-31.263v-6.389c0,0-58.416-5.477-99.946,12.323L414.326,158.302
		z"/>
	<path fill="#71471C" d="M548.179,120.967l0.276,9.68c0,0,19.636,8.02,19.899,21.95c0.328,17.318-0.816,18.704-0.816,18.704
		l1.659-3.596c0,0,4.425-20.465-3.595-31.804C557.779,124.841,555.48,125.074,548.179,120.967z"/>
	<path fill="#FDE367" d="M535.549,121.631c0,0-19.274-3.427-23.986-3.427c-4.713,0-24.417-1.714-43.691,5.141
		c-19.277,6.853,15.219-12.413,63.396-6.855C553.54,119.06,535.549,121.631,535.549,121.631z"/>
	<polygon fill="#CEC1C0" points="438.964,301.88 438.051,301.88 438.051,253.96 438.964,253.96 438.964,301.88 	"/>
	<path fill="#885E25" d="M434.004,171.869l-1.34-0.274c0.076-0.375,8.14-37.264,52.44-37.264c0.197,0,0.39,0,0.59,0.001
		c19.076,0.141,43.552,5.751,51.815,31.684c0.148,0.464,0.254,0.805,0.338,0.995l-1.256,0.549c-0.104-0.235-0.221-0.61-0.387-1.128
		c-8.015-25.15-31.897-30.593-50.521-30.73c-0.191-0.001-0.387-0.001-0.578-0.001C441.898,135.7,434.08,171.506,434.004,171.869
		L434.004,171.869z"/>
	<path fill="#8D6628" stroke="#000000" stroke-width="0.5" d="M535.086,122.441l-0.017,16.961l14.071-0.076l-0.685-17.57
		C548.456,121.756,536.894,119.639,535.086,122.441"/>
	<path fill="#BB9C59" stroke="#000000" stroke-width="0.5" d="M534.63,182.911l0.228-40.846c0,0-2.496-3.423,0.229-4.335
		c4.775-1.598,13.271-1.086,14.832,0.229c1.353,1.14,0,3.879,0,3.879l-0.456,41.302c0,0,0-9.356,0,6.16s-6.085,22.211-4.261,48.376
		c0.909,13.037-2.434,90.666-2.434,90.666c6.694,18.864,22.184,34.196,45.942,33.163c27.99-1.217,48.679-25.86,48.679-25.86
		c5.916-8.824,11.398-14.413,18.694-45.79c9.128-39.249-3.178-74.084-3.481-79.256c-0.305-5.172-16.43-88.232-16.43-88.232
		l-8.214-39.857l-0.913-9.128l9.431-1.825l17.646,87.624l20.081,132.043c0,32.252-35.175,62.03-43.202,66.631
		c-24.949,14.3-58.409,21.741-81.845,2.131c-30.923-25.877-19.167-83.973-19.167-83.973s3.363-53.988,2.618-58.449
		c-0.923-5.537,1.188-20.829,1.188-20.829L534.63,182.911z"/>
	<path fill="#4A2711" d="M532.65,334.595c0,0,10.77,51.469,77.772,32.8l1.44-11.917c0,0-27.591,15.186-51.147-1.609
		c-10.467-7.461-15.216-18.598-15.893-20.964C544.147,330.537,532.65,334.595,532.65,334.595z"/>
	<path fill="#4A2711" stroke="#000000" stroke-width="0.5" d="M532.235,211.571l14.778,0.304c0,0-2.285,27.999-2,30.284
		c0.287,2.286-0.857,42.282-1.143,49.139c-0.285,6.855,0.287,31.71-0.285,32.567c-0.57,0.857-13.998,0.857-13.998,0.857
		s-2.287-27.426-1.43-31.712c0.857-4.285,2.857-24.569,2.857-25.711s1.143-10.571,0.857-14.856
		C531.586,248.158,532.235,211.571,532.235,211.571z"/>
	<path fill="#422A11" d="M651.544,190.172c0,0,10.952,44.135,10.63,77.96c-0.321,33.825-13.853,68.939-35.113,80.537
		c0,0,36.438-10.961,37.691-86.658C665.072,242.683,656.379,195.971,651.544,190.172z"/>
	<path fill="#868268" d="M665.509,278.249l-0.876-0.258c4.743-16.127-2.828-49.048-2.905-49.378l0.89-0.207
		C662.694,228.738,670.319,261.894,665.509,278.249L665.509,278.249z"/>
	<path fill="#4A2711" d="M632.623,352.257c0,0,29.54-24.912,36.842-51.382c7.303-26.47-3.92,36.344-36.979,55.628
		C609.473,369.927,632.623,352.257,632.623,352.257z"/>
	<path fill="#533D29" d="M627.447,73.369c0,0,10.736,64.25,11.271,68.067c0.537,3.816,5.904,8.906,5.904,8.906l-14.492-79.52
		L627.447,73.369z"/>
	<path fill="#B7842C" d="M534.991,335.174c0,0,6.434,35.798,44.93,32.938c19.691-1.462-10.484-7.445-20.587-13.266
		s-14.609-15.149-17.014-19.645C539.913,330.708,534.991,335.174,534.991,335.174z"/>
	<path fill="#653C16" d="M535.432,335.159c0,0,13.388,33.048,44.411,32.047c0,0-13.128-3.578-25.146-12.353
		c-4.57-3.337-14.368-15.021-14.694-19.694C539.676,330.485,535.432,335.159,535.432,335.159z"/>
	<polygon fill="#9F9A89" points="645.168,150.869 629.346,71.852 630.24,71.673 646.062,150.69 645.168,150.869 	"/>
	<path fill="#AC8632" d="M544.802,336.075c0,0,18.886,40.081,61.153,24.188c42.267-15.893,48.605-42.562,50.635-47.634
		c2.03-5.071,3.045-7.439-9.129,11.497c-12.173,18.936-38.152,37.742-62.499,38.419C560.616,363.222,554.27,349.601,544.802,336.075
		z"/>
	<path fill="#C69D2D" stroke="#000000" stroke-width="0.5" d="M597.815,332.729c0,0,5.439,6.775,7.912,8.519
		c2.346,1.653,14.299,18.56-4.261,30.729c-18.559,12.169-52.939,24.644-58.416,25.557s-8.822,14.299-8.822,14.299
		s36.358-2.891,67.392-24.492c31.033-21.603,24.878-32.381,22.97-38.487c-2.281-7.302-15.212-17.95-16.124-18.559
		C607.553,329.687,597.815,332.729,597.815,332.729z"/>
	<path fill="#9C875B" stroke="#000000" stroke-width="0.5" d="M624.002,126.625c0,0,8.824,8.215,10.953,3.651
		c2.13-4.563-0.608-17.951-0.913-22.515c-0.305-4.563-2.738-24.644-2.738-24.644s-5.172-1.825-4.563,3.347
		c0.607,5.171,4.868,33.467,4.563,36.813c-0.305,3.347-1.825,4.564-9.127-1.825C614.874,115.063,624.002,126.625,624.002,126.625z"
		/>
	<path fill="#916928" stroke="#000000" stroke-width="0.5" d="M568.173,187.931c0,0-5.781,7.607-1.825,13.083
		c3.954,5.477,27.077,2.13,27.077,2.13l-1.825-16.43C591.6,186.714,570.911,185.8,568.173,187.931z"/>
	<path fill="#AA8625" stroke="#000000" stroke-width="0.5" d="M451.856,230.296c0,0-3.437,6.446-1.958,7.555
		c1.48,1.111,3.515,2.405,3.515,2.405l-8.858,1.449c0,0,3.533-6.003,2.054-11.181C445.129,225.347,451.856,230.296,451.856,230.296z
		"/>
	<polygon fill="#AA8625" stroke="#000000" stroke-width="0.5" points="619.56,273.083 628.749,272.831 628.245,276.859 
		616.791,276.23 	"/>
	<polygon fill="#AA8625" stroke="#000000" stroke-width="0.5" points="598.429,204.506 604.886,209.395 605.061,223.533 
		593.366,221.613 	"/>
	<path fill="#9A7F40" stroke="#000000" stroke-width="0.5" d="M635.523,222.888c0.262-2.616,15.508-9.265,18.025-11.364
		c2.351-1.959,9.405,3.527-0.783,9.405c-10.188,5.877-12.147,4.31-13.324,3.918c-1.175-0.392,0,4.701,0,6.66
		c0,1.959-14.104-0.782-14.104-0.782S635.131,226.806,635.523,222.888z"/>
	<path fill="#AA8625" stroke="#000000" stroke-width="0.5" d="M470.265,98.024c-22.417,7.215-59.528,26.383-78.709,52.94
		c0,0-54.02,58.567-39.416,125.654c12.511,57.475,28.136,83.623,41.851,92.49c57.313,37.059,67.445,32.315,91.851,20.702
		c11.862-5.645,41.321-39.405,29.696-113.039c-3.65-23.124,4.872-62.463,10.707-64.274c5.725-1.775,12.871-1.141,46.948-0.531
		c34.076,0.608,16.732-13.845,16.732-13.845s-7.299-0.075-34.077-1.217c-29.625-1.263-37.478-1.005-46.677,16.143
		c-9.455,17.63-3.371,59.617-5.652,104.646c-2.284,45.072-17,56.815-32.707,64.078c-19.021,8.794-47.615-7.794-57.961-18.139
		c-15.518-15.519-52.497-78.343-38.727-131.74c15.222-59.032,47.418-82.387,63.813-95.381c10.523-8.341,24.449-15.521,37.955-18.787
		c0,0,3.213-15.395-5.073-19.685"/>
	<path fill="#745A25" d="M378.681,343.834c0,0-41.455-58.604-12.778-130.295l7.074,7.758c0,0-12.778,41.302-10.04,62.295
		c2.738,20.993,9.584,45.409,18.255,55.449C389.862,349.082,378.681,343.834,378.681,343.834z"/>
	<path fill="#7A4D1F" d="M506.765,270.044c-2.042,0.909,0.23,7.951,0.684,14.538c0.454,6.587-2.273,9.993-2.273,9.993
		s5.451-5.452,8.859-5.906c3.407-0.453,1.817-9.54,0.227-16.809C512.671,264.592,510.388,268.431,506.765,270.044z"/>
	<path fill="#4C2F19" d="M509.038,294.577c-2.962,0,0,4.316,0.227,7.27c0.228,2.953,4.543,1.135,7.042,0.908s1.59-6.134,1.363-8.404
		C517.442,292.079,511.082,294.577,509.038,294.577z"/>
	<path fill="#7F5622" d="M508.811,312.066c-0.616-2.002-0.001,8.859,0.453,11.585c0.455,2.726,0.455,2.726,0.455,2.726
		s2.498,0,5.451-0.227c2.953-0.228,2.727-5.679,2.499-15.22C517.441,301.391,509.72,315.02,508.811,312.066z"/>
	<path fill="#331A0F" d="M507.146,232.702c-1.175,3.289,1.568,39.203,3.975,40.509c2.405,1.306-0.325-8.37,1.894-7.382
		c1.449,0.646,2.762-25.836,4.655-33.029C518.762,228.646,508.32,229.413,507.146,232.702z"/>
	<polygon fill="none" stroke="#000000" stroke-width="0.5" points="498.866,299.525 523.193,299.525 523.193,314.161 
		497.628,314.43 	"/>
	<path fill="#6A3816" d="M507.522,362.269c-5.887,12.732-13.143,27.791-41.479,34.771c-48.345,11.91-18.049-3.18-18.049-3.18
		s40.466,6.998,56.591-34.075c0,0,4.411-16.582,4.107-24.34c-0.305-7.759,6.541-0.608,6.541-0.608S512.946,350.536,507.522,362.269z
		"/>
	<path fill="#8B8B69" d="M508.562,349.292l-0.821-0.397c3.393-6.996,0.635-87.349,0.606-88.188l0.913-0.03
		C509.375,264.109,512.052,342.096,508.562,349.292L508.562,349.292z"/>
	<polygon fill="#B38B2E" stroke="#000000" stroke-width="0.5" points="498.866,299.525 523.193,299.525 523.193,314.161 
		497.628,314.43 	"/>
	<path fill="#4B3918" d="M380.785,341.075c-0.095-0.185-9.566-18.809-16.064-43.189c-6.006-22.533-10.629-54.738,1.455-80.207
		l0.824,0.392c-22.91,48.292,14.221,121.851,14.599,122.588L380.785,341.075L380.785,341.075z"/>
	<polygon fill="none" stroke="#000000" stroke-width="0.5" points="505.709,259.048 524.354,259.62 522.822,273.196 
		501.643,273.409 	"/>
	<polygon fill="#B38B2E" stroke="#000000" stroke-width="0.5" points="505.709,259.048 524.354,259.62 522.822,273.196 
		501.643,273.409 	"/>
	<path fill="#573111" d="M443.431,390.059c0,0,46.189,6.817,56.791-29.225c10.601-36.041-0.908-2.119-0.908-2.119
		s-14.858,39.955-59.077,26.932C396.016,372.622,443.431,390.059,443.431,390.059z"/>
	<path fill="#C4BEA0" d="M461.791,387.993c-0.742-0.624-2.02-0.079-2.906-0.165c-0.878-0.084-1.779,0.183-2.633,0.336
		c-1.078,0.194-1.959-0.111-2.966-0.116c-0.144-0.048-0.287-0.096-0.433-0.151c-0.452-0.171-0.646,0.553-0.199,0.723
		c0.035,0.014,0.071,0.024,0.107,0.038c0.007,0.009,0.007,0.021,0.016,0.03c0.502,0.535,1.09,0.721,1.718,0.751
		c0.266,0.283,0.604,0.146,1.138,0.254c1.331,0.267,2.656-0.209,3.926-0.62c0.766-0.069,1.517-0.19,2.155-0.491
		C461.923,388.483,461.966,388.141,461.791,387.993z"/>
	<path fill="#2D2113" d="M507.779,336.054c0,0,0.152,58.874-57.959,57.048c0,0,55.98,8.67,58.872-57.351"/>
	<path fill="#5E3F17" d="M442.022,385.629c0,0,12.778,1.825,16.429,1.064c3.651-0.76-6.54-0.607-11.104-4.411
		C442.783,378.479,442.022,385.629,442.022,385.629z"/>
	<path fill="#231F16" stroke="#000000" stroke-width="0.5" d="M685.714,240.131c0,0,15.646,0.452,15.408,4.023
		c-0.28,4.173-7.484,6.236-12.795,2.773C683.612,243.852,685.714,240.131,685.714,240.131z"/>
	<polygon fill="none" stroke="#000000" stroke-width="0.5" points="499.569,320.711 523.878,320.511 523.896,335.915 
		496.353,336.632 	"/>
	<polygon fill="#B38B2E" stroke="#000000" stroke-width="0.5" points="499.569,320.711 523.878,320.511 523.896,335.915 
		496.353,336.632 	"/>
	<path fill="#AA8625" stroke="#000000" stroke-width="0.5" d="M482.831,95.287c78.952-13.007,127.521,17.378,150.185,39.486
		c45.371,44.258,47.881,70.956,49.707,77.345c1.825,6.39,12.811,36.631,6.389,83.061c-7.471,54.003-36.679,106.029-97.833,137.062
		c-60.429,30.666-134.917,23.58-167.776,11.715c-32.859-11.866-125.046-47.463-139.65-51.114c-14.604-3.65-32.859-10.04-66.63-7.302
		s-73.02,23.731-80.322,31.946c-7.302,8.215-1.993,3.803-22.818,25.557c-24.583,25.681-28.295-13.691-28.295-13.691
		c2.738-18.255,5.475-54.809,46.55-130.522c40.769-75.149,91.274-145.126,110.442-150.603c30.622-8.75,17.44,29.169,14.74,47.918
		c-3.052,21.196-6.981,82.604,76.307,137.141c91.971,60.222,117.032,77.082,165.437,84.201
		c52.869,7.776,103.297-30.279,121.395-43.812c21.347-15.961,44.454-75.08,46.279-87.858s1.74-78.566-36.238-122.074
		c-48.054-55.048-100.24-51.024-106.688-51.293c-3.294-0.137-27.523,1.435-33.283,2.156c-3.84,0.481-15.59,3.496-15.59,3.496
		s2.021-12.944-5.097-20.062C470.038,98.04,478.209,96.048,482.831,95.287z"/>
	<polygon fill="none" stroke="#000000" stroke-width="0.5" points="588.693,121.603 600.48,122.073 600.165,139.708 586.519,139.29 
			"/>
	<path fill="#3E2712" d="M674.117,281.24l-2.738-0.062c1.389-60.257-18.535-98.52-35.492-120.008
		c-18.327-23.224-37.139-32.331-37.328-32.42l1.175-2.473c0.792,0.375,19.582,9.475,38.304,33.198
		C655.272,181.314,675.523,220.169,674.117,281.24L674.117,281.24z"/>
	<path fill="#674725" d="M373.677,190.634c0,0,26.374-48.518,65.435-71.407c39.063-22.89,79.37-20.9,90.318-21.149
		c10.947-0.248,41.054,4.729,48.518,8.213c7.465,3.482,0.248,15.925,0.248,15.925s-21.082-13.56-57.693-11.363
		c-63.785,3.828-75.586,14.034-116.721,56.398c-9.101,9.373-23.886,38.069-25.38,42.05
		C376.909,213.282,370.942,198.838,373.677,190.634z"/>
	<path fill="#77441C" d="M525.197,105.3c0,0-70.911-5.224-113.953,44.288c-43.044,49.512-3.733,2.239-3.733,2.239
		s27.866-44.287,108.23-51.503C515.741,100.324,533.905,102.313,525.197,105.3z"/>
	<path fill="#CFC89F" d="M600.707,121.124c0,0,47.919,26.013,72.107,84.429c0,0-25.101-65.718-72.563-88.993L600.707,121.124z"/>
	<path fill="#442B12" d="M667.749,286.134c0,0,2.031-31.295-5.62-59.466c-5.837-21.493-15.823-42.951-28.342-59.992
		c-8.484-11.548-34.648-33.062-44.688-38.082c-10.041-5.02-33.192-14.498-42.776-14.955c-9.584-0.456,19.818-5.263,55.754,19.35
		c16.658,11.409,35.968,28.845,42.289,40.617c11.709,21.804,15.771,30.964,20.69,48.984
		C668.904,236.686,671.217,262.599,667.749,286.134z"/>
	<polygon fill="#754B1E" stroke="#000000" stroke-width="0.5" points="588.693,121.603 600.48,122.073 600.165,139.708 
		586.519,139.29 	"/>
	<path fill="#E4E1C9" d="M244.436,339.142c0,0,17.342-10.04,135.086,50.201l19.167,18.255
		C398.689,407.598,294.637,340.967,244.436,339.142z"/>
	<path fill="#6F431A" d="M151.336,396.645c144.757-36.189,247.354,37.423,247.354,37.423c7.303-13.691,45.807,2.586,38.335-2.738
		c-7.47-5.325-90.361-38.336-139.649-63.893c-49.288-25.557-73.932-25.557-77.583-41.073c-5.5-23.372-52.027-83.06-52.027-83.06
		s-57.503,85.798-56.59,125.958C112.088,409.423,140.383,399.383,151.336,396.645z"/>
	<path fill="#C89E2D" d="M154.987,298.067c0,0-10.953,11.866-10.04,19.168c0.913,7.303,43.812,11.866,52.026,10.953
		s4.564-7.302,0.913-10.04c-3.651-2.738-5.476-12.778-5.476-18.255S154.987,298.067,154.987,298.067z"/>
	<path fill="#6F431A" d="M154.684,275.857c0.458-1.309,25.557-43.204,37.12-49.897c9.992-5.785,28.901-9.126,52.633,40.162
		c23.731,49.288,83.973,79.408,97.664,87.623c13.691,8.215,48.375,27.383,60.241,31.946c11.866,4.563,44.724,38.336,137.824,34.685
		c0,0-98.577,34.685-319.46-129.609c-13.818-10.279-33.896,38.361-58.416,17.342C143.123,291.678,154.226,277.166,154.684,275.857z"
		/>
	<path fill="#9D702A" stroke="#000000" stroke-width="0.5" d="M443.127,407.446c0,0,40.13,27.779,67.994,5.068
		c31.677-25.816,14.152-65.31,2.743-66.679s-42.885,7.918-50.165,11.749c-3.48,1.831-26.916,4.577-14.64-19.052
		c10.448-20.11-4.563-12.321-4.563-12.321s-14.893,10.68-13.389,24.965c1.098,10.437,9.154,20.873,17.952,20.216
		c13.229-0.987,42.442-15.974,42.442-15.974s12.778,0,18.255,7.303c5.477,7.302,5.368,26.563-2.847,34.778
		s-34.575,16.335-58.307-3.289c-23.732-19.624-20.994-49.288-20.081-56.59s16.501-20.684,24.374-23.431
		c6.002-2.094,8.484-13.079,8.484-13.079s-36.762,12.363-41.326,22.404c-4.562,10.04-12.929,40.57,0.254,55.635
		C426.697,386.453,423.959,393.755,443.127,407.446z"/>
	<path fill="#AA8625" stroke="#000000" stroke-width="0.5" d="M355.046,291.224c0,0-3.651,7.605,0.913,19.472
		c4.564,11.865,9.127,27.687-4.563,27.078c-13.691-0.609-31.642-18.256-33.164-18.864c-1.521-0.607-3.346,0.61-0.608,3.044
		c2.738,2.433,27.992,21.298,34.077,20.993c6.084-0.306,14.907-2.738,13.994-13.691S354.741,293.049,355.046,291.224z"/>
	<path fill="#5E3010" d="M513.492,372.154c-0.937-6.447-3.409-11.493-10.735-15.534c0,0,12.77,3.916,13.01,21.598
		c0.127,9.346-2.021,17.303-16.167,25.133C499.6,403.351,517.028,396.53,513.492,372.154z"/>
	<path fill="#713E19" d="M437.484,390.212c0,0,27.521,24.768,49.96,21.804c22.439-2.964,28.367-11.431,32.601-20.745
		c4.234-9.314-0.212-22.228-1.905-25.191c-1.694-2.964-9.525-9.738-11.431-10.585c-1.906-0.847,11.641,1.906,16.934,16.089
		c5.293,14.184-4.296,29.132-9.655,33.28c-4.544,3.519-26.332,18.371-50.465,6.517c-24.132-11.854-27.411-16.222-26.988-13.259
		c0.425,2.964,22.129,15.387,26.452,18.672c0,0-24.723-8.126-36.652-26.624C419.238,379.166,437.484,390.212,437.484,390.212z"/>
	<path fill="#5F4629" d="M355.047,291.224c0,0-1.132,6.988,3.432,18.854c4.563,11.865,10.247,31.07-3.444,30.462
		c-13.691-0.608-34.898-18.861-36.421-19.469c-1.521-0.608-3.728-1.552-0.989,0.882c2.738,2.433,27.99,21.298,34.076,20.993
		c6.084-0.306,14.907-2.738,13.995-13.691C364.783,318.302,354.743,293.049,355.047,291.224z"/>
	<path fill="#AA8625" stroke="#000000" stroke-width="0.5" d="M439.957,261.248c-8.735,0-15.816,7.083-15.816,15.817
		c0,8.735,7.081,15.815,15.816,15.815s15.816-7.08,15.816-15.815C455.773,268.331,448.692,261.248,439.957,261.248z
		 M439.893,289.717c-6.916,0-12.527-5.609-12.527-12.528c0-6.918,5.611-12.529,12.527-12.529c6.921,0,12.529,5.611,12.529,12.529
		C452.422,284.107,446.813,289.717,439.893,289.717z"/>
	<path fill="#AA8625" stroke="#000000" stroke-width="0.5" d="M482.982,272.208c0,0,0,9.432-1.218,10.953
		c-1.216,1.521,20.386,1.217,20.386,1.217s-2.131-11.865-0.608-13.996C503.063,268.252,482.982,272.208,482.982,272.208z"/>
	<path fill="#785830" d="M424.879,276.772c-1.137-1.619,1.486,13.672,11.532,15.404c6.831,1.179,14.106-1.61,17.315-8.363
		c2.881-6.066,1.107-12.619-0.588-9.895c-1.328,2.132,0.158,3.589,0.007,5.566c-0.151,1.978-4.411,8.215-6.541,9.127
		c-2.13,0.913-13.236,3.805-17.647-3.346C424.545,278.116,425.414,277.536,424.879,276.772z"/>
	<path fill="#33241D" d="M481.662,271.212c0,0,4.048,0.935,1.246,11.52c-2.803,10.585,13.076,0.312,13.076,0.312
		s-2.803-2.491-3.425-14.322C491.936,256.891,481.662,271.212,481.662,271.212z"/>
	<path fill="#E8EDDD" d="M475.173,100.308c0,0,14.283-6.043,63.856-3.159C539.029,97.149,479.155,97.561,475.173,100.308z"/>
	<path fill="#65411F" d="M590.539,139.027c1.269,23.417-4.256,52.986-3.96,79.175c0,0,0.608,80.931,1.218,84.885
		c0.607,3.955,13.54,0.152,13.54,0.152l-0.438-163.939C600.898,139.301,590.479,137.942,590.539,139.027z"/>
	<polygon fill="none" stroke="#000000" stroke-width="0.5" points="608.697,124.19 608.697,139.326 623.583,139.032 
		623.073,123.733 	"/>
	<path fill="#2D373A" d="M662.244,340.827c0,0,14.1-55.622,14.1-66.098c0-6.394,0-17.095-1.164-29.907
		c-3.477-38.24-17.893-63.687-29.373-78.3c-12.443-15.838-26.041-27.852-26.158-27.92l0.911-1.581
		c0.49,0.282,13.964,12.211,26.621,28.297c11.659,14.815,26.295,40.606,29.817,79.339c1.171,12.894,1.171,23.647,1.171,30.072
		c0,10.598-8.885,51.303-15.614,65.554L662.244,340.827z"/>
	<polygon fill="#8D6628" stroke="#000000" stroke-width="0.5" points="608.697,124.19 608.697,139.326 623.583,139.032 
		623.073,123.733 	"/>
	<path fill="#A0845D" stroke="#000000" stroke-width="0.5" d="M609.548,164.313c-0.913-0.229-1.518-1.635-1.518-1.635l-5.63-0.077
		c0.266,1.283-1.156,1.596-1.156,1.596l-0.229,15.289l-13.843,8.211l-0.745-49.284c0,0,9.042,0.376,13.463,0.685
		c3.255,0.228,0.896,3.726,0.896,3.726l-0.076,13.006c1.151,0.268,1.688,1.815,1.688,1.815l5.248,0.053
		c0.228-1.141,1.827-1.258,1.827-1.258l-0.456-15.289c0,0-2.526-3.652,0.228-4.335c4.997-1.24,12.982-0.632,14.832,0.228
		c1.961,0.912,0,3.879,0,3.879l0.457,41.53c-0.672,3.947,0.4,27.418-1.293,39.246c-0.519,3.616-2.435,10.65-2.13,16.736
		c0.305,6.084,0.607,74.845,0.607,78.8s-5.492,15.28-15.517,12.776c-4.866-1.215-2.434-76.364-2.434-76.364s5.78-23.429,6.39-29.513
		c0.607-6.086-0.688-30.478-0.095-35.624L609.548,164.313z"/>
	<path fill="#684D38" d="M585.627,142.613c0,0,7.006-3.957,14.454,0.061c0,0-4.169-1.687-7.287-1.615
		C588.934,141.147,585.707,142.584,585.627,142.613z"/>
	<path fill="#85652A" d="M609.387,212.48c0,0-5.527,74.437-6.715,99.379c-1.188,24.939,15.044,19.793,14.253,1.583
		c-0.792-18.211,1.838-64.459,2.374-77.988c0.537-13.52,1.98-22.566-0.791-29.296c-2.771-6.729-1.188-19.793-1.188-19.793
		l-7.735-20.798L609.387,212.48z"/>
	<polygon fill="none" stroke="#000000" stroke-width="0.5" points="575.61,122.364 575.881,137.235 589.967,137.582 
		590.062,122.212 	"/>
	<path fill="#CBA84C" stroke="#000000" stroke-width="0.5" d="M548.549,110.575l0.229,12.094c-5.934-2.51-13.691-0.229-13.691-0.229
		l0.229-13.006c0.607-9.356,5.781-27.078,30.12-27.078s36.205,16.429,34.987,41.074c0,0-13.994-3.043-16.732,0l-1.825-21.906
		c0,0-9.128-5.781-19.777-4.563C551.438,98.177,548.397,108.37,548.549,110.575z"/>
	<path fill="#442C14" d="M598.039,178.647c-0.005-0.475-0.555-47.555-0.555-53.597c0-0.465,0.003-0.96,0.006-1.478
		c0.041-6.312,0.104-15.852-5.102-19.818l0.552-0.726c5.568,4.243,5.506,14.056,5.463,20.549c-0.003,0.517-0.007,1.009-0.007,1.473
		c0,6.036,0.551,53.111,0.556,53.586L598.039,178.647L598.039,178.647z"/>
	<path fill="#3B2011" d="M591.948,106.693v76.557l-5.249,1.908C586.699,185.158,586.699,108.124,591.948,106.693z"/>
	<polygon fill="#8D6628" stroke="#000000" stroke-width="0.5" points="575.61,122.364 575.881,137.235 589.967,137.582 
		590.062,122.212 	"/>
	<path fill="#5F3D16" d="M579.817,101.244l3.813-4.854c0,0-21.787-12.153-35.015,5.2c-3.781,4.961-3.656,20.633-3.656,23.925
		c0,0,2.421,51.613,2.425,54.213c0.005,6.729,1.43,16.892,1.43,16.892l0.406-3.049l0.697-51.735c1.335-3.96-1.104-4.164-1.104-4.164
		s-0.812-25.408-0.155-29.759C548.809,106.925,555.647,87.866,579.817,101.244z"/>
	<path fill="#826226" d="M546.689,101.048c0,0,18.102-22.21,37.27-3.651C583.959,97.396,570.572,84.771,546.689,101.048z"/>
	<path fill="#D3C786" d="M586.758,92.551c0,0-11.365-7.028-18.393-7.028c0,0,16,5.533,18.242,8.822L586.758,92.551z"/>
	<path fill="#A68039" d="M623.166,115.825l0.228,10.267c-5.933-2.51-14.832-0.457-14.832-0.457s0.086-3.007-0.228-10.953
		c-0.685-17.344-18.714-11.941-18.561-2.205c0.14,8.927,0.306,12.778,0.306,12.778c-5.934-2.51-14.604,0-14.604,0v-13.083
		c0,0-0.285-24.396,24.947-22.819C619.895,90.572,623.394,110.046,623.166,115.825z"/>
	<path fill="#5B3B16" d="M589.384,121.765c0,0-4.283-20.515,8.341-21.191c12.624-0.677,14.789,11.007,14.868,13.526
		c0.104,3.279,0.768,21.676,0,21.868c-3.268,0.816-3.326,0.471-3.299,0.51c0.349,0.508-0.396-20.218-0.562-23.276
		c-0.144-2.635-2.243-11.217-10.095-10.095C585.327,105.006,590.927,117.548,589.384,121.765z"/>
	<path fill="#AF8F52" stroke="#000000" stroke-width="0.5" d="M574.79,139.555c0,0-2.391-3.576,0.82-4.565
		c4.92-1.515,11.733-0.953,13.54,0c2.738,1.446,0.7,4.336,0.7,4.336s0.369,39.552-0.396,41.907
		c-4.945,15.213-14.811,6.467-14.893-0.833L574.79,139.555z"/>
	<path fill="#5D3A16" stroke="#000000" stroke-width="0.5" d="M565.13,231.971c0,0-1.913,8.98,1.218,10.649
		c9.414,5.019,28.295-8.215,28.295-8.215L565.13,231.971z"/>
	<path fill="#5D3A16" stroke="#000000" stroke-width="0.5" d="M566.955,270.078c0,0-5.744,10.208-0.912,14.604
		c18.521,16.851,19.531-11.714,19.531-11.714L566.955,270.078z"/>
	<path fill="#99793E" d="M680.283,332.047c0,0,21.906-76.214,2.282-107.704C682.565,224.343,693.062,265.873,680.283,332.047z"/>
	<path fill="#5D3A16" stroke="#000000" stroke-width="0.5" d="M565.13,310.543c0,0-1.521,12.779,1.825,15.517
		c3.347,2.738,20.08-6.693,19.775-10.648C586.428,311.456,567.26,309.022,565.13,310.543z"/>
	<path fill="#734C1E" d="M586.449,236.986c0,0-17.155-14.865-16.892-1.564C569.822,248.72,586.713,238.941,586.449,236.986z"/>
	<path fill="#734C1E" d="M566.603,273.936c0,0,21.376-0.236,21.112,1.655s-16.627,2.364-17.155,5.437
		C570.032,284.101,564.756,276.772,566.603,273.936z"/>
	<path fill="#734C1E" d="M584.973,315.507c-2.091-1.095-12.94-1.501-16.711-0.511c-3.771,0.989,4.653,4.817,9.366,2.809
		c4.883-2.081,5.191-2.364,4.696-0.312C581.826,319.546,586.902,316.516,584.973,315.507z"/>
	<path fill="#84683D" stroke="#000000" stroke-width="0.5" d="M663.555,342.032c0,0,1.521,3.043,3.954,2.435
		c2.436-0.609,5.911-13.877,11.258-15.213c6.084-1.521,13.387,1.521,13.083,7.302c-0.225,4.265-1.825,6.998,0,6.998
		c3.36,0,5.477-2.13,5.477-4.26s1.216-10.648-8.52-14.908C676.048,318.805,663.859,336.251,663.555,342.032z"/>
	<path fill="#311E10" d="M602.983,297.429c-1.136-48.292,7.044-96.3,7.044-96.3s3.344,36.804,3.824,40.628
		c0.478,3.824,0,23.422-0.956,38.239c-0.955,14.816,2.866,43.972-5.259,43.017C605.188,322.725,603.35,312.923,602.983,297.429z"/>
	<path fill="#7D5C26" stroke="#000000" stroke-width="0.5" d="M398.706,214.4c0,0-1.387,0.419-2.836,1.052
		c0.793-0.581,1.316-1.513,1.316-2.573c0-1.765-1.432-3.194-3.195-3.194c-1.765,0-3.194,1.43-3.194,3.194
		c0,1.765,1.43,3.195,3.194,3.195c0.289,0,0.563-0.051,0.829-0.123c-1.191,0.62-2.198,1.358-2.198,2.1l1.521,4.26l7.606-3.955
		L398.706,214.4z"/>
	<path fill="#7D5C26" stroke="#000000" stroke-width="0.5" d="M396.576,246.042l-3.954,2.738l-2.13,2.738c0,0,0.585,0.583,1.35,1.26
		c-0.143-0.02-0.287-0.044-0.437-0.044c-1.765,0-3.195,1.43-3.195,3.195c0,1.765,1.43,3.195,3.195,3.195
		c1.765,0,3.194-1.43,3.194-3.195c0-0.467-0.105-0.907-0.285-1.307c0.287,0.148,0.544,0.242,0.742,0.242
		c1.217,0,4.564-4.563,4.564-4.563L396.576,246.042z"/>
	<path fill="#AA8625" stroke="#000000" stroke-width="0.5" d="M434.912,216.834c-21.814,0.121-39.499-4.998-46.04,8.997
		c-7.783,16.652,14.092,15.647,14.092,15.647s-5.172-10.345,2.436-10.649c7.605-0.304,48.207-3.652,50.336-3.956
		C457.866,226.569,439.525,219.858,434.912,216.834z"/>
	<polygon fill="none" stroke="#000000" stroke-width="0.5" points="505.427,280.979 505.709,294.874 525.165,294.498 
		523.813,280.439 	"/>
	<path fill="#766134" d="M592.387,142.266v39.153l3.332-0.278v-39.152C595.719,141.988,593.22,138.656,592.387,142.266z"/>
	<polygon fill="#B38B2E" stroke="#000000" stroke-width="0.5" points="505.427,280.979 505.709,294.874 525.165,294.498 
		523.813,280.439 	"/>
	<path fill="#BB9C59" stroke="#000000" stroke-width="0.5" d="M404.322,216.221c0,0,3.891,7.307,0.24,14.836h43.355l-9.583-15.289
		l-31.96,0.225L404.322,216.221z"/>
	<path fill="#F1F3F0" d="M399.514,218.624c0,0,29.186-0.182,33.749,0.502s-2.737-2.51-2.737-2.51S400.198,217.254,399.514,218.624z"
		/>
	<path fill="#F2EDBA" d="M399.947,220.039c0,0-5.677,1.576-7.987,8.214C390.135,233.502,395.611,223.005,399.947,220.039z"/>
	<path fill="#5A3D31" d="M438.512,224.603c0,0-31.491,0-35.293,0c-2.439,0-8.292,5.705-4.185,12.55s-3.879-3.879-3.879-3.879
		s-0.531-11.181,11.107-10.953c11.637,0.228,31.108,0.228,31.108,0.228L438.512,224.603z"/>
	<path fill="#5C3D16" d="M399.111,233.882c0,0,0-7.91,6.54-7.605c1.976,0.091,30.427,0,34.534,0s12.168,4.412-10.346,4.107
		c-22.515-0.305-30.121-1.978-28.904,3.651C402.154,239.663,399.111,233.882,399.111,233.882z"/>
	<path fill="#BB9C59" stroke="#000000" stroke-width="0.5" d="M473.122,280.796h34.028c2.729,7.705,0.384,14.078,0.384,14.078
		l-34.251,0.689c0,0-17.596-0.424-18.418-14.886c-0.821-14.461,7.56-21.692,18.578-21.872h34.028
		c2.729,7.705,0.16,14.928,0.16,14.928l-34.028-0.161c0,0-4.276-0.458-4.276,3.982C469.327,280.185,470.837,281.243,473.122,280.796
		z"/>
	<polyline fill="none" stroke="#000000" stroke-width="0.5" points="500.004,218.203 519.941,218.724 520.434,232.692 
		499.235,233.515 499.235,218.559 	"/>
	<polyline fill="#B38B2E" stroke="#000000" stroke-width="0.5" points="500.004,218.203 519.941,218.724 520.434,232.692 
		499.235,233.515 499.235,218.559 	"/>
	<polyline fill="none" stroke="#000000" stroke-width="0.5" points="497.95,239.88 522.138,240.108 521.092,255.041 
		497.264,255.041 498.414,240.251 	"/>
	<polyline fill="#B38B2E" stroke="#000000" stroke-width="0.5" points="497.95,239.88 522.138,240.108 521.092,255.041 
		497.264,255.041 498.414,240.251 	"/>
	<path fill="#F7F0B5" d="M392.805,155.488c0,0,28.813-40.46,77.242-53.334c0,0-56.398,26.973-71.725,52.108L392.805,155.488z"/>
	<path fill="#6A3816" d="M600.916,332.129c0,0,30.733,18.811,13.085,44.534c0,0,31.029-20.187-7.403-47.089L600.916,332.129z"/>
	<path fill="#BB9C59" stroke="#000000" stroke-width="0.5" d="M481.485,239.914c0,0-0.736-1.745-2.304-1.353v-3.527
		c0,0,0.783-0.001,2.35-1.568h20.377c0,0,2.246-6.514,0.324-15.276l-46.191,0.064c-1.781,0.024-11.418-3.884-11.046-11.916
		c0.634-13.641-4.682-32.072-7.384-37.243c-3.781-7.23-26.459-24.814-49.464-14.297c-23.007,10.518-28.595,32.21-24.321,53.901
		c4.273,21.691,22.885,36.401,31.716,41.083c13.64,7.231,61.999,5.332,61.999,5.332l43.19-0.098c0,0,2.609-6.556,0.652-14.972
		L481.485,239.914z M475.743,238.675c0,0-0.756,0.114-1.043,0.914l-16.702,0.195c0,0-21.058,3.342-46.023-1.341
		c-21.034-3.943-32.344-21.03-33.852-36.809c-1.339-14.008,6.56-40.201,34.838-33.36c15.849,3.834,14.79,17.091,17.254,40.261
		c2.465,23.171,25.303,24.073,25.303,24.073l16.218,0.076c0,0,2.833,1.816,4.008,1.816V238.675z"/>
	<path fill="#3C1D0D" d="M435.934,333.914c0,0-15.188,26.482,10.953,36.51l6.086-3.043c0,0-16.125-1.218-18.561-13.691
		c-2.433-12.474,5.477-17.646,7.303-18.559C443.54,334.218,435.934,333.914,435.934,333.914z"/>
	<path fill="#44391C" d="M449.138,336.645c0,0-17.071,23.566,12.618,25.793l11.691-8.163
		C473.447,354.274,431.881,372.273,449.138,336.645z"/>
	<path fill="#493B23" d="M443.021,337.822c0,0-11.832,16.308,3.162,25.755C446.184,363.577,434.657,357.036,443.021,337.822z"/>
	<path fill="#C7C3A4" d="M437.985,347.714c-0.479-1.284-0.633-2.631-0.046-3.909c0.242-0.53-0.545-0.994-0.789-0.46
		c-0.689,1.504-0.618,3.078-0.046,4.611C437.309,348.503,438.19,348.267,437.985,347.714z"/>
	<path fill="#BB9C59" stroke="#000000" stroke-width="0.5" d="M577.131,313.128l-59.557,1.142
		c1.695-6.444,0.229-14.604,0.229-14.604l16.429-0.229c0-0.338,1.291-1.969,1.291-1.969v-1.131l-1.806-1.583l-16.018,0.198
		c1.989-6.963-0.354-14.455-0.354-14.455l61.142-0.216c2.179,0.096,5.872,0.068,5.708-2.562c-0.316-5.084-5.292-4.63-5.292-4.63
		l-60.988,0.333c1.695-6.444-0.112-14.146-0.112-14.146s16.845-0.1,16.845-0.438c0-0.339,1.356-1.018,1.356-1.018v-1.13
		l-1.806-1.583l-16.018,0.199c1.989-6.964,0.307-15.425,0.307-15.425l60.481,0.754c1.346-0.276,4.897-0.382,4.897-3.833
		c0-3.451-4.604-3.881-4.604-3.881h-62.377c3.185-5.074,0.697-14.424,0.697-14.424l61.979,0.297c0,0,12.355-0.068,15.478,12.914
		c3.123,12.982-3.779,16.104-3.779,16.104s-1.907,6.968-12.292,7.182l-36.18,0.112c-0.227,0.792-1.697,1.245-1.697,1.245
		s0.341,2.034,0.791,1.921c0.453-0.112,1.583,1.583,1.583,1.583l35.824-0.453c0,0,12.958,0.077,13.78,15.031
		c0.82,14.954-5.83,20.368-14.583,20.208l-36.18,0.112c-0.227,0.792-1.697,1.244-1.697,1.244s0.341,2.034,0.792,1.922
		c0.452-0.112,1.583,1.583,1.583,1.583l35.823-0.453c33.072,1.475,17.462,36.821,1.823,35.725c-7.908-0.555-62.3,1.037-62.3,1.037
		c1.82-4.933,0.611-15.381,0.611-15.381s59.708-1.153,60.697-1.369C580.632,318.845,583.441,313.65,577.131,313.128z"/>
	<path fill="#765522" d="M526.249,426.691c0,0,111.941-16.377,144.063-122.458l-9.744,3.144
		c-19.486,52.491-33.316,62.863-38.661,67.578c-49.094,43.321-73.184,39.393-88.685,42.523L526.249,426.691z"/>
	<path fill="#FCFBF1" d="M671.24,304.508c0,0-18.352,41.022-21.09,45.13s-12.377,16.098-17.419,22.4
		c-2.231,2.791-13.899,15.51-27.889,23.67c-4.812,2.807-33.527,18.607-40.49,21.474c0,0,36.784-13.191,48.65-21.862
		C624.868,386.648,657.474,361.062,671.24,304.508z"/>
	<path fill="#74451B" d="M485.025,437.465c0,0,53.935,8.343,94.758-8.939c40.822-17.282,61.385-26.222,76.88-52.444
		c0,0-15.497,7.748-16.986,8.642c-1.49,0.894-4.767-2.979-4.767-2.979s-23.541,33.075-72.708,43.803s-49.762,6.556-49.762,6.556
		L485.025,437.465z"/>
	<path fill="#AA8625" stroke="#000000" stroke-width="0.5" d="M474.329,313.198c0,0,1.455,6.747,0.132,8.863
		c-1.322,2.116,5.953,0.396,5.953,0.396l0.132-11.112L474.329,313.198z"/>
	<path fill="#D6DFC8" d="M679.168,276.684c0,0,2.145-29.788-6.498-64.561C672.67,212.123,682.701,228.033,679.168,276.684
		C679.168,276.684,685.282,276.691,679.168,276.684z"/>
	<path fill="#693D17" d="M418.182,339.644c0,0-5.678,26.499,1.894,35.753s14.09,2.103,12.618-1.473s-6.099-4.154-6.099-31.967
		c0-3.575,5.888-6.309,5.888-6.309S417.551,336.277,418.182,339.644z"/>
	<path fill="#A5782B" d="M419.19,362.147c0,0,2.313,11.778,5.048,13.46c2.733,1.683,4.837,4.417,3.996-3.996
		c-0.842-8.412-3.366-16.404-2.945-23.344c0.42-6.94-1.682-10.516-1.682-7.15c0,3.364,2.312,28.182,2.943,30.705
		S425.078,377.921,419.19,362.147z"/>
	<path fill="#F7EF72" d="M416.043,341.521c0,0-4.564,10.725-0.229,26.926L416.043,341.521z"/>
	<path fill="#453B2E" d="M419.283,341.158c0,0-1.57,20.756,3.104,29.17c1.033,1.861-0.414-21.102-0.828-29.377
		S419.283,341.158,419.283,341.158z"/>
	<path fill="#C4BFA2" d="M420.346,342.972c-0.037-0.583-0.78-0.588-0.742,0c0.049,0.754,0.102,1.541,0.133,2.338
		c-0.029-0.118-0.055-0.237-0.088-0.356c-0.115-0.399-0.627-0.47-0.716,0c-0.456,2.437-0.493,4.751,0,7.183
		c0.075,0.367,0.534,0.468,0.679,0.108C420.738,349.427,420.543,346.013,420.346,342.972z"/>
	<path fill="#BB9C59" stroke="#000000" stroke-width="0.5" d="M537.695,361.645c-16.814-23.067-43.311-19.004-53.404-13.498
		c-12.755,6.958-40.403,25.63-50.443,29.281s-27.1-8.331-23.482-25.513c3.479-16.524,29.699-14.767,29.699-14.767l60.987-0.378
		c0,0,3.897-7.873,0.323-16.248l-27.686,0.031c0,0-0.898-0.846-1.853-1.071l-0.187-3.083c0,0,2.055-0.47,2.281-1.369l27.61-0.456
		c0,0,2.062-6.547,0.14-15.024l-61.152,0.064c0,0-32.15-1.119-46.859,14.883c-41.53,45.182-6.132,96.711,14.314,108.466
		c15.349,8.822,24.646,11.865,36.512,13.69c63.341,9.746,78.783-7.606,86.181-14.87
		C537.678,414.909,555.225,385.691,537.695,361.645z M527.556,399.231c-7.779,24.498-42.021,29.076-57.503,28.295
		c-10.068-0.508-55.899-2.51-74.183-39.952c-18.139-37.146,4.234-58.934,17.424-66.688c7.208-4.237,17.741-6.023,27.551-5.399
		h24.416c0,0,0.629,1.959,1.282,2.114v1.958c0,0-1.371,1.04-1.459,2c0,0-32.834-0.274-38.494,0.321
		c-8.889,0.935-17.674,7.011-19.881,8.889c-8.843,7.522-16.348,21.822-10.816,38.895c1.869,5.764,12.969,18.305,22.131,20.708
		c19.285,5.059,34.935-8.199,61.155-24c32.652-19.675,43.588,1.008,48.018,8.447C530.073,379.646,531.257,387.574,527.556,399.231z"
		/>
	<path fill="#7E5723" d="M580.349,392.361c0,0,35.307-11.271,35.972-31.654c0.566-17.337-12.971-22.778-15.709-27.951
		s-1.522-2.854-2.503-1.652c-1.177,1.44,6.324,8.375,7.457,9.719c5.693,6.762,15.119,21.728-10.612,36.022L580.349,392.361z"/>
	<path fill="#E4E1C9" d="M364.182,367.955c0,0-96.473-37.574-142.283-124.615c-6.475-12.303-11.234-19.204-25.838-14.641
		c0,0,15.481-3.028,25.469,16.882C227.22,256.924,270.219,332.591,364.182,367.955z"/>
	<path fill="#805B24" d="M254.234,299.683l-7.871-11.724c0,0-33.831-39.129-47.328-36.129
		c-13.499,2.999-23.198,11.815-23.947,16.315c-0.75,4.5-2.999,14.996,12.748,7.498s12.748-14.248,22.496-7.498
		c9.748,6.749,24.826,14.153,30.866,19.567C245.031,291.148,254.234,299.683,254.234,299.683z"/>
	<path fill="#170D0D" d="M136.833,295.53c0,0-33.875,88.031-26.573,108.72c7.302,20.689,40.927-11.397,61.458-18.863
		c13.387-4.867,115.006-27.99,226.97,48.681c0,0-121.7-45.638-134.478-46.246c0,0-72.674-11.859-120.482,24.34
		c-13.479,10.206-34.722,42.73-45.637,34.075c0,0-23.204-8.477,8.518-87.015C137.586,282.528,136.833,295.53,136.833,295.53z"/>
	<path fill="#6D3F19" d="M580.18,226.459c0,0-112.197-0.663-122.471-1.989c-10.273-1.325-18.891-6.628-20.216-27.839
		c-1.326-21.209-9.427-29.038-16.718-33.678c-7.293-4.639-24.494-11.773-39.406,0.49c-14.914,12.261-19.77,33.519-12.147,49.759
		c7.623,16.24,20.713,29.965,35.794,34.717c9.898,3.12,52.693,4.308,60.979,4.308c8.284,0,52.363,0.995,63.962,0.995
		c11.6,0,31.815,0.995,37.119,0.332c5.302-0.663,12.594-1.989,15.244-2.651c2.651-0.663-14.251-1.989-21.211-1.658
		c-6.959,0.332-28.502-1.656-34.798-0.994c-6.297,0.662-65.288-0.994-69.597-0.994c-4.308,0-50.137,3.809-66.29-12.345
		c-12.543-12.543-16.895-18.396-19.545-34.304c-2.653-15.908,2.651-27.839,13.919-35.792c11.267-7.955,27.175-1.326,31.152,0.662
		c3.977,1.989,14.914,12.263,15.908,27.177c0.994,14.913,2.981,36.786,22.867,37.78c19.885,0.995,56.009,0.332,66.946,0.332
		c10.937,0,53.536-0.662,59.17,0.332C586.478,232.094,588.134,229.773,580.18,226.459z"/>
	<path fill="#FBFCFB" d="M437.106,206.637c0,0,0.819,7.031-1.123,6.88c-0.797-0.062,0.208-7.32,0.208-10.256
		c0-2.938-0.324-9.592-0.324-13.018s-0.816-9.394-0.816-9.394C437.451,185.382,437.457,204.646,437.106,206.637z"/>
	<path fill="#FBFCFB" d="M435.085,176.421c0,0-3.438-7.486-7.354-10.913c-3.887-3.4-12.575-11.474-26.036-10.739
		c-20.542,1.121,0.71-1.818,7.201-0.376c8.811,1.957,15.419,5.385,21.537,12.238C433.286,169.825,434.839,172.75,435.085,176.421z"
		/>
	<path fill="#FBFCFB" d="M389.805,159.043c0,0-10.543,2.866-16.75,13.3c-3.246,5.456-6.334,17.229-3.58,29.615
		c1.833,8.238,4.799,12.523,5.534,14.971c0,0-5.491-7.928-8.137-21.154c-1.469-7.343,1.662-20.138,5.774-25.728
		C376.754,164.466,383.685,160.023,389.805,159.043z"/>
	<path fill="#FBFCFB" d="M385.031,225.834c0,0,16.926,15.757,26.887,17.18c9.959,1.422,24.803,1.315,34.053,1.078
		c9.246-0.237,6.639-0.948,6.639-0.948s-17.548,0-25.846-0.474c-8.299-0.474-15.575-0.626-20.393-3.083
		C398.814,235.735,385.031,225.834,385.031,225.834z"/>
	<path fill="#CFD1D1" d="M461.145,243.619c0,0,14.228,0.474,13.279-0.237c-0.948-0.711-11.62-0.475-12.331-0.711
		C461.381,242.433,459.959,243.619,461.145,243.619z"/>
	<path fill="#CFD1D1" d="M482.723,243.856c1.861,0.373,15.176,0,17.784-0.474c2.607-0.475-8.301-0.711-10.197-0.711
		S479.166,243.145,482.723,243.856z"/>
	<path fill="#604017" d="M427.6,272.36c0,0,1.99-6.68,6.389-8.899c2.507-1.264,6.846-2.282,12.779,0.229
		c5.932,2.51,6.16,9.127,6.16,9.127l-1.207-1.146c0,0-1.521-4.672-5.855-6.27c-4.336-1.597-10.295-1.856-13.262,0.654
		C429.637,268.565,427.828,270.763,427.6,272.36z"/>
	<path fill="#E7E4CB" d="M452.814,280.56c0,0-4.336,9.127-10.27,9.583c-5.932,0.457-10.725-2.967-11.637-3.65
		c-0.913-0.686,4.791,7.073,12.55,4.791C451.217,289.003,452.357,281.473,452.814,280.56z"/>
	<path fill="#E7E4CB" d="M427.604,271.262c0,0,3.979-10.135,16.617-8.485C444.221,262.777,431.439,258.533,427.604,271.262z"/>
	<path fill="#FBF2BB" d="M362.109,335.152c0,0-2.148,4.047-7.721,4.296C354.388,339.448,360.708,340.227,362.109,335.152z"/>
	<path fill="#663B16" d="M385.867,389.766c0,0,11.168,31.502,44.162,40.664c33.575,9.323,65.135,4.789,80.256-0.049
		c13.781-4.411,22.697-15.948,26.462-25.361c3.766-9.412,4.043-26.464-0.672-34.829c-4.28-7.594-23.218-31.374-56.475-12.55
		s-48.942,35.14-66.514,21.962c-17.57-13.178-6.062-43.38,11.294-45.179c13.747-1.425,83.456-2.511,95.379-2.511
		s50.199,0,57.102-1.255c6.903-1.255,3.138-3.765-7.529-3.765c-10.666,0-66.515,1.883-72.788,1.883c-6.275,0-52.71-0.628-59.612,0
		c-6.902,0.627-41.103,0.94-36.914,34.71c3.479,28.035,29.226,28.398,54.484,13.606c31.707-18.568,50.574-33.144,68.279-15.077
		c6.392,6.521,13.374,17.801,7.718,40.431c-2.939,11.763-7.157,17.532-16.907,23.707c-11.026,6.984-50.722,13.232-81.963-0.367
		c-34.82-15.155-36.939-33.264-42.27-45.025c-5.331-11.762-3.125-19.297-3.309-22.972c-0.184-3.676,6.064-26.464,18.378-35.836
		c12.313-9.373,28.862-11.574,46.321-11.391c17.459,0.185,47.405-0.556,51.081-0.556c3.674,0,28.484,0.367,34.732,0
		c6.249-0.367,34,0,38.043-0.184s7.536,0.551,9.188,0.184c1.654-0.367-6.249-4.778-13.968-4.227
		c-7.718,0.552-59.911,1.103-62.483,1.103c-2.573,0-58.258,0.176-62.301,0.184c-51.111,0.093-63.417,35.44-64.993,52.636
		C378.959,371.611,383.38,382.709,385.867,389.766z"/>
	<path fill="#D0C9C0" d="M578.077,301.585c0,0-48.88,1.032-54.732,0.345c-5.851-0.688,16.287-1.806,29.713-1.462
		C566.481,300.812,574.979,300.554,578.077,301.585z"/>
	<path fill="#E1D3DB" d="M424.777,302.498c-5.443,2.178,66.681-0.095,73.909-0.438S431.66,299.743,424.777,302.498z"/>
	<path fill="#E5E9F3" d="M520.386,321.547c0,0-1.326,1.847,0.659,2.225c2.391,0.456,30.374-0.199,37.98,0.104
		c7.607,0.305,15.363,0.028,17.494-0.884c2.129-0.913-1.129-1.714-9.284-1.559C556.851,321.633,526.774,321.851,520.386,321.547z"/>
	<path fill="#EBECDD" d="M432.309,324.97c0,0,36.205-0.607,37.88-0.607c1.672,0,0.91-1.979-5.781-1.674
		c-6.694,0.305-27.231,0.761-28.752,1.064C434.135,324.058,432.309,324.97,432.309,324.97z"/>
	<path fill="#FFFFFF" d="M399.289,347.026c-1.011-0.368,2.475-9.396,3.955-11.104c5.021-5.78,12.475-8.822,14.605-9.279
		c0,0-8.352,4.598-10.953,7.758C402.637,339.573,399.289,347.026,399.289,347.026z"/>
	<path fill="#FBFCFC" d="M408.568,308.693c0,0-13.083,5.934-19.017,13.691c-5.672,7.42-12.168,23.124-10.648,31.946
		c0,0,0.608-16.278,14.147-32.707C397.562,316.151,402.179,312.345,408.568,308.693z"/>
	<path fill="#EEF2F0" d="M419.83,376.083c0,0,8.215,3.65,16.734,1.064C436.564,377.147,426.678,382.624,419.83,376.083z"/>
	<path fill="#735723" d="M387.054,360.977c0,0-0.788,38.144,28.147,53.4c28.937,15.258,35.776,13.415,44.982,14.468
		c9.208,1.053,40.14-0.639,48.149-5.166c10.684-6.037,18.666-18.509,19.982-20.613c1.315-2.104,6.312-12.1,4.209-13.415
		c-2.105-1.316-4.238,6.901-4.224,10.229c0.015,3.187-11.609,16.021-14.279,18.343c-2.669,2.322-40.981,20.896-87.417,0.116
		C385.224,399.82,389.415,363.404,387.054,360.977z"/>
	<path fill="#F3F2E9" d="M407.896,410.121c0,0,24.509,23.562,73.647,19.654c14.443-1.149,20.838-3.788,20.838-3.788
		s-30.623,6.039-49.263,2.21C430.999,423.653,415.757,416.46,407.896,410.121z"/>
	<path fill="#FDFEFF" d="M514.873,420.102c0,0,8.368-8.519,12.779-15.061C527.652,405.041,525.37,416.45,514.873,420.102z"/>
	<path fill="#F8ECB1" d="M393.87,209.954c-0.455,0.293-1.966,3.356,0.161,2.579c2.126-0.779,2.619-1.401,1.8-2.023
		C395.012,209.887,394.324,209.661,393.87,209.954z"/>
	<path fill="#FDF5A5" d="M389.873,254.246c-0.406,0.282-0.36,1.846,1.04,1.889s1.159-1.03,0.84-1.46
		C391.431,254.246,391.472,253.128,389.873,254.246z"/>
	<path fill="#FBF0C3" d="M393.818,249.14l-2.005,2.406c0,0,1.426,0.312,1.693,0.401c0.268,0.089,1.248-1.248,1.382-1.604
		C395.021,249.987,394.576,248.828,393.818,249.14z"/>
	<path fill="#FEFEF9" d="M579.942,118.252c0,0-4.038-20.635,14.206-26.019C594.148,92.234,580.392,99.411,579.942,118.252z"/>
	<path fill="#D0CAB3" d="M597.735,93.28c0,0,12.86-2.691,20.937,11.365C618.672,104.645,610.596,93.43,597.735,93.28z"/>
	<path fill="#EBE09D" d="M538.459,112.887c0,0-4.485-23.625,23.477-27.065C561.936,85.822,540.104,89.261,538.459,112.887z"/>
	<path fill="#DDD4B5" d="M455.901,140.623c0,0,11.916-9.926,37.107-6.767C493.009,133.856,469.352,128.156,455.901,140.623z"/>
	<polygon fill="#E9D278" points="658.467,361.543 669.325,348.33 659.59,362.325 	"/>
	<path fill="#FDF8C0" d="M548.741,398.39c0,0,31.946-4.563,41.986-15.517C590.728,382.873,564.285,394.403,548.741,398.39z"/>
	<path fill="#E1E1DB" d="M578.504,200.84c0,0-27.534,0.378-31.307-0.754C543.426,198.954,574.355,199.332,578.504,200.84z"/>
	<path fill="#FFFFFB" d="M537.954,198.054c0,0-10.843-1.359-11.108,1.89c-0.264,3.25,3.748,3.183,4.411,2.752
		c0.663-0.431,0.098-2.155,0.994-2.62c0.896-0.464,3.448-1.094,4.906-1.094C538.617,198.982,541.202,198.717,537.954,198.054z"/>
	<path fill="#673C17" d="M586.233,208.039c0,0-51.397-1.572-58.699-1.572s-15.212,6.085-11.561,7.911
		c3.65,1.826,10.951-1.217,8.518-2.434c-2.434-1.217-4.954-3.125,7.742-2.657C555.41,210.139,588.371,210.711,586.233,208.039z"/>
	<path fill="#AA8625" stroke="#000000" stroke-width="0.5" d="M623.394,64.559c0,0,5.172-3.347,12.778-2.738l1.826,11.257
		c0,0-10.176,0.27-12.609,3.008L623.394,64.559z"/>
	<path fill="#F5EEDB" d="M499.255,406.675c0,0,12.683-6.185,14.538-9.278c1.855-3.093,6.494-12.062-2.784-2.165
		C501.729,405.129,499.255,406.675,499.255,406.675z"/>
	<path fill="#A9B096" d="M517.898,382.639c-0.108-0.578-0.989-0.332-0.881,0.242c0.227,1.205,0.056,2.393-0.266,3.563
		c-0.154,0.569,0.726,0.81,0.881,0.243C517.998,385.351,518.155,384.01,517.898,382.639z"/>
	<path fill="#E4E3CE" d="M490.492,410.109c0,0-20.797,5.93-36.729-9.913C453.764,400.196,470.756,412.941,490.492,410.109z"/>
	<path fill="#F2EB94" d="M376.201,340.929c-25.291-40.952-21.466-103.452-20.952-109.62
		C347.421,303.812,376.201,340.929,376.201,340.929L376.201,340.929z"/>
	<path fill="#E1E1CC" d="M366.25,310.82c-8.113-15.212-7.961-59.972-7.951-61.87l0.913,0.005c-0.002,0.462-0.16,46.426,7.844,61.435
		L366.25,310.82L366.25,310.82z"/>
	<path fill="#583514" d="M668.602,343.141c0,0,3.928-8.77,8.027-13.002c1.721-1.774,6.807-2.051,9.893-0.731
		c3.449,1.475,3.731,2.55,4.898,4.179c1.656,2.312,0.07,6.899-0.219,8.986c0,0,8.021-13.479-7.903-15.698
		C673.748,325.542,668.988,341.061,668.602,343.141z"/>
	<path fill="#FCFBF1" d="M675.354,329.917c1.207-1.472,4.227-3.85,10.267-2.529c6.04,1.321,7.172,5.36,7.172,5.36
		s-2.264-5.738-8.267-6.341C678.524,325.804,675.354,329.917,675.354,329.917z"/>
	<ellipse fill="#69451B" cx="663.236" cy="363.496" rx="4.182" ry="4.704"/>
	<ellipse fill="#69451B" cx="672.646" cy="350.95" rx="4.181" ry="4.704"/>
	<path fill="#2E1A10" d="M577.764,178.096c0,0-1.757,5.12-2.434,0c-0.676-5.12-0.305-36.814-0.305-36.814s0.884-6.07,2.435-0.305
		C577.862,142.474,577.764,178.096,577.764,178.096z"/>
	<path fill="#D1B764" d="M578.152,180.549c0.038,2.81,1.521-0.913,1.521-0.913v-40.466c0,0-1.864-3.874-2.13,0.305
		S578.114,177.74,578.152,180.549z"/>
	<path fill="#846A43" d="M579.18,140.439c0,0-0.305,37.215,0,38.335c1.254,4.605,2.738-0.608,2.738-0.608s0.824-37.051,0.306-38.64
		C580.701,134.869,579.18,140.439,579.18,140.439z"/>
	<path fill="#AE893A" d="M619.084,181.164c0,0,2.065,14.52,1.457,31.557c-0.609,17.039-3.347,34.989-2.738,41.074
		c0.607,6.086,4.842,8.798,3.239-2.652c-1.713-12.234,0.245-25.202,1.957-32.298c0.714-2.958,2.047-30.863,0.734-35.234
		C622.999,181.164,619.084,181.164,619.084,181.164z"/>
	<path fill="#2E1A10" d="M538.337,188.105c0,0-1.646,5.697-2.279,0c-0.634-5.697-0.285-40.963-0.285-40.963s0.827-6.754,2.279-0.339
		C538.43,148.469,538.337,188.105,538.337,188.105z"/>
	<path fill="#D1B764" d="M538.7,190.834c0.036,3.127,1.425-1.015,1.425-1.015v-45.026c0,0-1.746-4.311-1.994,0.339
		C537.882,149.782,538.665,187.708,538.7,190.834z"/>
	<path fill="#846A43" d="M539.663,146.205c0,0-0.285,41.409,0,42.656c1.174,5.124,2.565-0.678,2.565-0.678
		s0.771-41.227,0.285-42.993C541.087,140.007,539.663,146.205,539.663,146.205z"/>
	<path fill="#684D38" d="M575.131,139.19c0,0,7.005-3.957,14.454,0.061c0,0-4.169-1.687-7.288-1.615
		C578.437,137.724,575.211,139.161,575.131,139.19z"/>
	<path fill="#684D38" d="M535.198,141.929c0,0,7.005-3.957,14.454,0.061c0,0-4.169-1.687-7.288-1.615
		C538.504,140.462,535.278,141.899,535.198,141.929z"/>
	<path fill="#684D38" d="M609.131,141.244c0,0,7.005-3.957,14.454,0.061c0,0-4.169-1.687-7.288-1.615
		C612.437,139.778,609.211,141.215,609.131,141.244z"/>
	<path fill="#FCF8CD" d="M576.876,136.233c0,0,0.885,1.549,2.877,0.663C581.745,136.012,578.203,134.905,576.876,136.233z"/>
	<path fill="#FCF8CD" d="M613.212,137.822c0,0,0.885,1.549,2.877,0.663C618.081,137.601,614.539,136.494,613.212,137.822z"/>
	<path fill="#FCF8CD" d="M536.21,138.577c0,0,0.885,1.743,2.877,0.746C541.079,138.329,537.537,137.083,536.21,138.577z"/>
	<polygon fill="#482F14" points="601.553,161.98 608.217,161.98 607.661,159.481 600.441,159.481 	"/>
	<path fill="#795E32" d="M618.767,140.877c0.832,2.776,0.556,39.152,0.556,39.152s-4.441,6.386-5.276,0
		c-0.834-6.387,0-39.707,0-39.707S617.936,138.101,618.767,140.877z"/>
	<path fill="#4E3B2A" d="M609.621,177.52c0.287-0.131,7.117-3.157,14.38,0.631c0,0-3.612-1.354-7.051-1.451
		C613.513,176.602,609.621,177.52,609.621,177.52z"/>
	<path fill="#4E3B2A" d="M609.526,181.264c0.287-0.131,7.117-3.157,14.38,0.631c0,0-3.612-1.353-7.051-1.451
		C613.418,180.346,609.526,181.264,609.526,181.264z"/>
	<polygon fill="#392316" points="634.65,312.107 633.737,312.107 633.737,241.046 634.65,241.046 634.65,312.107 	"/>
	<g>
		<line fill="#84897D" x1="591.397" y1="206.394" x2="593.223" y2="307.689"/>
		<polygon fill="#84897D" points="592.31,307.705 590.484,205.498 592.31,205.465 594.135,307.673 592.31,307.705 		"/>
	</g>
	<g>
		<line fill="#969F8C" x1="607.629" y1="206.952" x2="609.454" y2="308.247"/>
		<polygon fill="#969F8C" points="608.541,308.264 606.716,225.223 608.541,225.191 610.367,308.231 608.541,308.264 		"/>
	</g>
	<ellipse fill="#825B30" stroke="#000000" stroke-width="0.5" cx="600.119" cy="317.388" rx="15.061" ry="15.518"/>
	<ellipse fill="#8A663C" stroke="#000000" stroke-width="0.5" cx="600.422" cy="277.227" rx="15.061" ry="15.518"/>
	<ellipse fill="#916C30" stroke="#000000" stroke-width="0.5" cx="600.422" cy="237.066" rx="15.061" ry="15.518"/>
	<ellipse fill="#9E7B38" stroke="#000000" stroke-width="0.5" cx="600.422" cy="193.863" rx="15.061" ry="15.517"/>
	<ellipse fill="#825B30" stroke="#000000" stroke-width="0.5" cx="601.564" cy="317.693" rx="5.857" ry="7.15"/>
	<ellipse fill="#8A663C" stroke="#000000" stroke-width="0.5" cx="601.564" cy="277.837" rx="5.857" ry="7.149"/>
	<ellipse fill="#916C30" stroke="#000000" stroke-width="0.5" cx="602.172" cy="237.067" rx="5.857" ry="7.149"/>
	<ellipse fill="#9E7B38" stroke="#000000" stroke-width="0.5" cx="601.564" cy="195.081" rx="5.857" ry="7.149"/>
	<path fill="#593816" d="M595.848,193.85c0,0-0.65,6.063,2.736,7.578c2.795,1.25,5.876,0.08,7.409-1.883
		c0.806-1.031,0.959-2.68-0.715-2.224c-1.674,0.457-3.347,2.739-5.021,1.218c-1.36-1.237,0.009-4.157-0.296-5.374
		C599.659,191.948,597.709,195.369,595.848,193.85z"/>
	<path fill="#F6E9B1" d="M595.923,192.948c0.052-0.682,0.429-1.885,0.912-2.625c1.274-1.948,5.539-4.273,8.789-0.164
		c0,0-6.772-3.237-7.707,2.656C597.835,193.335,595.893,193.344,595.923,192.948z"/>
	<path fill="#593816" d="M596.768,235.866c0,0-0.65,6.064,2.736,7.579c2.795,1.25,5.876,0.08,7.409-1.883
		c0.806-1.032,0.959-2.68-0.715-2.224c-1.674,0.457-3.347,2.739-5.021,1.217c-1.36-1.236,0.009-4.156-0.296-5.373
		C600.579,233.964,598.629,237.385,596.768,235.866z"/>
	<path fill="#F6E9B1" d="M596.842,234.964c0.052-0.681,0.43-1.884,0.913-2.624c1.274-1.948,5.539-4.273,8.789-0.164
		c0,0-6.772-3.238-7.707,2.656C598.755,235.352,596.812,235.359,596.842,234.964z"/>
	<path fill="#593816" d="M596.094,276.594c0,0-0.65,6.064,2.736,7.579c2.793,1.252,5.874,0.08,7.407-1.883
		c0.806-1.032,0.961-2.68-0.713-2.224c-1.675,0.456-3.349,2.739-5.021,1.216c-1.36-1.236,0.007-4.156-0.296-5.373
		C599.903,274.692,597.955,278.113,596.094,276.594z"/>
	<path fill="#F6E9B1" d="M596.167,275.692c0.053-0.681,0.43-1.884,0.912-2.624c1.275-1.948,5.539-4.273,8.791-0.163
		c0,0-6.772-3.238-7.709,2.655C598.079,276.08,596.137,276.088,596.167,275.692z"/>
	<path fill="#593816" d="M596.215,316.464c0,0-0.65,6.063,2.736,7.579c2.795,1.251,5.876,0.079,7.409-1.884
		c0.806-1.032,0.959-2.68-0.715-2.224s-3.347,2.739-5.021,1.217c-1.36-1.236,0.009-4.156-0.296-5.373
		C600.026,314.562,598.076,317.982,596.215,316.464z"/>
	<path fill="#F6E9B1" d="M596.29,315.562c0.052-0.681,0.43-1.884,0.912-2.624c1.274-1.947,5.539-4.273,8.789-0.163
		c0,0-6.772-3.238-7.707,2.655C598.202,315.949,596.26,315.957,596.29,315.562z"/>
	<path fill="#DBBF83" d="M585.741,195.534c0,0-0.938-13.547,9.722-14.952C595.463,180.582,587.108,181.913,585.741,195.534z"/>
	<path fill="#DBBF83" d="M585.952,238.511c0,0-0.938-13.547,9.721-14.952C595.673,223.559,587.319,224.892,585.952,238.511z"/>
	<path fill="#DBBF83" d="M585.952,278.345c0,0-0.938-13.548,9.721-14.953C595.673,263.393,587.319,264.725,585.952,278.345z"/>
	<path fill="#DBBF83" d="M585.741,318.807c0,0-0.938-13.547,9.722-14.952C595.463,303.854,587.108,305.188,585.741,318.807z"/>
	<path fill="#836831" stroke="#000000" stroke-width="0.5" d="M624.553,252.667c0,0-13.745-0.984-14.499,0
		c-1.039,1.36-4.311,3.918-4.311,3.918l4.311,5.094c0,0,12.931,0.784,14.499,0.393c1.567-0.393,0.393,29.386,0.393,29.386h-14.107
		l-4.702,5.878l4.702,4.311l14.497-0.392l-0.39,18.416c0,0,5.485,1.567,6.66,1.176c1.176-0.392-0.783,1.959-0.783,3.918
		s4.701,6.27,6.269,4.702c1.568-1.567,3.918-4.311,3.918-5.878c0-1.566-2.35-3.525-2.35-3.525s3.917-3.919,3.134-5.095
		c-0.784-1.176-0.784-84.637-0.784-84.637s-4.309-4.311-7.053-2.351c-2.743,1.959-4.311,1.176-4.311,1.176h-7.576l-0.784,6.661h3.66
		L624.553,252.667z"/>
	<path fill="#8C7756" d="M634.919,236.307l0.399,79.142c0,0,4.44,2.664,5.505-0.71c0.272-0.862,0.102-78.432,0.102-78.432
		S636.739,231.451,634.919,236.307z"/>
	<polygon fill="#39261C" points="628.46,313.998 627.548,313.998 627.548,236.111 628.46,236.111 628.46,313.998 	"/>
	<polygon fill="#432C16" points="634.885,316.085 633.972,316.085 633.972,238.58 634.885,238.58 634.885,316.085 	"/>
	<path fill="#644118" d="M566.067,196.592c0,0,0.478-8.694,4.666-8.228c1.105,0.123,2.149-0.676,2.254-1.057
		c0.561-2.051,4.776,6.352-0.765,8.622C566.683,198.197,566.067,196.592,566.067,196.592z"/>
	<path fill="#DECC85" d="M569.446,187.781c-2.792,2.603-3.753,4.576-3.809,8.292c-0.009,0.568,0.871,0.567,0.879,0
		c0.052-3.491,0.923-5.22,3.551-7.669C570.484,188.017,569.861,187.395,569.446,187.781z"/>
	<polygon fill="#BB9C59" points="637.123,314.802 636.21,314.802 636.21,239.361 637.123,239.361 637.123,314.802 	"/>
	<path fill="#845221" stroke="#000000" stroke-width="0.25" d="M634.12,266.338c0,0,3.182,0.489,6.118,0.244
		c2.936-0.244,5.999-3.849,0-4.649c-3.671-0.489-6.118,0.734-6.118,0.734S631.185,265.116,634.12,266.338z"/>
	<path fill="#845221" stroke="#000000" stroke-width="0.25" d="M634.365,291.296c0,0,3.182,0.49,6.118,0.244
		c2.936-0.244,5.999-3.848,0-4.648c-3.671-0.488-6.118,0.734-6.118,0.734S631.43,290.073,634.365,291.296z"/>
	<path fill="#986E29" stroke="#000000" stroke-width="0.25" d="M634.12,239.423c0,0,3.182,0.49,6.118,0.244
		c2.936-0.244,5.999-3.849,0-4.649c-3.671-0.488-6.118,0.734-6.118,0.734S631.185,238.2,634.12,239.423z"/>
	<path fill="#986E29" stroke="#000000" stroke-width="0.25" d="M633.876,318.212c0,0,3.182,0.488,6.117,0.244
		c2.937-0.244,6-3.849,0-4.649c-3.67-0.488-6.117,0.734-6.117,0.734S630.94,316.988,633.876,318.212z"/>
	<path fill="#FCFADA" d="M635.721,315.193c-0.11,0.576,4.371,0.743,4.376,0C640.109,313.464,635.938,314.059,635.721,315.193z"/>
	<path fill="#FCFADA" d="M636.111,236.725c-0.111,0.576,4.371,0.743,4.376,0C640.5,234.995,636.328,235.59,636.111,236.725z"/>
	<path fill="#9A7C50" stroke="#000000" stroke-width="0.5" d="M639.89,274.972c0,0,19.356-0.757,23.92-1.974
		c4.563-1.216,12.714-2.894,17.646-3.347c7.809-0.718,10.295,9.583,3.902,12.07c-7.004,2.724-15.463,0.403-18.507,0.1
		c-3.041-0.304-13.354-0.969-17.016-1.047c-5.509-0.119-9.372,0.237-10.893,0.237s-3.485-0.408-3.79-2.842
		C634.85,275.736,637.151,275.277,639.89,274.972z"/>
	<path fill="#9F844B" stroke="#000000" stroke-width="0.5" d="M640.328,249.042c0,0,19.356-0.758,23.92-1.974
		c4.563-1.218,12.715-2.895,17.646-3.348c7.809-0.716,10.295,9.584,3.902,12.071c-7.004,2.724-15.463,0.403-18.507,0.1
		c-3.041-0.305-13.354-0.97-17.016-1.048c-5.509-0.118-9.371,0.237-10.893,0.237c-1.521,0-3.484-0.408-3.79-2.841
		C635.288,249.805,637.59,249.347,640.328,249.042z"/>
	<path fill="#9A6641" d="M676.959,246.664c-3.651,0.609-13.996,4.26-21.906,4.26c-7.911,0,4.867-0.609,11.562,1.217
		c6.693,1.826,10.345,1.826,13.386,2.434C683.043,255.183,676.959,246.664,676.959,246.664z"/>
	<path fill="#9A6641" d="M678.747,271.271c0,0-8.671,4.107-9.128,5.477c-0.456,1.369-5.477,1.824-6.693,1.216
		c-1.218-0.608-10.497-0.913-10.497-0.913S669.771,275.225,678.747,271.271z"/>
	<path fill="#79522E" d="M688.297,247.601c-0.598-0.664-9.063-0.74-2.628,6.92C687.454,256.645,690.724,250.298,688.297,247.601z"/>
	<path fill="#7A5928" d="M684.917,271.487c0,0-4.723,6.713,0,8.823C689.962,282.563,689.48,269.966,684.917,271.487z"/>
	<path fill="#8B7041" stroke="#000000" stroke-width="0.5" d="M640.244,300.192c0,0,19.356-0.756,23.92-1.973
		c4.564-1.217,12.715-2.895,17.646-3.348c7.809-0.717,10.295,9.583,3.902,12.07c-7.004,2.724-15.463,0.403-18.506,0.1
		c-3.042-0.304-13.354-0.969-17.017-1.047c-5.508-0.119-9.371,0.236-10.892,0.236c-1.521,0-3.485-0.408-3.79-2.841
		C635.204,300.957,637.506,300.498,640.244,300.192z"/>
	<path fill="#725029" d="M683.695,301.934c0,0,5.24,7.046,5.277-0.631C689.007,294.651,683.088,299.195,683.695,301.934z"/>
	<path fill="#52431F" d="M678.389,299.347c0,0-1.606,5.219-4.416,6.289s-9.098,0.268-9.098,0.268l9.901-7.76
		C674.776,298.144,678.522,297.34,678.389,299.347z"/>
	<path fill="#825636" d="M653.234,302.825c0,0,12.176-1.203,16.457-3.479C669.691,299.347,665.41,304.431,653.234,302.825z"/>
	<path fill="#7A5B24" d="M612.666,22.752c0,0,1.481,4.85,2.424,5.254c0.943,0.404,3.368-3.772,12.529-3.772
		c1.347,0,0.673-5.254-1.887-5.119C622.098,19.307,614.686,21.27,612.666,22.752z"/>
	<path fill="#7A5B24" d="M617.516,29.487c0,0-2.021,3.772,2.021,7.274c4.041,3.503,4.984,5.389,4.984,5.389
		s-3.907-12.259-4.446-12.798C619.536,28.814,618.189,28.14,617.516,29.487z"/>
	<path fill="#605966" d="M620.14,23.276c2.099-0.509,5.11-0.749,5.46-0.428c0.348,0.321-3.601,2.996-5.11,2.354
		C618.979,24.56,617.933,23.812,620.14,23.276z"/>
	<path fill="#605966" d="M620.207,28.903c0,0,0.348,6.272,4.046,10.454c3.699,4.182-0.001-4.05,0.347-6.011
		C624.947,31.386,625.409,24.46,620.207,28.903z"/>
	<path fill="#C0CED8" d="M626.979,47.957c-0.448-1.734-1.048-3.422-1.616-5.119c-0.187-0.555-1.068-0.317-0.881,0.243
		c0.568,1.697,1.169,3.385,1.617,5.119C626.246,48.769,627.127,48.527,626.979,47.957z"/>
	<path fill="#FFFEF6" d="M628.197,26.322c0.005-0.006,0.008-0.008,0.012-0.015c0.401-0.43-0.243-1.077-0.646-0.645
		c-0.417,0.447-0.582,1.09,0.093,1.39C628.153,27.274,628.582,26.606,628.197,26.322z"/>
	<path fill="#FFFEF6" d="M620.881,20.14c-0.734-0.004-1.479-0.055-2.196,0.138c-0.682,0.183-1.28,0.822-0.686,1.449
		c0.359,0.378,0.903-0.084,0.742-0.492c0.003-0.001,0.004-0.001,0.007-0.002c0.066,0.129,0.189,0.228,0.382,0.224
		c0.694-0.016,1.353-0.172,1.981-0.467C621.539,20.79,621.309,20.143,620.881,20.14z"/>
	<path fill="#D4B964" d="M622.697,33.867c-0.091-0.478-0.296-0.872-0.595-1.298c-0.438-0.626-0.986-0.775-1.581-1.155
		c-0.193-0.124-0.373-0.028-0.463,0.132c-0.095,0.083-0.157,0.213-0.127,0.379c0.274,1.478,0.729,4.119,2.647,3.629
		c0.01-0.002,0.019-0.002,0.027-0.005c0.007-0.001,0.012-0.001,0.019-0.003c0.062-0.018,0.11-0.05,0.148-0.088
		c0.01-0.008,0.021-0.008,0.03-0.017C623.228,35.075,622.88,34.285,622.697,33.867z"/>
	<path fill="#FDE367" d="M553.478,123.583c2.006-0.404,16.471,3.601,18.33,18.615c1.859,15.014,0.656,23.266,0.767,24.183
		c0.108,0.918-2.298-0.228-2.298-0.228s1.201-19.599-2.408-25.559c-3.61-5.959-8.424-10.422-10.456-11.598
		C556.475,128.453,551.473,123.988,553.478,123.583z"/>
	<polygon fill="#533D29" points="652.584,157.42 635.876,73.574 636.771,73.396 653.479,157.242 652.584,157.42 	"/>
	<path fill="#533D29" d="M629.865,70.513c-0.014-0.586-0.133-1.162-0.146-1.748c-0.008-0.348-0.33-0.484-0.589-0.421
		c-0.079-0.396-0.168-0.791-0.289-1.183c-0.174-0.56-1.054-0.322-0.881,0.241c-0.286-0.243-0.854-0.004-0.739,0.465
		c0.296,1.203,0.547,2.422,0.566,3.665c0.008,0.431,0.497,0.543,0.755,0.343c0.005,0.294,0.011,0.587,0.011,0.883
		c0,0.589,0.913,0.589,0.913,0c0-0.606-0.015-1.207-0.041-1.806C629.651,70.95,629.871,70.804,629.865,70.513z"/>
	<path fill="#6B5029" d="M593.091,97.996c0,0,16.405-6.182,21.84,10.802c0,0-10.027-11.863-19.568-8.076
		C595.362,100.722,590.364,100.115,593.091,97.996z"/>
	<path fill="#482810" d="M464.812,397.294c0,0,16.447,8.031,35.583,4.54C500.396,401.834,476.289,407.815,464.812,397.294z"/>
	<path fill="#FBF7BF" d="M634.814,125.307c-0.154-1.057-0.324-1.994-0.269-3.076c0.056-1.097,0.119-2.145-0.274-3.185
		c-0.035-0.093-0.105-0.167-0.187-0.228c-0.118-0.189-0.354-0.305-0.604-0.165c-1.256,0.703-1.05,2.458-0.93,3.671
		c0.076,0.775,0.194,1.551,0.349,2.314c0.257,1.276,0.113,2.536,0.371,3.788c0.062,0.304,0.424,0.399,0.67,0.272
		C635.207,128.05,634.989,126.5,634.814,125.307z"/>
	<path fill="#533D29" d="M628.533,83.275c-1.479,0.445-2.164,0.121-0.601,10.46c1.432,9.466,1.804,14.79,2.164,16.352
		C630.097,110.087,630.298,82.745,628.533,83.275z"/>
</g>
<g id="highlights">
	<path fill="#7E6E33" stroke="#000000" stroke-width="0.5" d="M146.97,273.561c-51.251,78.125-58.446,137.536-61.185,155.791
		c0,0,3.712,39.372,28.295,13.691c20.825-21.754,15.517-17.342,22.818-25.557l3.614-3.418c-9.723,8.913-3.787,4.182-23.983,25.279
		c-23.842,24.905-27.063-13.164-27.063-13.164c2.654-17.704,5.309-53.154,45.145-126.583L146.97,273.561z"/>
	<path fill="#BCAB50" stroke="#000000" stroke-width="0.5" d="M148.031,270.954c37.233-63.791,78.376-116.719,94.747-122.728
		c29.115-10.686,26.078,15.63,18.139,41.169l-4.833,21.972c0.658-16.918,0.972-14.089,3.296-25.048
		c9.074-42.777-1.539-40.427-15.857-34.594c-17.57,7.158-67.558,72.488-106.69,143.806L148.031,270.954z"/>
	<path fill="#5C2F11" d="M136.833,295.53c0,0-46.571,100.83-25.202,119.825c8.215,7.303,74.526-41.464,123.221-36.053
		c20.537,2.281,67.543,6.845,158.818,52.026c0,0-84.231-74.963-201.717-58.416c-32.402,4.563-55.678,32.859-68.912,10.953
		C123.041,383.866,110.466,362.817,136.833,295.53z"/>
	<path fill="#26180D" d="M259.6,150.286c0,0,8.349,0.879-0.66,39.109C258.94,189.395,263.072,156.939,259.6,150.286z"/>
	<path fill="#E9F6F6" d="M498.603,223.958c0,0-42.897,0.333-45.565-0.555c-2.668-0.89-6.891-3.89-2.224-3.779
		c4.669,0.111,44.566,0.111,45.677,0.111C497.603,219.735,503.492,222.736,498.603,223.958z"/>
	<path fill="#E9F6F6" d="M527.889,219.575c-1.547-0.163-11.423-0.601-4.444,2.889c1.111,0.555,15.114,0.555,22.783,0.555
		c7.668,0,27.117,0.111,31.784,0c4.667-0.11,7.557-0.11,8.446-0.11s-10.67-2.446-14.893-2.333
		C567.342,220.686,530.002,219.796,527.889,219.575z"/>
	<path fill="#E9F6F6" d="M522.31,243.073c0,0,51.899,0.667,55.123,0.667c3.223,0,2.778,2.667-5.001,2.667
		s-46.899-0.554-48.679-0.777C521.976,245.407,518.419,243.407,522.31,243.073z"/>
	<path fill="#DFE1EB" d="M585.385,263.128c0,0-61.352,0.115-63.407-0.209c-2.054-0.325-1.08-2.271,1.946-2.164
		c3.029,0.108,13.303,0.217,13.303,0.217s31.147-0.109,32.553-0.109C575.735,260.863,575.678,261.58,585.385,263.128z"/>
	<path fill="#CBB28F" d="M504.578,260.863c0,0-29.2-0.216-30.498,0s-0.974,2.056,3.028,2.056c4.001,0,23.576-0.325,24.766-0.325
		S509.552,262.161,504.578,260.863z"/>
	<path fill="#D7CDC5" d="M477.481,283.141c0,0,23.9,0.324,25.848,0.324c1.946,0,2.918,0.974,0.106,1.19
		c-2.812,0.215-24.01-0.217-25.523-0.324C476.399,284.223,476.508,283.356,477.481,283.141z"/>
	<path fill="#DDE3F3" d="M522.675,282.601c2.164,0,28.983-0.217,32.445-0.217c3.46,0,15.897-0.216,18.169-0.107
		c2.271,0.107,6.596,2.162-1.19,2.162c-7.787,0-43.368,0.107-44.882,0.107s-4.218,0-4.866-0.107
		C521.701,284.331,521.268,282.601,522.675,282.601z"/>
	<path fill="#653D1F" d="M578.104,270.304c0,0-54.395,0.001-58.555-0.297c-4.163-0.298-34.184,0.594-38.938,0.594
		c-4.756,0-15.456,0.892-16.942,7.134c-1.487,6.242,7.43,11.592,15.754,11.592c8.321,0,37.451,0.297,44.881,0.297
		c7.433,0,33.588-1.188,39.533-1.188c5.944,0,16.348-1.189,20.211-2.973c2.43-1.122-1.189,4.161-14.86,6.836
		c0,0-85.009,0-90.062,0.297c-5.053,0.297-18.428,1.486-21.697-10.105c-3.27-11.593,11.293-15.754,14.267-15.754
		c2.972,0,36.56,0.299,40.423,0.596c3.865,0.296,52.907-0.596,55.881-0.596C570.97,266.737,575.727,270.006,578.104,270.304z"/>
	<path fill="#FFFFFA" d="M465.958,265.886c-0.754-0.753-4.002,4.651-4.002,5.732c0,1.081,1.298,0,2.38-1.515
		C465.416,268.589,466.39,266.318,465.958,265.886z"/>
</g>
<g id="Key">
	<text transform="matrix(1 0 0 1 16.5625 520.1865)"><tspan x="0" y="0" font-family="'HelveticaLT'" font-size="22">1. Bell</tspan><tspan x="0" y="26.4" font-family="'HelveticaLT'" font-size="22">2. Bell Pipe</tspan><tspan x="0" y="52.8" font-family="'HelveticaLT'" font-size="22">3. Spit Valve</tspan><tspan x="0" y="79.2" font-family="'HelveticaLT'" font-size="22">4. Rotary Valves</tspan></text>
	<text transform="matrix(1 0 0 1 195.6787 520.041)"><tspan x="0" y="0" font-family="'HelveticaLT'" font-size="22">5. Finger Rest</tspan><tspan x="0" y="26.4" font-family="'HelveticaLT'" font-size="22">6. Three Valve Levers</tspan><tspan x="0" y="52.8" font-family="'HelveticaLT'" font-size="22">7. Fourth Valve Lever</tspan><tspan x="0" y="79.2" font-family="'HelveticaLT'" font-size="22">8. Leadpipe</tspan></text>
	<text transform="matrix(1 0 0 1 421.2988 547.6416)"><tspan x="0" y="0" font-family="'HelveticaLT'" font-size="22">9. Mouthpiece</tspan><tspan x="0" y="26.4" font-family="'HelveticaLT'" font-size="22">10. Tuning  Slides </tspan><tspan x="0" y="52.8" font-family="'HelveticaLT'" font-size="22">11. Valve Slides</tspan></text>
	<g>
		<line fill="#74451B" x1="148.36" y1="252.117" x2="67.585" y2="193.249"/>
		<path d="M148.358,253.942c-0.373,0-0.749-0.114-1.073-0.35L66.51,194.724c-0.814-0.594-0.994-1.735-0.4-2.55
			c0.593-0.814,1.734-0.994,2.55-0.4l80.774,58.868c0.815,0.594,0.994,1.735,0.4,2.55
			C149.478,253.682,148.922,253.942,148.358,253.942L148.358,253.942z"/>
	</g>
	<g>
		<line fill="#74451B" x1="323.598" y1="416.875" x2="319.491" y2="446.993"/>
		<path d="M319.493,448.819c-0.083,0-0.166-0.006-0.25-0.018c-0.998-0.136-1.698-1.056-1.562-2.055l4.107-30.119
			c0.136-1,1.068-1.699,2.055-1.562c0.999,0.136,1.698,1.056,1.562,2.056l-4.107,30.118
			C321.174,448.156,320.392,448.819,319.493,448.819L319.493,448.819z"/>
	</g>
	<g>
		<line fill="#74451B" x1="384.799" y1="164.817" x2="353.717" y2="116.582"/>
		<path d="M384.801,166.643c-0.6,0-1.187-0.295-1.537-0.837l-31.083-48.236c-0.545-0.847-0.301-1.977,0.547-2.523
			c0.848-0.546,1.977-0.302,2.523,0.546l31.083,48.236c0.545,0.847,0.301,1.977-0.546,2.523
			C385.482,166.549,385.14,166.643,384.801,166.643L384.801,166.643z"/>
	</g>
	<g>
		<line fill="#74451B" x1="389.309" y1="330.154" x2="346.869" y2="120.689"/>
		<path d="M389.307,331.979c-0.85,0-1.611-0.598-1.787-1.463l-42.44-209.464c-0.201-0.988,0.438-1.952,1.426-2.152
			c0.99-0.202,1.951,0.439,2.151,1.426l42.44,209.464c0.2,0.988-0.439,1.952-1.426,2.152
			C389.548,331.968,389.427,331.979,389.307,331.979L389.307,331.979z"/>
	</g>
	<g>
		<line fill="#74451B" x1="485.105" y1="135.7" x2="449.547" y2="53.606"/>
		<path d="M485.106,137.526c-0.706,0-1.378-0.412-1.676-1.101l-35.559-82.093c-0.401-0.925,0.024-2,0.949-2.401
			c0.923-0.4,2.001,0.024,2.4,0.95l35.559,82.094c0.401,0.925-0.023,2-0.949,2.4C485.595,137.478,485.35,137.526,485.106,137.526
			L485.106,137.526z"/>
	</g>
	<g>
		<line fill="#74451B" x1="556.333" y1="87.833" x2="455.023" y2="46.761"/>
		<path d="M556.332,89.658c-0.229,0-0.46-0.043-0.685-0.134l-101.31-41.071c-0.936-0.379-1.385-1.443-1.006-2.378
			c0.379-0.934,1.441-1.385,2.377-1.006l101.31,41.071c0.935,0.379,1.385,1.443,1.006,2.378
			C557.737,89.228,557.054,89.658,556.332,89.658L556.332,89.658z"/>
	</g>
	<g>
		<line fill="#74451B" x1="635.738" y1="37.178" x2="671.334" y2="27.594"/>
		<path d="M635.737,39.004c-0.806,0-1.543-0.537-1.762-1.352c-0.263-0.974,0.314-1.975,1.288-2.237l35.596-9.583
			c0.976-0.262,1.977,0.315,2.237,1.288c0.262,0.974-0.314,1.975-1.289,2.237l-35.595,9.583
			C636.054,38.983,635.895,39.004,635.737,39.004L635.737,39.004z"/>
	</g>
	<g>
		<line fill="#74451B" x1="648.06" y1="105.63" x2="680.916" y2="106.999"/>
		<path d="M680.917,108.825c-0.024,0-0.051,0-0.076-0.002l-32.857-1.369c-1.007-0.042-1.79-0.893-1.748-1.9
			c0.042-1.006,0.847-1.799,1.899-1.747l32.857,1.369c1.008,0.042,1.79,0.892,1.748,1.9
			C682.699,108.057,681.891,108.825,680.917,108.825L680.917,108.825z"/>
	</g>
	<g>
		<line fill="#74451B" x1="679.548" y1="280.869" x2="745.262" y2="291.821"/>
		<path d="M745.264,293.647c-0.1,0-0.201-0.009-0.303-0.025l-65.714-10.953c-0.994-0.166-1.666-1.105-1.5-2.101
			c0.166-0.993,1.105-1.667,2.101-1.5l65.714,10.953c0.994,0.166,1.666,1.106,1.501,2.102
			C746.913,293.015,746.14,293.647,745.264,293.647L745.264,293.647z"/>
	</g>
	<g>
		<line fill="#74451B" x1="701.452" y1="338.369" x2="748" y2="352.059"/>
		<path d="M748.001,353.886c-0.172,0-0.345-0.024-0.517-0.075l-46.547-13.69c-0.968-0.284-1.521-1.3-1.236-2.267
			c0.285-0.968,1.3-1.522,2.267-1.236l46.547,13.69c0.968,0.284,1.521,1.3,1.236,2.267
			C749.517,353.369,748.789,353.886,748.001,353.886L748.001,353.886z"/>
	</g>
	<g>
		<line fill="#74451B" x1="606.36" y1="322.159" x2="689.131" y2="425.988"/>
		<path d="M689.132,427.813c-0.536,0-1.067-0.235-1.428-0.688l-82.771-103.828c-0.629-0.789-0.5-1.938,0.288-2.565
			c0.788-0.629,1.938-0.499,2.565,0.289l82.771,103.828c0.628,0.789,0.499,1.937-0.289,2.565
			C689.934,427.684,689.531,427.813,689.132,427.813L689.132,427.813z"/>
	</g>
	<g>
		<line fill="#74451B" x1="556.333" y1="375.333" x2="590.56" y2="467.06"/>
		<path d="M590.56,468.886c-0.74,0-1.437-0.453-1.711-1.188l-34.227-91.727c-0.352-0.945,0.128-1.996,1.072-2.349
			c0.945-0.353,1.996,0.127,2.35,1.072l34.226,91.727c0.353,0.944-0.127,1.995-1.072,2.349
			C590.987,468.849,590.771,468.886,590.56,468.886L590.56,468.886z"/>
	</g>
	<g>
		<path d="M51.67,198.725h-3.003v-15.944h-5.24v-2.237c3.643-0.255,5.145-0.607,6.039-4.282h2.205V198.725z"/>
	</g>
	<g>
		<path d="M310.412,465.177c0-7.317,5.336-8.052,7.765-8.052c3.898,0,7.029,2.524,7.029,6.71c0,4.025-2.652,5.719-6.007,7.509
			l-2.333,1.277c-3.067,1.693-3.739,3.451-3.866,4.313h12.206v2.652h-15.369c0.16-4.665,2.269-7.157,5.272-8.915l2.971-1.725
			c2.396-1.374,4.122-2.301,4.122-5.24c0-1.789-1.15-4.058-4.441-4.058c-4.25,0-4.441,3.962-4.537,5.527H310.412z"/>
	</g>
	<g>
		<path d="M598.453,487.136c0.479,0.031,0.99,0.063,1.47,0.063c2.173,0,4.281-0.862,4.281-3.675c0-1.342-0.799-3.547-4.153-3.547
			c-3.994,0-4.25,3.26-4.378,4.825h-2.747c0-3.291,1.342-7.349,7.253-7.349c4.346,0,6.934,2.492,6.934,5.911
			c0,2.875-1.662,4.249-2.876,4.633v0.063c2.173,0.703,3.738,2.237,3.738,5.24c0,3.675-2.364,7.222-8.084,7.222
			c-1.661,0-3.067-0.416-4.153-0.991c-2.492-1.31-3.163-3.897-3.355-6.486h2.908c0.096,2.109,0.606,4.953,4.793,4.953
			c2.875,0,4.889-1.758,4.889-4.346c0-3.771-3.323-4.122-5.24-4.122c-0.416,0-0.863,0.032-1.278,0.032V487.136z"/>
	</g>
	<g>
		<path d="M709.396,450.643v5.464h-2.812v-5.464h-9.81v-2.748l10.288-14.25h2.333v14.569h3.291v2.429H709.396z M699.362,448.214
			h7.222v-10.192h-0.064L699.362,448.214z"/>
	</g>
	<g>
		<path d="M771.863,347.204c0.958-0.734,2.332-1.406,4.345-1.406c3.643,0,7.381,2.557,7.381,7.189c0,2.492-1.118,7.893-8.147,7.893
			c-2.939,0-6.71-1.183-7.253-6.199h2.907c0.288,2.62,2.237,3.771,4.762,3.771c2.907,0,4.729-2.332,4.729-5.145
			c0-3.227-2.205-4.984-4.984-4.984c-1.63,0-3.1,0.767-4.154,2.141l-2.428-0.128l1.693-12.045h11.63v2.747h-9.521L771.863,347.204z"
			/>
	</g>
	<g>
		<path d="M776.383,279.441c-0.352-1.981-1.438-3.451-3.866-3.451c-4.409,0-5.336,5.943-5.336,8.308l0.063,0.064
			c0.703-1.214,2.269-2.748,5.336-2.748c2.748,0,7.029,1.757,7.029,7.125c0,2.3-0.606,3.962-2.141,5.624
			c-1.182,1.31-2.524,2.172-5.688,2.172c-1.726,0-4.186-0.767-5.783-3.259c-1.342-2.109-1.726-4.857-1.726-7.796
			c0-4.92,1.598-12.014,8.308-12.014c2.588,0,6.263,1.406,6.551,5.975H776.383z M772.293,294.011c2.684,0,4.409-2.109,4.409-5.145
			c0-1.981-1.055-4.729-4.537-4.729c-3.1,0-4.602,2.236-4.602,4.888C767.563,291.423,769.002,294.011,772.293,294.011z"/>
	</g>
	<g>
		<path d="M754.256,177.764h15.528v2.46c-2.236,2.333-7.604,9.49-9.234,19.522h-3.1c0.768-6.167,4.857-14.219,9.171-19.235h-12.365
			V177.764z"/>
	</g>
	<g>
		<path d="M703.818,107.371c3.035,1.278,3.675,3.771,3.675,5.464c0,3.611-2.301,7.093-7.604,7.093c-1.246,0-3.611-0.319-5.4-1.725
			c-2.301-1.821-2.301-4.25-2.301-5.336c0-2.748,1.438-4.505,3.803-5.464c-1.917-0.735-3.035-2.269-3.035-4.377
			c0-2.333,1.438-6.167,6.806-6.167c4.984,0,6.934,3.164,6.934,5.784C706.694,105.869,704.809,106.859,703.818,107.371z
			 M695.191,112.931c0,1.789,0.895,4.473,4.793,4.473c2.045,0,4.505-0.735,4.505-4.25c0-3.036-2.108-4.377-4.665-4.377
			C696.661,108.777,695.191,110.854,695.191,112.931z M703.786,102.738c0-1.374-0.895-3.355-4.186-3.355
			c-3.003,0-3.738,2.077-3.738,3.515c0,2.141,1.885,3.451,3.93,3.451C702.221,106.348,703.786,104.783,703.786,102.738z"/>
	</g>
	<g>
		<path d="M427.689,45.849h-3.004V29.905h-5.24v-2.237c3.643-0.255,5.145-0.607,6.039-4.282h2.205V45.849z"/>
		<path d="M442.863,46.456c-6.454,0-7.7-6.87-7.7-11.535s1.246-11.535,7.7-11.535c6.455,0,7.701,6.87,7.701,11.535
			S449.318,46.456,442.863,46.456z M442.863,25.911c-3.227,0-4.697,3.387-4.697,9.01s1.471,9.011,4.697,9.011
			c3.228,0,4.697-3.387,4.697-9.011S446.091,25.911,442.863,25.911z"/>
	</g>
	<g>
		<path d="M335.959,107.911h-3.003V91.967h-5.24V89.73c3.643-0.255,5.145-0.607,6.039-4.282h2.205V107.911z"/>
		<path d="M353.721,107.911h-3.003V91.967h-5.24V89.73c3.643-0.255,5.145-0.607,6.039-4.282h2.205V107.911z"/>
	</g>
	<g>
		<line x1="648.179" y1="217.873" x2="745.747" y2="191.334"/>
		<path d="M648.178,219.699c-0.803,0-1.539-0.535-1.76-1.347c-0.266-0.974,0.309-1.976,1.281-2.241l97.568-26.54
			c0.97-0.267,1.976,0.309,2.241,1.282c0.265,0.974-0.31,1.977-1.282,2.241l-97.568,26.539
			C648.498,219.678,648.337,219.699,648.178,219.699L648.178,219.699z"/>
	</g>
	<g>
		<path d="M677.219,17.763c0-4.09,2.492-7.701,7.222-7.701c7.157,0,7.859,6.774,7.859,10.417c0,2.396-0.415,12.653-8.147,12.653
			c-5.271,0-6.678-3.834-6.678-6.007h2.812c0.16,2.269,1.502,3.674,3.803,3.674c3.067,0,4.696-2.588,5.399-8.403l-0.063-0.064
			c-0.831,1.726-3.067,2.684-5.145,2.684C680.127,25.016,677.219,22.236,677.219,17.763z M689.009,17.38
			c0-2.556-1.31-4.793-4.537-4.793c-2.62,0-4.345,2.045-4.345,5.048c0,4.313,2.684,4.857,4.568,4.857
			C686.165,22.492,689.009,21.821,689.009,17.38z"/>
	</g>
</g>
</svg>
