<svg width="1280" height="720" 
    xmlns="http://www.w3.org/2000/svg" 
    xmlns:xlink="http://www.w3.org/1999/xlink" 
    overflow="hidden">
<rect x="0" y="0" width="1280" height="720" fill="#00FFFF"/>
<rect x="0" y="0" width="1280" height="480" fill="#1482AC"/>
<path d="M1280 460.681 1280 480 1261.3 480C1268.76 474.825 1275.09 468.242 1280 460.681ZM1280 424.298 1280 438.266C1260.42 445.633 1244.85 460.844 1237.45 480L1223.07 480C1231.55 453.552 1252.9 432.692 1280 424.298ZM1130.41 419.886 1132.2 420.057C1135.6 420.112 1138.95 420.425 1142.22 421.008 1142.81 420.965 1143.37 421.064 1143.92 421.17L1143.94 421.291C1176.7 426.714 1203.29 449.715 1213.09 480L1198.65 480C1189.89 457.468 1169.91 440.372 1145.34 435.092 1148.96 453.507 1159.69 469.452 1174.72 480L1154.32 480C1142.13 467.464 1133.88 451.288 1131.33 433.334 1131.31 433.329 1131.29 433.328 1131.27 433.328L1131.22 432.627C1130.68 429.451 1130.43 426.208 1130.43 422.918 1130.29 422.327 1130.29 421.732 1130.29 421.136L1130.35 419.935 1130.4 419.938ZM1128.02 419.886 1128.02 419.938 1128.07 419.935 1128.13 421.136C1128.13 421.732 1128.13 422.327 1127.99 422.918 1127.99 426.208 1127.74 429.451 1127.21 432.627L1127.15 433.328C1127.13 433.328 1127.11 433.329 1127.1 433.334 1124.54 451.288 1116.29 467.464 1104.1 480L1083.71 480C1098.73 469.452 1109.46 453.506 1113.08 435.092 1088.52 440.372 1068.53 457.468 1059.77 480L1045.33 480C1055.14 449.715 1081.72 426.714 1114.49 421.291L1114.5 421.17C1115.06 421.064 1115.61 420.965 1116.2 421.008 1119.47 420.425 1122.82 420.112 1126.22 420.057ZM952.751 419.886 954.545 420.057C957.945 420.112 961.294 420.425 964.568 421.008 965.153 420.965 965.712 421.064 966.27 421.17L966.282 421.291C999.046 426.714 1025.63 449.715 1035.43 480L1020.99 480C1012.24 457.468 992.253 440.372 967.686 435.092 971.307 453.507 982.039 469.452 997.063 480L976.67 480C964.478 467.464 956.23 451.288 953.672 433.334 953.654 433.329 953.636 433.328 953.618 433.328L953.562 432.627C953.031 429.451 952.773 426.208 952.778 422.918 952.64 422.327 952.634 421.732 952.634 421.136L952.696 419.935 952.749 419.938ZM950.363 419.886 950.366 419.938 950.418 419.935 950.48 421.136C950.48 421.732 950.474 422.327 950.336 422.918 950.341 426.208 950.084 429.451 949.552 432.627L949.496 433.328C949.478 433.328 949.46 433.329 949.443 433.334 946.885 451.288 938.637 467.464 926.444 480L906.052 480C921.075 469.452 931.807 453.507 935.429 435.092 910.862 440.372 890.875 457.468 882.121 480L867.68 480C877.482 449.715 904.068 426.714 936.832 421.291L936.845 421.17C937.402 421.064 937.961 420.965 938.547 421.008 941.821 420.425 945.169 420.112 948.569 420.057ZM775.098 419.886 776.892 420.057C780.292 420.112 783.64 420.425 786.914 421.008 787.499 420.965 788.059 421.064 788.616 421.17L788.628 421.291C821.393 426.714 847.978 449.715 857.78 480L843.339 480C834.585 457.468 814.599 440.372 790.032 435.092 793.654 453.506 804.386 469.452 819.409 480L799.016 480C786.824 467.464 778.576 451.288 776.018 433.334 776 433.329 775.983 433.328 775.965 433.328L775.908 432.627C775.377 429.451 775.12 426.208 775.124 422.918 774.987 422.327 774.98 421.732 774.98 421.136L775.043 419.935 775.095 419.938ZM772.709 419.886 772.712 419.938 772.764 419.935 772.827 421.136C772.827 421.732 772.82 422.327 772.683 422.918 772.687 426.208 772.43 429.451 771.899 432.627L771.842 433.328C771.824 433.328 771.807 433.329 771.789 433.334 769.231 451.288 760.983 467.464 748.791 480L728.398 480C743.422 469.452 754.154 453.506 757.775 435.092 733.208 440.372 713.222 457.468 704.467 480L690.027 480C699.829 449.715 726.414 426.714 759.179 421.291L759.191 421.17C759.748 421.064 760.308 420.965 760.893 421.008 764.167 420.425 767.515 420.112 770.915 420.057ZM597.444 419.886 599.238 420.057C602.638 420.112 605.986 420.425 609.26 421.008 609.846 420.965 610.405 421.064 610.962 421.17L610.975 421.291C643.739 426.714 670.325 449.715 680.127 480L665.686 480C656.932 457.468 636.946 440.372 612.378 435.092 616 453.507 626.732 469.452 641.755 480L621.362 480C609.17 467.464 600.922 451.288 598.364 433.334 598.347 433.329 598.329 433.328 598.311 433.328L598.255 432.627C597.724 429.451 597.466 426.208 597.471 422.918 597.333 422.327 597.327 421.732 597.327 421.136L597.389 419.935 597.441 419.938ZM595.056 419.886 595.058 419.938 595.111 419.935 595.173 421.136C595.173 421.732 595.167 422.327 595.029 422.918 595.033 426.208 594.776 429.451 594.245 432.627L594.189 433.328C594.171 433.328 594.153 433.329 594.135 433.334 591.578 451.288 583.329 467.464 571.137 480L550.744 480C565.768 469.452 576.5 453.507 580.121 435.092 555.554 440.372 535.568 457.468 526.814 480L512.373 480C522.175 449.715 548.761 426.714 581.525 421.291L581.537 421.17C582.095 421.064 582.654 420.965 583.239 421.008 586.513 420.425 589.862 420.112 593.262 420.057ZM419.791 419.886 421.584 420.057C424.985 420.112 428.333 420.425 431.607 421.008 432.192 420.965 432.751 421.064 433.309 421.17L433.321 421.291C466.085 426.714 492.671 449.715 502.473 480L488.032 480C479.278 457.468 459.292 440.372 434.725 435.092 438.346 453.506 449.078 469.452 464.102 480L443.709 480C431.517 467.464 423.269 451.288 420.711 433.334 420.693 433.329 420.675 433.328 420.658 433.328L420.601 432.627C420.07 429.451 419.813 426.208 419.817 422.918 419.679 422.327 419.673 421.732 419.673 421.136L419.736 419.935 419.788 419.938ZM417.402 419.886 417.405 419.938 417.457 419.935 417.519 421.136C417.519 421.732 417.513 422.327 417.375 422.918 417.38 426.208 417.123 429.451 416.591 432.627L416.535 433.328C416.517 433.328 416.5 433.329 416.482 433.334 413.924 451.288 405.676 467.464 393.484 480L373.091 480C388.114 469.452 398.846 453.507 402.468 435.092 377.901 440.372 357.914 457.468 349.16 480L334.719 480C344.521 449.715 371.107 426.714 403.871 421.291L403.884 421.17C404.441 421.064 405 420.965 405.586 421.008 408.86 420.425 412.208 420.112 415.608 420.057ZM242.137 419.886 243.931 420.057C247.331 420.112 250.679 420.425 253.953 421.008 254.538 420.965 255.098 421.064 255.655 421.17L255.667 421.291C288.432 426.714 315.018 449.715 324.819 480L310.379 480C301.625 457.468 281.638 440.372 257.071 435.092 260.693 453.507 271.425 469.452 286.448 480L266.055 480C253.863 467.464 245.615 451.288 243.057 433.334 243.039 433.329 243.022 433.328 243.004 433.328L242.947 432.627C242.416 429.451 242.159 426.208 242.163 422.918 242.026 422.327 242.02 421.732 242.02 421.136L242.082 419.935 242.134 419.938ZM239.748 419.886 239.751 419.938 239.803 419.935 239.866 421.136C239.866 421.732 239.86 422.327 239.722 422.918 239.726 426.208 239.469 429.451 238.938 432.627L238.881 433.328C238.864 433.328 238.846 433.329 238.828 433.334 236.27 451.288 228.022 467.464 215.83 480L195.437 480C210.461 469.452 221.193 453.506 224.814 435.092 200.247 440.372 180.261 457.468 171.507 480L157.066 480C166.868 449.715 193.454 426.714 226.218 421.291L226.23 421.17C226.787 421.064 227.347 420.965 227.932 421.008 231.206 420.425 234.554 420.112 237.954 420.057ZM64.4833 419.886 66.2772 420.057C69.6773 420.112 73.0255 420.425 76.2994 421.008 76.8848 420.965 77.4442 421.064 78.0015 421.17L78.0137 421.291C110.778 426.714 137.364 449.715 147.166 480L132.725 480C123.971 457.468 103.985 440.372 79.4175 435.092 83.0389 453.507 93.771 469.452 108.794 480L88.4017 480C76.2093 467.464 67.9613 451.288 65.4033 433.334 65.3857 433.329 65.368 433.328 65.3502 433.328L65.2938 432.627C64.7626 429.451 64.5053 426.208 64.5097 422.918 64.372 422.327 64.3659 421.732 64.3659 421.136L64.4282 419.935 64.4805 419.938ZM62.0947 419.886 62.0974 419.938 62.1497 419.935 62.2121 421.136C62.2121 421.732 62.2059 422.327 62.0681 422.918 62.0726 426.208 61.8153 429.451 61.2842 432.627L61.2277 433.328C61.2099 433.328 61.1922 433.329 61.1747 433.334 58.6115 451.324 50.3354 467.529 38.043 480L17.8279 480C32.8192 469.434 43.5411 453.496 47.1604 435.092 27.1886 439.384 10.2442 451.485 0 468.046L0 446.335C12.7542 433.432 29.6272 424.425 48.5641 421.291L48.5764 421.17C49.1338 421.064 49.6931 420.965 50.2785 421.008 53.5523 420.425 56.9007 420.112 60.3008 420.057ZM1202.38 346.972C1173.49 353.133 1150.93 375.507 1145.34 403.725 1174.23 397.564 1196.79 375.191 1202.38 346.972ZM1056.04 346.972C1061.64 375.191 1084.19 397.564 1113.08 403.725 1107.49 375.507 1084.93 353.133 1056.04 346.972ZM1024.73 346.972C995.835 353.133 973.279 375.507 967.686 403.725 996.577 397.564 1019.13 375.191 1024.73 346.972ZM878.388 346.972C883.982 375.191 906.537 397.564 935.429 403.725 929.835 375.507 907.28 353.133 878.388 346.972ZM847.072 346.972C818.181 353.133 795.625 375.507 790.032 403.725 818.923 397.564 841.479 375.191 847.072 346.972ZM700.735 346.972C706.328 375.191 728.884 397.564 757.775 403.725 752.182 375.507 729.626 353.133 700.735 346.972ZM669.419 346.972C640.527 353.133 617.971 375.507 612.378 403.725 641.27 397.564 663.825 375.191 669.419 346.972ZM523.081 346.972C528.674 375.191 551.23 397.564 580.121 403.725 574.528 375.507 551.972 353.133 523.081 346.972ZM491.765 346.972C462.874 353.133 440.318 375.507 434.725 403.725 463.616 397.564 486.172 375.191 491.765 346.972ZM345.427 346.972C351.021 375.191 373.576 397.564 402.468 403.725 396.875 375.507 374.319 353.133 345.427 346.972ZM314.111 346.972C285.22 353.133 262.664 375.507 257.071 403.725 285.962 397.564 308.518 375.191 314.111 346.972ZM167.774 346.972C173.367 375.191 195.923 397.564 224.814 403.725 219.221 375.507 196.665 353.133 167.774 346.972ZM136.458 346.972C107.566 353.133 85.0105 375.507 79.4173 403.725 108.309 397.564 130.864 375.191 136.458 346.972ZM0 336.053C32.1951 345.552 56.4384 372.487 61.1748 405.468 61.1923 405.474 61.2101 405.474 61.2278 405.475L61.2845 406.172C61.8154 409.322 62.0726 412.539 62.0681 415.802 62.2059 416.389 62.2121 416.979 62.2121 417.571 62.2121 417.969 62.2092 418.367 62.1498 418.763L62.0974 418.759 62.0947 418.811 60.2975 418.641C56.8986 418.587 53.5516 418.276 50.2789 417.698 49.6934 417.741 49.134 417.642 48.5764 417.537L48.5642 417.418C29.6273 414.308 12.7543 405.372 0 392.569L0 371.029C10.245 387.46 27.189 399.466 47.1604 403.725 42.2238 378.819 24.0732 358.466 0 349.838ZM1218.76 331.886 1220.56 332.055C1223.96 332.11 1227.3 332.421 1230.58 333 1231.16 332.956 1231.72 333.055 1232.28 333.16L1232.29 333.28C1250.82 336.323 1267.38 344.945 1280 357.34L1280 378.337C1269.68 362.586 1253.12 351.115 1233.7 346.972 1238.57 371.585 1256.36 391.751 1280 400.575L1280 414.434C1248.24 404.672 1224.38 377.921 1219.68 345.229 1219.66 345.223 1219.65 345.223 1219.63 345.222L1219.57 344.527C1219.04 341.376 1218.78 338.158 1218.79 334.894 1218.65 334.308 1218.64 333.718 1218.64 333.126L1218.71 331.935 1218.76 331.938ZM1217.31 331.886 1217.32 331.938 1217.37 331.935 1217.43 333.126C1217.43 333.718 1217.43 334.308 1217.29 334.894 1217.29 338.158 1217.03 341.376 1216.5 344.527L1216.45 345.222C1216.43 345.223 1216.41 345.223 1216.39 345.229 1211.12 381.984 1181.61 411.23 1143.94 417.418L1143.92 417.537C1143.37 417.642 1142.81 417.741 1142.22 417.698 1138.95 418.276 1135.6 418.587 1132.2 418.641L1130.41 418.811 1130.4 418.759 1130.35 418.763C1130.29 418.367 1130.29 417.969 1130.29 417.571 1130.29 416.979 1130.29 416.389 1130.43 415.802 1130.43 412.539 1130.68 409.322 1131.22 406.172L1131.27 405.475C1131.29 405.474 1131.31 405.474 1131.33 405.468 1136.6 368.713 1166.11 339.467 1203.78 333.28L1203.8 333.16C1204.35 333.055 1204.91 332.956 1205.5 333 1208.77 332.421 1212.12 332.11 1215.52 332.055ZM1041.11 331.886 1042.9 332.055C1046.3 332.11 1049.65 332.421 1052.92 333 1053.51 332.956 1054.07 333.055 1054.63 333.16L1054.64 333.28C1092.31 339.467 1121.82 368.713 1127.1 405.468 1127.11 405.474 1127.13 405.474 1127.15 405.475L1127.21 406.172C1127.74 409.322 1127.99 412.539 1127.99 415.802 1128.13 416.389 1128.13 416.979 1128.13 417.571 1128.13 417.969 1128.13 418.367 1128.07 418.763L1128.02 418.759 1128.02 418.811 1126.22 418.641C1122.82 418.587 1119.47 418.276 1116.2 417.698 1115.62 417.741 1115.06 417.642 1114.5 417.537L1114.49 417.418C1076.81 411.23 1047.31 381.984 1042.03 345.229 1042.01 345.223 1041.99 345.223 1041.97 345.222L1041.92 344.527C1041.39 341.376 1041.13 338.158 1041.13 334.894 1041 334.308 1040.99 333.718 1040.99 333.126L1041.05 331.935 1041.1 331.938ZM1039.66 331.886 1039.66 331.938 1039.72 331.935 1039.78 333.126C1039.78 333.718 1039.77 334.308 1039.63 334.894 1039.64 338.158 1039.38 341.376 1038.85 344.527L1038.79 345.222C1038.78 345.223 1038.76 345.223 1038.74 345.229 1033.46 381.984 1003.96 411.23 966.282 417.418L966.27 417.537C965.712 417.642 965.153 417.741 964.567 417.698 961.294 418.276 957.947 418.587 954.548 418.641L952.751 418.811 952.749 418.759 952.696 418.763C952.637 418.367 952.634 417.969 952.634 417.571 952.634 416.979 952.64 416.389 952.778 415.802 952.773 412.539 953.031 409.322 953.561 406.172L953.618 405.475C953.636 405.474 953.654 405.474 953.671 405.468 958.95 368.713 988.455 339.467 1026.13 333.28L1026.14 333.16C1026.7 333.055 1027.26 332.956 1027.84 333 1031.12 332.421 1034.47 332.11 1037.87 332.055ZM863.454 331.886 865.248 332.055C868.648 332.11 871.996 332.421 875.27 333 875.856 332.956 876.415 333.055 876.972 333.16L876.985 333.28C914.659 339.467 944.165 368.713 949.443 405.468 949.461 405.474 949.478 405.474 949.496 405.475L949.553 406.172C950.084 409.322 950.341 412.539 950.336 415.802 950.474 416.389 950.48 416.979 950.48 417.571 950.48 417.969 950.477 418.367 950.418 418.763L950.366 418.759 950.363 418.811 948.566 418.641C945.167 418.587 941.82 418.276 938.547 417.698 937.962 417.741 937.402 417.642 936.845 417.537L936.832 417.418C899.158 411.23 869.652 381.984 864.374 345.229 864.357 345.223 864.339 345.223 864.321 345.222L864.265 344.527C863.733 341.376 863.476 338.158 863.481 334.894 863.343 334.308 863.337 333.718 863.337 333.126L863.399 331.935 863.451 331.938ZM862.006 331.886 862.009 331.938 862.062 331.935 862.124 333.126C862.124 333.718 862.118 334.308 861.98 334.894 861.984 338.158 861.727 341.376 861.196 344.527L861.14 345.222C861.122 345.223 861.104 345.223 861.086 345.229 855.808 381.984 826.303 411.23 788.628 417.418L788.616 417.537C788.058 417.642 787.499 417.741 786.913 417.698 783.641 418.276 780.294 418.587 776.895 418.641L775.098 418.811 775.095 418.759 775.042 418.763C774.983 418.367 774.98 417.969 774.98 417.571 774.98 416.979 774.986 416.389 775.124 415.802 775.12 412.539 775.377 409.322 775.908 406.172L775.964 405.475C775.982 405.474 776 405.474 776.018 405.468 781.296 368.713 810.801 339.467 848.476 333.28L848.488 333.16C849.046 333.055 849.605 332.956 850.19 333 853.464 332.421 856.812 332.11 860.213 332.055ZM685.8 331.886 687.594 332.055C690.994 332.11 694.343 332.421 697.617 333 698.202 332.956 698.761 333.055 699.319 333.16L699.331 333.28C737.006 339.467 766.511 368.713 771.789 405.468 771.807 405.474 771.825 405.474 771.842 405.475L771.899 406.172C772.43 409.322 772.687 412.539 772.683 415.802 772.821 416.389 772.827 416.979 772.827 417.571 772.827 417.969 772.824 418.367 772.764 418.763L772.712 418.759 772.709 418.811 770.912 418.641C767.513 418.587 764.166 418.276 760.893 417.698 760.308 417.741 759.749 417.642 759.191 417.537L759.179 417.418C721.504 411.23 691.999 381.984 686.721 345.229 686.703 345.223 686.685 345.223 686.667 345.222L686.611 344.527C686.08 341.376 685.823 338.158 685.827 334.894 685.689 334.308 685.683 333.718 685.683 333.126L685.745 331.935 685.798 331.938ZM684.353 331.886 684.356 331.938 684.408 331.935 684.47 333.126C684.47 333.718 684.464 334.308 684.326 334.894 684.331 338.158 684.073 341.376 683.542 344.527L683.486 345.222C683.468 345.223 683.45 345.223 683.433 345.229 678.155 381.984 648.649 411.23 610.974 417.418L610.962 417.537C610.405 417.642 609.845 417.741 609.26 417.698 605.987 418.276 602.64 418.587 599.241 418.641L597.444 418.811 597.441 418.759 597.389 418.763C597.329 418.367 597.327 417.969 597.327 417.571 597.327 416.979 597.333 416.389 597.47 415.802 597.466 412.539 597.723 409.322 598.254 406.172L598.311 405.475C598.328 405.474 598.346 405.474 598.364 405.468 603.642 368.713 633.148 339.467 670.822 333.28L670.835 333.16C671.392 333.055 671.951 332.956 672.537 333 675.81 332.421 679.159 332.11 682.559 332.055ZM508.147 331.886 509.941 332.055C513.341 332.11 516.689 332.421 519.963 333 520.548 332.956 521.108 333.055 521.665 333.16L521.677 333.28C559.352 339.467 588.857 368.713 594.136 405.468 594.153 405.474 594.171 405.474 594.189 405.475L594.245 406.172C594.776 409.322 595.033 412.539 595.029 415.802 595.167 416.389 595.173 416.979 595.173 417.571 595.173 417.969 595.17 418.367 595.111 418.763L595.058 418.759 595.056 418.811 593.258 418.641C589.859 418.587 586.513 418.276 583.24 417.698 582.654 417.741 582.095 417.642 581.537 417.537L581.525 417.418C543.85 411.23 514.345 381.984 509.067 345.229 509.049 345.223 509.031 345.223 509.014 345.222L508.957 344.527C508.426 341.376 508.169 338.158 508.173 334.894 508.035 334.308 508.029 333.718 508.029 333.126L508.092 331.935 508.144 331.938ZM506.699 331.886 506.702 331.938 506.754 331.935 506.817 333.126C506.817 333.718 506.81 334.308 506.673 334.894 506.677 338.158 506.42 341.376 505.889 344.527L505.832 345.222C505.814 345.223 505.797 345.223 505.779 345.229 500.501 381.984 470.995 411.23 433.321 417.418L433.309 417.537C432.751 417.642 432.192 417.741 431.606 417.698 428.333 418.276 424.986 418.587 421.587 418.641L419.79 418.811 419.788 418.759 419.735 418.763C419.676 418.367 419.673 417.969 419.673 417.571 419.673 416.979 419.679 416.389 419.817 415.802 419.812 412.539 420.07 409.322 420.6 406.172L420.657 405.475C420.675 405.474 420.693 405.474 420.71 405.468 425.989 368.713 455.494 339.467 493.169 333.28L493.181 333.16C493.738 333.055 494.298 332.956 494.883 333 498.157 332.421 501.505 332.11 504.905 332.055ZM330.493 331.886 332.287 332.055C335.687 332.11 339.035 332.421 342.309 333 342.895 332.956 343.454 333.055 344.011 333.16L344.024 333.28C381.698 339.467 411.204 368.713 416.482 405.468 416.5 405.474 416.517 405.474 416.535 405.475L416.592 406.172C417.123 409.322 417.38 412.539 417.375 415.802 417.513 416.389 417.519 416.979 417.519 417.571 417.519 417.969 417.517 418.367 417.457 418.763L417.405 418.759 417.402 418.811 415.605 418.641C412.206 418.587 408.859 418.276 405.586 417.698 405.001 417.741 404.441 417.642 403.884 417.537L403.871 417.418C366.197 411.23 336.691 381.984 331.413 345.229 331.396 345.223 331.378 345.223 331.36 345.222L331.304 344.527C330.772 341.376 330.515 338.158 330.52 334.894 330.382 334.308 330.376 333.718 330.376 333.126L330.438 331.935 330.49 331.938ZM329.046 331.886 329.048 331.938 329.101 331.935 329.163 333.126C329.163 333.718 329.157 334.308 329.019 334.894 329.023 338.158 328.766 341.376 328.235 344.527L328.179 345.222C328.161 345.223 328.143 345.223 328.125 345.229 322.847 381.984 293.342 411.23 255.667 417.418L255.655 417.537C255.097 417.642 254.538 417.741 253.952 417.698 250.68 418.276 247.333 418.587 243.934 418.641L242.137 418.811 242.134 418.759 242.082 418.763C242.022 418.367 242.019 417.969 242.019 417.571 242.019 416.979 242.025 416.389 242.163 415.802 242.159 412.539 242.416 409.322 242.947 406.172L243.004 405.475C243.021 405.474 243.039 405.474 243.057 405.468 248.335 368.713 277.84 339.467 315.515 333.28L315.527 333.16C316.085 333.055 316.644 332.956 317.229 333 320.503 332.421 323.852 332.11 327.252 332.055ZM152.839 331.886 154.633 332.055C158.033 332.11 161.382 332.421 164.656 333 165.241 332.956 165.8 333.055 166.358 333.16L166.37 333.28C204.045 339.467 233.55 368.713 238.828 405.468 238.846 405.474 238.864 405.474 238.881 405.475L238.938 406.172C239.469 409.322 239.726 412.539 239.722 415.802 239.86 416.389 239.866 416.979 239.866 417.571 239.866 417.969 239.863 418.367 239.803 418.763L239.751 418.759 239.748 418.811 237.951 418.641C234.552 418.587 231.205 418.276 227.933 417.698 227.347 417.741 226.788 417.642 226.23 417.537L226.218 417.418C188.543 411.23 159.038 381.984 153.759 345.229 153.742 345.223 153.724 345.223 153.706 345.222L153.65 344.527C153.119 341.376 152.862 338.158 152.866 334.894 152.728 334.308 152.722 333.718 152.722 333.126L152.784 331.935 152.837 331.938ZM151.392 331.886 151.395 331.938 151.447 331.935 151.509 333.126C151.509 333.718 151.503 334.308 151.365 334.894 151.37 338.158 151.113 341.376 150.581 344.527L150.525 345.222C150.507 345.223 150.489 345.223 150.472 345.229 145.194 381.984 115.688 411.23 78.0135 417.418L78.0013 417.537C77.4438 417.642 76.8843 417.741 76.2988 417.698 73.0261 418.276 69.6791 418.587 66.2802 418.641L64.483 418.811 64.4803 418.759 64.4279 418.763C64.3685 418.367 64.3657 417.969 64.3657 417.571 64.3657 416.979 64.3718 416.389 64.5095 415.802 64.5051 412.539 64.7623 409.322 65.2931 406.172L65.3499 405.475C65.3676 405.474 65.3854 405.474 65.4029 405.468 70.6814 368.713 100.187 339.467 137.861 333.28L137.874 333.16C138.431 333.055 138.99 332.956 139.576 333 142.85 332.421 146.198 332.11 149.598 332.055ZM1145.34 256.947C1150.93 285.389 1173.49 307.94 1202.38 314.149 1196.79 285.708 1174.23 263.157 1145.34 256.947ZM1113.08 256.947C1084.19 263.157 1061.64 285.708 1056.04 314.149 1084.93 307.94 1107.49 285.389 1113.08 256.947ZM967.686 256.947C973.279 285.389 995.835 307.94 1024.73 314.149 1019.13 285.708 996.577 263.157 967.686 256.947ZM935.429 256.947C906.537 263.157 883.982 285.708 878.388 314.149 907.28 307.94 929.835 285.389 935.429 256.947ZM790.032 256.947C795.625 285.389 818.181 307.94 847.072 314.149 841.479 285.708 818.923 263.157 790.032 256.947ZM757.775 256.947C728.884 263.157 706.328 285.708 700.735 314.149 729.626 307.94 752.182 285.389 757.775 256.947ZM612.378 256.947C617.972 285.389 640.527 307.94 669.419 314.149 663.826 285.708 641.27 263.157 612.378 256.947ZM580.121 256.947C551.23 263.157 528.674 285.708 523.081 314.149 551.972 307.94 574.528 285.389 580.121 256.947ZM434.725 256.947C440.318 285.389 462.874 307.94 491.765 314.149 486.172 285.708 463.616 263.157 434.725 256.947ZM402.468 256.947C373.576 263.157 351.021 285.708 345.427 314.149 374.319 307.94 396.874 285.389 402.468 256.947ZM257.071 256.947C262.664 285.389 285.22 307.94 314.111 314.149 308.518 285.708 285.963 263.157 257.071 256.947ZM224.814 256.947C195.923 263.157 173.367 285.708 167.774 314.149 196.665 307.94 219.221 285.389 224.814 256.947ZM79.4175 256.947C85.0108 285.389 107.567 307.94 136.458 314.149 130.865 285.708 108.309 263.157 79.4175 256.947ZM1280 246.154 1280 260.122C1256.36 269.016 1238.57 289.342 1233.7 314.149 1253.12 309.974 1269.68 298.411 1280 282.537L1280 303.699C1267.38 316.193 1250.82 324.883 1232.29 327.95L1232.28 328.071C1231.72 328.177 1231.16 328.276 1230.58 328.232 1227.3 328.816 1223.96 329.129 1220.56 329.184L1218.76 329.355 1218.76 329.303 1218.71 329.306C1218.65 328.907 1218.64 328.506 1218.64 328.105 1218.64 327.508 1218.65 326.913 1218.79 326.322 1218.78 323.033 1219.04 319.791 1219.57 316.615L1219.63 315.913C1219.65 315.913 1219.66 315.912 1219.68 315.906 1224.38 282.956 1248.24 255.992 1280 246.154ZM1130.41 241.742 1132.2 241.912C1135.6 241.968 1138.95 242.281 1142.22 242.864 1142.81 242.82 1143.37 242.92 1143.92 243.026L1143.94 243.146C1181.61 249.382 1211.12 278.86 1216.39 315.906 1216.41 315.912 1216.43 315.913 1216.45 315.913L1216.5 316.615C1217.03 319.791 1217.29 323.033 1217.29 326.322 1217.43 326.913 1217.43 327.508 1217.43 328.105 1217.43 328.506 1217.43 328.907 1217.37 329.306L1217.32 329.303 1217.31 329.355 1215.52 329.184C1212.12 329.129 1208.77 328.816 1205.5 328.232 1204.91 328.276 1204.35 328.177 1203.8 328.071L1203.78 327.95C1166.11 321.714 1136.6 292.236 1131.33 255.19 1131.31 255.185 1131.29 255.184 1131.27 255.183L1131.22 254.483C1130.68 251.307 1130.43 248.064 1130.43 244.774 1130.29 244.183 1130.29 243.588 1130.29 242.992L1130.35 241.79 1130.4 241.794ZM1128.02 241.742 1128.02 241.794 1128.07 241.79 1128.13 242.992C1128.13 243.588 1128.13 244.183 1127.99 244.774 1127.99 248.064 1127.74 251.307 1127.21 254.483L1127.15 255.183C1127.13 255.184 1127.11 255.185 1127.1 255.19 1121.82 292.236 1092.31 321.714 1054.64 327.95L1054.63 328.071C1054.07 328.177 1053.51 328.276 1052.92 328.232 1049.65 328.816 1046.3 329.129 1042.9 329.184L1041.11 329.355 1041.1 329.303 1041.05 329.306C1040.99 328.907 1040.99 328.506 1040.99 328.105 1040.99 327.508 1041 326.913 1041.13 326.322 1041.13 323.033 1041.39 319.791 1041.92 316.615L1041.97 315.913C1041.99 315.913 1042.01 315.912 1042.03 315.906 1047.31 278.86 1076.81 249.382 1114.49 243.146L1114.5 243.026C1115.06 242.92 1115.61 242.82 1116.2 242.864 1119.47 242.281 1122.82 241.968 1126.22 241.912ZM952.751 241.742 954.545 241.912C957.945 241.968 961.294 242.281 964.568 242.864 965.153 242.82 965.712 242.92 966.27 243.026L966.282 243.146C1003.96 249.382 1033.46 278.86 1038.74 315.906 1038.76 315.912 1038.78 315.913 1038.79 315.913L1038.85 316.615C1039.38 319.791 1039.64 323.033 1039.63 326.322 1039.77 326.913 1039.78 327.508 1039.78 328.105 1039.78 328.506 1039.77 328.907 1039.72 329.306L1039.66 329.303 1039.66 329.355 1037.86 329.184C1034.46 329.129 1031.12 328.816 1027.84 328.232 1027.26 328.276 1026.7 328.177 1026.14 328.071L1026.13 327.95C988.455 321.714 958.95 292.236 953.672 255.19 953.654 255.185 953.636 255.184 953.618 255.183L953.562 254.483C953.031 251.307 952.773 248.064 952.778 244.774 952.64 244.183 952.634 243.588 952.634 242.992L952.696 241.79 952.749 241.794ZM950.363 241.742 950.366 241.794 950.418 241.79 950.48 242.992C950.48 243.588 950.474 244.183 950.336 244.774 950.341 248.064 950.084 251.307 949.552 254.483L949.496 255.183C949.478 255.184 949.46 255.185 949.443 255.19 944.165 292.236 914.659 321.714 876.985 327.95L876.972 328.071C876.415 328.177 875.855 328.276 875.27 328.232 871.997 328.816 868.65 329.129 865.251 329.184L863.454 329.355 863.451 329.303 863.399 329.306C863.339 328.907 863.337 328.506 863.337 328.105 863.337 327.508 863.343 326.913 863.481 326.322 863.476 323.033 863.733 319.791 864.264 316.615L864.321 315.913C864.339 315.913 864.356 315.912 864.374 315.906 869.652 278.86 899.158 249.382 936.832 243.146L936.845 243.026C937.402 242.92 937.961 242.82 938.547 242.864 941.821 242.281 945.169 241.968 948.569 241.912ZM775.098 241.742 776.892 241.912C780.292 241.968 783.64 242.281 786.914 242.864 787.499 242.82 788.059 242.92 788.616 243.026L788.628 243.146C826.303 249.382 855.808 278.86 861.087 315.906 861.104 315.912 861.122 315.913 861.14 315.913L861.197 316.615C861.727 319.791 861.985 323.033 861.98 326.322 862.118 326.913 862.124 327.508 862.124 328.105 862.124 328.506 862.121 328.907 862.062 329.306L862.009 329.303 862.007 329.355 860.21 329.184C856.811 329.129 853.464 328.816 850.191 328.232 849.605 328.276 849.046 328.177 848.488 328.071L848.476 327.95C810.802 321.714 781.296 292.236 776.018 255.19 776 255.185 775.983 255.184 775.965 255.183L775.908 254.483C775.377 251.307 775.12 248.064 775.124 244.774 774.987 244.183 774.98 243.588 774.98 242.992L775.043 241.79 775.095 241.794ZM772.709 241.742 772.712 241.794 772.764 241.79 772.827 242.992C772.827 243.588 772.821 244.183 772.683 244.774 772.687 248.064 772.43 251.307 771.899 254.483L771.842 255.183C771.825 255.184 771.807 255.185 771.789 255.19 766.511 292.236 737.006 321.714 699.331 327.95L699.319 328.071C698.761 328.177 698.202 328.276 697.616 328.232 694.344 328.816 690.997 329.129 687.598 329.184L685.8 329.355 685.798 329.303 685.745 329.306C685.686 328.907 685.683 328.506 685.683 328.105 685.683 327.508 685.689 326.913 685.827 326.322 685.823 323.033 686.08 319.791 686.611 316.615L686.667 315.913C686.685 315.913 686.703 315.912 686.72 315.906 691.999 278.86 721.504 249.382 759.179 243.146L759.191 243.026C759.748 242.92 760.308 242.82 760.893 242.864 764.167 242.281 767.515 241.968 770.915 241.912ZM597.444 241.742 599.238 241.912C602.638 241.968 605.986 242.281 609.26 242.864 609.846 242.82 610.405 242.92 610.962 243.026L610.975 243.146C648.649 249.382 678.155 278.86 683.433 315.906 683.451 315.912 683.468 315.913 683.486 315.913L683.543 316.615C684.074 319.791 684.331 323.033 684.326 326.322 684.464 326.913 684.47 327.508 684.47 328.105 684.47 328.506 684.468 328.907 684.408 329.306L684.356 329.303 684.353 329.355 682.556 329.184C679.157 329.129 675.81 328.816 672.537 328.232 671.952 328.276 671.392 328.177 670.835 328.071L670.823 327.95C633.148 321.714 603.643 292.236 598.364 255.19 598.347 255.185 598.329 255.184 598.311 255.183L598.255 254.483C597.724 251.307 597.466 248.064 597.471 244.774 597.333 244.183 597.327 243.588 597.327 242.992L597.389 241.79 597.441 241.794ZM595.056 241.742 595.058 241.794 595.111 241.79 595.173 242.992C595.173 243.588 595.167 244.183 595.029 244.774 595.033 248.064 594.776 251.307 594.245 254.483L594.189 255.183C594.171 255.184 594.153 255.185 594.135 255.19 588.857 292.236 559.352 321.714 521.677 327.95L521.665 328.071C521.107 328.177 520.548 328.276 519.963 328.232 516.69 328.816 513.343 329.129 509.944 329.184L508.147 329.355 508.144 329.303 508.092 329.306C508.032 328.907 508.029 328.506 508.029 328.105 508.029 327.508 508.035 326.913 508.173 326.322 508.169 323.033 508.426 319.791 508.957 316.615L509.014 315.913C509.031 315.913 509.049 315.912 509.067 315.906 514.345 278.86 543.85 249.382 581.525 243.146L581.537 243.026C582.095 242.92 582.654 242.82 583.239 242.864 586.513 242.281 589.862 241.968 593.262 241.912ZM419.791 241.742 421.584 241.912C424.985 241.968 428.333 242.281 431.607 242.864 432.192 242.82 432.751 242.92 433.309 243.026L433.321 243.146C470.996 249.382 500.501 278.86 505.779 315.906 505.797 315.912 505.815 315.913 505.833 315.913L505.889 316.615C506.42 319.791 506.677 323.033 506.673 326.322 506.811 326.913 506.817 327.508 506.817 328.105 506.817 328.506 506.814 328.907 506.755 329.306L506.702 329.303 506.699 329.355 504.902 329.184C501.503 329.129 498.156 328.816 494.884 328.232 494.298 328.276 493.739 328.177 493.181 328.071L493.169 327.95C455.494 321.714 425.989 292.236 420.711 255.19 420.693 255.185 420.675 255.184 420.658 255.183L420.601 254.483C420.07 251.307 419.813 248.064 419.817 244.774 419.679 244.183 419.673 243.588 419.673 242.992L419.736 241.79 419.788 241.794ZM417.402 241.742 417.405 241.794 417.457 241.79 417.519 242.992C417.519 243.588 417.513 244.183 417.375 244.774 417.38 248.064 417.123 251.307 416.591 254.483L416.535 255.183C416.517 255.184 416.5 255.185 416.482 255.19 411.204 292.236 381.698 321.714 344.024 327.95L344.011 328.071C343.454 328.177 342.894 328.276 342.309 328.232 339.036 328.816 335.689 329.129 332.29 329.184L330.493 329.355 330.49 329.303 330.438 329.306C330.379 328.907 330.376 328.506 330.376 328.105 330.376 327.508 330.382 326.913 330.52 326.322 330.515 323.033 330.772 319.791 331.303 316.615L331.36 315.913C331.378 315.913 331.395 315.912 331.413 315.906 336.691 278.86 366.197 249.382 403.871 243.146L403.884 243.026C404.441 242.92 405 242.82 405.586 242.864 408.86 242.281 412.208 241.968 415.608 241.912ZM242.137 241.742 243.931 241.912C247.331 241.968 250.679 242.281 253.953 242.864 254.538 242.82 255.098 242.92 255.655 243.026L255.667 243.146C293.342 249.382 322.847 278.86 328.126 315.906 328.143 315.912 328.161 315.913 328.179 315.913L328.236 316.615C328.767 319.791 329.024 323.033 329.019 326.322 329.157 326.913 329.163 327.508 329.163 328.105 329.163 328.506 329.16 328.907 329.101 329.306L329.048 329.303 329.046 329.355 327.249 329.184C323.85 329.129 320.503 328.816 317.23 328.232 316.645 328.276 316.085 328.177 315.527 328.071L315.515 327.95C277.841 321.714 248.335 292.236 243.057 255.19 243.039 255.185 243.022 255.184 243.004 255.183L242.947 254.483C242.416 251.307 242.159 248.064 242.163 244.774 242.026 244.183 242.02 243.588 242.02 242.992L242.082 241.79 242.134 241.794ZM239.748 241.742 239.751 241.794 239.803 241.79 239.866 242.992C239.866 243.588 239.86 244.183 239.722 244.774 239.726 248.064 239.469 251.307 238.938 254.483L238.881 255.183C238.864 255.184 238.846 255.185 238.828 255.19 233.55 292.236 204.045 321.714 166.37 327.95L166.358 328.071C165.8 328.177 165.241 328.276 164.655 328.232 161.383 328.816 158.036 329.129 154.637 329.184L152.839 329.355 152.837 329.303 152.784 329.306C152.725 328.907 152.722 328.506 152.722 328.105 152.722 327.508 152.728 326.913 152.866 326.322 152.862 323.033 153.119 319.791 153.65 316.615L153.706 315.913C153.724 315.913 153.742 315.912 153.759 315.906 159.038 278.86 188.543 249.382 226.218 243.146L226.23 243.026C226.787 242.92 227.347 242.82 227.932 242.864 231.206 242.281 234.554 241.968 237.954 241.912ZM64.4833 241.742 66.2772 241.912C69.6773 241.968 73.0255 242.281 76.2994 242.864 76.8848 242.82 77.4442 242.92 78.0015 243.026L78.0137 243.146C115.688 249.382 145.194 278.86 150.472 315.906 150.49 315.912 150.508 315.913 150.525 315.913L150.582 316.615C151.113 319.791 151.37 323.033 151.366 326.322 151.503 326.913 151.509 327.508 151.509 328.105 151.509 328.506 151.507 328.907 151.447 329.306L151.395 329.303 151.392 329.355 149.595 329.184C146.196 329.129 142.849 328.816 139.576 328.232 138.991 328.276 138.431 328.177 137.874 328.071L137.862 327.95C100.187 321.714 70.6816 292.236 65.4033 255.19 65.3857 255.185 65.368 255.184 65.3502 255.183L65.2938 254.483C64.7626 251.307 64.5053 248.064 64.5097 244.774 64.372 244.183 64.3659 243.588 64.3659 242.992L64.4282 241.79 64.4805 241.794ZM62.0947 241.742 62.0974 241.794 62.1497 241.79 62.2121 242.992C62.2121 243.588 62.2059 244.183 62.0681 244.774 62.0726 248.064 61.8153 251.307 61.2842 254.483L61.2277 255.183C61.2099 255.184 61.1922 255.185 61.1747 255.19 56.4384 288.432 32.1955 315.58 0 325.155L0 311.261C24.0733 302.564 42.2237 282.05 47.1604 256.947 27.1886 261.24 10.2442 273.341 0 289.902L0 268.191C12.7542 255.287 29.6272 246.281 48.5641 243.146L48.5764 243.026C49.1338 242.92 49.6931 242.82 50.2785 242.864 53.5523 242.281 56.9007 241.968 60.3008 241.912ZM1202.38 168.828C1173.49 174.989 1150.93 197.362 1145.34 225.581 1174.23 219.42 1196.79 197.046 1202.38 168.828ZM1056.04 168.828C1061.64 197.046 1084.19 219.42 1113.08 225.581 1107.49 197.362 1084.93 174.989 1056.04 168.828ZM1024.73 168.828C995.835 174.989 973.279 197.362 967.686 225.581 996.577 219.42 1019.13 197.046 1024.73 168.828ZM878.388 168.828C883.982 197.046 906.537 219.42 935.429 225.581 929.835 197.362 907.28 174.989 878.388 168.828ZM847.072 168.828C818.181 174.989 795.625 197.362 790.032 225.581 818.923 219.42 841.479 197.046 847.072 168.828ZM700.735 168.828C706.328 197.046 728.884 219.42 757.775 225.581 752.182 197.362 729.626 174.989 700.735 168.828ZM669.419 168.828C640.527 174.989 617.971 197.362 612.378 225.581 641.27 219.42 663.825 197.046 669.419 168.828ZM523.081 168.828C528.674 197.046 551.23 219.42 580.121 225.581 574.528 197.362 551.972 174.989 523.081 168.828ZM491.765 168.828C462.874 174.989 440.318 197.362 434.725 225.581 463.616 219.42 486.172 197.046 491.765 168.828ZM345.427 168.828C351.021 197.046 373.576 219.42 402.468 225.581 396.875 197.362 374.319 174.989 345.427 168.828ZM314.111 168.828C285.22 174.989 262.664 197.362 257.071 225.581 285.962 219.42 308.518 197.046 314.111 168.828ZM167.774 168.828C173.367 197.046 195.923 219.42 224.814 225.581 219.221 197.362 196.665 174.989 167.774 168.828ZM136.458 168.828C107.566 174.989 85.0105 197.362 79.4173 225.581 108.309 219.42 130.864 197.046 136.458 168.828ZM0 157.909C32.1951 167.408 56.4384 194.343 61.1748 227.324 61.1923 227.33 61.2101 227.33 61.2278 227.331L61.2845 228.027C61.8154 231.178 62.0726 234.395 62.0681 237.658 62.2059 238.244 62.2121 238.835 62.2121 239.427 62.2121 239.825 62.2092 240.222 62.1498 240.618L62.0974 240.615 62.0947 240.667 60.2975 240.497C56.8986 240.442 53.5516 240.132 50.2789 239.553 49.6934 239.597 49.134 239.498 48.5764 239.393L48.5642 239.273C29.6273 236.163 12.7543 227.228 0 214.425L0 192.885C10.245 209.316 27.189 221.322 47.1604 225.581 42.2238 200.675 24.0732 180.322 0 171.693ZM1218.76 153.742 1220.56 153.911C1223.96 153.966 1227.3 154.277 1230.58 154.855 1231.16 154.812 1231.72 154.911 1232.28 155.016L1232.29 155.135C1250.82 158.178 1267.38 166.8 1280 179.196L1280 200.192C1269.68 184.442 1253.12 172.97 1233.7 168.828 1238.57 193.441 1256.36 213.607 1280 222.431L1280 236.289C1248.24 226.528 1224.38 199.777 1219.68 167.084 1219.66 167.079 1219.65 167.078 1219.63 167.078L1219.57 166.383C1219.04 163.232 1218.78 160.014 1218.79 156.75 1218.65 156.164 1218.64 155.574 1218.64 154.982L1218.71 153.79 1218.76 153.794ZM1217.31 153.742 1217.32 153.794 1217.37 153.79 1217.43 154.982C1217.43 155.574 1217.43 156.164 1217.29 156.75 1217.29 160.014 1217.03 163.232 1216.5 166.383L1216.45 167.078C1216.43 167.078 1216.41 167.079 1216.39 167.084 1211.12 203.84 1181.61 233.086 1143.94 239.273L1143.92 239.393C1143.37 239.498 1142.81 239.597 1142.22 239.553 1138.95 240.132 1135.6 240.442 1132.2 240.497L1130.41 240.667 1130.4 240.615 1130.35 240.618C1130.29 240.222 1130.29 239.825 1130.29 239.427 1130.29 238.835 1130.29 238.244 1130.43 237.658 1130.43 234.395 1130.68 231.178 1131.22 228.027L1131.27 227.331C1131.29 227.33 1131.31 227.33 1131.33 227.324 1136.6 190.569 1166.11 161.322 1203.78 155.135L1203.8 155.016C1204.35 154.911 1204.91 154.812 1205.5 154.855 1208.77 154.277 1212.12 153.966 1215.52 153.911ZM1041.11 153.742 1042.9 153.911C1046.3 153.966 1049.65 154.277 1052.92 154.855 1053.51 154.812 1054.07 154.911 1054.63 155.016L1054.64 155.135C1092.31 161.322 1121.82 190.569 1127.1 227.324 1127.11 227.33 1127.13 227.33 1127.15 227.331L1127.21 228.027C1127.74 231.178 1127.99 234.395 1127.99 237.658 1128.13 238.244 1128.13 238.835 1128.13 239.427 1128.13 239.825 1128.13 240.222 1128.07 240.618L1128.02 240.615 1128.02 240.667 1126.22 240.497C1122.82 240.442 1119.47 240.132 1116.2 239.553 1115.62 239.597 1115.06 239.498 1114.5 239.393L1114.49 239.273C1076.81 233.086 1047.31 203.84 1042.03 167.084 1042.01 167.079 1041.99 167.078 1041.97 167.078L1041.92 166.383C1041.39 163.232 1041.13 160.014 1041.13 156.75 1041 156.164 1040.99 155.574 1040.99 154.982L1041.05 153.79 1041.1 153.794ZM1039.66 153.742 1039.66 153.794 1039.72 153.79 1039.78 154.982C1039.78 155.574 1039.77 156.164 1039.63 156.75 1039.64 160.014 1039.38 163.232 1038.85 166.383L1038.79 167.078C1038.78 167.078 1038.76 167.079 1038.74 167.084 1033.46 203.84 1003.96 233.086 966.282 239.273L966.27 239.393C965.712 239.498 965.153 239.597 964.567 239.553 961.294 240.132 957.947 240.442 954.548 240.497L952.751 240.667 952.749 240.615 952.696 240.618C952.637 240.222 952.634 239.825 952.634 239.427 952.634 238.835 952.64 238.244 952.778 237.658 952.773 234.395 953.031 231.178 953.561 228.027L953.618 227.331C953.636 227.33 953.654 227.33 953.671 227.324 958.95 190.569 988.455 161.322 1026.13 155.135L1026.14 155.016C1026.7 154.911 1027.26 154.812 1027.84 154.855 1031.12 154.277 1034.47 153.966 1037.87 153.911ZM863.454 153.742 865.248 153.911C868.648 153.966 871.996 154.277 875.27 154.855 875.856 154.812 876.415 154.911 876.972 155.016L876.985 155.135C914.659 161.322 944.165 190.569 949.443 227.324 949.461 227.33 949.478 227.33 949.496 227.331L949.553 228.027C950.084 231.178 950.341 234.395 950.336 237.658 950.474 238.244 950.48 238.835 950.48 239.427 950.48 239.825 950.477 240.222 950.418 240.618L950.366 240.615 950.363 240.667 948.566 240.497C945.167 240.442 941.82 240.132 938.547 239.553 937.962 239.597 937.402 239.498 936.845 239.393L936.832 239.273C899.158 233.086 869.652 203.84 864.374 167.084 864.357 167.079 864.339 167.078 864.321 167.078L864.265 166.383C863.733 163.232 863.476 160.014 863.481 156.75 863.343 156.164 863.337 155.574 863.337 154.982L863.399 153.79 863.451 153.794ZM862.006 153.742 862.009 153.794 862.062 153.79 862.124 154.982C862.124 155.574 862.118 156.164 861.98 156.75 861.984 160.014 861.727 163.232 861.196 166.383L861.14 167.078C861.122 167.078 861.104 167.079 861.086 167.084 855.808 203.84 826.303 233.086 788.628 239.273L788.616 239.393C788.058 239.498 787.499 239.597 786.913 239.553 783.641 240.132 780.294 240.442 776.895 240.497L775.098 240.667 775.095 240.615 775.042 240.618C774.983 240.222 774.98 239.825 774.98 239.427 774.98 238.835 774.986 238.244 775.124 237.658 775.12 234.395 775.377 231.178 775.908 228.027L775.964 227.331C775.982 227.33 776 227.33 776.018 227.324 781.296 190.569 810.801 161.322 848.476 155.135L848.488 155.016C849.046 154.911 849.605 154.812 850.19 154.855 853.464 154.277 856.812 153.966 860.213 153.911ZM685.8 153.742 687.594 153.911C690.994 153.966 694.343 154.277 697.617 154.855 698.202 154.812 698.761 154.911 699.319 155.016L699.331 155.135C737.006 161.322 766.511 190.569 771.789 227.324 771.807 227.33 771.825 227.33 771.842 227.331L771.899 228.027C772.43 231.178 772.687 234.395 772.683 237.658 772.821 238.244 772.827 238.835 772.827 239.427 772.827 239.825 772.824 240.222 772.764 240.618L772.712 240.615 772.709 240.667 770.912 240.497C767.513 240.442 764.166 240.132 760.893 239.553 760.308 239.597 759.749 239.498 759.191 239.393L759.179 239.273C721.504 233.086 691.999 203.84 686.721 167.084 686.703 167.079 686.685 167.078 686.667 167.078L686.611 166.383C686.08 163.232 685.823 160.014 685.827 156.75 685.689 156.164 685.683 155.574 685.683 154.982L685.745 153.79 685.798 153.794ZM684.353 153.742 684.356 153.794 684.408 153.79 684.47 154.982C684.47 155.574 684.464 156.164 684.326 156.75 684.331 160.014 684.073 163.232 683.542 166.383L683.486 167.078C683.468 167.078 683.45 167.079 683.433 167.084 678.155 203.84 648.649 233.086 610.974 239.273L610.962 239.393C610.405 239.498 609.845 239.597 609.26 239.553 605.987 240.132 602.64 240.442 599.241 240.497L597.444 240.667 597.441 240.615 597.389 240.618C597.329 240.222 597.327 239.825 597.327 239.427 597.327 238.835 597.333 238.244 597.47 237.658 597.466 234.395 597.723 231.178 598.254 228.027L598.311 227.331C598.328 227.33 598.346 227.33 598.364 227.324 603.642 190.569 633.148 161.322 670.822 155.135L670.835 155.016C671.392 154.911 671.951 154.812 672.537 154.855 675.81 154.277 679.159 153.966 682.559 153.911ZM508.147 153.742 509.941 153.911C513.341 153.966 516.689 154.277 519.963 154.855 520.548 154.812 521.108 154.911 521.665 155.016L521.677 155.135C559.352 161.322 588.857 190.569 594.136 227.324 594.153 227.33 594.171 227.33 594.189 227.331L594.245 228.027C594.776 231.178 595.033 234.395 595.029 237.658 595.167 238.244 595.173 238.835 595.173 239.427 595.173 239.825 595.17 240.222 595.111 240.618L595.058 240.615 595.056 240.667 593.258 240.497C589.859 240.442 586.513 240.132 583.24 239.553 582.654 239.597 582.095 239.498 581.537 239.393L581.525 239.273C543.85 233.086 514.345 203.84 509.067 167.084 509.049 167.079 509.031 167.078 509.014 167.078L508.957 166.383C508.426 163.232 508.169 160.014 508.173 156.75 508.035 156.164 508.029 155.574 508.029 154.982L508.092 153.79 508.144 153.794ZM506.699 153.742 506.702 153.794 506.754 153.79 506.817 154.982C506.817 155.574 506.81 156.164 506.673 156.75 506.677 160.014 506.42 163.232 505.889 166.383L505.832 167.078C505.814 167.078 505.797 167.079 505.779 167.084 500.501 203.84 470.995 233.086 433.321 239.273L433.309 239.393C432.751 239.498 432.192 239.597 431.606 239.553 428.333 240.132 424.986 240.442 421.587 240.497L419.79 240.667 419.788 240.615 419.735 240.618C419.676 240.222 419.673 239.825 419.673 239.427 419.673 238.835 419.679 238.244 419.817 237.658 419.812 234.395 420.07 231.178 420.6 228.027L420.657 227.331C420.675 227.33 420.693 227.33 420.71 227.324 425.989 190.569 455.494 161.322 493.169 155.135L493.181 155.016C493.738 154.911 494.298 154.812 494.883 154.855 498.157 154.277 501.505 153.966 504.905 153.911ZM330.493 153.742 332.287 153.911C335.687 153.966 339.035 154.277 342.309 154.855 342.895 154.812 343.454 154.911 344.011 155.016L344.024 155.135C381.698 161.322 411.204 190.569 416.482 227.324 416.5 227.33 416.517 227.33 416.535 227.331L416.592 228.027C417.123 231.178 417.38 234.395 417.375 237.658 417.513 238.244 417.519 238.835 417.519 239.427 417.519 239.825 417.517 240.222 417.457 240.618L417.405 240.615 417.402 240.667 415.605 240.497C412.206 240.442 408.859 240.132 405.586 239.553 405.001 239.597 404.441 239.498 403.884 239.393L403.871 239.273C366.197 233.086 336.691 203.84 331.413 167.084 331.396 167.079 331.378 167.078 331.36 167.078L331.304 166.383C330.772 163.232 330.515 160.014 330.52 156.75 330.382 156.164 330.376 155.574 330.376 154.982L330.438 153.79 330.49 153.794ZM329.046 153.742 329.048 153.794 329.101 153.79 329.163 154.982C329.163 155.574 329.157 156.164 329.019 156.75 329.023 160.014 328.766 163.232 328.235 166.383L328.179 167.078C328.161 167.078 328.143 167.079 328.125 167.084 322.847 203.84 293.342 233.086 255.667 239.273L255.655 239.393C255.097 239.498 254.538 239.597 253.952 239.553 250.68 240.132 247.333 240.442 243.934 240.497L242.137 240.667 242.134 240.615 242.082 240.618C242.022 240.222 242.019 239.825 242.019 239.427 242.019 238.835 242.025 238.244 242.163 237.658 242.159 234.395 242.416 231.178 242.947 228.027L243.004 227.331C243.021 227.33 243.039 227.33 243.057 227.324 248.335 190.569 277.84 161.322 315.515 155.135L315.527 155.016C316.085 154.911 316.644 154.812 317.229 154.855 320.503 154.277 323.852 153.966 327.252 153.911ZM152.839 153.742 154.633 153.911C158.033 153.966 161.382 154.277 164.656 154.855 165.241 154.812 165.8 154.911 166.358 155.016L166.37 155.135C204.045 161.322 233.55 190.569 238.828 227.324 238.846 227.33 238.864 227.33 238.881 227.331L238.938 228.027C239.469 231.178 239.726 234.395 239.722 237.658 239.86 238.244 239.866 238.835 239.866 239.427 239.866 239.825 239.863 240.222 239.803 240.618L239.751 240.615 239.748 240.667 237.951 240.497C234.552 240.442 231.205 240.132 227.933 239.553 227.347 239.597 226.788 239.498 226.23 239.393L226.218 239.273C188.543 233.086 159.038 203.84 153.759 167.084 153.742 167.079 153.724 167.078 153.706 167.078L153.65 166.383C153.119 163.232 152.862 160.014 152.866 156.75 152.728 156.164 152.722 155.574 152.722 154.982L152.784 153.79 152.837 153.794ZM151.392 153.742 151.395 153.794 151.447 153.79 151.509 154.982C151.509 155.574 151.503 156.164 151.365 156.75 151.37 160.014 151.113 163.232 150.581 166.383L150.525 167.078C150.507 167.078 150.489 167.079 150.472 167.084 145.194 203.84 115.688 233.086 78.0135 239.273L78.0013 239.393C77.4438 239.498 76.8843 239.597 76.2988 239.553 73.0261 240.132 69.6791 240.442 66.2802 240.497L64.483 240.667 64.4803 240.615 64.4279 240.618C64.3685 240.222 64.3657 239.825 64.3657 239.427 64.3657 238.835 64.3718 238.244 64.5095 237.658 64.5051 234.395 64.7623 231.178 65.2931 228.027L65.3499 227.331C65.3676 227.33 65.3854 227.33 65.4029 227.324 70.6814 190.569 100.187 161.322 137.861 155.135L137.874 155.016C138.431 154.911 138.99 154.812 139.576 154.855 142.85 154.277 146.198 153.966 149.598 153.911ZM1145.34 78.8031C1150.93 107.245 1173.49 129.796 1202.38 136.005 1196.79 107.563 1174.23 85.0124 1145.34 78.8031ZM1113.08 78.8031C1084.19 85.0124 1061.64 107.563 1056.04 136.005 1084.93 129.796 1107.49 107.245 1113.08 78.8031ZM967.686 78.8031C973.279 107.245 995.835 129.796 1024.73 136.005 1019.13 107.563 996.577 85.0124 967.686 78.8031ZM935.429 78.8031C906.537 85.0124 883.982 107.563 878.388 136.005 907.28 129.796 929.835 107.245 935.429 78.8031ZM790.032 78.8031C795.625 107.245 818.181 129.796 847.072 136.005 841.479 107.563 818.923 85.0124 790.032 78.8031ZM757.775 78.8031C728.884 85.0124 706.328 107.563 700.735 136.005 729.626 129.796 752.182 107.245 757.775 78.8031ZM612.378 78.8031C617.972 107.245 640.527 129.796 669.419 136.005 663.826 107.563 641.27 85.0124 612.378 78.8031ZM580.121 78.8031C551.23 85.0124 528.674 107.563 523.081 136.005 551.972 129.796 574.528 107.245 580.121 78.8031ZM434.725 78.8031C440.318 107.245 462.874 129.796 491.765 136.005 486.172 107.563 463.616 85.0124 434.725 78.8031ZM402.468 78.8031C373.576 85.0124 351.021 107.563 345.427 136.005 374.319 129.796 396.874 107.245 402.468 78.8031ZM257.071 78.8031C262.664 107.245 285.22 129.796 314.111 136.005 308.518 107.563 285.963 85.0124 257.071 78.8031ZM224.814 78.8031C195.923 85.0124 173.367 107.563 167.774 136.005 196.665 129.796 219.221 107.245 224.814 78.8031ZM79.4175 78.8031C85.0108 107.245 107.567 129.796 136.458 136.005 130.865 107.563 108.309 85.0124 79.4175 78.8031ZM1280 68.0094 1280 81.9777C1256.36 90.8714 1238.57 111.197 1233.7 136.005 1253.12 131.83 1269.68 120.267 1280 104.392L1280 125.555C1267.38 138.048 1250.82 146.739 1232.29 149.806L1232.28 149.926C1231.72 150.033 1231.16 150.132 1230.58 150.088 1227.3 150.671 1223.96 150.984 1220.56 151.04L1218.76 151.21 1218.76 151.158 1218.71 151.162C1218.65 150.763 1218.64 150.362 1218.64 149.961 1218.64 149.364 1218.65 148.769 1218.79 148.178 1218.78 144.889 1219.04 141.646 1219.57 138.471L1219.63 137.769C1219.65 137.768 1219.66 137.768 1219.68 137.762 1224.38 104.811 1248.24 77.8482 1280 68.0094ZM1130.41 63.5978 1132.2 63.7682C1135.6 63.8235 1138.95 64.1365 1142.22 64.7199 1142.81 64.6759 1143.37 64.7754 1143.92 64.8815L1143.94 65.002C1181.61 71.238 1211.12 100.716 1216.39 137.762 1216.41 137.768 1216.43 137.768 1216.45 137.769L1216.5 138.471C1217.03 141.646 1217.29 144.889 1217.29 148.178 1217.43 148.769 1217.43 149.364 1217.43 149.961 1217.43 150.362 1217.43 150.763 1217.37 151.162L1217.32 151.158 1217.31 151.21 1215.52 151.04C1212.12 150.984 1208.77 150.671 1205.5 150.088 1204.91 150.132 1204.35 150.033 1203.8 149.926L1203.78 149.806C1166.11 143.57 1136.6 114.092 1131.33 77.0458 1131.31 77.0402 1131.29 77.0397 1131.27 77.0391L1131.22 76.3382C1130.68 73.1624 1130.43 69.9193 1130.43 66.6295 1130.29 66.0386 1130.29 65.4437 1130.29 64.8472L1130.35 63.6462 1130.4 63.6496ZM1128.02 63.5978 1128.02 63.6496 1128.07 63.6462 1128.13 64.8472C1128.13 65.4437 1128.13 66.0386 1127.99 66.6295 1127.99 69.9193 1127.74 73.1624 1127.21 76.3382L1127.15 77.0391C1127.13 77.0397 1127.11 77.0402 1127.1 77.0458 1121.82 114.092 1092.31 143.57 1054.64 149.806L1054.63 149.926C1054.07 150.033 1053.51 150.132 1052.92 150.088 1049.65 150.671 1046.3 150.984 1042.9 151.04L1041.11 151.21 1041.1 151.158 1041.05 151.162C1040.99 150.763 1040.99 150.362 1040.99 149.961 1040.99 149.364 1041 148.769 1041.13 148.178 1041.13 144.889 1041.39 141.646 1041.92 138.471L1041.97 137.769C1041.99 137.768 1042.01 137.768 1042.03 137.762 1047.31 100.716 1076.81 71.238 1114.49 65.002L1114.5 64.8815C1115.06 64.7754 1115.61 64.6759 1116.2 64.7199 1119.47 64.1365 1122.82 63.8235 1126.22 63.7682ZM952.751 63.5978 954.545 63.7682C957.945 63.8235 961.294 64.1365 964.568 64.7199 965.153 64.6759 965.712 64.7754 966.27 64.8815L966.282 65.002C1003.96 71.238 1033.46 100.716 1038.74 137.762 1038.76 137.768 1038.78 137.768 1038.79 137.769L1038.85 138.471C1039.38 141.646 1039.64 144.889 1039.63 148.178 1039.77 148.769 1039.78 149.364 1039.78 149.961 1039.78 150.362 1039.77 150.763 1039.72 151.162L1039.66 151.158 1039.66 151.21 1037.86 151.04C1034.46 150.984 1031.12 150.671 1027.84 150.088 1027.26 150.132 1026.7 150.033 1026.14 149.926L1026.13 149.806C988.455 143.57 958.95 114.092 953.672 77.0458 953.654 77.0402 953.636 77.0397 953.618 77.0391L953.562 76.3382C953.031 73.1624 952.773 69.9193 952.778 66.6295 952.64 66.0386 952.634 65.4437 952.634 64.8472L952.696 63.6462 952.749 63.6496ZM950.363 63.5978 950.366 63.6496 950.418 63.6462 950.48 64.8472C950.48 65.4437 950.474 66.0386 950.336 66.6295 950.341 69.9193 950.084 73.1624 949.552 76.3382L949.496 77.0391C949.478 77.0397 949.46 77.0402 949.443 77.0458 944.165 114.092 914.659 143.57 876.985 149.806L876.972 149.926C876.415 150.033 875.855 150.132 875.27 150.088 871.997 150.671 868.65 150.984 865.251 151.04L863.454 151.21 863.451 151.158 863.399 151.162C863.339 150.763 863.337 150.362 863.337 149.961 863.337 149.364 863.343 148.769 863.481 148.178 863.476 144.889 863.733 141.646 864.264 138.471L864.321 137.769C864.339 137.768 864.356 137.768 864.374 137.762 869.652 100.716 899.158 71.238 936.832 65.002L936.845 64.8815C937.402 64.7754 937.961 64.6759 938.547 64.7199 941.821 64.1365 945.169 63.8235 948.569 63.7682ZM775.098 63.5978 776.892 63.7682C780.292 63.8235 783.64 64.1365 786.914 64.7199 787.499 64.6759 788.059 64.7754 788.616 64.8815L788.628 65.002C826.303 71.238 855.808 100.716 861.087 137.762 861.104 137.768 861.122 137.768 861.14 137.769L861.197 138.471C861.727 141.646 861.985 144.889 861.98 148.178 862.118 148.769 862.124 149.364 862.124 149.961 862.124 150.362 862.121 150.763 862.062 151.162L862.009 151.158 862.007 151.21 860.21 151.04C856.811 150.984 853.464 150.671 850.191 150.088 849.605 150.132 849.046 150.033 848.488 149.926L848.476 149.806C810.802 143.57 781.296 114.092 776.018 77.0458 776 77.0402 775.983 77.0397 775.965 77.0391L775.908 76.3382C775.377 73.1624 775.12 69.9193 775.124 66.6295 774.987 66.0386 774.98 65.4437 774.98 64.8472L775.043 63.6462 775.095 63.6496ZM597.444 63.5978 599.238 63.7682C602.638 63.8235 605.986 64.1365 609.26 64.7199 609.846 64.6759 610.405 64.7754 610.962 64.8815L610.975 65.002C648.649 71.238 678.155 100.716 683.433 137.762 683.451 137.768 683.468 137.768 683.486 137.769L683.543 138.471C684.074 141.646 684.331 144.889 684.326 148.178 684.464 148.769 684.47 149.364 684.47 149.961 684.47 150.362 684.468 150.763 684.408 151.162L684.356 151.158 684.353 151.21 682.556 151.04C679.157 150.984 675.81 150.671 672.537 150.088 671.952 150.132 671.392 150.033 670.835 149.926L670.823 149.806C633.148 143.57 603.643 114.092 598.364 77.0458 598.347 77.0402 598.329 77.0397 598.311 77.0391L598.255 76.3382C597.724 73.1624 597.466 69.9193 597.471 66.6295 597.333 66.0386 597.327 65.4437 597.327 64.8472L597.389 63.6462 597.441 63.6496ZM595.056 63.5978 595.058 63.6496 595.111 63.6462 595.173 64.8472C595.173 65.4437 595.167 66.0386 595.029 66.6295 595.033 69.9193 594.776 73.1624 594.245 76.3382L594.189 77.0391C594.171 77.0397 594.153 77.0402 594.135 77.0458 588.857 114.092 559.352 143.57 521.677 149.806L521.665 149.926C521.107 150.033 520.548 150.132 519.963 150.088 516.69 150.671 513.343 150.984 509.944 151.04L508.147 151.21 508.144 151.158 508.092 151.162C508.032 150.763 508.029 150.362 508.029 149.961 508.029 149.364 508.035 148.769 508.173 148.178 508.169 144.889 508.426 141.646 508.957 138.471L509.014 137.769C509.031 137.768 509.049 137.768 509.067 137.762 514.345 100.716 543.85 71.238 581.525 65.002L581.537 64.8815C582.095 64.7754 582.654 64.6759 583.239 64.7199 586.513 64.1365 589.862 63.8235 593.262 63.7682ZM419.791 63.5978 421.584 63.7682C424.985 63.8235 428.333 64.1365 431.607 64.7199 432.192 64.6759 432.751 64.7754 433.309 64.8815L433.321 65.002C470.996 71.238 500.501 100.716 505.779 137.762 505.797 137.768 505.815 137.768 505.833 137.769L505.889 138.471C506.42 141.646 506.677 144.889 506.673 148.178 506.811 148.769 506.817 149.364 506.817 149.961 506.817 150.362 506.814 150.763 506.755 151.162L506.702 151.158 506.699 151.21 504.902 151.04C501.503 150.984 498.156 150.671 494.884 150.088 494.298 150.132 493.739 150.033 493.181 149.926L493.169 149.806C455.494 143.57 425.989 114.092 420.711 77.0458 420.693 77.0402 420.675 77.0397 420.658 77.0391L420.601 76.3382C420.07 73.1624 419.813 69.9193 419.817 66.6295 419.679 66.0386 419.673 65.4437 419.673 64.8472L419.736 63.6462 419.788 63.6496ZM417.402 63.5978 417.405 63.6496 417.457 63.6462 417.519 64.8472C417.519 65.4437 417.513 66.0386 417.375 66.6295 417.38 69.9193 417.123 73.1624 416.591 76.3382L416.535 77.0391C416.517 77.0397 416.5 77.0402 416.482 77.0458 411.204 114.092 381.698 143.57 344.024 149.806L344.011 149.926C343.454 150.033 342.894 150.132 342.309 150.088 339.036 150.671 335.689 150.984 332.29 151.04L330.493 151.21 330.49 151.158 330.438 151.162C330.379 150.763 330.376 150.362 330.376 149.961 330.376 149.364 330.382 148.769 330.52 148.178 330.515 144.889 330.772 141.646 331.303 138.471L331.36 137.769C331.378 137.768 331.395 137.768 331.413 137.762 336.691 100.716 366.197 71.238 403.871 65.002L403.884 64.8815C404.441 64.7754 405 64.6759 405.586 64.7199 408.86 64.1365 412.208 63.8235 415.608 63.7682ZM242.137 63.5978 243.931 63.7682C247.331 63.8235 250.679 64.1365 253.953 64.7199 254.538 64.6759 255.098 64.7754 255.655 64.8815L255.667 65.002C293.342 71.238 322.847 100.716 328.126 137.762 328.143 137.768 328.161 137.768 328.179 137.769L328.236 138.471C328.767 141.646 329.024 144.889 329.019 148.178 329.157 148.769 329.163 149.364 329.163 149.961 329.163 150.362 329.16 150.763 329.101 151.162L329.048 151.158 329.046 151.21 327.249 151.04C323.85 150.984 320.503 150.671 317.23 150.088 316.645 150.132 316.085 150.033 315.527 149.926L315.515 149.806C277.841 143.57 248.335 114.092 243.057 77.0458 243.039 77.0402 243.022 77.0397 243.004 77.0391L242.947 76.3382C242.416 73.1624 242.159 69.9193 242.163 66.6295 242.026 66.0386 242.02 65.4437 242.02 64.8472L242.082 63.6462 242.134 63.6496ZM239.748 63.5978 239.751 63.6496 239.803 63.6462 239.866 64.8472C239.866 65.4437 239.86 66.0386 239.722 66.6295 239.726 69.9193 239.469 73.1624 238.938 76.3382L238.881 77.0391C238.864 77.0397 238.846 77.0402 238.828 77.0458 233.55 114.092 204.045 143.57 166.37 149.806L166.358 149.926C165.8 150.033 165.241 150.132 164.655 150.088 161.383 150.671 158.036 150.984 154.637 151.04L152.839 151.21 152.837 151.158 152.784 151.162C152.725 150.763 152.722 150.362 152.722 149.961 152.722 149.364 152.728 148.769 152.866 148.178 152.862 144.889 153.119 141.646 153.65 138.471L153.706 137.769C153.724 137.768 153.742 137.768 153.759 137.762 159.038 100.716 188.543 71.238 226.218 65.002L226.23 64.8815C226.787 64.7754 227.347 64.6759 227.932 64.7199 231.206 64.1365 234.554 63.8235 237.954 63.7682ZM64.4833 63.5978 66.2772 63.7682C69.6773 63.8235 73.0255 64.1365 76.2994 64.7199 76.8848 64.6759 77.4442 64.7754 78.0015 64.8815L78.0137 65.002C115.688 71.238 145.194 100.716 150.472 137.762 150.49 137.768 150.508 137.768 150.525 137.769L150.582 138.471C151.113 141.646 151.37 144.889 151.366 148.178 151.503 148.769 151.509 149.364 151.509 149.961 151.509 150.362 151.507 150.763 151.447 151.162L151.395 151.158 151.392 151.21 149.595 151.04C146.196 150.984 142.849 150.671 139.576 150.088 138.991 150.132 138.431 150.033 137.874 149.926L137.862 149.806C100.187 143.57 70.6816 114.092 65.4033 77.0458 65.3857 77.0402 65.368 77.0397 65.3502 77.0391L65.2938 76.3382C64.7626 73.1624 64.5053 69.9193 64.5097 66.6295 64.372 66.0386 64.3659 65.4437 64.3659 64.8472L64.4282 63.6462 64.4805 63.6496ZM772.709 63.5978 772.712 63.6496 772.764 63.6462 772.827 64.8472C772.827 65.4437 772.821 66.0386 772.683 66.6295 772.687 69.9193 772.43 73.1624 771.899 76.3382L771.842 77.0391C771.825 77.0397 771.807 77.0402 771.789 77.0458 766.511 114.092 737.006 143.57 699.331 149.806L699.319 149.926C698.761 150.033 698.202 150.132 697.616 150.088 694.344 150.671 690.997 150.984 687.598 151.04L685.8 151.21 685.798 151.158 685.745 151.162C685.686 150.763 685.683 150.362 685.683 149.961 685.683 149.364 685.689 148.769 685.827 148.178 685.823 144.889 686.08 141.646 686.611 138.471L686.667 137.769C686.685 137.768 686.703 137.768 686.72 137.762 691.999 100.716 721.504 71.238 759.179 65.002L759.191 64.8815C759.748 64.7754 760.308 64.6759 760.893 64.7199 764.167 64.1365 767.515 63.8235 770.915 63.7682ZM62.0947 63.5978 62.0974 63.6496 62.1497 63.6462 62.2121 64.8472C62.2121 65.4437 62.2059 66.0386 62.0681 66.6295 62.0726 69.9193 61.8153 73.1624 61.2842 76.3382L61.2277 77.0391C61.2099 77.0397 61.1922 77.0402 61.1747 77.0458 56.4384 110.288 32.1955 137.436 0 147.011L0 133.117C24.0733 124.42 42.2237 103.906 47.1604 78.8031 27.1886 83.0954 10.2442 95.1967 0 111.757L0 90.0467C12.7542 77.1431 29.6272 68.1365 48.5641 65.002L48.5764 64.8815C49.1338 64.7754 49.6931 64.6759 50.2785 64.7199 53.5523 64.1365 56.9007 63.8235 60.3008 63.7682ZM1256.59 0 1278.75 0C1279.22 0.293648 1279.61 0.670866 1280 1.05155L1280 22.0481C1274.09 13.019 1266.12 5.3959 1256.59 0ZM1222.12 0 1236.24 0C1243.28 20.3292 1259.42 36.6055 1280 44.2865L1280 58.1451C1251.91 49.5117 1230 27.5875 1222.12 0ZM1157.31 0 1179.22 0C1161.85 10.2892 1149.31 27.3876 1145.34 47.4362 1170.96 41.9728 1191.6 23.7575 1199.78 0L1213.85 0C1204.95 31.4778 1177.73 55.5793 1143.94 61.1289L1143.92 61.2485C1143.37 61.3538 1142.81 61.4526 1142.22 61.4089 1138.95 61.9874 1135.6 62.2979 1132.2 62.3528L1130.41 62.5222 1130.4 62.4706 1130.35 62.4741C1130.29 62.078 1130.29 61.6805 1130.29 61.2824 1130.29 60.6906 1130.29 60.1001 1130.43 59.5137 1130.43 56.2505 1130.68 53.0334 1131.22 49.8831L1131.27 49.1863C1131.29 49.1858 1131.31 49.1853 1131.33 49.1797 1134.09 29.951 1143.48 12.7773 1157.31 0ZM1044.57 0 1058.64 0C1066.82 23.7575 1087.46 41.9728 1113.08 47.4362 1109.11 27.3876 1096.57 10.2892 1079.2 0L1101.11 0C1114.94 12.7773 1124.34 29.951 1127.1 49.1797 1127.11 49.1853 1127.13 49.1858 1127.15 49.1863L1127.21 49.8831C1127.74 53.0334 1127.99 56.2505 1127.99 59.5137 1128.13 60.1001 1128.13 60.6906 1128.13 61.2824 1128.13 61.6805 1128.13 62.078 1128.07 62.4741L1128.02 62.4706 1128.02 62.5222 1126.22 62.3528C1122.82 62.2979 1119.47 61.9874 1116.2 61.4089 1115.62 61.4526 1115.06 61.3538 1114.5 61.2485L1114.49 61.1289C1080.69 55.5793 1053.47 31.4778 1044.57 0ZM979.656 0 1001.57 0C984.196 10.2892 971.659 27.3876 967.686 47.4362 993.308 41.9728 1013.95 23.7575 1022.13 0L1036.2 0C1027.29 31.4778 1000.07 55.5793 966.282 61.1289L966.27 61.2485C965.712 61.3538 965.153 61.4526 964.567 61.4089 961.294 61.9874 957.947 62.2979 954.548 62.3528L952.751 62.5222 952.749 62.4706 952.696 62.4741C952.637 62.078 952.634 61.6805 952.634 61.2824 952.634 60.6906 952.64 60.1001 952.778 59.5137 952.773 56.2505 953.031 53.0334 953.561 49.8831L953.618 49.1863C953.636 49.1858 953.654 49.1853 953.671 49.1797 956.433 29.951 965.825 12.7773 979.656 0ZM866.919 0 880.989 0C889.167 23.7575 909.806 41.9728 935.429 47.4362 931.455 27.3876 918.918 10.2892 901.546 0L923.458 0C937.289 12.7773 946.682 29.951 949.443 49.1797 949.461 49.1853 949.478 49.1858 949.496 49.1863L949.553 49.8831C950.084 53.0334 950.341 56.2505 950.336 59.5137 950.474 60.1001 950.48 60.6906 950.48 61.2824 950.48 61.6805 950.477 62.078 950.418 62.4741L950.366 62.4706 950.363 62.5222 948.566 62.3528C945.167 62.2979 941.82 61.9874 938.547 61.4089 937.962 61.4526 937.402 61.3538 936.845 61.2485L936.832 61.1289C903.04 55.5793 875.82 31.4778 866.919 0ZM802.003 0 823.914 0C806.542 10.2892 794.006 27.3876 790.032 47.4362 815.654 41.9728 836.294 23.7575 844.472 0L858.542 0C849.641 31.4778 822.421 55.5793 788.628 61.1289L788.616 61.2485C788.058 61.3538 787.499 61.4526 786.913 61.4089 783.641 61.9874 780.294 62.2979 776.895 62.3528L775.098 62.5222 775.095 62.4706 775.042 62.4741C774.983 62.078 774.98 61.6805 774.98 61.2824 774.98 60.6906 774.986 60.1001 775.124 59.5137 775.12 56.2505 775.377 53.0334 775.908 49.8831L775.964 49.1863C775.982 49.1858 776 49.1853 776.018 49.1797 778.779 29.951 788.171 12.7772 802.003 0ZM689.266 0 703.335 0C711.513 23.7575 732.153 41.9728 757.775 47.4362 753.801 27.3876 741.265 10.2892 723.893 0L745.804 0C759.636 12.7773 769.028 29.951 771.789 49.1797 771.807 49.1853 771.825 49.1858 771.842 49.1863L771.899 49.8831C772.43 53.0334 772.687 56.2505 772.683 59.5137 772.821 60.1001 772.827 60.6906 772.827 61.2824 772.827 61.6805 772.824 62.078 772.764 62.4741L772.712 62.4706 772.709 62.5222 770.912 62.3528C767.513 62.2979 764.166 61.9874 760.893 61.4089 760.308 61.4526 759.749 61.3538 759.191 61.2485L759.179 61.1289C725.386 55.5793 698.166 31.4778 689.266 0ZM624.349 0 646.261 0C628.888 10.2892 616.352 27.3876 612.378 47.4362 638.001 41.9728 658.64 23.7575 666.818 0L680.888 0C671.987 31.4778 644.767 55.5793 610.974 61.1289L610.962 61.2485C610.405 61.3538 609.845 61.4526 609.26 61.4089 605.987 61.9874 602.64 62.2979 599.241 62.3528L597.444 62.5222 597.441 62.4706 597.389 62.4741C597.329 62.078 597.327 61.6805 597.327 61.2824 597.327 60.6906 597.333 60.1001 597.47 59.5137 597.466 56.2505 597.723 53.0334 598.254 49.8831L598.311 49.1863C598.328 49.1858 598.346 49.1853 598.364 49.1797 601.125 29.951 610.518 12.7773 624.349 0ZM511.612 0 525.682 0C533.86 23.7576 554.499 41.9728 580.121 47.4362 576.147 27.3876 563.611 10.2892 546.239 0L568.151 0C581.982 12.7772 591.374 29.951 594.136 49.1797 594.153 49.1853 594.171 49.1858 594.189 49.1862L594.245 49.8831C594.776 53.0334 595.033 56.2505 595.029 59.5137 595.167 60.1001 595.173 60.6906 595.173 61.2824 595.173 61.6806 595.17 62.078 595.111 62.4741L595.058 62.4706 595.056 62.5222 593.258 62.3528C589.859 62.2979 586.513 61.9874 583.24 61.4089 582.654 61.4526 582.095 61.3538 581.537 61.2485L581.525 61.1289C547.733 55.5793 520.512 31.4778 511.612 0ZM446.695 0 468.607 0C451.235 10.2892 438.698 27.3876 434.725 47.4362 460.347 41.9728 480.986 23.7576 489.164 0L503.234 0C494.334 31.4778 467.113 55.5793 433.321 61.1289L433.309 61.2485C432.751 61.3538 432.192 61.4526 431.606 61.4089 428.333 61.9874 424.986 62.2979 421.587 62.3528L419.79 62.5222 419.788 62.4706 419.735 62.4741C419.676 62.078 419.673 61.6805 419.673 61.2824 419.673 60.6906 419.679 60.1001 419.817 59.5137 419.812 56.2505 420.07 53.0334 420.6 49.8831L420.657 49.1862C420.675 49.1858 420.693 49.1853 420.71 49.1797 423.472 29.951 432.864 12.7772 446.695 0ZM333.958 0 348.028 0C356.206 23.7576 376.845 41.9728 402.468 47.4362 398.494 27.3876 385.957 10.2892 368.585 0L390.497 0C404.328 12.7772 413.721 29.951 416.482 49.1797 416.5 49.1853 416.517 49.1858 416.535 49.1862L416.592 49.8831C417.123 53.0334 417.38 56.2505 417.375 59.5137 417.513 60.1001 417.519 60.6906 417.519 61.2824 417.519 61.6806 417.517 62.078 417.457 62.4741L417.405 62.4706 417.402 62.5222 415.605 62.3528C412.206 62.2979 408.859 61.9874 405.586 61.4089 405.001 61.4526 404.441 61.3538 403.884 61.2485L403.871 61.1289C370.079 55.5793 342.859 31.4778 333.958 0ZM269.042 0 290.953 0C273.581 10.2892 261.045 27.3876 257.071 47.4362 282.693 41.9728 303.332 23.7576 311.511 0L325.581 0C316.68 31.4778 289.46 55.5793 255.667 61.1289L255.655 61.2485C255.097 61.3538 254.538 61.4526 253.952 61.4089 250.68 61.9874 247.333 62.2979 243.934 62.3528L242.137 62.5222 242.134 62.4706 242.082 62.4741C242.022 62.078 242.019 61.6805 242.019 61.2824 242.019 60.6906 242.025 60.1001 242.163 59.5137 242.159 56.2505 242.416 53.0334 242.947 49.8831L243.004 49.1862C243.021 49.1858 243.039 49.1853 243.057 49.1797 245.818 29.951 255.21 12.7773 269.042 0ZM156.304 0 170.374 0C178.552 23.7575 199.192 41.9728 224.814 47.4362 220.84 27.3876 208.304 10.2892 190.932 0L212.843 0C226.675 12.7772 236.067 29.951 238.828 49.1797 238.846 49.1853 238.864 49.1858 238.881 49.1863L238.938 49.8831C239.469 53.0334 239.726 56.2505 239.722 59.5137 239.86 60.1001 239.866 60.6906 239.866 61.2824 239.866 61.6806 239.863 62.078 239.803 62.4741L239.751 62.4706 239.748 62.5222 237.951 62.3528C234.552 62.2979 231.205 61.9874 227.933 61.4089 227.347 61.4526 226.788 61.3538 226.23 61.2485L226.218 61.1289C192.425 55.5793 165.205 31.4778 156.304 0ZM91.388 0 113.3 0C95.9276 10.2892 83.3912 27.3876 79.4173 47.4362 105.04 41.9728 125.679 23.7576 133.857 0L147.927 0C139.026 31.4778 111.806 55.5793 78.0134 61.1289L78.0013 61.2485C77.4438 61.3538 76.8843 61.4526 76.2988 61.4089 73.0261 61.9874 69.6791 62.2979 66.2802 62.3528L64.483 62.5222 64.4803 62.4706 64.4279 62.4741C64.3685 62.078 64.3657 61.6805 64.3657 61.2824 64.3657 60.6906 64.3718 60.1001 64.5095 59.5137 64.5051 56.2505 64.7623 53.0334 65.2932 49.8831L65.3499 49.1862C65.3676 49.1858 65.3854 49.1853 65.4029 49.1797 68.1644 29.951 77.5565 12.7772 91.388 0ZM13.2676 0 35.1051 0C48.9957 12.7308 58.4097 29.9249 61.1748 49.1797 61.1923 49.1853 61.2101 49.1858 61.2278 49.1862L61.2845 49.8831C61.8154 53.0334 62.0726 56.2505 62.0681 59.5137 62.2059 60.1001 62.2121 60.6906 62.2121 61.2824 62.2121 61.6805 62.2092 62.078 62.1498 62.4741L62.0974 62.4706 62.0947 62.5222 60.2975 62.3528C56.8986 62.2979 53.5516 61.9874 50.2789 61.4089 49.6934 61.4526 49.134 61.3538 48.5764 61.2485L48.5642 61.1289C29.6273 58.019 12.7543 49.0832 0 36.2808L0 14.7408C10.245 31.1719 27.189 43.1777 47.1604 47.4362 43.1857 27.3831 30.6445 10.2815 13.2676 0Z" fill="#FF00FF" fill-rule="evenodd"/>
</svg>
