<svg 
   xmlns:dc="http://purl.org/dc/elements/1.1/"
   xmlns:cc="http://creativecommons.org/ns#"
   xmlns:rdf="http://www.w3.org/1999/02/22-rdf-syntax-ns#"
   xmlns:svg="http://www.w3.org/2000/svg"
   xmlns="http://www.w3.org/2000/svg"
   xmlns:xlink="http://www.w3.org/1999/xlink"
   xmlns:sodipodi="http://sodipodi.sourceforge.net/DTD/sodipodi-0.dtd"
   xmlns:inkscape="http://www.inkscape.org/namespaces/inkscape"
   width="557.90326"
   height="781.49402"
   viewBox="0 0 558 782"
   id="svg3305"
   sodipodi:version="0.32"
   inkscape:version="0.46"
   version="1.0"
   sodipodi:docname="grapes_green.svg"
   inkscape:output_extension="org.inkscape.output.svg.inkscape"
   inkscape:export-filename="/home/roger/mis-dibujos/open/uploaded/grapes_green.png"
   inkscape:export-xdpi="60"
   inkscape:export-ydpi="60">
		<g display="none">
			<path display="inline" fill="#00FF55" d="M93.2,126.3c0.6,0,1.1-0.1,1.6-0.3s0.9-0.6,1.1-1.2c0.1-0.4,0.2-0.7,0.3-1
				c0.1-0.3,0.1-0.6,0.2-0.9c0.4-0.3,0.8-0.6,1.1-0.9c0,0.1,0,0.1,0.1,0.1c0,0.1,0,0.1,0,0.2c-0.1,0.5-0.2,1-0.3,1.5
				c0.1,0.8,0.4,1.4,1,1.8c1-1.5,2.2-2.9,3.5-4.3c0.6-0.4,1.2-0.8,1.9-1.2c0.7-0.3,1.5-0.6,2.2-0.6c1.4,0.1,2.5,0.7,3.1,1.8
				c0.2,0.4,0.3,0.7,0.4,1c0.1,0.3,0.1,0.6,0.1,1.1c0,0.3,0,0.6-0.1,0.8s-0.2,0.5-0.3,0.9c-0.4,0.8-0.8,1.4-1.4,1.8
				s-1.3,0.9-2.2,1.2c-0.6,0.2-1.2,0.3-2,0.4c-0.8,0.1-1.5,0.1-2.3,0.1c-0.9,0-1.7-0.1-2.6-0.4c-0.8-0.3-1.6-0.7-2.2-1.4h-0.1
				c-0.9,1.1-2.3,1.7-4.1,1.6v0.1c-1.3-0.2-2.3-0.7-2.9-1.4c-0.6-0.8-1-1.9-1.1-3.3h-0.1c-0.4,1.3-1.3,2.3-2.5,3v0.1
				c0.6,0.2,1,0.4,1.2,0.8c0.3,0.3,0.4,0.8,0.4,1.5c0,0.3-0.1,0.7-0.3,1.2c-0.2,0.5-0.4,0.9-0.6,1.2c-3.1,2.3-6.5,3.9-10.1,4.8
				s-7.2,1.3-10.7,1.3c-2.8-0.1-5.3-0.5-7.3-1.2c-2-0.7-3.7-1.6-5.1-2.8c-1.4-1.2-2.3-2-2.8-2.6c-0.5-0.6-1-1.4-1.6-2.5
				c0-0.1,0-0.1,0.1-0.2c0-0.1,0-0.1,0.1,0V128c0.1,0.1,0.8,0.7,1.9,1.8c1.3,1.2,3.2,2.4,5.8,3.6c2.6,1.2,5.7,1.8,9.3,1.8
				c3.4,0.1,6.7-0.3,10.1-1.1c3.3-0.8,6.5-2.2,9.5-4.1c0.1-0.1,0.1-0.1,0.2-0.2c0.1-0.1,0.2-0.1,0.3-0.2c0.1-0.1,0.1-0.2,0-0.3
				c-0.3-0.6-0.9-0.9-1.8-1.1c-1-0.2-1.9-0.2-2.7-0.2c-0.3,0-0.4,0-0.6,0c0-0.1,0-0.1-0.1-0.1v-0.1c0.3-0.5,0.5-1,0.8-1.5
				c0-0.1,0-0.3,0.1-0.4c1.6-0.3,3.2-0.7,4.6-1.4c0.8-0.8,1.2-1.5,1.4-2.1s0.3-1.6,0.2-2.9c0-1-0.1-2.2-0.1-3.6s-0.2-2.6-0.2-3.7
				c0.4-0.6,0.9-1.2,1.4-1.6h0.1h0.1c0.2,3.7,0.3,7.4,0.4,11c0,1.4,0.3,2.6,1,3.8c0.6,0.5,1.3,0.8,2.3,0.9L93.2,126.3L93.2,126.3z
				 M94,131.2l1.3-2h0.2v0.1c0.2,3.5,0.3,7.3,0.3,11.4c0,1.3,0.9,1.9,2.6,1.9h1c0.6,0,1.4-0.1,2.4-0.4v-0.1c-1.3-0.8-2-1.8-2-3.2
				c0-0.7,0.3-1.4,0.8-2.1c0.9-1.5,2-2.3,3.3-2.3c1.6,0,2.8,0.9,3.7,2.7l-0.3,0.3c-0.8-0.7-1.7-1-2.9-1c-0.9,0-1.6,0.2-2.2,0.5
				c-0.6,0.3-0.8,0.6-0.8,0.9c0,0.8,0.5,1.6,1.4,2.4c0.8,0.6,1.4,0.9,2,0.9c0.9,0,2.5-0.3,4.6-1l0.1-0.1l0.1,0.1l-0.9,2
				c-1.4,0.5-2.5,0.9-3.5,1.1c-1.3,0.3-2.1,0.5-2.3,0.7c-1.7,0.6-3,0.9-3.9,0.9h-0.5c-1.9,0-3.1-0.6-3.6-1.7
				c-0.6,1.1-1.7,1.7-3.2,1.7h-0.3c-1.1,0-1.9-0.1-2.4-0.4c-0.6-0.3-1-0.7-1.3-1.2c-0.6,1.1-1.8,1.6-3.6,1.6H64.3h-0.5l-0.4-0.1
				c-0.4-0.1-0.7-0.2-0.9-0.3c-0.8-0.4-1.5-1.1-2.2-2.1l-1-1.4c-0.3-0.3-0.5-0.4-0.8-0.4c-1.5,0.1-2.8,1.5-3.9,4.3l-0.5,1.1
				c-0.6,1.4-1.3,2.2-2.1,2.2c-0.4,0-0.7-0.1-1-0.4c-1.4-0.9-2.1-3.1-2.1-6.6c0.1-1.9,0.4-2.9,0.8-3c-0.1,0.9-0.2,1.8-0.3,2.7
				c0,2.3,0.5,3.9,1.5,4.8c0.3,0.3,0.6,0.5,0.9,0.5h0.5c0.6-0.1,1.2-1,1.9-2.7c0.7-1.7,1.3-2.8,1.8-3.5c0.8-1.2,1.7-1.8,2.5-1.8
				c0.7,0,1.4,0.7,2.2,2.1c0.6,1.1,1.6,1.9,3,2.4l0.3,0.1h0.7h12.1H84c0.9,0,1.6-0.1,2.1-0.4s0.9-0.6,1.1-1.1l0.4-1.7l1.2-0.9
				l0.1,0.2c-0.3,0.9-0.4,1.5-0.4,1.8c0,1.4,0.9,2.1,2.8,2.1c0.9,0,1.7-0.2,2.3-0.6c0.5-0.3,0.8-0.9,0.8-1.9
				C94.3,138.7,94.2,135.7,94,131.2z M70.2,139.8v-0.3l1.5-1.5l0.1-0.1v0.9l0.1,3.1c0.1,1.3,0.1,2.6,0.2,4c0,2.1,0,4.4,0,6.9
				c0,0.4,0.2,0.8,0.5,1.2c0.3,0.4,1,0.7,1.9,0.7h12.3c1.5,0.1,2.7-0.5,3.5-1.6l0.9-1.2l1.2-0.5l0.1,0.1c-0.8,1.1-1.1,1.9-1.1,2.4
				c0.1,0.6,0.3,0.9,0.8,0.9c0.4,0,0.9-0.1,1.4-0.5c0.3-0.2,0.5-0.4,0.7-0.7c0.1-0.3,0.3-0.7,0.4-1.4c0.1-0.2,0.1-0.4,0.2-0.6
				l0.9-0.6H96c-0.2,0.7-0.3,1.3-0.3,1.7c0,0.6,0.2,1.1,0.6,1.4c0.4,0.3,0.8,0.5,1.1,0.5c0.3,0,0.5-0.1,0.7-0.2
				c0.2-0.1,0.3-0.3,0.3-0.6c0-0.6-0.2-1.5-0.5-2.6c0.4-0.6,0.9-1.1,1.5-1.5l0.1,0.1c0.2,1.3,0.3,2.2,0.3,2.8c0,0.4-0.1,0.8-0.2,1.2
				c-0.1,0.4-0.3,0.8-0.5,1c-0.3,0.6-0.7,1-1.1,1.4c-0.4,0.4-0.9,0.5-1.4,0.5c-0.7,0-1.3-0.5-2-1.4h-0.1c-0.4,0.4-0.9,0.8-1.3,1
				c-0.4,0.3-1,0.4-1.6,0.4c-0.9,0-1.4-0.5-1.5-1.4H90c-0.5,0.6-1.1,0.9-1.7,1.1c-0.6,0.2-1.2,0.3-1.8,0.3H73.2
				c-0.4,0-0.8-0.1-0.9-0.3c-0.5-0.4-0.9-0.9-1.1-1.5c-0.3,0.5-0.6,0.9-1.2,1.3c-0.5,0.4-1.2,0.5-2,0.5h-7c-0.5,0-0.9-0.1-1.3-0.4
				c-0.4-0.3-0.8-0.6-1.1-1.1h-0.1c-0.1,0.7-0.4,1.3-0.8,1.8s-0.8,0.8-1.4,0.8c-1.1,0-2.1-0.5-2.9-1.5c-0.8-1-1.2-2.2-1.3-3.7
				c-1.3,1.1-1.9,1.9-1.9,2.6s0.3,1.9,0.8,3.6c0.5,1.4,0.9,2.7,1.3,3.9c0.3,1.2,0.5,1.9,0.5,2.3c0,0.8-0.1,1.6-0.4,2.4h-0.2
				c-0.4-1.8-1.1-3.7-1.9-5.7c-0.3-1.1-0.6-2.1-0.9-3c-0.3-0.9-0.4-1.7-0.4-2.3c0-0.7,0.1-1.4,0.3-2c0.3-1.3,0.9-2.2,1.7-2.8
				c0.2-0.2,0.3-0.4,0.5-0.5c1.1-0.9,2-1.8,2.7-2.6h0.2c0.9,0.7,1.7,1.5,2.5,2.4c0.5,0.6,0.9,1.1,1.3,1.7c0.2,0.3,0.4,0.6,0.7,0.9
				c0.3,0.3,0.6,0.6,1.1,0.8s0.9,0.3,1.4,0.3H68c0.6,0,1.3-0.2,1.9-0.6c0.3-0.1,0.4-0.3,0.6-0.6c0.1-0.3,0.2-0.7,0.2-1.3
				c0-3.3-0.1-6.7-0.4-10.1V142L70.2,139.8z M54.9,137.2c-0.4-0.5-0.7-0.8-0.9-0.8c-0.2,0-0.3,0.2-0.4,0.6l0.1-0.1
				c0.1-0.2,0.1-0.3,0.2-0.2c-0.3,0.4-0.4,0.7-0.4,0.9c0,0.1,0,0.1,0.1,0.2c0.1,0,0.3,0,0.5,0.1c-0.3,0.6-0.8,1.1-1.3,1.5
				c-0.7,0.6-1.2,1-1.4,1.2l-0.8,0.6l0.4-0.1c0.2-0.1,0.5-0.3,0.9-0.7c1.1-0.8,1.9-1.5,2.3-2.4c0-0.1,0-0.1,0.1-0.1
				c0.2,0.1,0.3,0.1,0.5,0.1c0.1,0,0.2,0,0.3-0.1C55.1,137.7,55.1,137.4,54.9,137.2z M52.7,116.5c0.6-0.5,1-0.9,1.2-1.2
				c-0.1-0.1-0.2-0.2-0.4-0.3c-0.2-0.1-0.3-0.3-0.3-0.5c0-0.1,0.1-0.3,0.3-0.5c0.2-0.2,0.4-0.3,0.6-0.3c0.2,0,0.3,0.1,0.4,0.4
				c-0.1,0.2-0.2,0.5-0.3,0.8c0.3,0.2,0.3,0.4,0.3,0.6c0,0.1,0,0.3-0.1,0.4c-0.1-0.3-0.2-0.4-0.4-0.6c-0.2,0.4-0.5,0.8-1,1.3
				c-0.5,0.5-1.3,0.9-2.3,1.1C51.4,117.4,52.1,117,52.7,116.5z M53.5,130.6c-1.6-0.7-2.5-2.9-2.5-6.5v-0.7c0-0.8,0-1.3,0.1-1.4
				l0.1-0.1c0.1,0,0.2,0.2,0.2,0.6c0.1,2.8,0.5,4.6,1.1,5.4c0.4,0.6,0.9,0.9,1.6,0.9c0.7,0,1.2-0.8,1.5-2.4c0.1-0.3,0.2-0.7,0.3-1.2
				c0.5-3,1.2-5.2,2.2-6.6c0.4-0.6,0.8-0.8,1-0.8c0.1,0,0.1,0,0.2,0.1l0.2,0.1c0.1,0.3,0.1,0.5,0.1,0.8c0,0.5-0.1,1.1-0.2,1.8
				c-0.2,1.2-0.3,2.2-0.3,3.1c0,0.8,0.1,1.4,0.3,2.1c0.4,1.1,1.4,1.7,2.8,1.7c1.5,0,2.7-0.8,3.7-2.4l0.1-0.9c0-2.2-0.4-4.3-1.1-6.2
				l-0.1-0.5c-0.1-0.1-0.2-0.3-0.3-0.5c0.4-1.1,0.8-1.8,0.9-2.2c0.6,1,1.1,2.8,1.6,5.4c0.5,2.6,0.8,4.1,1,4.5c0.8,1.3,1.6,2,2.6,2
				c0.9,0,1.8-0.3,2.5-0.9c-0.1-0.3-0.5-1.4-1.4-3.1c-0.9-1.8-1.4-3.6-1.7-5.4l-0.4-0.5l1.2-2.2c0.1,0.3,0.4,0.8,0.9,1.7
				c0.5,0.9,0.9,1.5,1.2,2c0.1,0.3,0.2,0.5,0.2,0.6v0.1c-0.1,0-0.4-0.1-0.8-0.4c-0.3-0.2-0.5-0.3-0.6-0.3c0.4,1.5,0.9,2.7,1.3,3.6
				c0.4,0.9,0.7,1.8,0.7,2.8v0.3c0,0.8-0.3,1.6-0.8,2.6c-0.5,1-1.3,1.5-2.4,1.5c-2.1-0.1-3.4-1.4-4.1-3.9l-0.1-0.5
				c-0.3,1.5-0.6,2.5-0.8,3c-0.9,1.6-2.1,2.4-3.6,2.4s-2.6-0.7-3.4-2c-0.4-0.7-0.6-1.5-0.7-2.4l0.4-5c0-0.1,0-0.2,0-0.3
				c-0.6,0.6-1.1,2.1-1.5,4.7c-0.4,2.6-0.8,4.2-1.1,4.8c-0.4,0.5-0.8,0.8-1.2,0.8S53.8,130.7,53.5,130.6z M56.7,116.6
				c-0.4-0.5-0.7-0.8-0.9-0.8c-0.2,0-0.3,0.2-0.4,0.6h0.1c0.1-0.2,0.1-0.3,0.2-0.2c-0.3,0.3-0.4,0.6-0.4,0.8c0,0.1,0,0.1,0.1,0.2
				c0.1,0.1,0.3,0.1,0.5,0.2c-0.3,0.5-0.8,1-1.3,1.4c-0.7,0.6-1.2,1-1.4,1.2l-0.8,0.7l0.4-0.2c0.2-0.1,0.5-0.3,0.9-0.6
				c1.1-0.8,1.9-1.6,2.3-2.4l0.1-0.1c0.2,0.1,0.3,0.1,0.5,0.1c0.1,0,0.2,0,0.3-0.1C57,117.2,56.9,116.9,56.7,116.6z M54.4,154.9
				c0.2,0.2,0.4,0.4,0.8,0.5c0.3,0.2,0.7,0.2,1.2,0.2c0.3,0,0.5-0.1,0.8-0.2c0.3-0.1,0.4-0.3,0.4-0.5c0-0.3-0.2-0.7-0.7-1.2
				c-0.5-0.8-1.4-1.8-2.7-2.8c-0.1,0.1-0.2,0.1-0.3,0.2c-0.1,0.2-0.3,0.4-0.5,0.5s-0.3,0.4-0.3,0.6
				C53.1,153.3,53.5,154.2,54.4,154.9z M53.8,114.2c-0.2,0-0.3,0-0.4,0.1c0,0.2,0.2,0.4,0.6,0.6C54.1,114.4,54,114.2,53.8,114.2z
				 M58.3,193.4c0.7-0.7,1.1-1.6,1.1-2.8c0-1.3-0.7-2-2.1-2c-0.7,0-1.3,0.2-1.7,0.7c0-0.8,0.5-1.9,1.5-3.4s1.9-2.7,2.8-3.6
				c0.2-0.2,0.3-0.4,0.3-0.6c0-0.1-0.1-0.2-0.2-0.3l-0.3,0.2c-1.3,0.7-2.5,2.1-3.8,4.1c-1.6,2.3-2.3,4.2-2.3,5.8
				c0,1.9,0.8,2.8,2.4,2.8C56.8,194.5,57.6,194.2,58.3,193.4z M54.2,137.6c-0.4-0.1-0.6-0.2-0.6-0.3c0.1-0.2,0.3-0.3,0.4-0.3
				c0.1,0,0.2,0.1,0.2,0.3C54.2,137.3,54.2,137.4,54.2,137.6z M61.5,160.2c0.1-0.1,0.1-0.2,0.1-0.3c0.1-0.6,0-0.9-0.3-1h-0.1
				c-0.3-0.1-0.6,0-0.8,0.3V159h-0.1c-0.5,0.4-0.9,0.6-1.2,0.8c-0.4,0.1-0.9,0.2-1.7,0.2h-3.8v0.1c0.1,0,0.2,0,0.3,0.1l2,0.4
				c0.1,0,0.2,0,0.3,0c1.4-0.1,2.4-0.1,2.8-0.3c0.3-0.1,0.6-0.3,0.8-0.5c0.1-0.2,0.2-0.3,0.3-0.3c0.2,0.5,0.5,0.9,0.9,1.1h0.1
				C61.3,160.4,61.5,160.3,61.5,160.2z M54.9,137.7c-0.1,0.1-0.3,0-0.6-0.1c0-0.1,0-0.2,0.1-0.3v-0.1
				C54.6,137.4,54.7,137.5,54.9,137.7z M62.4,145.6c-2.9,0.4-5.2,0.9-7,1.2l-0.4,0.9c0.4-0.1,1-0.3,1.6-0.4c1.4-0.3,3.2-0.6,5.3-0.9
				L62.4,145.6z M55.1,166c0-0.3,0.2-0.9,0.5-1.8l0.2-0.2V164c0.1-0.1,0.1-0.1,0.1,0s0,0.1,0,0.2s-0.1,0.3-0.2,0.6
				c-0.1,0.4-0.2,0.6-0.2,0.8c0,0.4,0.1,0.7,0.3,0.7c0.1,0,0.2-0.1,0.3-0.3v-0.2c0-0.1,0,0,0,0.2c0,0.3,0,0.4,0,0.6
				c-0.1,0.2-0.3,0.3-0.4,0.4h-0.1C55.2,166.9,55.1,166.6,55.1,166z M56.1,117c-0.4-0.1-0.6-0.2-0.6-0.3c0.1-0.2,0.3-0.3,0.4-0.3
				c0.1,0,0.2,0.1,0.2,0.3C56.1,116.8,56.1,116.8,56.1,117z M56.7,117.1c-0.1,0.1-0.3,0-0.6-0.1c0-0.1,0-0.2,0-0.3v-0.1
				C56.4,116.8,56.6,116.9,56.7,117.1z M57.6,113.5c0-0.4,0.2-1.3,0.7-2.4l0.1-0.3l0.1-0.2c0.1,0,0.1,0,0.1,0.1s0,0.1,0,0.2
				c0,0.1-0.1,0.3-0.3,0.8s-0.3,0.9-0.3,1.1c0,0.6,0.1,0.8,0.4,0.8c0.1,0,0.3-0.1,0.4-0.4l0.1-0.3c0-0.1,0,0,0,0.3
				c0,0.3,0,0.6-0.1,0.8c-0.1,0.3-0.3,0.4-0.5,0.5C57.8,114.6,57.6,114.2,57.6,113.5z M70.9,165.1c5,0.5,9.5,0.7,13.5,0.7h0.4
				c2.9,0.1,5.9-0.1,9.2-0.4c3.3-0.3,6.3-1.1,9.1-2.4c1.3-0.6,2.5-1.4,3.5-2.4c0.3-0.3,0.6-0.7,1-1.4c0.3-0.7,0.6-1.5,0.7-2.5
				c-0.7,0.1-1.4,0.2-2.1,0.2c-0.6,0-1.1-0.1-1.7-0.1c-0.5-0.1-1-0.3-1.5-0.5c-0.6-0.4-0.9-0.8-1.1-1.3c-0.2-0.5-0.2-1-0.2-1.6
				c0-0.3,0.1-0.6,0.2-0.9c0.1-0.4,0.3-0.7,0.5-0.9c0-0.1,0-0.1,0-0.2c0.4-0.5,0.8-0.9,1.2-1.4s1-0.6,1.7-0.6
				c0.9,0.1,1.6,0.5,2.1,1.1c0.5,0.6,1,1.4,1.4,2.3c0.2,0.4,0.4,1.1,0.6,1.9s0.3,1.6,0.3,2.3c0,0.8-0.1,1.6-0.3,2.5
				s-0.6,1.6-1.1,2.4c-1.8,2.2-3.9,3.7-6.5,4.6c-2.6,0.9-5.2,1.4-7.7,1.6c-2.5,0.3-5.2,0.4-8,0.3h-2.3c-3.5,0.1-7.1-0.1-10.6-0.5
				s-7-1.1-10.2-2.3l-0.2-0.1c-1.5-0.6-2.9-1.4-4.2-2.4c-0.1-0.1-0.1-0.1-0.1-0.2s0.1-0.1,0.2,0C61.8,163.8,65.9,164.6,70.9,165.1z
				 M60.5,159.2c0.2,0,0.3,0.1,0.5,0.2c0.1,0.1,0.1,0.3,0.2,0.7C60.8,159.7,60.6,159.4,60.5,159.2z M66.7,109
				c-2,0.3-3.6,0.6-4.8,0.9l-0.3,0.8c0.3-0.1,0.7-0.2,1-0.3c1-0.3,2.2-0.5,3.7-0.8L66.7,109z M63.1,105.9c1.8-2,2.7-3.3,2.7-3.9
				c0-0.7-0.3-1-0.8-1c-0.4,0-0.7,0.1-0.9,0.2c-0.2,0.2-0.4,0.3-0.4,0.3l-0.1-0.1l0.1-0.6c0.3-1.4,1-2.1,2.1-2.1
				c0.9,0,1.4,0.6,1.4,1.7c0,0.9-0.4,1.9-1.1,3s-1.6,2-2.8,2.8c-0.4,0.3-0.7,0.5-0.8,0.5C62.6,106.6,62.8,106.3,63.1,105.9z
				 M63.3,114.2c-0.1-0.2-0.2-0.5-0.3-1.1c-0.1-0.6-0.1-0.9-0.2-1.1l0.2-0.8c0.2,0,0.3,0.4,0.3,1.3s0.2,1.3,0.7,1.3
				c0.3-0.1,0.6-0.2,0.7-0.4l0.1-0.5c0-0.5-0.2-1-0.5-1.6l0.4-0.8c0,0.1,0.1,0.4,0.3,1c0.2,0.6,0.3,1,0.4,1c0.3,0.4,0.5,0.6,0.8,0.6
				s0.4-0.1,0.5-0.2c-0.1-0.2-0.2-0.4-0.3-0.8c-0.2-0.3-0.3-0.7-0.3-1l0.3-0.8v0.1c0,0.1,0,0.2,0.1,0.4c0,0.2,0.2,0.6,0.4,1.1
				c0.1,0.3,0.2,0.6,0.2,1c0,0.6-0.3,0.9-0.8,0.9c-0.4-0.1-0.8-0.4-0.9-0.9l-0.2,0.7c-0.1,0.3-0.3,0.5-0.6,0.7
				c-0.1,0.1-0.3,0.1-0.6,0.1C63.6,114.4,63.4,114.4,63.3,114.2z M65.2,150.6c0-0.4,0.2-1.3,0.7-2.5l0.2-0.3l0.1-0.2
				c0.1-0.1,0.1-0.1,0.1,0.1s0,0.2,0,0.2s-0.1,0.4-0.3,0.9s-0.3,0.9-0.3,1.2c0,0.6,0.1,0.9,0.4,0.9c0.1,0,0.3-0.1,0.4-0.4l0.1-0.3
				c0-0.1,0,0,0,0.3c0,0.3,0,0.6-0.1,0.9c-0.1,0.3-0.3,0.4-0.5,0.5h-0.1C65.4,151.8,65.2,151.4,65.2,150.6z M66.1,132.3
				c0-0.4,0.2-1.3,0.7-2.4l0.2-0.4l0.1-0.2c0.1-0.1,0.1-0.1,0.1,0.1c0,0.1,0,0.2,0,0.2s-0.1,0.4-0.3,0.9s-0.3,0.9-0.3,1.2
				c0,0.6,0.1,0.9,0.4,0.9c0.1-0.1,0.3-0.2,0.4-0.5l0.1-0.3c0-0.1,0,0,0,0.3c0,0.3,0,0.6-0.1,0.9c-0.1,0.3-0.3,0.4-0.5,0.5h-0.1
				C66.3,133.4,66.1,133,66.1,132.3z M168.9,216.7c-8.3-2.8-15-6.6-19.9-11.5c-4.6-4.6-8-10.3-10.3-16.8c-1.3-3.9-2.9-10.5-4.6-19.7
				c0,5.4-0.7,9.1-2.1,11.3c-6.1,9-14,17.1-23.7,24.4C98,212,89.2,215.8,82,215.8c-4.3,0-7.5-1.8-9.8-5.4c-1.9-3-2.8-6.7-2.8-11
				c0-8.6,1.8-17.4,5.4-26.4c0.8-1.9,1.4-2.8,1.7-2.8c0.2,0.1,0.3,0.3,0.3,0.6c0,0.6-0.2,1.6-0.5,2.9c-2.6,8.8-3.8,15.4-3.8,19.7
				c0,3.3,1.1,5.9,3.2,7.7c1.8,1.6,4.2,2.4,7.1,2.4c7.8,0,17.8-4.9,30.2-14.8c11.5-9.2,17.9-16.4,19-21.6
				c-0.8-7.1-3.8-17.7-8.8-31.8c-4.8-13.2-7.3-19.7-7.4-19.7c0-2.5,0.7-5.9,2-10.3c0.1-0.4,0.3-0.6,0.6-0.6s0.6,0.2,0.9,0.6
				c1.7,1.9,4,6,7,12.2c3.7,7.8,6.4,15.5,8.2,23.3c1.6,9,3.3,17.9,5.1,26.9c3.7,17.6,11.5,28.7,23.4,33.4c0-9.3,2.4-15.4,7.2-18.3
				c4.1-2.5,11.3-5.7,21.4-9.7h-46.1c-1.3,0-2-0.1-2.4-0.3c-0.3-0.2-0.5-0.6-0.5-1.2l0.1-1c0.5-5.3,2.1-9.6,4.8-13
				c7.8-9.8,20.5-19,38.1-27.7l-3.2-6.3c-0.6-1.3-0.9-3-0.9-5.1c0-3.2,0.8-5.9,2.4-8c1.9-2.7,4.7-4,8.6-4c2.9,0,7.2,1.9,12.7,5.6
				c5.8,3.9,8.7,7.2,8.7,9.9c-0.8,3.5-1.9,6.8-3.1,9.9c-4.7,1.4-10.4,3.1-17,5.2l0.1,2.1c0,2.5-0.4,3.8-1.2,3.8
				c-0.8,0-1.5-1.4-2.4-4.3c-5.1,1.9-11.5,5.4-19.4,10.3c-7.5,4.6-12.9,8.7-16.3,12.3c4.4,0.3,10.8,0.5,19.2,0.5
				c10.1,0,22.8-0.3,38.1-0.8c14-0.4,20.9-0.7,20.9-0.8c0.9,0,1.4,0.2,1.4,0.5c0,0.3-1.1,3.3-3.3,9c-0.4,0.9-1,1.6-2,1.9
				c-41.6,13.2-62.4,21.4-62.4,24.4c0,2.6,6.4,6.7,19.1,12.4c0.6,0.3,0.9,0.9,0.9,1.7l-0.9,8.4c-0.1,0.9-0.7,1.3-1.7,1.3
				C179.9,219.6,174.9,218.7,168.9,216.7z M70.3,111.1c0-0.4,0.2-1,0.6-2l0.1-0.3l0.1-0.1c0.1-0.1,0.1-0.1,0.1,0c0,0.1,0,0.1,0,0.2
				c0,0.1-0.1,0.3-0.2,0.7c-0.2,0.4-0.2,0.7-0.2,0.9c0,0.4,0.1,0.7,0.3,0.8c0.1-0.1,0.2-0.2,0.3-0.4l0.1-0.3v0.3
				c0,0.3,0,0.5-0.1,0.7c-0.1,0.3-0.2,0.4-0.3,0.4h-0.1C70.5,112,70.3,111.7,70.3,111.1z M70.8,161.6c0-0.4,0.3-1.3,0.8-2.5l0.1-0.4
				l0.1-0.1c0.1-0.1,0.1-0.1,0.1,0s0,0.1,0,0.2s-0.1,0.4-0.3,0.9s-0.3,0.9-0.3,1.2c0,0.6,0.1,0.9,0.4,0.9c0.2,0,0.3-0.1,0.4-0.4
				l0.1-0.3c0.1-0.1,0.1,0,0.1,0.3c-0.1,0.3-0.1,0.6-0.2,0.9c-0.1,0.3-0.3,0.4-0.5,0.5C71.1,162.8,70.8,162.4,70.8,161.6z
				 M77.1,131.5c-0.1-0.1-0.1-0.2-0.1-0.3l0.1-1.7c0-3.1-0.7-9.5-2.2-19.2l-0.3-0.4l1.1-1.7l0.7,1.3c1.1,2,1.6,3.1,1.7,3.4l-0.1,0.2
				c-0.2-0.1-0.6-0.4-1.2-1h-0.2l-0.1,0.1c1.3,7.5,1.9,12.4,1.9,14.8c-0.1,1.1-0.4,2.4-0.9,3.9c-0.1,0.3-0.2,0.4-0.3,0.5L77.1,131.5
				L77.1,131.5z M77.3,150.3c0-0.5,0.3-1.4,0.8-2.5l0.2-0.4v-0.1c0.1-0.1,0.1-0.1,0.1,0s0,0.1,0,0.2c0,0.1-0.1,0.4-0.3,0.9
				s-0.3,0.9-0.3,1.1c0,0.6,0.2,0.9,0.5,0.9c0.1-0.1,0.2-0.2,0.3-0.5l0.1-0.3c0.1-0.1,0.1,0,0.1,0.3c-0.1,0.4-0.1,0.7-0.2,0.9
				c-0.1,0.3-0.3,0.4-0.4,0.5h-0.1C77.6,151.4,77.3,151,77.3,150.3z M77.9,97.9c0.1-0.1,0.6-0.4,1.4-1c0.8-0.6,3.1-1.9,7-3.9
				c4.4-2.4,6.7-3.8,6.7-4.1c0-0.9-3.3-1.3-9.9-1.3l-4.5,0.2c-0.8,0-1.1-0.1-1.1-0.3c0-0.2,0.9-1.8,2.8-5c0.7-1.1,1.9-1.8,3.8-2.2
				c0.6-0.1,2.1-0.2,4.5-0.2c7.6,0,11.4,0.9,11.4,2.6c0,0.8-0.9,2.4-2.7,4.9c-2,2.8-3.9,4.9-5.7,6.2c-1.2,0.8-5.1,2.1-11.8,3.8
				L78.1,98C78,98,77.9,97.9,77.9,97.9z M90,160.1c0.1-0.3,0.2-0.6,0.1-0.9l-0.6,0.9c0.1,0.1,0.1,0.2,0.1,0.4c-0.3,0-0.4,0-0.6,0
				c-0.4,0-0.6-0.2-0.6-0.7c0.1-0.1,0.1-0.2,0.2-0.3c-0.1,0-0.3,0.1-0.6,0.3c-0.4,0.3-0.8,0.5-0.9,0.6s-0.4,0-0.8-0.3
				c-0.3-0.3-0.9-0.2-1.7,0.4c-0.6,0.5-1.3,0.9-1.9,1.2c-0.9,0.6-2.2,1-3.9,1.3c1.8,0.1,3.5-0.5,5-1.6c0.6-0.5,1.2-0.7,1.6-0.7
				c0.2,0,0.3,0.1,0.5,0.2c0.3,0.2,0.5,0.3,0.7,0.3s0.5-0.2,0.8-0.5l0.4-0.5c-0.1,0.6,0.1,1,0.6,1C89.1,161.4,89.6,161,90,160.1z
				 M80.8,139.3c0-0.4,0.3-1.3,0.8-2.5l0.1-0.4l0.1-0.1c0.1-0.1,0.1-0.1,0.1,0s0,0.1,0,0.2s-0.1,0.4-0.3,0.9s-0.3,0.9-0.3,1.2
				c0,0.6,0.1,0.9,0.4,0.9c0.1,0,0.3-0.1,0.4-0.4l0.1-0.3c0-0.1,0,0,0,0.3c0,0.3,0,0.6-0.1,0.9c-0.1,0.3-0.3,0.4-0.5,0.5
				C81.1,140.5,80.8,140.1,80.8,139.3z M81.5,114.3c0-0.7,0.3-1.9,1-3.7l0.2-0.5l0.1-0.2c0.1-0.1,0.1-0.1,0.1,0c0,0.1,0,0.3,0,0.4
				s-0.2,0.5-0.4,1.2s-0.4,1.3-0.4,1.7c0,0.8,0.2,1.3,0.6,1.3c0.2-0.1,0.3-0.3,0.5-0.7l0.1-0.4c0.1-0.1,0.1,0.1,0.1,0.4
				c-0.1,0.5-0.1,0.9-0.2,1.2c-0.2,0.4-0.4,0.6-0.6,0.8h-0.1C81.8,115.9,81.5,115.4,81.5,114.3z M82.5,121.6c0-0.5,0.3-1.3,0.8-2.5
				l0.1-0.4l0.1-0.1c0.1-0.1,0.1-0.1,0.1,0s0,0.1,0,0.2s-0.1,0.4-0.3,0.9s-0.3,0.9-0.3,1.1c0,0.6,0.1,0.9,0.4,0.9
				c0.2-0.1,0.3-0.2,0.4-0.5l0.1-0.3c0.1,0,0.1,0.1,0.1,0.3c-0.1,0.4-0.1,0.7-0.2,0.9c-0.1,0.3-0.3,0.4-0.5,0.5
				C82.8,122.6,82.5,122.3,82.5,121.6z M83.3,147.1c0.4-0.6,0.9-1.1,1.3-1.5c0.6,0.5,1.2,1.1,1.8,1.7c-0.4,0.6-0.8,1.1-1.2,1.4
				C84.5,148.1,83.9,147.6,83.3,147.1z M92,191c0-0.8-0.4-2.2-1.3-4.2c-0.8-2.1-1.4-3.1-1.7-3.1c-0.3,0-0.4,0.1-0.5,0.2
				s-0.3,0.2-0.7,0.2c-0.3,0-0.8-0.3-1.4-0.9c-0.6-0.6-0.9-1-0.9-1.3c0-0.2,0.3-0.7,0.8-1.6c0.5-0.9,0.8-1.3,0.9-1.3
				c1.3,0,2.4,0.7,3.3,2.2c1,1.5,1.6,3.4,2,5.7c0.1,0.3,0.1,0.4,0.1,0.5h0.1c0.1,0,0.1-0.1,0.2-0.4V187c0.2-1.4,0.7-3.5,1.4-6.3
				c0.9-1.9,1.8-2.9,2.7-2.9c0.5,0,1,0.3,1.5,0.9c0.5,0.6,0.7,1.1,0.7,1.5c0,0.3-0.1,0.7-0.2,1.3c-0.2,0.5-0.4,0.8-0.6,0.8
				c-0.1,0-0.4-0.2-0.8-0.7c-0.4-0.5-0.8-0.7-1.1-0.7c-0.9,0-1.7,2.1-2.4,6.2c-0.3,1.8-0.7,3-1.1,3.8c-0.3,0.5-0.5,0.8-0.7,0.8
				S92,191.4,92,191z M86.4,146.8c0.4-0.6,0.9-1.1,1.3-1.5c0.6,0.5,1.2,1.1,1.8,1.8c-0.4,0.6-0.8,1.1-1.2,1.5
				C87.7,147.9,87,147.3,86.4,146.8z M87.8,133.3c1,0.4,1.5,1,1.6,1.7c0,0.6-0.1,0.9-0.4,1.1c-0.5,0.4-1,0.6-1.5,0.4
				c-0.6-0.2-0.8-0.7-0.7-1.4c0.2-0.8,0.6-1.6,1.2-2.4c0.1-0.1,0.1-0.2,0.1-0.1v0.2L87.8,133.3z M87.2,134.9c-0.1,0.4,0,0.6,0.3,0.7
				c0.4,0.1,0.9,0.1,1.4-0.2c-0.2-0.4-0.7-0.8-1.5-1.1C87.3,134.6,87.2,134.9,87.2,134.9z M95.3,109.3c-2,0.4-3.6,0.7-4.8,1
				l-0.3,0.8c0.3-0.1,0.7-0.2,1.1-0.3c0.9-0.3,2.1-0.5,3.6-0.8L95.3,109.3z M91.9,114.6c-0.1-0.2-0.2-0.5-0.2-1.1s-0.1-1-0.2-1.1
				l0.2-0.9c0.2,0.1,0.3,0.5,0.3,1.4c0,0.8,0.3,1.3,0.7,1.4c0.3-0.1,0.5-0.2,0.8-0.5v-0.4c0-0.5-0.2-1-0.5-1.6l0.4-0.8
				c0.1,0.1,0.2,0.4,0.3,1.1s0.3,1,0.3,1.1c0.3,0.4,0.5,0.6,0.8,0.6s0.4-0.1,0.5-0.2c-0.1-0.2-0.2-0.5-0.3-0.8s-0.3-0.7-0.3-0.9
				c0.2-0.6,0.3-0.9,0.4-0.9v0.1c0,0.1,0,0.2,0,0.5s0.1,0.6,0.4,1c0.1,0.3,0.2,0.7,0.2,1.1c0,0.6-0.3,0.9-0.8,0.9
				c-0.4-0.1-0.8-0.4-1-0.9l-0.2,0.7c-0.1,0.3-0.3,0.5-0.6,0.7c-0.1,0.1-0.3,0.1-0.6,0.1C92.2,114.8,92,114.7,91.9,114.6z
				 M99.6,146.5c-2.9,0.4-5.2,0.9-7.1,1.2l-0.3,0.9c0.4-0.1,0.9-0.3,1.5-0.4c1.4-0.3,3.2-0.6,5.4-0.9L99.6,146.5z M92.3,237
				c0-0.1,0.5-0.7,1.4-1.8c4.6-5,6.9-8.3,6.9-10s-0.7-2.4-2.2-2.4c-0.8,0-1.5,0.2-2.1,0.6c-0.6,0.4-1,0.6-1.1,0.7l-0.3-0.2l0.3-1.3
				c0.8-3.4,2.5-5.2,5.2-5.2c2.3,0,3.4,1.4,3.4,4.3c0,2.1-0.9,4.5-2.6,7.2s-4,5.1-6.8,7.1C93.2,236.7,92.6,237.1,92.3,237
				C92.3,237.1,92.3,237.1,92.3,237z M105.9,115.7c-5,1.1-9.1,1.9-12.2,2.6l-0.5,0.9c0.8-0.3,1.7-0.5,2.7-0.8c2.4-0.6,5.5-1.2,9.2-2
				L105.9,115.7z M95.7,161.4c0-0.4,0.3-1.3,0.8-2.5l0.1-0.4l0.1-0.1c0.1-0.1,0.1-0.1,0.1,0s0,0.1,0,0.2c0,0.1-0.1,0.4-0.3,0.9
				s-0.3,0.9-0.3,1.2c0,0.6,0.1,0.9,0.4,0.9c0.2,0,0.3-0.1,0.4-0.4L97,161c0.1-0.1,0.1,0,0.1,0.3c-0.1,0.3-0.1,0.6-0.2,0.9
				c-0.1,0.3-0.3,0.4-0.5,0.5C95.9,162.6,95.7,162.2,95.7,161.4z M99,99.2c42.6-15.9,64.1-23.8,64.3-23.8c0.1,0,0.2,0.1,0.2,0.3
				s-0.1,0.4-0.2,0.8c-0.8,1.8-1.3,2.9-1.6,3.2c-0.4,0.3-10.5,4.2-30.5,11.7c-20.4,7.7-31.8,12.2-34.2,13.5
				C97.3,103.2,98,101.3,99,99.2z M106.5,130.4c-2.9,0.4-5.2,0.8-7.1,1.1l-0.3,0.9c0.4-0.1,0.9-0.2,1.5-0.3c1.4-0.3,3.2-0.6,5.3-0.9
				L106.5,130.4z M104.7,125.9c0.8-0.2,1.6-0.4,2.1-0.6c0.3-0.2,0.6-0.4,0.9-0.6c0.3-0.2,0.4-0.4,0.4-0.8c-0.1-0.8-0.4-1.4-0.8-1.8
				c-0.4-0.5-1.1-0.7-2.1-0.7c-1.2,0.1-2.3,0.6-3.3,1.5c-1,0.9-1.9,1.8-2.6,2.8c0.9,0.3,1.9,0.4,3,0.4l0.1,0.1
				C103.1,126.3,103.9,126.2,104.7,125.9z M100.1,113c0-0.5,0.2-1.3,0.7-2.4l0.2-0.4v-0.1c0.1-0.1,0.1-0.1,0.1,0s0,0.1,0,0.2
				c0,0.1-0.1,0.4-0.3,0.8s-0.3,0.8-0.3,1.1c0,0.6,0.2,0.9,0.5,0.9c0.1-0.1,0.2-0.2,0.3-0.4l0.1-0.4v0.4c0,0.3,0,0.6-0.1,0.8
				c-0.1,0.3-0.3,0.4-0.4,0.5h-0.1C100.3,114.1,100.1,113.7,100.1,113z M103.5,151.9c-0.4,0.3-0.6,0.7-0.6,1.3
				c0,0.4,0.2,0.7,0.6,0.9c0.4,0.2,0.9,0.4,1.4,0.5c0.5,0.1,1,0.1,1.4,0.1c0.1-0.1,0.3-0.1,0.5-0.1s0.4,0,0.6,0s0.4,0,0.4-0.1
				c-0.1-0.7-0.4-1.4-0.9-2c-0.5-0.6-1.1-1-1.9-1C104.4,151.6,103.9,151.7,103.5,151.9z M106.9,146.9c0-0.4,0.2-1.3,0.7-2.4l0.2-0.4
				l0.1-0.2c0.1-0.1,0.1-0.1,0.1,0.1s0,0.2,0,0.2s-0.1,0.4-0.3,0.9s-0.3,0.9-0.3,1.2c0,0.6,0.1,0.9,0.4,0.9c0.1-0.1,0.3-0.2,0.4-0.5
				l0.1-0.3c0-0.1,0,0,0,0.3c0,0.3,0,0.6-0.1,0.9c-0.1,0.3-0.3,0.4-0.5,0.5h-0.1C107.1,148,106.9,147.6,106.9,146.9z M115.5,78.1
				c0.4-0.4,0.7-1,0.7-1.7c0-0.8-0.4-1.1-1.2-1.1c-0.4,0-0.8,0.1-1,0.4c0-0.4,0.3-1.1,0.9-2c0.6-0.9,1.2-1.6,1.7-2.1l0.1-0.3
				c0-0.1,0-0.2-0.1-0.2h-0.2c-0.7,0.4-1.5,1.3-2.4,2.6c-0.9,1.3-1.3,2.4-1.3,3.4c0,1.1,0.5,1.7,1.5,1.7
				C114.6,78.8,115.1,78.6,115.5,78.1z M126,228.6c0-1.4-0.8-4-2.4-7.9s-2.7-5.9-3.3-5.9c-0.5,0-0.8,0.1-0.9,0.4s-0.5,0.4-1.1,0.4
				c-0.7,0-1.6-0.5-2.7-1.6c-1.1-1-1.7-1.9-1.7-2.5c0-0.3,0.5-1.2,1.4-2.8c0.9-1.6,1.5-2.4,1.8-2.4c2.3,0,4.3,1.4,6.2,4.1
				s3.1,6.3,3.8,10.8l0.3,0.9l0.4-0.9c0.4-2.6,1.3-6.6,2.7-11.9c1.6-3.7,3.3-5.6,5.1-5.6c0.9,0,1.9,0.6,2.8,1.8
				c0.9,1.2,1.4,2.1,1.4,2.8c0,0.5-0.2,1.2-0.5,2.1c-0.4,1.2-0.8,1.8-1.3,1.8c-0.2,0-0.6-0.4-1.3-1.4s-1.4-1.4-2.2-1.4
				c-1.6,0-3.2,3.9-4.6,11.7c-0.6,3.4-1.2,5.8-2,7.1c-0.6,0.9-1,1.4-1.4,1.4C126.2,229.8,126,229.4,126,228.6z M117.1,171.3
				c0.4-0.4,0.6-0.9,0.6-1.5c-0.1-0.7-0.5-1-1.2-1c-0.3,0-0.6,0.1-0.9,0.4c0-0.4,0.3-1.1,0.8-1.9c0.5-0.8,1.1-1.4,1.6-1.9
				c0.1-0.1,0.1-0.2,0.1-0.3l-0.1-0.2c-0.5,0-1.3,0.8-2.3,2.4c-0.8,1.2-1.2,2.2-1.2,3.1c0,1,0.4,1.5,1.3,1.5
				C116.2,171.9,116.6,171.7,117.1,171.3z M125.4,248.2c0.4-0.4,0.7-1,0.7-1.7c0-0.8-0.4-1.1-1.2-1.1c-0.4,0-0.7,0.1-1,0.4
				c0-0.4,0.3-1.1,0.9-2c0.6-0.9,1.2-1.6,1.7-2.1l0.1-0.4v-0.2l-0.2,0.1c-0.8,0.4-1.6,1.3-2.4,2.6c-0.9,1.3-1.3,2.4-1.3,3.4
				c0,1.1,0.5,1.7,1.5,1.7C124.5,248.9,124.9,248.7,125.4,248.2z M130.8,103.3c11.5-4.1,23.6-8.6,36.4-13.3c0.4-0.2,0.8-0.3,1-0.3
				c0.2,0,0.3,0.1,0.3,0.4l-0.2,0.8c-0.8,1.8-1.4,2.9-1.9,3.3c-10.7,3.8-23.3,8.7-37.7,14.7C129.2,107.2,129.9,105.3,130.8,103.3z
				 M134.1,76.6c0-0.2,0.4-0.7,1.2-1.5c3.8-4.2,5.7-7,5.7-8.4s-0.6-2.1-1.9-2.1c-0.7,0-1.3,0.2-1.7,0.5s-0.8,0.5-0.9,0.5l-0.2-0.1
				l0.2-1.1c0.6-2.9,2.1-4.3,4.3-4.3c1.9,0,2.8,1.2,2.8,3.6c0,1.8-0.7,3.8-2.2,6.1c-1.5,2.3-3.4,4.3-5.7,5.9
				C134.9,76.3,134.3,76.6,134.1,76.6C134.2,76.6,134.1,76.6,134.1,76.6z M144.1,133c-0.9-1.2-1.3-2.9-1.3-5v-5.1
				c0-0.4-0.3-0.7-0.9-0.9c-0.6-0.2-0.9-0.6-0.9-1.3c0-1.1,0.4-2.2,1.4-3.2c0.9-1,1.6-1.5,2-1.5c0.6,0,0.9,1.1,0.9,3.4
				c0,1.1-0.1,2.1-0.3,2.9c-0.2,0.8-0.3,1.5-0.3,2c0,1.2,0.3,2.4,0.8,3.6s1.2,1.8,2.1,1.8c1.1,0,2.2-0.5,3.1-1.5
				c0.9-1,1.4-2.2,1.4-3.6c0-0.8-0.2-2.1-0.7-3.9c-0.4-1.9-0.7-3.1-0.7-3.6c0-0.4,0.2-1,0.6-1.9s0.7-1.3,0.9-1.3
				c0.4,0,0.9,1.3,1.5,3.8s0.9,4.4,0.9,5.6c0,3.4,1.4,5.2,4,5.2c1.1,0,1.9-0.6,2.2-1.7c-2.3-4.1-3.5-7.2-3.5-9.3
				c0-1.3,0.3-2.3,0.9-3.3c0.4-0.6,0.7-1,0.9-1c0.2,0,0.3,0.4,0.4,1.2c0.1,1.2,0.3,2.2,0.6,2.9l1.7,4.2c0.6,1.6,0.9,2.9,0.9,3.8
				c0,1.6-0.4,3.2-1,5c-0.9,2.2-2.2,3.3-3.7,3.3c-2.3,0-4-1.6-5-4.8c-1.1,4.1-3.1,6.2-6.1,6.2C145.9,134.8,145,134.2,144.1,133z
				 M153.5,242.4c0-5.4,1.6-11.2,4.7-17.2c0.8-1.5,1.3-2.3,1.4-2.3c0.1,0,0.1,0,0.1,0.1c0,0.3-0.2,1.1-0.7,2.4
				c-2.1,6.3-3.1,10.6-3.1,13.2c0,3.4,0.9,5.2,2.7,5.2c1.1,0,2.3-1.3,3.7-3.9c0.2-0.4,0.3-0.6,0.5-0.6c0.1,0,0.1,0,0.1,0.1
				c0,0.1,0.1,0.1,0.1,0.3l-0.1,0.4c-1.1,6-2.9,9-5.4,9C154.8,249.1,153.5,246.8,153.5,242.4z M160.3,111.6c0-0.2,0.6-0.7,1.8-1.4
				l14.6-8.7c5.8-3.5,10.2-6.8,13.1-9.8c-3.8-2-5.7-4.1-5.7-6.2c0-2.6,1.2-5,3.7-7.2c1.9-1.8,3.5-2.6,5-2.6c2.1,0,3.1,1.5,3.1,4.6
				c0,2.2-0.5,4.6-1.4,7.3c1.9,1.1,3.2,2.1,3.7,2.8c0,1.1-0.9,2.8-2.6,5.3c-0.4-0.8-1.6-1.8-3.5-2.8c-2.1,2.9-4.8,5.6-8.1,8.1
				c-3.8,2.8-7.2,4.8-10.3,6.2c-0.7,0.3-4.3,1.7-10.8,4.1c-1.1,0.4-1.8,0.6-2.1,0.6C160.4,111.8,160.3,111.7,160.3,111.6z
				 M172.8,72.9c0.4-0.4,0.7-1,0.7-1.7c0-0.8-0.4-1.1-1.2-1.1c-0.4,0-0.7,0.1-1,0.3c0-0.4,0.3-1.1,0.9-2c0.6-0.9,1.2-1.6,1.7-2.1
				c0.1-0.1,0.1-0.2,0.1-0.3v-0.1c0-0.1,0-0.1-0.1-0.1l-0.2,0.1c-0.7,0.4-1.5,1.3-2.4,2.6c-0.9,1.3-1.3,2.4-1.3,3.4
				c0,1.1,0.5,1.6,1.5,1.6C172,73.5,172.4,73.3,172.8,72.9z M184,235.3c0.4-0.4,0.7-1,0.7-1.7c0-0.8-0.4-1.1-1.2-1.1
				c-0.4,0-0.7,0.1-1,0.4c0-0.4,0.3-1.1,0.9-2c0.6-0.9,1.2-1.6,1.7-2.1l0.1-0.3c0-0.1,0-0.2-0.1-0.2h-0.2c-0.7,0.4-1.5,1.3-2.4,2.6
				c-0.9,1.3-1.3,2.4-1.3,3.4c0,1.1,0.5,1.7,1.5,1.7C183.2,236,183.6,235.8,184,235.3z M200.8,123.9c0-1-1.9-2.3-5.7-3.9
				c-3.2-1.4-5.7-2.1-7.5-2.1c-1.2,0-1.8,0.3-1.8,0.8c0,0.6,1.4,3.7,4.3,9.1C195.6,126,199.2,124.7,200.8,123.9z M192.5,84
				c0-2.1-0.6-3.2-1.9-3.2c-0.5,0-1.1,0.2-1.9,0.7s-1.2,0.9-1.2,1.3c0,0.9,1.5,2.1,4.6,3.6C192.4,85.5,192.5,84.7,192.5,84z
				 M197.6,214c-1.3-1.1-1.9-2.4-1.9-3.9c0-2.8,1.2-5.7,3.6-8.6c4.9-5.2,7.4-7.9,7.4-8.1c0-0.3-0.3-0.5-0.8-0.7
				c-1.8-0.6-3.6-0.9-5.6-0.9c-1.1,0-2.4,0.3-3.7,0.9l-0.4,0.1c-0.1,0-0.2-0.1-0.2-0.2l0.1-0.5c0.8-1.9,1.7-3.3,2.6-4
				s2.5-1.1,4.6-1.1c4.8,0,7.2,1.2,7.2,3.6c0,1.8-1.5,4.3-4.6,7.5l-6.6,6.7c-0.9,1.3-1.4,2.3-1.4,3.2c0,1.9,2.2,2.9,6.7,2.9
				c4.1,0,8.5-0.7,13.2-2.1c1-0.3,1.6-0.5,1.9-0.5l0.1,0.1c0,0.2-0.5,0.7-1.4,1.6c-4.1,3.7-9.4,5.6-15.9,5.6
				C200.6,215.6,198.9,215.1,197.6,214z M201,154.8c3.1-3.3,4.6-5.6,4.6-6.7c0-1.1-0.5-1.6-1.5-1.6c-0.6,0-1,0.1-1.4,0.4
				c-0.4,0.3-0.6,0.4-0.7,0.5l-0.2-0.2l0.1-0.9c0.5-2.3,1.7-3.5,3.5-3.5c1.5,0,2.3,1,2.3,2.9c0,1.4-0.6,3-1.7,4.8
				c-1.2,1.8-2.7,3.4-4.6,4.7c-0.8,0.5-1.2,0.8-1.3,0.8C200,155.9,200.3,155.5,201,154.8z M218.2,108c0.4-0.4,0.7-1,0.7-1.7
				c0-0.8-0.4-1.1-1.3-1.1c-0.4,0-0.7,0.1-0.9,0.4c0-0.4,0.3-1.1,0.9-2c0.6-0.9,1.1-1.6,1.6-2.1c0.1-0.1,0.2-0.2,0.2-0.3
				c0-0.1,0-0.2-0.1-0.2l-0.2,0.1c-0.8,0.4-1.6,1.3-2.4,2.6c-0.9,1.3-1.3,2.4-1.3,3.4c0,1.1,0.5,1.6,1.5,1.6
				C217.3,108.7,217.7,108.5,218.2,108z M224.5,141.8c0-5.4,1.6-11.2,4.7-17.2c0.8-1.4,1.3-2.2,1.4-2.3c0.1,0,0.1,0,0.1,0.1
				c0,0.3-0.2,1.1-0.7,2.4c-2.1,6.3-3.1,10.6-3.1,13.2c0,3.4,0.9,5.2,2.8,5.2c1.1,0,2.3-1.3,3.6-3.9c0.2-0.4,0.3-0.6,0.5-0.6
				c0.1,0,0.1,0,0.1,0.1c0,0.1,0.1,0.2,0.1,0.3l-0.1,0.4c-1.1,6-2.9,9-5.4,9C225.8,148.5,224.5,146.2,224.5,141.8z M226.4,191.1
				c0-0.1,0.2-0.3,0.6-0.7c1.8-2,2.7-3.4,2.7-4.2c0-0.5-0.3-0.8-0.9-0.8c-0.3,0-0.6,0.1-0.9,0.2l-0.4,0.3l-0.2-0.1
				c0.1-0.1,0.1-0.2,0.1-0.5c0.3-1.4,1-2.2,2.1-2.2c0.9,0,1.4,0.6,1.4,1.8c0,0.8-0.4,1.8-1,2.9c-0.7,1.1-1.6,2-2.7,2.8
				C226.8,191,226.5,191.2,226.4,191.1L226.4,191.1L226.4,191.1z"/>

</svg>
