<svg viewBox="0 0 1250 200" xmlns="http://www.w3.org/2000/svg">
    <rect x="310" y="30"  width="100" height="100" fill="rgba(0,50,255,0.8)" />
   	<rect x="250" y="50"  width="110" height="100" fill="rgba(0,50,255,0.7)" />
   	<rect x="170" y="90"  width="110" height="100" fill="rgba(0,50,255,0.6)" />   
    <rect x="100" y="50"  width="110" height="100" fill="rgba(0,50,255,0.4)" />
    <rect x="50" y="30"  width="110" height="100" fill="rgba(0,50,255,0.2)" />

    <rect x="710" y="30"  width="100" height="100" fill="hsla(0,100%,50%,0.8)" />
   	<rect x="650" y="50"  width="110" height="100" fill="hsla(0,100%,50%,0.7)" />
   	<rect x="570" y="90"  width="110" height="100" fill="hsla(0,100%,50%,0.6)" />   
    <rect x="500" y="50"  width="110" height="100" fill="hsla(0,100%,50%,0.4)" />
    <rect x="450" y="30"  width="110" height="100" fill="hsla(0,100%,50%,0.2)" />

    <rect x="310" y="230" width="100" height="100" fill="#C1B900" fill-opacity="0.8" />
   	<rect x="250" y="250" width="110" height="100" fill="#C1B900" fill-opacity="0.7" />
   	<rect x="170" y="290" width="110" height="100" fill="#C1B900" fill-opacity="0.6" />   
    <rect x="100" y="250" width="110" height="100" fill="#C1B900" fill-opacity="0.4" />
    <rect x="50" y="230" width="110" height="100" fill="#C1B900" fill-opacity="0.2" />    
</svg>
