<?xml version="1.0" encoding="utf-8"?>
<!-- Generator: Adobe Illustrator 14.0.0, SVG Export Plug-In . SVG Version: 6.00 Build 43363)  -->
<svg version="1.1" xmlns="http://www.w3.org/2000/svg" xmlns:xlink="http://www.w3.org/1999/xlink" x="0px" y="0px" width="792px"
	 height="612px" viewBox="0 0 792 612" enable-background="new 0 0 792 612" xml:space="preserve">
<g id="pen">
	<path fill="#BAA174" stroke="#000000" stroke-width="0.5" d="M613.19,30.871c0,0,4.486-3.313,19.333-5.42
		c0,0,1.276-5.239,1.022-6.454c-0.255-1.215-15.551-2.53-24.719,5.219C606.785,25.941,610.285,26.12,613.19,30.871z"/>
	<path fill="#B89D6C" stroke="#000000" stroke-width="0.5" d="M612.532,29.65c0,0,6.896-9.076,20.261-4.331
		c0,0,0.108,2.696-1.351,6.45c-0.751,1.932-0.102,19.668-0.102,19.668l-6.804,1.668c0,0-5.2-13.806-8.277-16.404
		S612.532,29.65,612.532,29.65z"/>
	<path fill="#CABC98" stroke="#000000" stroke-width="0.5" d="M625.199,63.45c0,0-1.061-8.159-1.336-10.064
		c-0.273-1.905,6.543-4.34,8.662-1.112c0.65,0.989,1.183,8.3,1.368,9.526C634.078,63.025,626.797,64.623,625.199,63.45z"/>
	<path fill="#C0CED8" d="M628.831,59.259c-0.362-1.25-0.524-2.55-0.887-3.801c-0.163-0.56-1.061-0.392-0.896,0.174
		c0.362,1.252,0.569,2.539,0.889,3.802c0.302,1.196,0.717,2.394,0.838,3.626c0.058,0.585,0.953,0.407,0.896-0.174
		C629.55,61.669,629.173,60.432,628.831,59.259z"/>
      	<path fill="#FAFAE6" d="M628.02,51.927c0.293-0.486-0.479-0.927-0.796-0.443c-0.066,0.102-0.183,0.172-0.307,0.231
		c-0.019-0.018-0.036-0.036-0.054-0.054c-0.148-0.148-0.373-0.17-0.553-0.071c-0.661,0.362-0.74,1.162-0.013,1.505
		c0.672,0.317,1.541,0.101,1.849-0.611C628.242,52.263,628.16,52.059,628.02,51.927z"/>
	<polygon fill="#332A1C" points="625.866,54.813 627.483,64.243 629.1,63.031 626.944,54.679"/>
</svg>