<svg xmlns="http://www.w3.org/2000/svg" width="22" height="22" viewBox="0 0 22 22">
	<path d="M20.658,9.26l0.006-0.007l-9-8L11.658,1.26C11.481,1.103,11.255,1,11,1 c-0.255,0-0.481,0.103-0.658,0.26l-0.006-0.007l-9,8L1.342,9.26C1.136,9.443,1,9.703,1,10c0,0.552,0.448,1,1,1 c0.255,0,0.481-0.103,0.658-0.26l0.006,0.007L3,10.449V20c0,0.552,0.448,1,1,1h5v-8h4v8h5c0.552,0,1-0.448,1-1v-9.551l0.336,0.298 l0.006-0.007C19.519,10.897,19.745,11,20,11c0.552,0,1-0.448,1-1C21,9.703,20.864,9.443,20.658,9.26z M7,16H5v-3h2V16z M17,16h-2 v-3h2V16z"/>
</svg>