<?xml version="1.0" encoding="iso-8859-1"?>
<!-- Generator: Adobe Illustrator 25.1.0, SVG Export Plug-In . SVG Version: 6.00 Build 0)  -->
<svg version="1.1" id="Layer_1" xmlns="http://www.w3.org/2000/svg" xmlns:xlink="http://www.w3.org/1999/xlink" x="0px" y="0px"
	 width="720px" height="623.857px" viewBox="0 0 720 623.857" enable-background="new 0 0 720 623.857" xml:space="preserve">
<path d="M716.183,350.18c-2.225-6.737-7.366-10.256-15.71-10.746c0.067-0.085,0.124-0.16,0.174-0.226
	c0.094-0.123,0.19-0.249,0.223-0.266l0.744-0.173c3.297-0.758,7.032-1.616,7.09-6.095c0.06-4.637-3.657-6.642-7.469-8.298
	c-2.193-0.951-3.965-1.153-5.419-0.617c-3.729,1.378-7.585,1.207-11.312,1.043c-1.241-0.055-2.522-0.111-3.789-0.111
	c-0.101,0-0.2,0-0.299,0.001c-3.307,0-5.583-0.958-7.596-3.193c-2.232-2.478-4.543-4.958-6.779-7.356
	c-3.574-3.834-7.269-7.799-10.724-11.848c-9.971-11.684-22.975-18.346-39.754-20.365l-0.766-0.092
	c-7.248-0.866-14.094-1.684-19.916-7.468c-3.327-3.305-8.327-3.85-13.163-4.377c-1.301-0.142-2.646-0.289-3.907-0.488
	c-5.112-0.807-7.622-3.043-8.662-7.717c-1.22-5.478-3.52-10.668-5.744-15.686c-0.578-1.305-1.155-2.608-1.716-3.917
	c-1.7-3.977-2.517-7.918-2.5-12.048c0.024-5.268-0.031-10.627-0.084-15.809c-0.099-9.662-0.201-19.654,0.199-29.457
	c0.701-17.208-4.838-35.456-15.597-51.384c-11.178-16.547-27.203-29.135-45.124-35.443c-15.716-5.532-32.753-7.702-52.093-6.636
	c-12.044,0.665-24.277,0.3-36.109-0.053c-3.726-0.111-7.579-0.226-11.37-0.307c-2.713-0.058-3.587-1.467-4.179-3.882
	c-6.484-26.435-22.307-47.797-36.931-65.205c-7.241-8.62-16.162-14.983-26.515-18.914l-7.335-0.014l-0.062,0.052
	c-8.006,6.709-10.225,16.345-11.676,24.851c-4.764,27.922-0.68,56.241,12.138,84.17c0.264,0.573,0.511,1.173,0.75,1.753
	c0.551,1.336,1.119,2.717,1.937,3.913c9.566,13.988,10.308,30.104,11.025,45.688c0.142,3.073,0.288,6.251,0.5,9.364
	c0.035,0.522-0.075,1.076-0.181,1.613l-0.02,0.104c-0.049,0.248-0.149,0.496-0.264,0.783c-0.035,0.087-0.071,0.176-0.107,0.27
	c-1.56-0.483-2.069-1.723-2.606-3.033c-0.102-0.247-0.203-0.493-0.311-0.732c-8.457-18.753-19.513-33.699-33.8-45.692
	c-4.28-3.594-7.342-7.596-9.361-12.234c-0.887-2.037-2.302-3.906-3.699-5.624c-1.55-1.908-3.047-2.608-4.454-2.091
	c-1.294,0.478-0.968,1.459-0.706,2.247c0.198,0.598,0.386,1.165,0.116,1.656c-0.631-0.393-1.267-0.812-1.886-1.22
	c-1.57-1.035-3.193-2.104-4.933-2.888c-0.246-0.111-0.493-0.225-0.742-0.34c-2.6-1.206-5.546-2.574-8.495,0.338
	c-0.73,0.722-1.737,0.497-2.805,0.258c-0.448-0.1-0.913-0.204-1.353-0.23c-1.064-0.063-2.146-0.265-3.191-0.459
	c-0.548-0.102-1.097-0.204-1.646-0.288c-1.751-0.268-3.137,0.462-3.906,2.056c-0.614,1.274,0.218,1.942,0.886,2.478
	c0.253,0.203,0.491,0.395,0.663,0.61c0.436,0.547,0.915,1.042,1.422,1.566c0.166,0.17,0.332,0.342,0.498,0.519
	c-0.69,0.426-1.533,0.486-2.351,0.543c-1.28,0.091-2.603,0.185-3.21,1.715c-0.464,1.171,0.392,1.58,1.08,1.909
	c0.522,0.25,1.018,0.487,1.183,0.985c-1.355,0.84-2.854,0.797-4.435,0.751c-0.526-0.015-1.069-0.03-1.598-0.01
	c-28.739,1.111-52.314,10.879-70.07,29.033c-7.413,7.579-13.955,16.252-20.282,24.639c-1.32,1.75-2.639,3.499-3.966,5.238
	c-8.004,10.494-10.719,23.458-13.114,34.895c-0.484,2.315-1.013,4.677-1.574,7.177c-0.244,1.092-0.499,2.228-0.766,3.429
	c-0.621-0.895-1.204-1.75-1.765-2.572c-1.308-1.918-2.544-3.729-3.85-5.433c-5.958-7.763-13.775-13.612-21.335-19.269
	c-2.668-1.996-5.427-4.061-8.062-6.178c-1.6-1.286-3.251-2.563-4.849-3.798c-2.232-1.726-4.54-3.511-6.742-5.346
	c-5.077-4.23-8.869-9.809-11.592-17.057c-7.934-21.117-16.743-39.198-26.929-55.276c-2.642-4.172-5.508-7.701-8.76-10.788
	c-6.134-5.823-9.649-6.044-16.349-1.036c-8.405,6.282-14.298,15.133-19.105,28.701c-1.621,4.576-2.654,9.496-3.566,13.838
	c-1.198,5.708-0.03,10.56,3.571,14.832c1.722,2.043,3.35,4.228,4.925,6.342c1.758,2.36,3.577,4.8,5.536,7.058
	c1.341,1.545,1.88,2.739,1.695,3.758c-0.184,1.016-1.122,1.952-2.953,2.946c-1.736,0.942-3.399,2.074-5.006,3.169
	c-1.183,0.805-2.406,1.638-3.647,2.387c-2.54,1.533-4.516,3.222-6.041,5.163l-0.048,0.061v10.998l0.153,0.051
	c0.685,0.231,0.733,0.683,0.754,1.403c0.007,0.223,0.014,0.454,0.055,0.674c4.677,24.851,17.229,45.353,36.298,59.291
	c16.317,11.925,37.145,18.837,58.649,19.462c7.839,0.227,15.552-1.139,23.018-2.462c3.784-0.67,7.697-1.363,11.572-1.838
	l0.168-0.021c2.344-0.288,3.892-0.482,4.322,2.516c1.399,9.787,8.884,13.758,15.249,16.124c4.639,1.724,9.528,2.733,14.256,3.709
	c1.028,0.212,2.057,0.425,3.083,0.644l0.236,0.05c0.96,0.202,1.718,0.362,1.979,0.857c0.194,0.371,0.117,0.961-0.235,1.803
	c-2.667,6.375-2.234,12.742-1.392,20.403c0.991,9.01,1.471,18.517-4.38,27.002c-1.484,2.152-2.265,4.819-3.021,7.398l-0.146,0.498
	c-6.441,21.878-6.627,44.315-0.566,68.59c2.586,10.362,8.306,18.818,17,25.13c1.905,1.383,3.764,3.142,3.11,5.698
	c-0.431,1.681-1.88,1.815-3.415,1.958c-0.448,0.042-0.913,0.085-1.33,0.172c-4.45,0.929-6.509,3.011-6.482,6.552
	c0.029,3.628-1.395,6.561-4.618,9.51c-3.242,2.969-4.498,6.913-3.84,12.056c0.189,1.476,0.711,3.526,3.058,4.288
	c1.904,0.621,3.596,0.07,5.021-1.639c0.834-1,1.659-2.035,2.456-3.036c0.849-1.065,1.726-2.166,2.615-3.225l0.128-0.152
	c1.071-1.28,2.089-2.49,3.95-1.642c-0.426,1.745-1.577,3.085-2.691,4.382l-0.215,0.25c-1.829,2.139-3.67,4.267-5.511,6.396
	c-2.993,3.46-6.087,7.037-9.077,10.602c-4.244,5.06-9.368,11.982-11.339,20.66l-0.168,0.752c-0.981,4.389-1.828,8.18-7.182,9.461
	c-2.333,0.558-3.757,3.09-5.015,5.324l-0.159,0.282c-1.261,2.232-2.466,4.228-3.687,6.102c-1.968,3.026-2.588,5.407-1.895,7.279
	c0.694,1.874,2.717,3.279,6.185,4.294c0.512,0.15,1.042,0.275,1.556,0.397c1.692,0.4,3.29,0.777,4.496,1.987
	c6.763,6.786,15.424,9.313,27.247,7.956c2.149-0.247,4.327-0.591,6.432-0.924c5.993-0.947,12.188-1.926,18.383-0.76
	c4.626,0.871,9.374,1.032,13.409,1.076c3.568,0.032,6.501-1.071,8.546-3.208c2.105-2.198,3.11-5.324,2.908-9.039
	c-0.122-2.23,0.105-3.775,1.618-5.068c11.822-10.096,22.036-15.452,33.118-17.367c7.455-1.288,15.121-1.345,22.534-1.401
	c4.767-0.035,9.696-0.073,14.524-0.436c8.534-0.637,14.386,3.253,20.569,9.297c5.356,5.235,5.963,12.287,1.625,18.864
	c-0.638,0.969-1.431,1.87-2.198,2.741c-0.401,0.456-0.802,0.911-1.185,1.38c-2.022,2.469-2.852,5.114-2.398,7.649
	c0.449,2.514,2.124,4.686,4.843,6.283c6.439,3.78,12.546,4.327,18.145,1.625c8.861-4.276,16.552-3.775,24.202,1.573
	c4.752,3.321,10.128,3.228,14.035-0.24c5.588-4.963,11.977-5.76,18.048-5.883c1.346-0.027,2.706-0.206,4.019-0.378
	c1.017-0.134,2.07-0.272,3.104-0.338c4.582-0.293,6.911-2.118,7.554-5.919c1.027-6.072-0.441-9.938-4.49-11.819
	c-1.312-0.61-2.031-1.219-2.262-1.917c-0.279-0.837,0.119-1.845,0.85-3.2c4.498-8.337,5.112-17.154,1.876-26.954
	c-2.729-8.266-7.156-15.769-11.436-23.024c-1.22-2.067-2.48-4.204-3.682-6.325c-4.047-7.143-5.958-14.349-5.841-22.031
	c0.219-14.39-1.911-28.316-4.024-40.041c-4.102-22.762-15.082-42.218-25.284-58.247c-6.221-9.776-8.799-20.166-7.88-31.766
	c1.017-12.828-0.01-22.968-3.233-31.914c-0.944-2.619-0.589-3.758,1.579-5.078c4.443-2.704,7.06-6.624,7.774-11.653
	c0.359-2.522,0.907-5.052,1.486-7.731c0.245-1.134,0.498-2.304,0.749-3.527c8.377,9.323,16.517,15.642,25.589,19.865
	c2.396,1.115,3.381,3.127,3.195,6.522c-1.21,22.216-2.44,44.43-3.673,66.644c-1.139,20.495-1.88,40.567,1.503,60.797
	c3.52,21.057,11.044,34.554,24.396,43.762c1.992,1.374,4.052,2.796,6.706,1.165c2.724-1.674,2.579-4.373,2.149-6.538
	c-1.468-7.384-1.136-8.146,5.086-11.64c2.946-1.654,3.82-3.695,2.923-6.823c-0.673-2.344-1.22-4.769-1.75-7.114
	c-0.186-0.823-0.372-1.646-0.563-2.467c1.618,1.409,2.751,3.064,3.918,5.074c5.132,8.848,5.874,9.175,15.89,7.005
	c10.943-2.37,21.319-6.756,31.353-10.998c3.292-1.391,6.695-2.83,10.069-4.177l0.684-0.02l-0.215,0.664
	c-0.73,3.338-1.453,6.679-2.176,10.02c-1.576,7.29-3.206,14.829-4.9,22.222c-4.713,20.55-9.421,42.647-11.937,65
	c-0.038,0.33-0.08,0.662-0.123,0.996c-0.402,3.16-0.818,6.424,2.833,8.616c-0.475,0.206-0.94,0.395-1.393,0.578
	c-1.213,0.492-2.359,0.957-3.361,1.629c-0.613,0.41-1.281,0.812-1.929,1.2c-2.663,1.599-5.415,3.252-6.102,6.39
	c-1.692,7.727-0.04,13.894,4.909,18.329c4.59,4.112,8.803,7.522,12.884,10.423c9.658,6.869,20.975,9.646,33.636,8.259
	c10.449-1.145,21.295-3.698,35.166-8.278c3.517-1.161,5.671-1.233,6.776-0.227c1.106,1.009,1.231,3.172,0.393,6.809
	c-1.87,8.107,0.573,13.445,7.919,17.308c6.327,3.327,13.167,5.532,19.615,7.421c5.626,1.648,11.164,2.799,17.026,4.018l1.823,0.379
	c1.506,0.315,3.042,0.472,4.566,0.472c1.524,0,3.037-0.157,4.493-0.473c1.554-0.335,3.09-0.659,4.615-0.981
	c3.685-0.776,7.165-1.51,10.757-2.376c13.538-3.267,25.416-9.455,38.433-16.609c3.712-2.039,5.899-5.491,6.326-9.981
	c1.252-13.154,1.838-24.202,0.637-35.368c-0.561-5.205,1.461-9.741,6.01-13.482c0.875-0.72,1.749-1.479,2.593-2.213
	c2.159-1.876,4.392-3.815,6.843-5.266c5.831-3.45,8.468-8.853,8.063-16.517c-0.303-5.719,1.879-9.941,7.074-13.688
	c2.827-2.038,5.469-4.425,8.023-6.733l0.885-0.8c3.688-3.323,5.027-7.341,4.213-12.644c-0.476-3.101-0.935-6.205-1.393-9.307
	c-2.311-15.627-4.7-31.786-9.361-47.286c-3.978-13.226-8.919-28.471-17.232-42.013c-0.857-1.396-1.125-2.364-0.817-2.96
	c0.31-0.601,1.241-0.934,2.932-1.049c5.937-0.407,11.787,0.564,17.393,2.876c3.404,1.404,6.568,2.017,9.654,1.884
	c2.731-0.12,4.652-1.34,5.555-3.528c0.943-2.29,0.516-4.522-1.237-6.456c-2.17-2.395-4.343-4.787-6.537-7.204l-2.375-2.614
	c1.859-1.687,3.721-0.989,5.544-0.307c4.119,1.543,7.42,0.629,10.096-2.793l0.047-0.061v-12.63L716.183,350.18z"/>
<g>
	<path fill="#B99AC8" d="M132.532,257.679c-3.476,2.723-7.032,4.211-10.646,5.445c-5.76,1.966-11.613,3.66-17.43,5.459
		c-8.259,2.554-16.557,1.818-24.744-0.13c-31.483-7.491-54.517-25.059-66.376-55.932c-3.025-7.876-3.928-16.169-5.379-24.358
		c-0.44-2.482,1.133-4.18,3.193-5.425c4.459-2.695,8.873-5.468,13.358-8.118c2.771-1.637,3.302-3.367,1.169-6.071
		c-4.619-5.853-8.998-11.894-13.537-17.811c-1.781-2.322-3.196-4.788-2.718-7.781c2.307-14.453,6.136-28.262,17.131-38.895
		c0.75-0.725,1.541-1.417,2.369-2.051c6.559-5.024,10.327-4.651,15.615,1.682c12.17,14.574,20.169,31.517,27.486,48.82
		c7.752,18.331,14.156,37.203,22.226,55.412C102.909,227.46,114.561,244.662,132.532,257.679z"/>
	<path fill="#B99AC8" d="M356.872,166.062c-5.632-10.647-10.929-21.096-16.62-31.326c-11.702-21.034-19.792-43.304-22.703-67.226
		c-2.058-16.91-3.144-33.907,2.077-50.576c0.177-0.566,0.373-1.129,0.588-1.682c3.303-8.49,6.661-9.773,14.651-5.659
		c9.471,4.877,17.113,12.06,23.918,19.997c14.615,17.049,24.948,36.551,31.873,57.905c0.872,2.688,0.646,3.513-2.369,3.836
		c-5.323,0.57-10.7,1.285-15.851,2.687c-15.041,4.094-24.495,17.954-23.762,34.288c0.511,11.404,1.684,22.614,9.106,32.089
		C359.001,161.954,358.706,162.734,356.872,166.062z"/>
</g>
<g>
	<path fill="#E8253F" d="M194.736,257.036c1.167,0.219,2.329,0.474,3.503,0.649c6.39,0.953,7.697,0.336,10.256-5.672
		c1.336-3.137,2.528-2.922,4.698-0.718c5.706,5.796,8.448,5.711,14.15-0.035c5.138-5.177,6.069-5.108,10.572,0.84
		c1.708,2.256,3.254,4.651,5.111,6.775c1.716,1.963,1.446,3.304-0.109,5.347c-2.254,2.961-3.68,3.622-6.606,0.515
		c-4.166-4.424-7.305-4.239-12.113-0.44c-6.367,5.031-6.937,5.02-12.711-0.244c-4.76-4.34-6.588-4.384-11.497-0.279
		c-3.327,2.782-7.033,1.806-8.256-2.314C191.002,258.997,191.238,256.864,194.736,257.036z"/>
	<path fill="#E8253F" d="M689.893,432.729c-2.284-5.673-4.131-11.522-6.41-17.197c-4.05-10.087-6.982-20.682-13.237-29.787
		c-0.554-0.806-0.827-2.24-2.089-2.049c-1.286,0.194-1.753,1.529-2.121,2.639c-0.277,0.833-0.287,1.764-0.348,2.657
		c-0.429,6.297-3.42,10.818-8.842,14.157c-5.663,3.487-11.183,7.269-16.203,11.937c1.84,1.145,3.114,0.119,4.45-0.34
		c4.154-1.424,7.609-4.074,11.256-6.394c1.351-0.859,2.771-2.195,4.476-1.115c1.897,1.202,1.319,3.22,0.927,4.913
		c-2.811,12.13-7.36,23.429-16.949,31.892c-10.679,9.426-22.689,14.84-37.379,11.239c-11.809-2.895-19.589-10.908-26.226-20.407
		c-11.252-16.105-12.848-34.356-11.668-53.176c0.383-6.106,0.894-12.224,2.825-18.107c0.698-2.126,1.181-5.106,3.308-5.47
		c2.572-0.44,3.799,2.57,4.941,4.539c1.714,2.954,2.864,6.23,4.435,9.275c2.93,5.681,4.822,11.947,9.229,16.803
		c1.087,1.198,2.43,2.683,4.198,1.76c1.827-0.955,1.012-2.902,0.803-4.46c-0.116-0.866-0.588-1.683-0.886-2.527
		c-2.537-7.177-5.484-14.242-7.494-21.565c-2.134-7.772-7.302-13.191-12.507-18.749c-1.482-1.582-2.56-1.017-3.598,0.433
		c-0.869,1.214-1.695,2.461-2.603,3.646c-5.77,7.529-12.947,9.048-21.243,4.406c-3.634-2.033-7.444-3.9-10.671-6.474
		c-4.156-3.314-9.231-5.484-13.278-10.133c3.262,0.187,5.414,1.315,7.24,2.742c6.048,4.727,13.258,7.198,20.048,10.424
		c5.594,2.657,11.017,0.812,13.801-3.62c1.096-1.745,0.913-2.775-1.16-3.174c-3.185-0.613-6.383-1.157-9.713-1.755
		c-0.193,2.403,1.107,4.003,1.514,5.838c0.216,0.973,1.084,2.197-0.108,2.794c-1.246,0.624-2.284-0.495-2.956-1.461
		c-0.577-0.829-0.854-1.878-1.206-2.851c-4.122-11.413-4.339-22.905,0.193-34.172c6.637-16.501,15.661-30.66,35.683-33.04
		c-0.657-0.287-1.288-0.696-1.975-0.844c-12.831-2.768-25.671-5.493-38.504-8.251c-12.858-2.764-23.232,1.018-31.063,11.659
		c-8.938,12.144-17.922,24.253-26.857,36.399c-8.768,11.92-19.945,15.505-32.45,10.182c-8.864-3.774-14.465-10.346-16.206-19.946
		c-0.592-3.263-1.488-4.367-4.241-1.379c-1.37,1.487-3.336,2.492-5.161,3.474c-1.549,0.833-2.111,1.671-1.65,3.53
		c1.135,4.581,2.748,8.948,5.018,13.981c1.457-3.692,0.142-6.833,0.846-9.856c1.073,0.643,1.554,1.516,1.83,2.51
		c2.332,8.404,4.752,16.786,6.924,25.231c0.752,2.925,2.315,4.683,5.078,5.683c8.138,2.943,16.189,6.143,24.408,8.836
		c2.589,0.848,6.382,4.281,7.919,1.235c1.54-3.054-2.851-5.448-5.469-7.138c-4.914-3.171-10.72-4.429-16.097-6.622
		c-2.822-1.151-7.624-1.779-7.588-4.513c0.052-3.873,4.805-4.721,8.198-5.742c14.607-4.393,29.255-3.848,43.717,0.473
		c12.016,3.59,23.291,8.824,31.243,19.053c11.538,14.841,12.272,40.086,1.857,56.739c-4.132,6.607-9.416,11.981-17.061,14.485
		c-1.99,0.652-4.194,1.284-6.004-0.111c-1.976-1.523-1.249-3.732-0.817-5.818c0.787-3.801,1.549-7.614,2.105-11.453
		c0.35-2.412,0.77-4.927-0.712-8.143c-0.963,3.83-1.796,6.783-2.442,9.775c-1.813,8.412-4.841,16.105-12.976,20.376
		c-2.968,1.559-5.682,2.968-5.923,7.021c-1.792-2.682-3.904-4.773-4.648-7.748c-0.498-1.992-2.244-2.86-3.989-2.873
		c-1.743-0.012-1.61,1.932-1.869,3.132c-0.692,3.205-1.195,6.451-1.751,9.685c-4.1,23.829-11.22,47.023-14.84,70.959
		c-1.36,8.995-3.163,17.922-4.16,26.977c-0.353,3.213,1.195,5.013,4.172,5.098c3.561,0.102,2.212-2.936,2.225-4.658
		c0.083-10.734-0.755-21.502,2.455-32.02c2.014-6.598,4.472-12.976,7.983-18.918c0.682-1.155,1.701-2.474,3.142-2.145
		c1.517,0.347,1,1.989,0.911,3.075c-0.242,2.974-0.761,5.927-0.988,8.901c-0.405,5.327-1.166,10.681,0.456,15.989
		c1.82-6.771,3.172-13.578,4.608-20.367c5.212-24.636,29.252-40.694,54.025-36.108c1.46,0.27,3.06,0.36,3.58,2.165
		c0.568,1.974-0.682,3.04-2.069,4.033c-2.422,1.732-4.646,3.66-7.103,7.072c3.29-1.716,5.58-2.772,7.734-4.055
		c12.67-7.544,22.755-4.912,29.968,7.854c1.629,2.882,2.793,5.915,3.527,9.15c1.281,5.647-0.028,10.504-3.628,15.056
		c-2.167,2.741-5.102,5.105-5.705,8.89c0.001,0.001,0.002,0.002,0.003,0.003c-0.146,0.244-0.478,0.606-0.412,0.706
		c0.342,0.519,0.72,0.354,1.031-0.091c3.791-1.186,6.398-4.243,9.725-6.186c3.156-1.844,4.427-0.848,4.643,2.417
		c0.493,7.44-1.521,14.443-3.41,21.551c-3.214,12.088-10.797,19.556-22.491,23.348c-7.569,2.454-15.415,3.49-23.18,4.971
		c-2.169,0.414-6.038-0.501-5.862,2.322c0.178,2.869,4.009,2.861,6.69,2.923c1.787,0.041,3.582-0.09,5.369-0.212
		c4.618-0.315,9.231-0.728,13.853-0.969c1.384-0.072,3.246-0.664,3.889,1.253c0.623,1.856,0,3.571-1.638,4.735
		c-2.189,1.556-4.425,3.046-6.66,4.537c-4.017,2.681-8.048,5.341-12.868,8.537c7.513,2.823,14.195,3.564,20.88,3.621
		c20.948,0.176,39.973-6.941,58.955-15.014c10.812-4.599,18.549-10.859,21.386-22.399c0.62-2.522,2.734-4.611,2.407-7.412
		c-1.126-0.207-1.628,0.355-2.197,0.829c-1.775,1.478-3.532,4.386-5.9,2.943c-2.091-1.275-1.854-4.474-1.694-7.024
		c0.037-0.591,0.21-1.174,0.323-1.76c1.291-6.74,2.77-13.451,3.837-20.226c2.415-15.343,10.715-26.27,24.397-33.301
		c4.399-2.261,9.055-3.876,13.769-5.322c2.033-0.624,4.431-1.106,4.119-3.798c-0.285-2.459-2.56-3.153-4.726-3.337
		c-5.027-0.426-9.75,0.917-14.418,2.62c-1.724,0.629-3.88,2.215-5.316,0.333c-1.073-1.407,0.13-3.421,1.052-4.98
		c7.353-12.432,17.204-21.76,31.748-24.985C690.797,436.697,690.981,435.431,689.893,432.729z"/>
</g>
<path fill="#7CCDE9" d="M222.298,326.385c-0.913,6.214-2.078,12.39-2.995,18.604c-0.273,1.852-0.074,3.565,1.203,5.372
	c10.066,14.257,17.441,29.785,21.441,46.84c2.349,10.014,4.909,19.968,3.433,30.449c-0.706,5.012-3.89,8.967-5.477,14.267
	c6.607-0.17,11.776,1.198,14.483,7.466c0.978,2.265,2.556,1.327,3.532-0.493c0.765-1.428,0.493-2.838,0.18-4.343
	c-1.595-7.65-2.261-15.335-0.66-23.091c3.689-17.877,11.078-34.254,20.546-49.705c4.613-7.528,5.078-14.563,0.244-22.15
	c-3.112-4.883-6.511-9.938-8.051-15.403c-4.799-17.029-6.231-20.74,10.597-26.876c0.699-0.255,1.384-0.55,2.078-0.817
	c2.945-1.133,5.891-2.263,9.614-3.692c-1.961-0.694-2.913-1.03-4.249-1.503c4.623-2.626,9.178-1.871,13.601-1.946
	c5.973-0.101,11.948-0.084,17.922-0.138c3.052-0.028,4.5-1.849,5.168-4.614c0.804-3.326-1.805-3.598-3.826-4.294
	c-8.443-2.909-16.902-5.772-25.365-8.625c-23.698-7.99-47.986-11.585-73.042-10.757c-24.029,0.795-47.878,4.507-71.96,4.118
	c-2.598-0.042-4.851,1.105-5.492,3.049c-0.699,2.119,1.779,3.619,3.506,4.567c5.642,3.096,11.771,4.973,17.988,6.566
	c12.828,3.287,25.987,5.32,38.448,9.993c4.499,1.687,9.033,3.409,12.375,7.428c-2.348-0.681-4.695-1.363-8.038-2.333
	c2.312,2.011,3.575,3.57,5.151,4.989C219.614,313.782,223.364,319.131,222.298,326.385z M242.814,313.505
	c-2.891,2.346-5.494,3.897-8.377,5.879c-0.837,0.575-1.923,1.757-2.44,2.907c0.574-0.072,1-0.047,1.361-0.188
	c0.542-0.212,5.989-2.43,8.296-3.268c-1.487,5.457-5.313,9.182-7.762,14.85c2.821-1.696,4.742-2.85,6.805-4.089
	c0.553,1.968-0.099,3.416-0.579,4.952c-0.548,1.749-2.769,4.017,1.179,4.886c0.77,0.17,0.576,1.573,0.446,2.465
	c-0.374,2.571-0.164,5.054,1.115,7.37c0.934,1.691,0.546,3.179-0.744,4.458c-0.72,0.714-1.569,1.775-2.623,1.232
	c-0.617-0.318-0.948-1.466-1.13-2.302c-0.391-1.801,0.981-4.452-3.201-3.644c-1.768,0.342-1.853-2.949-1.634-4.868
	c0.199-1.746,0.631-3.465,1.078-5.818c-2.579,1.552-4.673,2.812-7.126,4.288c-0.8-6.162,2.736-10.544,5.059-15.417
	c-1.659-0.298-2.551,0.963-3.76,1.337c-1.319,0.408-2.682,1.97-3.988,0.282c-1.005-1.298,0.079-2.481,0.748-3.642
	c3.193-5.537,8.287-8.838,13.727-11.732c0.514-0.273,1.117-0.458,1.693-0.507C241.358,312.902,241.786,313.172,242.814,313.505z
	 M205.81,292.936c-4.687,0.49-9.104-0.32-13.404-4.762c16.742,1.829,32.018-3.09,47.562-2.688c0.052,0.382,0.103,0.764,0.155,1.146
	c-7.469,1.458-14.931,2.952-22.41,4.359C213.762,291.734,209.802,292.519,205.81,292.936z M298.574,510.594
	c-26.801,5.924-52.453,2.549-76.386-11.428c-1.79-1.045-3.567-2.211-5.079-3.614c-2.774-2.574-2.748-5.432-0.237-8.258
	c0.198-0.223,0.412-0.434,0.635-0.633c2.542-2.275,4.911-6.244,7.857-6.041c2.093,0.144,0.825,5.241,1.785,8.02
	c0.837,2.425,1.711,4.8,3.336,6.767c2.41,2.917,5.569,2.312,6.814-1.28c1.103-3.182,0.692-6.521,0.57-9.785
	c-0.123-3.287,0.903-5.804,3.742-7.559c2.548-1.576,3.68-4.204,4.888-6.762c4.65,3.293,5.176,5.497,1.884,10.154
	c-3.022,4.275-5.278,8.659-4.197,14.1c0.326,1.643,0.728,3.392,2.588,3.814c1.637,0.371,2.819-0.838,3.744-2.027
	c1.739-2.236,3.651-4.404,4.989-6.873c3.123-5.763,8.425-8.102,14.231-9.941c1.777-0.563,2.22-0.271,2.472,1.565
	c0.385,2.798,1.275,5.486,2.851,7.922c1.384,2.139,0.741,4.246-0.357,6.34c-1.66,3.163-3.415,6.3-4.756,9.6
	c-1.427,3.514,0.176,5.497,3.979,5.246c4.423-0.292,7.437-2.725,9.479-6.533c1.688-3.147,3.275-6.358,5.138-9.399
	c1.304-2.13,3.138-3.684,5.974-2.563c2.898,1.145,4.184,3.213,3.618,6.331c-0.292,1.609-0.754,3.201-0.886,4.822
	c-0.327,4.013,1.741,5.479,5.389,3.719c3.445-1.663,5.662-4.63,6.073-8.332c0.392-3.528,1.771-6.3,4.299-8.542
	c3.591-3.184,4.028-6.849,1.752-10.834c-2.068-3.62-0.998-5.762,2.295-8.094c13.229-9.368,19.235-23.048,22.362-38.414
	c0.843-4.142,1.477-8.432,3.773-12.621c5.537,5.851,8.042,12.674,8.735,20.01C354.925,471.201,330.888,503.452,298.574,510.594z
	 M299.285,236.18c7.334-0.235,13.389-0.994,19.07-3.533c12.187-5.445,15.197-12.017,11.367-24.532
	c-2.478-8.096-3.291-16.243,1.228-23.845c2.624-4.415,2.274-8.381,0.21-12.684c-6.245-13.024-14.542-24.637-24.246-35.265
	c-3.948-4.324-8.49-7.946-13.868-10.419c-7.853-3.61-15.123-1.734-20.058,5.302c-2.83,4.035-5.064,8.417-7.164,12.87
	c-7.53,15.965-10.519,33.128-13.532,50.319c-0.957,5.461-0.5,10.618,2.506,15.003C265.771,225.408,280.624,235.102,299.285,236.18z
	 M262.171,210.915c5.146,5.017,10.74,9.367,17.451,12.263C271.614,224.14,264.484,219.165,262.171,210.915z M285.979,135.175
	c5.441-0.979,10.748,1.733,14.659,8.115c-7.488-4.489-14.212-5.819-21.779-0.897C279.736,137.123,282.661,135.772,285.979,135.175z
	 M257.703,188.231c3.141-13.872,8.51-26.472,17.808-37.048c10.612-12.069,17.868-14.45,30.88-1.167
	c11.274,11.509,17.521,25.84,19.328,41.871c1.742,15.457-11.932,29.139-30.266,29.156c-10.326-0.707-20.352-5.66-30.16-12.122
	C257.084,203.513,255.618,197.441,257.703,188.231z M156.867,234.445c-4.137,5.169-7.361,11.281-12.174,16.104
	c-0.648,0.65-1.28,2.123-2.398,1.367c-0.703-0.475-1.149-1.826-1.141-2.779c0.065-7.736-0.618-15.502,0.851-23.191
	c0.312-1.633,0.329-3.198,2.59-1.45c3.479,2.689,6.759,1.503,9.719-0.981c2.585-2.168,5.001-4.537,7.49-6.819
	c0.649,2.92-1.89,5.185-2.983,6.641c-0.757,1.009-1.579,2.798-2.497,4.385c4.991-1.447,12.378-9.889,12.031-14.706
	c-0.282-3.914,1.384-6.878,2.681-10.112c1.488-3.711,3.195-7.333,5.317-12.153c0.07,5.673,0.883,10.24-1.532,14.611
	C169.312,215.342,164.125,225.376,156.867,234.445z M174.208,168.24c-4.058-4.462-1.489-7.725,1.192-11.175
	c3.677-4.732,7.76-9.05,12.538-12.724c2.37-1.823,3.585-0.677,3.141,1.485c-1.931,9.388-1.684,19.417-7.627,27.693
	c-2.682,3.734-4.699,7.799-6.337,13.341c-0.363-4.618-0.653-8.003-0.888-11.393C176.049,172.898,175.796,169.986,174.208,168.24z"/>
<g>
	<path fill="#F3B88D" d="M505.477,566.512c-10.166-5.635-20.41-11.13-30.544-16.82c-5.122-2.876-9.516,0.054-14.079,1.429
		c-0.381,0.115-0.661,0.283-0.866,0.491c-0.791,0.797-1.331,3.057,0.056,3.609c2.835,1.127,5.263-3.546,8.659-2.059
		c-3.074,2.166-4.566,3.222-5.064,4.173c-0.473,0.906-0.952,2.93,0.806,3.3c4.895,1.027,3.94-3.081,6.836-2.638
		c-0.643,0.772-1.233,1.422-1.755,2.122c-1.217,1.631-3.179,3.263-0.671,5.285c2.865,2.31,3.022-1.116,4.069-2.202
		c1.971-2.044,3.53-4.693,7.403-2.553c-1.507,0.994-2.629,1.698-3.713,2.457c-1.853,1.297-2.293,3.089-1.492,5.117
		c0.665,1.684,2.074,2.385,3.86,2.595c2.738,0.322,2.139-2.054,2.631-3.32c1.89-4.865,5.703-7.183,11.162-6.136
		c-1.572,1.859-3.438,2.055-4.982,2.818c-1.739,0.859-3.002,1.983-3.001,4.04c0.001,2.231,0.754,4.109,2.893,5.143
		c1.906,0.921,3.88,1.299,6.055,1.2c3.869-0.176,7.752-0.02,11.629-0.052c1.694-0.014,3.965,1.703,4.931-0.163
		c1.015-1.959-0.839-3.892-2.14-5.494C507.421,567.941,506.496,567.077,505.477,566.512z"/>
	<path fill="#F3B88D" d="M561.062,587.017c0.029,1.684-0.104,4.374-2.464,5.045c-1.622,0.461-6.978-3.844-6.643-5.17
		c0.733-2.905,2.943-1.664,4.795-1.6C558.48,585.352,561.007,583.86,561.062,587.017z M655.014,549.926
		c0.95,8.296,2.633,16.083,1.373,24.021c-0.529,3.331-2.829,5.847-5.659,7.723c-3.966,2.628-8.029,5.117-11.905,7.871
		c-2.116,1.503-3.133,1.039-4.517-1.017c-4.255-6.319-8.98-12.256-16.382-16.579C630.412,564.531,642.399,557.415,655.014,549.926z
		 M649.851,558.117c-1.385,4.148-3.645,7.41-7.112,10.583c4.401,1.312,6.578-0.655,8.16-3.667
		C652.137,562.676,652.384,560.382,649.851,558.117z M589.127,580.977c-2.243,0.761-4.662,0.994-6.987,1.524
		c-5.228,1.192-10.47,2.331-15.661,3.669c-2.336,0.602-3.35,2.398-2.967,4.818c0.391,2.464,1.646,4.079,4.342,4.298
		c2.514,0.205,3.324-1.172,3.766-3.383c0.853-4.262,4.589-4.533,7.77-5.528c-0.381,0.939-1.016,1.525-1.735,1.979
		c-1.97,1.243-3.858,2.574-3.034,5.311c0.685,2.274,2.721,3.073,4.756,3.662c3.028,0.877,2.778-2.076,3.668-3.459
		c2.19-3.404,4.118-6.966,9.247-6.816c-1.057,2.256-3.272,2.886-4.627,4.4c-1.361,1.521-2.25,3.169-1.089,5.259
		c1.014,1.826,2.611,3.241,4.554,3.186c2.065-0.058,1.736-2.423,2.272-3.859c1.869-5.009,4.213-6.64,9.402-6.309
		c-0.636,1.35-1.915,1.875-2.897,2.724c-1.701,1.472-4.521,2.603-2.525,5.658c1.808,2.767,4.465,3.838,7.276,1.859
		c3.774-2.657,7.918-3.265,12.745-3.089c-1.177-3.394-2.89-5.636-4.675-7.816C606.539,581.509,599.125,577.583,589.127,580.977z"/>
	<path fill="#F3B88D" d="M709.151,354.486c-1.534-1.768-3.545-2.629-5.912-2.777c-1.733-0.109-3.659,0.063-4.729-2.028
		c4.299-2.64,8.002-0.007,11.922,1.325c0.898-3.776-0.879-5.749-4.189-6.687c-1.715-0.486-3.467-0.868-5.223-1.179
		c-2.667-0.471-5.382-1.429-5.257-4.447c0.123-2.961,3.136-3.221,5.488-3.49c1.768-0.202,3.441-0.507,3.707-2.483
		c0.251-1.867-1.227-2.942-2.682-3.771c-3.074-1.75-6.313-1.208-9.593-0.688c-9.783,1.552-18.784,1.315-25.791-7.656
		c-4.375-5.602-10.078-10.169-15.193-15.192c-9.032-8.87-19.624-15.032-31.952-17.999c-9.412-2.265-18.931-4.094-28.314-6.463
		c-4.737-1.196-8.855-0.603-12.633,2.339c-13.009,10.129-20.67,23.36-22.363,39.784c-1.18,11.445-0.176,12.146,11.501,13.961
		c6.209,0.965,12.811,0.31,18.54,3.587c-0.321,1.824-2.666,0.437-2.963,2.181c6.304,7.298,14.14,11.849,23.507,13.814
		c11.014,2.311,21.377,6.393,31.419,11.41c2.686,1.342,4.335,2.886,3.882,6.173c-0.351,2.543,1.038,4.605,2.731,6.371
		c3.824,3.99,5.839,8.555,5.008,14.206c-0.467,3.17,1.234,4.289,4.232,4.087c4.393-0.296,7.099-3.329,7.859-9.313
		c0.597-4.701,1.938-8.898,6.975-10.458c7.239-2.242,14.554-3.181,21.948-0.479c3.496,1.277,7.029,2.472,10.599,3.523
		c2.504,0.737,4.515-0.592,5.716-2.556c1.241-2.028-1.243-2.613-2.163-3.715c-3.52-4.213-8.853-5.565-14.087-7.97
		c4.593-3.758,8.309-7.505,14.331-6.226c2.087,0.444,4.769,1.635,6.065-0.946C712.796,358.223,710.697,356.267,709.151,354.486z"/>
	<path fill="#F3B88D" d="M487.598,263.363c-1.491-0.089-2.985-0.117-4.477-0.187c-1.705-0.08-3.041-0.626-3.563-2.934
		c2.58,0.239,4.775,0.518,6.978,0.634c11.892,0.623,24.403-7.145,27.105-17.237c1.358-5.072,2.086-10.649-2.242-14.739
		c-4.292-4.056-9.562-2.789-14.31-0.69c-4.204,1.858-8.176,4.285-12.11,6.692c-1.855,1.135-2.863,1.179-4.315-0.683
		c-6.517-8.356-13.369-16.454-19.816-24.862c-15.008-19.571-19.423-41.173-11.927-64.928c0.92-2.917,1.726-5.87,2.753-9.383
		c-4.128,2.129-7.508,4.037-11.022,5.655c-10.987,5.059-20.792,11.67-28.595,21.052c-1.037,1.247-2.328,2.346-3.672,3.262
		c-3.79,2.585-6.894,1.519-8.192-2.951c-1.831-6.308-0.396-12.081,3.409-17.336c2.523-3.485,5.607-6.562,7.604-10.43
		c-1.258-0.753-2.2,0.213-3.16,0.722c-5.296,2.803-8.092,7.763-10.871,12.734c-0.793,1.419-1.531,3.236-3.479,2.963
		c-1.73-0.243-2.576-1.814-3.224-3.415c-1.844-4.558-2.217-9.254-1.479-14.067c0.303-1.974,0.778-3.934,0.326-6.374
		c-8.565,4.425-13.862,11.396-18.481,18.92c-5.167,8.416-8.498,17.703-12.122,26.84c-3.479,8.772-2.713,8.988-12.476,7.547
		c-7.478-1.103-12.533,2.231-13.806,8.887c-2.063,10.784-0.901,21.054,5.466,30.405c3.858,5.667,3.691,7.091-2.115,10.692
		c-3.95,2.451-4.299,4.485-1.487,8.209c2.499,3.309,5.629,6.576,5.938,11.207c-2.037,0.193-1.806-2.527-3.58-2.28
		c-3.595,4.968-3.591,7.388,0.983,9.971c5.775,3.261,9.895,8.015,13.947,13.031c18.1,22.412,41.637,31.403,70.09,28.253
		c10.232-1.133,20.487-2.073,30.742-2.989c1.601-0.143,3.618-0.955,4.739,1.34c-0.373,0.277-0.683,0.655-1.067,0.76
		c-0.709,0.194-1.46,0.289-2.197,0.317c-10.064,0.374-10.231,0.625-6.494,10.145c0.326,0.829,0.778,1.608,1.122,2.432
		c5.624,13.497,26.99,17.123,36.608,6.432c10.053-11.175,18.173-23.632,27.02-35.612c2.008-2.719,4.688-5.203,5.557-8.858
		c-5.756-0.781-11.496-1.317-15.908-4.806C497.465,264.274,492.673,263.665,487.598,263.363z M488.409,243.584
		c-0.123-0.553,0.509-1.366,0.949-1.936c3.434-4.457,14.968-7.31,20.816-4.956c-3.667,2.446-7.771,3.018-11.635,4.097
		c-3.246,0.906-4.996,2.689-5.714,5.993c-1.117,5.135-3.38,6.62-9.22,6.236C486.87,250.502,489.361,247.869,488.409,243.584z
		 M362.602,196.914c-2.397-3.955-4.794-7.911-7.694-12.697C361.172,186.912,363.018,191.278,362.602,196.914z M361.092,231.402
		c-2.464,1.418-4.528,0.472-6.781-2.399c5.969,0.307,8.707-3.66,11.736-8.891C366.301,225.807,364.859,229.234,361.092,231.402z
		 M403.453,200.729c-3.951,2.64-7.375,4.589-11.867,6.348C394.42,202.226,397.678,199.968,403.453,200.729z M385.832,221.798
		c3.723,2.283,5.176,5.438,6.904,9.559C388.623,228.929,386.186,226.472,385.832,221.798z M379.417,206.837
		c3.556,0.43,6.412,1.848,8.528,4.371c8.379,9.989,19.589,13.551,32.04,14.368c2.498,0.164,4.923,0.393,7.214,2.111
		C410.886,232.376,385.486,221.32,379.417,206.837z M436.516,186.367c-3.186-8.085-5.885-16.424-14.903-20.219
		c-1.836-0.773-1.231-2.099-0.15-3.175c2.595-2.585,5.291-1.494,7.706,0.144c3.848,2.608,5.955,6.646,7.784,10.742
		c3.082,6.904,3.877,14.313,4.117,21.876C438.492,193.076,437.778,189.57,436.516,186.367z"/>
</g>
<g>
	<path fill="#FAFAF9" d="M296.656,177.177c4.21-0.628,7.111-5.604,7.04-12.043c-0.186-6.703-2.235-12.619-7.719-16.836
		c-3.552-2.732-7.128-2.033-8.962,1.743c-2.754,5.669-3.559,11.706-1.904,17.829C286.713,173.796,292.008,177.871,296.656,177.177z"
		/>
	<path fill="#FAFAF9" d="M169.117,172.892c-0.365-1.667-0.845-3.916-3.588-2.143c-4.473,2.893-6.944,7.301-8.004,12.412
		c-0.365,1.758,0.295,3.376,2.793,2.463C163.649,184.405,169.039,176.871,169.117,172.892z"/>
	<path fill="#FAFAF9" d="M571.566,510.011c-1.978,1.225-3.458,0.091-4.774-1.125c-1.493-1.379,0.118-2.501,0.721-3.465
		c1.814-2.897,3.516-5.987,5.883-8.392c5.302-5.387,5.691-11.079,2.212-17.449c-0.78-1.428-1.281-3.005-1.999-4.47
		c-5.518-11.263-13.396-13.861-24.481-7.972c-4.204,2.233-8.286,4.695-12.41,7.075c-1.246,0.719-2.523,1.157-3.692,0.04
		c-1.583-1.513,0.277-2.365,0.9-3.263c2.974-4.292,6.757-7.849,11.249-11.405c-5.055-1.724-9.565-0.438-14.058-0.045
		c-20.741,1.816-32.883,11.923-38.483,32.035c-2.163,7.768-3.03,15.782-4.499,23.682c-0.495,2.663-0.132,5.774-3.101,7.882
		c-4.813-9.833-2.644-20.232-3.141-30.382c-7.611,14.913-9.959,30.578-7.463,47.046c0.596,3.933,2.665,6.298,6.143,8.095
		c13.349,6.898,26.667,13.864,39.858,21.057c15.532,8.471,12.698,6.588,25.116,0.141c4.327-2.246,9.47-3.639,12.32-8.87
		c-2.703-0.349-4.969-0.188-7.274,0.383c-6.864,1.699-13.579,1.067-20.171-1.419c-1.918-0.723-3.678-1.581-3.603-3.946
		c0.077-2.441,2.036-3.103,3.97-3.551c1.441-0.334,2.926-0.517,4.402-0.656c10.115-0.959,20.06-2.497,29.344-7.042
		c6.181-3.027,10.665-7.342,12.985-13.967c2.215-6.327,4.209-12.705,5.508-19.271c0.488-2.469,1.089-5.106-0.162-7.698
		C578.901,505.497,575.227,507.743,571.566,510.011z M549.918,496.121c-11.077,10.452-22.208,20.848-33.257,31.329
		c-6.83,6.478-13.288,13.306-19.064,20.765c-1.137,1.468-2.246,3.115-4.558,3.894c0.301-3.752,2.035-6.628,3.774-9.469
		c6.701-10.95,15.831-19.78,25.182-28.364c10.12-9.29,20.968-17.721,31.809-26.146c1.107-0.86,2.122-2.191,4.154-1.486
		C555.85,490.401,552.914,493.294,549.918,496.121z"/>
	<path fill="#FAFAF9" d="M649.905,434.881c0.706-0.989,1.38-2.001,2.021-3.033c2.244-3.615,4.085-7.48,5.505-11.458
		c0.203-0.568,0.397-1.139,0.583-1.711c0.742-2.29,1.346-4.611,1.808-6.935c0.032-0.163,0.037-0.332,0.021-0.513
		c-0.045-0.542-0.263-1.189-0.41-2.107c-0.654,0.438-1.311,0.86-1.969,1.267c-2.634,1.628-5.301,3.022-7.981,4.313
		c-2.01,0.969-4.029,1.88-6.048,2.789c-0.14,0.063-0.282,0.126-0.427,0.188c-1.878,0.81-4.092,1.49-5.473,0.165
		c-0.213-0.204-0.405-0.455-0.574-0.761c-0.415-0.753-0.42-1.403-0.177-1.976c0.049-0.115,0.107-0.226,0.174-0.334
		c0.134-0.217,0.304-0.422,0.497-0.618c0.483-0.488,1.117-0.913,1.74-1.3c0.374-0.232,0.743-0.45,1.073-0.66
		c0.52-0.33,1.039-0.661,1.557-0.995c3.627-2.336,7.218-4.802,10.862-7.967c-1.893-0.692-3.243-1.617-4.176-2.725
		c-0.373-0.443-0.68-0.915-0.927-1.413c-0.248-0.498-0.437-1.021-0.575-1.567c-0.139-0.546-0.226-1.114-0.272-1.701
		c-0.045-0.587-0.048-1.193-0.016-1.815c0.032-0.622,0.098-1.259,0.191-1.909c0.046-0.325,0.099-0.653,0.158-0.984
		c0.345-1.947,0.03-3.79-1.638-5.279c-3.501-3.126-6.046-6.826-7.169-11.333c-0.161-0.644-0.292-1.304-0.393-1.982
		c-0.081-0.546-0.25-0.997-0.485-1.369c-0.235-0.373-0.538-0.667-0.888-0.899c-0.35-0.232-0.748-0.403-1.173-0.528
		c-0.426-0.125-0.88-0.205-1.342-0.257c-0.412-0.046-0.741-0.017-1.005,0.069c-0.176,0.057-0.324,0.14-0.45,0.244
		c-0.126,0.103-0.229,0.227-0.315,0.366c-0.043,0.069-0.082,0.142-0.118,0.219c-0.071,0.152-0.129,0.318-0.179,0.49
		c-0.05,0.172-0.093,0.352-0.133,0.534c-0.081,0.364-0.155,0.737-0.269,1.077c-4.397,13.109-8.787,26.22-13.275,39.298
		c-1.234,3.594-2.899,6.959-5.354,9.862c-0.818,0.967-1.724,1.884-2.732,2.74c1.354-5.303,2.977-10.497,4.772-15.631
		c0.547-1.565,1.085-3.132,1.611-4.702c3.156-9.421,5.889-18.95,7.679-28.729c0.298-1.63,0.57-3.267,0.814-4.911
		c0.348-2.351,0.438-3.785-0.028-4.715c-0.598-1.195-2.113-1.556-5.176-1.958c-2.138-0.28-4.261-0.674-6.384-1.072
		c-2.122-0.398-4.244-0.802-6.38-1.103c-5.619-0.792-10.492-3.901-16.695-5.522c2.532,6.862,4.762,12.846,6.945,18.847
		c1.421,3.907,2.851,7.815,4.126,11.771c0.429,1.331,0.479,2.715-0.048,3.844c-0.211,0.452-0.513,0.862-0.921,1.213
		c-0.204,0.175-0.434,0.335-0.692,0.478c-0.248,0.137-0.497,0.246-0.746,0.329c-0.499,0.166-0.998,0.228-1.493,0.198
		c-0.494-0.029-0.982-0.15-1.458-0.349c-0.713-0.298-1.398-0.772-2.029-1.377c-2.832-2.715-5.078-5.83-6.743-9.385
		c-2.837-6.056-5.665-12.117-8.624-18.114c-0.604-1.224-0.716-3.475-2.485-3.236c-1.526,0.207-1.584,2.249-1.867,3.681
		c-2.266,11.47-3.423,23.044-2.673,34.727c1.117,17.403,6.969,32.838,19.753,45.135c2.236,2.151,4.569,4.016,7.007,5.558
		c1.219,0.771,2.463,1.461,3.734,2.066c4.449,2.116,9.223,3.182,14.351,2.993c2.198-0.081,4.461-0.393,6.791-0.951
		C634.568,450.753,643.549,443.778,649.905,434.881z"/>
	<path fill="#FAFAF9" d="M699.972,485.798c-0.236,2.182-1.211,4.138-2.77,5.933c-2.737,3.151-5.695,6.016-9.305,8.545
		c-1.203,0.843-2.479,1.649-3.843,2.415c-0.242-2.95-0.395-5.784-0.272-8.524c0.021-0.457,0.049-0.911,0.085-1.363
		c0.11-1.355,0.297-2.688,0.584-4.001c0.096-0.438,0.202-0.873,0.321-1.307c0.594-2.167,1.486-4.283,2.786-6.36
		c0.367-0.586,0.732-1.176,1.094-1.771c1.449-2.382,2.851-4.86,4.132-7.634c0.96-2.081,1.852-4.328,2.644-6.826
		c-1.61,1.432-2.855,2.986-3.948,4.573c-0.437,0.635-0.85,1.275-1.252,1.915s-0.794,1.28-1.189,1.914
		c-0.593,0.951-1.192,1.888-1.845,2.794c-0.871,1.207-1.836,2.357-3.007,3.404c-0.435-5.014-0.858-9.897-1.279-14.751
		c-0.421-4.854-0.839-9.679-1.264-14.579c-0.67,0.512-1.106,1.065-1.383,1.641c-0.829,1.729-0.218,3.669-0.138,5.338
		c0.012,0.247,0.019,0.487,0.021,0.718c0.004,0.463-0.012,0.893-0.054,1.29c-0.041,0.397-0.108,0.761-0.204,1.091
		c-0.096,0.33-0.222,0.625-0.381,0.885c-0.399,0.65-1.01,1.08-1.903,1.274c-0.357,0.078-0.759,0.117-1.211,0.118
		c-0.226,0-0.464-0.009-0.715-0.028c-0.251-0.019-0.515-0.048-0.793-0.087c-0.77-0.108-1.534-0.167-2.296-0.184
		c-0.381-0.009-0.76-0.007-1.14,0.004c-0.379,0.011-0.758,0.032-1.137,0.061c-0.757,0.059-1.514,0.153-2.273,0.274
		c-3.793,0.608-7.629,1.913-11.814,3.053c3.432-5.659,7.127-10.704,11.414-14.88c2.45-2.386,5.094-4.487,7.993-6.257
		c3.625-2.212,7.648-3.904,12.193-4.983c0.784-0.186,1.447-0.257,2.014-0.216c0.283,0.021,0.542,0.07,0.779,0.147
		c1.188,0.385,1.843,1.468,2.335,3.218c0.941,3.347,1.749,6.716,2.457,10.102c0.708,3.386,1.315,6.789,1.855,10.203
		c0.54,3.414,1.013,6.84,1.45,10.271c0.438,3.431,0.841,6.869,1.242,10.307C700.048,484.318,700.051,485.07,699.972,485.798z
		 M679.052,473.534c-0.601-0.394-1.502-0.328-2.772,0.183c-1.997,0.804-4.028,1.527-6.055,2.259
		c-2.026,0.733-4.048,1.475-6.028,2.319c-3.031,1.291-5.796,2.82-8.297,4.584c-1.25,0.882-2.435,1.823-3.554,2.823
		c-3.356,3-6.119,6.529-8.295,10.585c-0.725,1.352-1.385,2.762-1.98,4.231c-0.595,1.469-1.125,2.996-1.59,4.581
		c-0.609,2.078-1.166,4.165-1.676,6.262c-0.51,2.096-0.972,4.202-1.394,6.315c-0.843,4.227-1.522,8.484-2.081,12.765
		c-0.19,1.456-1.058,3.365-0.608,4.686c0.15,0.44,0.446,0.816,0.963,1.087c0.214,0.112,0.42,0.167,0.62,0.174
		c1.403,0.049,2.518-2.22,3.841-3.158c0.099-0.07,0.198-0.142,0.298-0.216c0.6-0.442,1.221-0.933,1.859-1.277
		c0.213-0.115,0.427-0.213,0.644-0.287c0.216-0.075,0.434-0.125,0.654-0.145c0.549-0.05,1.107,0.094,1.672,0.546
		c0.774,0.619,0.933,1.448,0.803,2.329c-0.032,0.22-0.083,0.444-0.146,0.668c-0.064,0.224-0.14,0.45-0.224,0.673
		c-0.084,0.223-0.176,0.445-0.271,0.663c-0.095,0.218-0.192,0.431-0.287,0.638c-1.054,2.294-2.12,4.582-3.181,6.872
		c-1.061,2.29-2.117,4.583-3.149,6.886c-0.403,0.899-1.208,2.009-0.649,2.912c0.08,0.129,0.188,0.254,0.328,0.373
		c0.076,0.064,0.15,0.119,0.224,0.164c0.369,0.227,0.713,0.231,1.04,0.113c0.652-0.235,1.229-0.952,1.77-1.322
		c2.49-1.706,4.979-3.413,7.467-5.122c4.975-3.419,9.943-6.848,14.893-10.304c2.475-1.728,4.945-3.462,7.409-5.205
		c0.961-0.68,1.892-1.4,2.754-2.177c0.216-0.194,0.427-0.392,0.633-0.593c1.032-1.007,1.94-2.109,2.648-3.333
		c0.849-1.47,1.409-3.117,1.547-4.993c0.171-2.339,0.19-4.688,0.165-7.132c-0.012-1.222-0.035-2.467-0.055-3.747
		c-0.02-1.279-0.037-2.593-0.037-3.95c-1.022,1.415-2.011,2.84-2.976,4.272c-0.965,1.432-1.906,2.87-2.831,4.31
		c-1.85,2.88-3.636,5.769-5.423,8.631c-3.574,5.725-7.152,11.348-11.254,16.594c-0.492-0.353-0.985-0.707-1.477-1.06
		c0.323-0.636,0.636-1.277,0.955-1.916c0.319-0.638,0.643-1.274,0.987-1.898c0.735-1.336,1.465-2.675,2.191-4.016
		c1.453-2.682,2.893-5.373,4.338-8.059c3.615-6.716,7.268-13.41,11.257-19.896c3.619-5.884,5.003-12.012,5.353-18.348
		c0.159-2.88,0.104-5.803-0.052-8.767C679.954,474.782,679.653,473.928,679.052,473.534z"/>
	<path fill="#FAFAF9" d="M478.529,390.768c12.634-6.596,24.105-14.811,34.625-24.407c1.333-1.216,2.494-3.151,5.413-2.391
		c-0.928,1.185-1.572,2.2-2.4,3.035c-10.937,11.033-22.039,21.893-36.141,28.938c-3.09,1.543-3.497,2.931-1.73,5.929
		c4.977,8.443,10.509,16.554,14.975,25.311c1.543,3.026,4.327,3.801,7.481,1.861c6.49-3.991,10.141-9.934,11.687-17.23
		c0.957-4.512,1.667-9.078,2.421-13.632c0.256-1.55,0.673-3.396,2.262-3.426c1.514-0.028,2.206,1.999,2.301,3.296
		c0.463,6.364,1.722,12.75-0.117,19.118c-0.45,1.559-0.743,3.198-0.834,4.816c-0.104,1.85,0.142,3.02,2.769,2.07
		c4.879-1.763,9.212-4.193,12.663-8.064c14.619-16.396,16.746-53.44-7.561-68.933c-20.295-12.936-41.541-15.004-64.224-9.373
		c-1.826,0.453-3.239,1.457-4.218,3.343c5.811,2.256,11.616,4.442,17.366,6.763c4.518,1.823,8.198,4.838,11.291,8.564
		c1.214,1.462,1.839,3.182,0.724,4.936c-1.08,1.7-2.839,2.166-4.718,1.644c-2.429-0.674-4.853-1.414-7.202-2.325
		c-7.202-2.791-14.337-5.756-21.58-8.434c-1.005-0.372-2.699-1.634-3.578-0.085c-0.387,0.682,0.429,2.184,0.922,3.206
		c5.497,11.404,12.352,22.051,18.537,33.072C472.409,393.266,473.495,393.396,478.529,390.768z"/>
	<path fill="#FAFAF9" d="M268.476,270.381c-7.301-0.564-14.216-1.153-21.043-2.501c-0.896-0.177-2.802,0.59-2.21-1.611
		c0.407-1.514,1.228-2.769,3.128-2.379c1.589,0.326,3.14,0.863,4.738,1.106c1.624,0.247,3.175-0.301,4.769-0.671
		c2.004-0.465,3.035-3.691,5.225-2.418C265.926,263.56,267.782,266.314,268.476,270.381z M183.934,252.815
		c-5.857,2.505-11.585,5.311-17.874,8.221c3.676,3.788,6.964,7.234,11.664,8.724c5.19,1.645,8.328-0.025,9.739-5.171
		c0.705-2.57,1.28-5.2,1.624-7.841C189.706,251.997,188.37,250.918,183.934,252.815z M200.907,268.528
		c3.314-0.052,6.688,0.818,9.887-1.01C205.896,262.311,202.952,262.634,200.907,268.528z M225.849,267.463
		c2.8,0.185,5.534,0.626,8.791-0.49C230.255,263.004,228.73,263.126,225.849,267.463z M228.029,244.381
		c-0.799-3.039-3.439-3.337-6.529-3.504c-0.851,0.228-2.171,0.472-3.409,0.937c-2.748,1.031-4.914,2.754-3.815,6
		c1.032,3.048,3.297,5.056,6.814,4.511C224.092,251.858,228.631,246.67,228.029,244.381z M205.592,252.841
		c0.866-1.847,1.721-3.955,0.17-5.867c-1.739-2.143-3.758-0.772-5.637-0.126c-3.178,1.092-6.329,2.261-10.091,3.613
		c3.021,3.494,6.532,4.664,10.11,5.367C202.469,256.285,204.559,255.044,205.592,252.841z M311.679,275.031
		c1.143-0.324,3.584,0.109,3.02-1.825c-0.731-2.505-2.832-4.772-5.557-5.186c-1.613-0.245-2.822,2.001-2.742,3.447
		C306.563,274.446,308.998,275.012,311.679,275.031z M164.149,263.344c-1.842-0.329-3.113,0.594-4.204,2.232
		c1.278,0.556,2.476,1.096,3.69,1.6c1.033,0.428,2.045,1.407,3.179,0.755c0.361-0.208,0.407-1.428,0.204-2.057
		C166.585,264.536,165.578,263.599,164.149,263.344z M284.571,265.243c3.467-0.406,6.405-2.438,8.65-5.628
		c1.707-2.426,1.336-4.421-1.165-5.976c-2.764-1.719-5.54-3.42-8.352-5.06c-2.264-1.32-5.27-1.638-6.442,0.516
		c-2.448,4.494,1.56,8.263,2.614,12.389C280.406,263.554,281.445,265.399,284.571,265.243z M233.336,238.642
		c-1.735,0.234-3.468,0.481-5.594,0.777c1.097,2.063,1.931,3.64,3.496,4.557c1.408,0.825,2.883,0.753,4.016-0.547
		c1.167-1.339,2.577-2.976,1.748-4.683C236.397,237.499,234.602,238.471,233.336,238.642z M268.417,240.911
		c-6.139-2.234-12.479-3.857-17.867-4.659c-8.98,0.093-14.003,5.803-11.611,12.292c2.398,6.505,7.317,10.699,13.653,13.315
		c1.359,0.561,2.73,0.523,3.847-0.31c5.495-4.1,10.792-8.431,13.968-14.72C271.694,244.279,270.965,241.839,268.417,240.911z
		 M276.183,266.479c-1.482,0.508-2.879,1.763-3.1,3.513c-0.228,1.809,1.363,1.987,2.641,2.331c3.12,0.841,6.239,1.69,9.373,2.54
		C285.796,270.834,279.825,265.232,276.183,266.479z M294.646,270.47c-2.839,0.078-5.776,2.643-5.089,4.432
		c1.188,3.092,5.342,3.026,8.435,3.694c1.968,0.425,1.316-1.394,1.521-2.426C299.072,273.258,298.432,270.365,294.646,270.47z
		 M306.289,265.744c0.031-3.333-4.127-4.255-6.319-6.409c-0.641-0.63-1.47-2.461-2.756-0.874c-1.619,1.997-2.604,4.339-1.801,6.99
		c0.715,2.358,2.708,2.888,4.84,3.112C302.706,268.337,306.273,267.493,306.289,265.744z M307.74,276.949
		c-1.608-0.613-3.076-0.018-3.875,1.376c-0.951,1.661,0.461,2.388,1.708,2.941c1.997,0.885,4.031,1.686,6.685,2.787
		C311.537,280.495,310.582,278.033,307.74,276.949z M315.925,277.018c-0.953,0.464-2.591,0.681-2.216,2.29
		c0.567,2.437,1.065,5.112,3.829,6.112c3.978,1.439,8.026,2.685,12.927,4.305c-2.543-4.65-5.688-7.572-8.322-10.874
		C320.507,276.799,318.48,275.774,315.925,277.018z"/>
</g>
<g>
	<path fill="#397BB9" d="M523.026,578.716c-11.348-0.386-22.677-0.859-34.042-0.95c-6.461-0.052-13.281-3.804-19.432-7.318
		c-5.872-3.355-9.574-8.797-14.283-13.897c-2.006,7.057-0.071,13.024,4.837,16.976c4.203,3.384,8.709,6.291,13.54,8.617
		c7.3,3.515,14.858,6.48,23.183,5.363c7.52-1.009,15.032-2.229,22.442-3.841c3.555-0.774,7.464-1.022,10.741-3.423
		C527.734,578.127,525.409,578.797,523.026,578.716z"/>
	<path fill="#397BB9" d="M649.918,597.219c-0.728,0.434-1.535,0.864-2.425,1.304c-1.337,0.66-2.672,1.322-4.008,1.98
		c-1.336,0.659-2.673,1.314-4.013,1.961c-1.34,0.647-2.684,1.286-4.033,1.911c-1.349,0.625-2.703,1.237-4.066,1.831
		c-1.362,0.594-2.732,1.169-4.113,1.721c-2.761,1.104-5.562,2.114-8.423,2.99c-1.43,0.438-2.875,0.843-4.338,1.209
		c-2.714,0.679-5.417,1.205-8.112,1.58c-1.797,0.25-3.589,0.433-5.378,0.551c-1.789,0.118-3.575,0.17-5.357,0.157
		c-2.674-0.018-5.341-0.182-8.001-0.486c-5.322-0.608-10.621-1.78-15.907-3.482c-5.106-1.645-10.237-3.216-15.317-4.937
		c-5.656-1.916-7.796-4.886-7.134-9.293c0.218-1.455,0.691-2.158,2.229-2.049c3.128,0.222,6.366,0.197,9.22,1.538
		c11.467,5.39,23.837,6.733,36.152,8.36c1.301,0.172,2.581,0.221,3.843,0.133c0.841-0.059,1.675-0.178,2.5-0.364
		c0.826-0.185,1.645-0.436,2.457-0.756c0.406-0.16,0.81-0.338,1.213-0.534c0.304-0.148,0.61-0.287,0.917-0.418
		c2.762-1.176,5.628-1.672,8.543-1.744c0.324-0.008,0.648-0.011,0.973-0.009c0.325,0.002,0.65,0.009,0.976,0.021
		c0.652,0.023,1.305,0.064,1.96,0.121c0.654,0.057,1.31,0.128,1.966,0.213c2.508,0.322,4.746,0.215,6.813-0.399
		c0.886-0.263,1.741-0.619,2.572-1.075c0.277-0.152,0.552-0.315,0.823-0.489c1.36-0.871,2.662-2.023,3.942-3.484
		c1.535-1.754,3.302-3.222,5.221-4.523c0.384-0.26,0.773-0.514,1.169-0.761c3.951-2.477,8.444-4.379,12.836-6.651
		C656.261,590.995,655.014,594.184,649.918,597.219z M609.55,581.155c0.459,0.386,0.921,0.761,1.392,1.124
		c0.62,0.478,1.207,0.983,1.767,1.51c0.56,0.527,1.094,1.075,1.608,1.641c1.54,1.696,2.894,3.545,4.228,5.41
		c1.333,1.865,2.646,3.748,4.1,5.513c0.809,0.981,1.63,1.539,2.457,1.79c0.331,0.1,0.662,0.152,0.994,0.161
		c0.332,0.01,0.664-0.023,0.997-0.089c0.665-0.133,1.329-0.403,1.99-0.751c0.165-0.087,0.33-0.179,0.495-0.275
		c0.329-0.192,0.657-0.399,0.984-0.615c0.992-0.656,1.504-1.391,1.693-2.172c0.22-0.912-0.001-1.887-0.415-2.872
		c-0.177-0.422-0.391-0.846-0.62-1.268c-1.032-1.9-2.206-3.681-3.51-5.351c-0.435-0.557-0.884-1.101-1.347-1.632
		c-0.926-1.064-1.907-2.078-2.94-3.046c-0.517-0.484-1.046-0.956-1.588-1.416c-0.542-0.461-1.096-0.909-1.662-1.347
		c-0.999-0.772-1.923-1.399-2.807-1.88c-1.768-0.963-3.376-1.346-5.104-1.157c-0.576,0.063-1.166,0.189-1.779,0.379
		c-0.613,0.19-1.25,0.443-1.921,0.759c-0.335,0.158-0.68,0.332-1.034,0.521c-0.708,0.379-1.455,0.82-2.252,1.324
		c0.512,0.442,1.004,0.876,1.484,1.302C607.72,579.568,608.631,580.383,609.55,581.155z"/>
	<path fill="#397BB9" d="M398.196,553.299c-2.152-1.017-4.047-0.783-5.794,0.784c-1.281,1.15-2.473,2.476-4.838,2.077
		c2.182-3.599,4.307-6.839,6.168-10.224c4.532-8.24,5.674-16.965,2.842-25.971c-2.148-6.832-4.439-13.734-8.372-19.732
		c-9.089-13.86-12.13-29.283-12.985-45.45c-1.354-25.615-8.389-49.568-21.078-71.913c-8.666-15.261-16.181-30.771-15.251-49.281
		c0.443-8.809-0.255-17.934-3.193-26.556c-0.661-1.939-0.98-4.321-3.827-4.197c-10.543,0.46-21.162-1.279-31.629,1.703
		c-7.341,2.092-14.479,4.025-17.44,12.225c-4.364,12.088-0.545,22.859,4.789,33.718c1.966-1.357,1.923-3.7,4.299-4.409
		c-0.158,3.022-1.244,5.576-2.338,8.088c-5.777,13.265-12.279,26.207-17.569,39.691c-6.956,17.729-13.763,35.466-9.756,55.131
		c0.118,0.577,0.009,1.197,0.078,1.788c0.184,1.584-0.185,2.319-2.081,2.5c-3.187,0.305-6.225,0.416-9.165-1.106
		c-1.703-0.881-3.173-0.328-4.389,1.072c-1.32,1.519,0.258,2.037,0.986,2.805c1.713,1.808,0.487,3.177-0.5,4.733
		c-0.676,1.065-3.127,1.635-1.513,3.485c1.567,1.796,3.347,1.203,5.2,0.032c1.985-1.254,3.635-3.36,6.665-3.336
		c-1.706,2.402-3.273,4.389-4.586,6.532c-0.927,1.513-0.59,3.173,0.287,4.692c1.003,1.736,2.281,0.828,3.482,0.334
		c2.236-0.92,3.671,0.212,5.013,1.807c3.919,4.656,6.499,4.224,9.214-1.416c0.623-1.295,0.448-3.842,2.915-3.002
		c2.183,0.743,3.913,2.207,3.205,5.086c-0.497,2.021-0.989,4.09-1.077,6.155c-0.165,3.901,1.551,5.122,5.018,3.505
		c2.288-1.067,3.87-0.746,5.498,1.114c2.033,2.323,4.056,1.877,6.079-0.264c2.093-2.216,2.822-4.843,2.916-7.765
		c0.058-1.803-0.072-3.672,1.281-5.38c2.508,4.506,2.571,5.44,0.948,12.251c-0.298,1.253-1.235,2.748,0.38,3.568
		c1.501,0.762,2.405-0.674,3.331-1.611c0.839-0.848,1.578-1.818,2.505-2.552c1.401-1.109,2.853-1.575,4.286,0.142
		c0.591,0.709,1.042,2.153,2.359,1.457c1.238-0.654,1.78-1.899,1.889-3.354c0.157-2.089-0.759-3.893-1.824-5.429
		c-2.389-3.444-1.345-5.493,1.618-8.154c22.285-20.013,27.882-45.548,23.865-74.088c-0.935-6.643-2.32-13.227-3.117-19.884
		c-0.563-4.701,0.356-6.534,3.486-9.179c-0.404,6.947,0.075,13.441,2.022,19.752c1.766,5.722,3.285,11.592,3.252,17.541
		c-0.047,8.327,2.439,15.418,7.544,21.93c2.791,3.561,3.921,8.073,4.349,12.562c3.496,36.676-24.274,71.877-60.754,77.011
		c-25.545,3.595-49.609-1.025-72.201-13.402c-2.092-1.146-3.383-1.899-3.361,1.656c0.031,4.936-3.347,6.692-7.83,4.554
		c-4.541-2.166-4.97-6.385-5.461-10.55c-0.49-4.156-0.734-8.25-4.883-10.869c-1.809-1.142-2.211-3.45-2.498-5.571
		c-0.31-2.287-0.68-4.566-1.212-8.098c-3.234,4.811-8.607,4.251-11.491,8.125c-6.685,8.98-13.719,17.704-20.272,26.778
		c-4.046,5.603-6.936,11.857-7.135,19.006c-0.062,2.237,0.657,4.854-0.27,6.622c-1.325,2.527-4.235,0.238-6.453,0.694
		c-2.796,0.574-4.5,2.161-5.711,4.531c-0.494,0.966-0.852,2.093,0.065,2.911c2.545,2.272,3.203,5.54,4.46,8.523
		c1.923-0.978,2.465-2.829,3.593-4.184c1.144-1.374,2.059-2.963,3.316-4.214c4.396-4.377,10.209-2.922,11.802,3.052
		c-2.219-0.577-4.323-1.315-6.489-1.636c-2.379-0.353-4.368,1.009-4.811,3.141c-0.409,1.969,2.069,1.586,3.254,2.101
		c3.096,1.346,6.631,2.595,6.143,6.642c-0.611,5.055,2.084,4.838,5.565,4.595c9.203-0.642,18.313-3.116,27.636-1.504
		c1.26,0.218,1.824-0.445,2.425-1.443c5.526-9.164,9.174-9.8,16.835-2.979c0.555,0.494,1.09,1.32,1.769,0.625
		c0.407-0.417,0.482-1.418,0.332-2.071c-0.442-1.927-2.073-2.95-3.677-3.597c-3.174-1.281-6.516-1.542-9.975-1.218
		c-1.565,0.146-4.473,1.004-4.619-0.892c-0.2-2.594,2.673-2.57,4.775-2.633c0.448-0.013,0.906-0.078,1.343-0.012
		c7.541,1.155,13.348-1.807,19.032-6.674c9.028-7.731,19.758-12.065,31.707-13.295c15.826-1.629,31.625-0.564,47.435,0.133
		c1.936,0.085,3.408,1.007,4.74,2.247c3.605,3.357,7.237,6.689,10.761,10.131c4.19,4.092,5.71,8.991,3.999,14.714
		c-0.389,1.301-1.098,2.853-0.249,3.879c1.849,2.237,0.349,2.558-1.331,3.165c-2.072,0.748-4.596,1-5.322,3.903
		c8.061-0.708,9.184-0.058,11.071,5.325c0.525,1.497-0.266,3.939,2.284,4.327c2.601,0.395,4.582-0.686,6.216-2.747
		c0.768-0.969,1.344-3.211,2.726-2.479c4.208,2.228,9.396-1.628,13.209,2.416c1.168,1.239,2.064,0.002,2.994-0.728
		c7.574-5.941,10.447-6.154,18.639-1.585c0.874,0.488,1.899,2.203,2.933,0.483c1.628-2.708,3.897-1.805,5.92-1.168
		c3.5,1.102,5.588,0.219,7.011-3.29c1.008-2.487,2.744-4.607,6.031-4.558c1.135,0.017,3.072,1.05,3.36-0.848
		C401.262,554.765,399.61,553.967,398.196,553.299z M355.705,559.822c-0.593,0.225-1.216,0.101-1.319-0.692
		c-0.158-1.212,0.563-2.039,1.518-2.493c4.321-2.053,8.827-2.519,13.484-1.34c2.008,0.508,3.99,1.041,5.001,4.042
		C367.838,557.883,361.696,557.548,355.705,559.822z M279.984,116.782c0.016-0.177,0.019-0.347,0.012-0.51
		c-0.002-0.042-0.01-0.081-0.013-0.122c-0.009-0.119-0.019-0.237-0.039-0.349c-0.006-0.031-0.016-0.06-0.022-0.091
		c-0.025-0.118-0.051-0.234-0.086-0.345c-0.006-0.018-0.014-0.034-0.019-0.052c-0.583-1.752-2.365-2.684-2.192-4.453
		c2.261,1.643,4.487,3.335,6.791,4.912c0.883,0.605,1.614,2.015,3.037,1.058c0.775-0.522,1.453-1.904,2.317-0.18
		c0.807,1.612-0.443,2.147-1.584,2.543c-5.107,1.771-10.258,3.174-15.867,1.287c3.117-1.152,2.584-2.432,0.603-4.219
		c-2.913-2.629-6.977-3.274-10.19-6.186C269.248,110.784,274.246,114.512,279.984,116.782z M342.036,168.703
		c-0.05-6.691-0.011-13.382-0.011-21.434c6.333,6.671,9.293,13.685,11.544,21.083c0.12,0.394,0.147,0.96-0.05,1.284
		c-1.76,2.898-1.915,2.924-1.141,5.841c0.531,2.002-0.066,2.214-1.897,2.119C343.254,177.221,342.091,176.109,342.036,168.703z
		 M217.566,338.31c-0.745-9.162-2.735-17.683-7.084-25.558c-0.371-0.671-1.88-1.72-0.44-2.614c1.013-0.629,1.874,0.374,2.701,1.049
		C220.307,317.363,222.249,327.779,217.566,338.31z M119.872,241.688c-14.278-16.827-24.055-36.154-31.211-56.901
		c-0.176-0.509-0.089-1.109-0.164-2.265c13.817,11.259,27.331,22.042,39.935,33.877c6.893,6.473,10.062,14.522,8.949,24.231
		c-0.417,3.641,0.196,7.459,0.742,11.136c0.604,4.07-1.109,4.048-3.85,2.534C128.565,251.149,124.028,246.586,119.872,241.688z
		 M196.711,163.309c11.85-4.472,23.394-4.184,34.362,2.59c16.89,10.432,20.745,26.871,10.096,42.855
		c-4.192,6.291-9.472,11.545-15.894,15.557c-3.792,2.37-7.743,4.485-11.596,6.76c-2.386,1.409-2.402,3.515-1.624,5.862
		c0.826,2.493,2.641,1.88,4.411,1.51c5.109-1.068,10.288-1.875,15.314-3.245c17.848-4.867,34.033-1.256,49.91,7.812
		c17.64,10.074,32.695,22.918,45.967,38.096c3.005,3.436,6.15,6.749,9.24,10.129c-2.019,1.712-3.924,1.039-5.642,1.371
		c-2.28,0.44-3.904,2.124-4.061,4.166c-0.129,1.681,1.934,2.13,3.537,2.196c5.047,0.207,12.193-4.272,13.753-9.029
		c1.533-4.673,2.486-9.526,2.977-14.441c0.588-5.882-2.117-10.013-6.972-12.999c-2.158-1.327-4.397-2.564-6.383-4.118
		c-4.398-3.442-5.022-6.107-1.866-10.743c1.967-2.89,1.799-4.985-0.363-7.448c-1.067-1.215-1.852-2.705-2.619-4.148
		c-1.325-2.493-0.76-4.625,1.54-6.245c1.219-0.858,2.53-1.585,3.754-2.437c1.163-0.809,2.983-1.306,2.327-3.275
		c-0.309-0.928-1.038-2.271-1.755-2.395c-1.518-0.263-2.082,1.407-2.909,2.412c-7.783,9.459-17.68,14.138-30.039,14.24
		c-18.251,0.15-32.382-8.333-44.453-20.864c-6.432-6.678-8.556-15.102-7.316-24.438c2.837-21.368,8.863-41.682,19.279-60.626
		c0.723-1.315,2.181-2.528,1.251-4.359c-2.981,0.074-5.243,2.783-8.574,2.432c1.592-3.404,5.478-3.742,7.097-7.339
		c-20.337-1.692-39.721-0.058-58.431,7.452c-4.67,1.874-9.296,3.528-9.502,9.699c-0.014,0.411-0.209,1.262-1.253,0.95
		c-1.238-1.133-0.669-4.557-3.934-3.519c-2.803,0.891-2.104,3.31-2.101,5.277c0.006,5.002-1.906,9.64-2.565,14.505
		c-0.353,2.601-1.754,5.105-0.755,8.244C192.918,164.909,194.786,164.035,196.711,163.309z M270.44,233.198
		c-8.976-1.853-17.28-2.574-26.225-2.081C250.92,225.323,263.911,226.286,270.44,233.198z M231.346,144.75
		c-3.989-0.404-7.275-1.668-11.085-3.012C224.682,138.741,227.374,139.538,231.346,144.75z M213.792,145.339
		c8.596-2.327,22.387,4.076,26.368,12.151c0.098,0.199-0.057,0.523-0.19,1.468c-8.972-6.995-18.324-12.303-30.278-9.116
		C209.832,146.526,211.903,145.851,213.792,145.339z M216.685,151.489c8,1.119,13.835,4.342,14.908,8.486
		c-9.563-4.258-19.299-5.941-29.603-3.314C204.435,152.333,209.758,150.52,216.685,151.489z M143.948,273.789
		c-1.164-0.146-0.797-1.359-0.954-2.173c-0.056-0.29,0.018-0.607-0.051-0.891c-2.234-9.254,0.083-16.263,7.375-23.269
		c11.228-10.788,17.915-25.161,25.672-38.575c0.439-0.76,0.894-1.511,1.339-2.264c1.702,0.638,2.146,2.142,2.883,3.394
		c5.464,9.29,12.975,16.249,23.049,20.313c0.962,0.388,1.885,0.888,2.79,1.401c2.457,1.394,2.66,3.707,2.587,6.206
		c-0.073,2.48-1.827,3.171-3.695,3.863c-16.212,6.014-32.341,12.21-47.226,21.184c-4.442,2.678-9.348,4.754-12.011,9.674
		C145.402,273.211,144.492,273.857,143.948,273.789z M138.123,261.465c0.798,2.658,1.108,5.781-2.585,6.454
		c-7.098,1.294-14.184,3.019-21.638,1.636c6.51-2.914,13.001-5.873,19.545-8.709C135.024,260.161,137.169,258.286,138.123,261.465z
		 M228.178,462.633c-0.642,1.484-1.491,3.054-0.168,4.619c1.229,1.453,2.862,1.487,4.527,1.057c1.732-0.447,3.424-1.043,5.152-1.505
		c1.438-0.384,2.955-0.891,4.07,0.677c1.01,1.42,0.468,2.848-0.05,4.269c-0.583,1.599-1.915,2.816-3.385,2.285
		c-3.966-1.433-7.378-0.221-11.126,0.976c-4.2,1.341-7.688-2.331-6.771-6.601c0.379-1.763,0.776-3.471,0.505-5.314
		c-3.616,3.182-4.541,7.385-2.592,11.815c0.969,2.202,3.077,4.224,0.233,6.68c-2.486,2.147-4.403,0.779-6.394-0.613
		c-1.995-1.395-3.691-0.911-5.099,0.815c-0.978,1.199-1.696,2.438-3.597,1.354c-1.851-1.055-3.22-2.417-2.904-4.585
		c0.298-2.044,0.946-4.07,1.696-6.004c0.648-1.671,0.885-3.069-0.5-4.49c-1.726-1.771-2.81-4.851-5.647-4.545
		c-2.687,0.29-3.11,3.261-3.97,5.472c-0.928,2.388-2.395,4.235-5.289,3.911c-3.298-0.369-2.823-2.956-2.731-5.143
		c0.084-2.009-0.676-3.122-2.707-3.288c-1.884-0.154-3.534-0.416-3.553-2.978c-0.019-2.553,1.589-2.957,3.501-3.026
		c6.525-0.237,10.347-4.933,4.682-12.719c-0.263-0.361-0.527-0.753-0.877-1.015c-13.517-10.084-17.446-24.902-19.327-40.411
		c-1.875-15.462-2.058-31.004,1.335-46.365c2.149-9.731,7.092-18.315,11.406-27.15c0.584-1.196,1.191-2.382,1.946-3.891
		c-1.345-0.85-3.462,0.978-3.602-1.748c-0.39-7.597-1.5-15.212-0.257-22.787c1.058-6.45,3.06-7.258,9.325-5.579
		c12.174,3.264,21.164,9.876,25.175,22.305c2.034,6.303,3.657,13.451,2.087,19.166c-1.568,5.704,1.294,8.41,3.43,11.409
		c14.868,20.877,20.594,44.777,23.912,69.552c0.827,6.176,0.381,12.155-2.343,17.939c-3.068,6.515-2.123,8.019,5.024,9.075
		c0.736,0.109,1.477,0.231,2.187,0.442c0.403,0.119,0.749,0.431,1.313,0.773c-2.353,4.144-5.918,6.684-10.201,8.305
		C233.003,457.13,229.789,458.91,228.178,462.633z M281.176,310.728c-6.247,11.85-4.587,22.908,0.23,34.026
		c1.629,3.759,2.33,7.92,3.038,12.055c-4.604-9.121-10.318-17.636-13.707-27.306c-0.584-1.666-0.859-3.474-1.044-5.241
		C268.935,316.975,271.895,313.276,281.176,310.728z"/>
</g>
<g>
</g>
<g>
</g>
<g>
</g>
<g>
</g>
<g>
</g>
</svg>
