<?xml version="1.0" encoding="iso-8859-1"?>
<!-- Generator: Adobe Illustrator 25.1.0, SVG Export Plug-In . SVG Version: 6.00 Build 0)  -->
<svg version="1.1" id="Layer_1" xmlns="http://www.w3.org/2000/svg" xmlns:xlink="http://www.w3.org/1999/xlink" x="0px" y="0px"
	 width="720px" height="720px" viewBox="0 0 720 720" enable-background="new 0 0 720 720" xml:space="preserve">
<path d="M694.689,287.889c-21.062,0.041-42.842,0.083-64.264,0.208c-0.019,0-0.037,0-0.056,0c-1.076,0-1.763-0.182-2.157-0.573
	c-0.481-0.476-0.578-1.302-0.583-2.569c-0.052-13.193-4.457-23.914-13.463-32.776c-11.856-11.663-30.246-13.613-43.733-4.632
	c-6.724,4.478-12.044,10.215-16.255,17.53c-15.317-19.021-23.929-36.438-27.096-54.788c-2.724-15.794-2.773-32.014-2.821-47.702
	c-0.006-1.895-0.011-3.791-0.022-5.686c-0.011-2.164,1.114-3.191,2.538-4.492c24.878-22.726,49.729-46.369,73.863-70.273
	c0.222-0.22,0.538-0.445,0.872-0.683c0.749-0.533,1.598-1.137,1.699-1.948c0.053-0.426-0.107-0.862-0.477-1.298
	c-0.227-0.266-0.452-0.537-0.68-0.808c-1.815-2.168-3.692-4.409-6.35-5.64c-0.457-0.21-1.107,0.427-2.137,1.486
	c-0.199,0.205-0.39,0.402-0.559,0.566c-17.399,16.836-34.412,33.299-51.243,49.625l-0.2,0.194c-8.42,8.167-8.421,8.168-19.218,3.273
	c-22.486-10.193-37.406-24.724-45.616-44.423c-1.147-2.755-1.096-4.823,0.184-7.374c4.245-8.466,8.486-17.111,12.587-25.472
	c4.09-8.339,8.319-16.962,12.553-25.404c0.92-1.834,1.158-2.97,0.821-3.921c-0.326-0.923-1.219-1.674-2.896-2.436l-0.597-0.272
	c-5.626-2.564-5.789-2.501-8.636,3.48l-0.074,0.155c-2.034,4.272-4.141,8.597-6.178,12.78c-1.688,3.466-3.375,6.932-5.043,10.408
	c-0.951,1.984-1.882,3.2-3.82,3.54c-31.965,5.615-56.719,1.178-77.904-13.967c-8.618-6.161-11.034-12.044-8.339-20.305
	c0.036-0.108,0.047-0.217,0.057-0.312c0.007-0.06,0.012-0.121,0.025-0.179c0.672-2.835,1.129-5.323-0.09-7.062
	c-0.807-1.152-2.254-1.834-4.453-2.089h-5.965l-0.025,0.211c-0.517,4.26-1.025,8.522-1.532,12.784
	c-1.111,9.33-2.259,18.978-3.494,28.453c-2.421,18.568-4.968,37.435-7.432,55.682l-2.016,14.949c-0.02,0.146-0.025,0.298-0.03,0.455
	c-0.019,0.582-0.037,1.133-0.858,1.627c-8.019-7.281-17.045-13.977-26.832-19.904c-25.112-15.207-53.435-21.422-81.893-17.968
	c-28.505,3.457-54.367,16.276-74.791,37.07c-14.316,14.578-25.671,33.129-35.734,58.381c-1.23,3.087-2.547,4.836-5.976,5.238
	c-2.572,0.301-5.16,0.783-7.665,1.25c-1.662,0.31-3.382,0.63-5.077,0.893c-3.012,0.467-5.88-0.024-9.03-1.546
	c-16.264-7.857-32.833-15.779-48.857-23.441c-13.618-6.512-27.699-13.245-41.529-19.907c-1.433-0.69-2.414-0.859-3.187-0.546
	c-0.731,0.296-1.27,1.006-1.746,2.302c-0.415,1.129-0.987,2.258-1.7,3.357c-0.771,1.189-1.025,2.114-0.797,2.911
	c0.249,0.873,1.054,1.574,2.69,2.344c11.199,5.266,22.543,10.714,33.513,15.982c5.193,2.495,10.387,4.989,15.585,7.474l4.641,2.221
	c8.499,4.069,17.288,8.277,26.003,12.262c2.343,1.071,2.726,2.48,2.597,4.551c-3.137,49.891-14.895,88.101-37.004,120.25
	c-4.103,5.965-7.827,8.097-14.232,8.146c-10.752,0.082-21.676,0.658-32.241,1.215c-4.312,0.228-8.771,0.462-13.156,0.661
	l-0.229,0.01v11.988l0.253-0.014c4.314-0.232,8.628-0.46,12.941-0.687c12.624-0.666,25.677-1.355,38.509-2.154
	c2.559-0.16,3.963,0.621,5.356,2.984c15.467,26.221,24.459,56.049,26.726,88.653c0.43,6.195,0.411,12.498,0.393,18.594
	c-0.013,4.41-0.027,8.97,0.129,13.455c0.107,3.051-1.154,4.443-3.366,5.816c-24.364,15.125-49.338,30.053-74.23,44.371
	c-1.869,1.076-2.749,1.963-2.94,2.966c-0.177,0.93,0.23,1.958,1.322,3.33c0.668,0.84,1.276,1.905,1.858,3.256
	c0.472,1.098,1.006,1.708,1.679,1.92c0.712,0.222,1.535,0.007,2.675-0.7c3.492-2.165,7.098-4.282,10.584-6.329
	c1.944-1.141,3.888-2.282,5.823-3.437c1.607-0.959,3.004-1.636,5.115-0.916c25.979,8.844,47.077,17.703,65.604,32.197
	c23.328,18.248,36.16,39.745,39.229,65.717c0.311,2.634-0.126,4.516-1.508,6.498c-5.814,8.343-11.696,16.846-17.384,25.069
	c-7.591,10.976-15.44,22.324-23.23,33.436c-1.249,1.782-1.956,3.132-1.619,4.346c0.261,0.945,1.126,1.716,2.719,2.426
	c0.982,0.437,1.888,1.213,2.644,1.913c0.98,0.908,1.787,1.298,2.532,1.211c0.815-0.089,1.57-0.714,2.522-2.089
	c9.826-14.175,19.961-28.488,29.763-42.331l2.429-3.432c0.965-1.363,1.878-2.92,2.761-4.425c2.146-3.656,4.363-7.436,7.5-8.773
	c3.121-1.329,7.361-0.311,11.463,0.673c1.712,0.411,3.483,0.836,5.149,1.084c35.998,5.356,67.965,14.611,97.73,28.296
	c31.586,14.522,60.824,33.275,85.258,49.704c1.854,1.247,2.327,2.369,1.874,4.444c-0.363,1.661-0.558,3.38-0.746,5.043
	c-0.096,0.848-0.192,1.696-0.31,2.54l-0.039,0.284c-0.47,3.335-0.956,6.784,3.986,7.603h6.952l-0.001-0.241
	c-0.021-3.845,0.582-7.693,1.163-11.413c0.409-2.615,0.832-5.318,1.037-8.004c0.141-1.856,1.38-2.492,2.691-3.167
	c0.311-0.16,0.622-0.32,0.921-0.497c20.632-12.209,44.416-22.365,74.853-31.961c3.875-1.222,7.745-2.464,11.616-3.707
	c14.946-4.798,30.402-9.76,45.968-13.415c3.086-0.724,4.135-0.209,5.345,2.624c3.833,8.985,8.094,17.971,11.755,25.575
	c5.781,12.005,14.042,17.368,25.282,16.382c13.154-1.15,22.625-7.759,28.148-19.644c3.63-7.809,3.623-15.954-0.022-24.211
	c-2.32-5.255-3.462-10.962-4.569-16.483c-0.675-3.371-1.373-6.856-2.333-10.216c-10.229-35.816-22.914-70.205-37.231-108.229
	c-1.427-3.79-0.507-4.945,2.802-6.3c13.182-5.397,27.158-11.256,45.316-18.995c2.79-1.188,4.966-1.036,7.758,0.543
	c8.927,5.044,18.041,10.105,26.855,15.001c11.985,6.657,24.379,13.539,36.473,20.472c1.747,1.001,3.091,1.32,4.107,0.973
	c1.249-0.425,1.805-1.756,2.342-3.044c0.34-0.816,0.692-1.661,1.21-2.225c1.013-1.107,1.438-2.057,1.296-2.905
	c-0.22-1.32-1.818-2.191-3.227-2.96c-4.422-2.41-8.893-4.909-13.215-7.326c-6.746-3.772-13.722-7.672-20.68-11.327
	c-3.137-1.648-3.048-3.067-2.098-5.914c6.913-20.735,19.554-37.517,38.643-51.303l0.495-0.358
	c10.943-7.907,10.944-7.907,23.878-3.253c1.229,0.442,2.491,0.854,3.713,1.253c2.344,0.766,4.768,1.557,7.031,2.585
	c1.143,0.519,1.977,0.637,2.62,0.366c0.854-0.357,1.274-1.341,1.697-2.495l0.061-0.166c1.296-3.529,1.946-5.3,1.342-6.589
	c-0.617-1.314-2.498-1.982-6.244-3.313l-0.081-0.029c-5.421-1.927-10.84-3.86-16.258-5.793c-11.163-3.982-22.706-8.1-34.081-12.087
	c-1.87-0.656-3.244-1.278-3.903-3.329c-10.81-33.684-12.152-62.168-4.225-89.64l0.084-0.294
	c3.356-11.628,3.356-11.628,15.398-11.628l12.353-0.001c15.268-0.005,31.058-0.006,46.586,0.03c0.007,0,0.012,0,0.018,0
	c0.434,0,0.877-0.035,1.305-0.069c1.306-0.102,2.535-0.199,3.666,0.571l0.375,0.255v-12.199L694.689,287.889z M609.913,484.371
	c-0.481,0.188-1.195-0.019-2.38-0.69c-17.544-9.935-33.498-18.83-48.773-27.192c-2.583-1.414-3.058-2.638-2.207-5.696
	c4.615-16.588,13.073-31.093,25.135-43.113c0.541-0.539,1.15-1.037,1.739-1.518c0.264-0.215,0.527-0.43,0.787-0.65
	c3.618-3.071,7.163-4.57,11.102-4.57c2.395,0,4.936,0.554,7.727,1.647c13.01,5.095,26.011,9.529,39.776,14.223
	c5.309,1.81,10.795,3.681,16.271,5.59c-11.863,8.43-24.087,18.05-33.395,31.145c-6.358,8.947-11.214,18.524-14.435,28.466
	C610.829,483.342,610.471,484.154,609.913,484.371z M572.763,477.188c-14.628,5.857-29.739,11.915-44.415,18.673
	c-0.223,0.103-0.443,0.217-0.659,0.329c-0.694,0.361-1.346,0.703-1.857,0.491c-0.413-0.171-0.753-0.698-1.041-1.611
	c-1.156-3.675-2.4-7.389-3.605-10.982c-3.662-10.932-7.449-22.235-9.243-33.889c-0.041-0.269-0.086-0.539-0.131-0.812
	c-0.321-1.943-0.652-3.95,0.081-6.242L572.763,477.188z M545.926,446.129c-0.346,1.165-0.674,1.735-1.101,1.906
	c-0.423,0.17-1.041-0.012-2.126-0.632c-9.206-5.253-18.9-10.659-29.633-16.528c-1.5-0.82-1.451-1.413-1.302-3.173
	c1.042-12.311,6.467-21.602,16.583-28.405c4.101-2.758,8.228-5.626,12.217-8.4c2.487-1.728,4.974-3.457,7.471-5.171l0.305-0.212
	c1.159-0.812,2.16-1.512,3.804-0.91c6.668,2.443,13.221,4.745,20.16,7.182c2.296,0.806,4.603,1.617,6.923,2.436
	C563.108,407.919,552.213,424.902,545.926,446.129z M345.644,348.836c-6.965-2.495-13.774-6.226-20.815-11.409
	c-1.722-1.267-2.625-2.088-1.162-4.228c24.602-35.975,43.462-74.595,57.144-104.221c0.105-0.227,0.276-0.443,0.559-0.802
	c0.099-0.126,0.212-0.268,0.339-0.434l0.554,4.305c2.391,18.501,4.649,35.976,4.127,53.893c-0.466,16.033-2.629,36.746-15.316,54.75
	C363.454,351.505,357.989,353.256,345.644,348.836z M377.66,102.961c2.039-14.955,4.053-30.168,6.001-44.88
	c0.908-6.853,1.815-13.705,2.728-20.557c0.063-0.473,0.214-0.937,0.423-1.58c0.087-0.27,0.184-0.568,0.288-0.908
	c11.882,10.49,25.153,17.14,40.555,20.325c13.255,2.741,28.218,2.885,45.729,0.438l-7.013,14.511
	c-5.752,11.903-11.375,23.54-17.008,35.172c-0.846,1.747-1.712,3.484-2.578,5.221c-1.451,2.912-2.951,5.923-4.329,8.932
	c-0.945,2.066-2.186,2.981-4.427,3.264c-20.696,2.616-40.228-2.461-58.058-15.088C378.254,106.596,377.325,105.413,377.66,102.961z
	 M421.556,341.704c0.066-1.019,0.132-2.047,0.188-3.089l4.066,1.407c4.128,1.428,8.035,2.778,11.935,4.147
	c0.477,0.168,0.939,0.408,1.475,0.686c0.153,0.08,0.313,0.162,0.48,0.248l-1.456,0.7c-5.769,2.77-11.225,5.39-16.68,8.885
	C421.006,350.287,421.274,346.115,421.556,341.704z M426.351,288.653c-0.083,0.001-0.166,0.001-0.247,0.001
	c-2.871,0-3.848-0.621-3.912-3.916c-0.272-14.066-0.642-25.86-1.565-37.705c-0.354-4.552,2.627-6.499,5.257-8.217
	c0.482-0.315,0.938-0.613,1.357-0.917c8.468-6.145,16.568-12.986,24.4-19.602c4.468-3.774,9.089-7.677,13.723-11.404
	c0.048-0.038,0.132-0.079,0.358-0.186c0.13-0.062,0.304-0.145,0.545-0.263c-0.128,3.035-0.302,6.08-0.469,9.028
	c-0.666,11.713-1.294,22.777,0.587,33.956c2.256,13.412,7.734,26.218,16.742,39.137l-5.145,0l-9.494,0
	c-3.688,0.004-7.366-0.002-11.049-0.006C447.249,288.548,436.715,288.537,426.351,288.653z M438.039,155.532
	c0.037-0.074,0.194-0.162,0.393-0.273c0.092-0.051,0.194-0.108,0.307-0.176c6.634,16.805,16.248,27.421,30.221,33.363
	c-15.156,13.158-30.902,26.264-49.49,41.192c-0.448-2.046-0.88-4.048-1.305-6.015c-1.245-5.762-2.419-11.205-3.73-16.628
	c-0.378-1.567-0.066-2.694,0.522-3.904l7.087-14.608C427.372,177.499,432.701,166.513,438.039,155.532z M549.573,278.651
	l-0.197,0.602c-2.847,8.725-2.866,8.785-12.32,8.785c-0.066,0-0.134,0-0.201,0c-3.56,0-7.12-0.006-10.68-0.012
	c-9.688-0.016-19.704-0.031-29.556,0.072c-2.992,0.049-4.678-0.819-6.478-3.252c-11.565-15.631-17.457-33.245-17.512-52.352
	c-0.021-7.078,0.419-14.279,0.844-21.244c0.214-3.505,0.435-7.13,0.595-10.696c0.047-1.073,0.451-1.845,1.392-2.665
	c10.991-9.578,21.975-19.167,33.257-29.018l7.882-6.881c0.005,1.496,0.007,2.986,0.009,4.472c0.023,15.85,0.047,30.821,2.845,45.789
	c3.636,19.436,12.854,38.017,28.185,56.807C550.277,272.291,550.802,274.891,549.573,278.651z M484.769,174.916
	c-1.986,1.672-4.039,3.401-5.902,5.266c-2.086,2.089-3.947,2.364-6.873,1.016c-14.018-6.464-23.18-18.166-28.008-35.775
	c-0.244-0.892-0.161-1.659,0.278-2.564c7.198-14.825,14.385-29.656,21.826-45.014l4.586-9.465
	c5.941,13.349,15.26,22.729,23.614,30.154c8.539,7.588,18.673,13.36,32.819,18.686l-10.722,9.581
	c-9.505,8.495-18.837,16.836-28.18,25.165C487.081,172.969,485.906,173.959,484.769,174.916z M376.951,115.637
	c0.488-0.061,0.993,0.418,1.439,0.849c0.22,0.213,0.428,0.413,0.63,0.545c10.89,7.087,23.157,11.714,36.459,13.75
	c4.667,0.714,9.333,0.633,14.275,0.547c2.281-0.039,4.638-0.081,7.047-0.041l-27.804,57.519c-0.645-1.529-1.252-3.011-1.843-4.453
	c-1.366-3.337-2.657-6.489-4.141-9.538c-7.689-15.807-16.098-29.332-25.706-41.345c-2.706-3.383-3.505-13.158-1.38-16.87
	C376.267,116.009,376.611,115.685,376.951,115.637z M371.086,670.934c1.911-14.7,3.715-28.585,5.503-42.742
	c0.105-0.829,0.303-1.327,0.591-1.478c0.074-0.039,0.158-0.056,0.25-0.056c0.329,0,0.759,0.221,1.209,0.452
	c0.168,0.086,0.338,0.174,0.509,0.253c6.332,2.937,11.643,4.073,16.715,3.582c12.642-1.228,19.941-7.69,22.971-20.336
	c0.197-0.821,0.411-1.639,0.671-2.627c0.101-0.385,0.209-0.797,0.325-1.244c10.431,10.736,22.972,14.761,37.29,11.956
	c14.259-2.791,23.698-11.72,28.064-26.543c1.64,3.555,3.281,7.06,4.908,10.535c4.845,10.348,9.42,20.122,13.549,30.295
	c0.4,0.986,0.495,1.594,0.307,1.97c-0.238,0.474-0.988,0.703-2.106,0.998c-35.806,9.448-67.418,19.709-96.644,31.368
	c-10.634,4.244-21.724,9.633-35.91,17.455L371.086,670.934z M473.915,338.65c-4.064,0.291-8.265,0.592-12.394,0.923
	c-1.548,0.122-2.994-0.08-4.554-0.642c-10.081-3.628-20.927-7.497-31.933-11.209c-2.414-0.814-3.024-1.78-2.839-4.491
	c0.505-7.352,0.585-13.933,0.247-20.121c-0.093-1.681,0.14-2.754,0.733-3.376c0.682-0.716,1.841-0.868,3.721-0.868
	c0.078,0,0.156,0,0.236,0.001c14.515,0.089,29.274,0.079,43.544,0.068c5.127-0.004,10.253-0.006,15.381-0.007l56.616,0.011
	c-4.365,22.373-19.167,35.042-43.998,37.659C490.443,337.465,482.04,338.068,473.915,338.65z M358.045,606.489
	c-1.301-1.056-2.603-2.111-3.896-3.174c-8.913-7.329-9.062-7.451-4.15-18.753c2.58,8.067,5.715,15.224,9.037,22.731L358.045,606.489
	z M341.519,608.62c0.499-1.49,1.006-3.003,1.518-4.545l5.36,4.654c5.499,4.777,10.805,9.384,16.125,13.975
	c0.91,0.786,0.767,1.595,0.585,2.619c-0.037,0.212-0.076,0.427-0.105,0.647c-2.268,17.076-4.46,33.874-6.78,51.658l-1.465,11.224
	c-1.668-1.092-3.33-2.184-4.99-3.272c-13.42-8.809-26.105-17.134-39.665-25.015c14.732-7.425,20.08-20.918,23.093-31.875
	C337.012,622.079,339.201,615.541,341.519,608.62z M563.266,376.544c4.892-3.305,9.839-5.987,15.11-8.195
	c17.503-7.33,30.616-20.433,40.091-40.058c0.419-0.869,0.818-1.747,1.218-2.63c0.776-1.71,1.575-3.468,2.548-5.198
	c-4.291,26.024-2.052,51.988,6.841,79.314L563.266,376.544z M279.294,642.875c-34.957-17.306-73.498-28.321-121.21-34.644
	l9.132-12.964c12.154-17.247,23.632-33.538,35.273-50.201c1.137-1.628,2.208-2.084,4.112-1.742
	c28.868,5.209,62.101,12.218,91.171,29.544c2.534,1.51,2.607,2.582,1.542,4.842c-1.155,2.451-2.266,4.973-3.342,7.411
	c-1.573,3.569-3.2,7.259-4.989,10.79C284.521,608.662,278.092,624.201,279.294,642.875z M135.744,205.686
	c-0.104,0.31-0.213,0.629-0.268,0.942c-2.665,15.03-3.607,30.117-2.799,44.843c0.914,16.66,4.686,32.632,8.626,47.411
	c0.59,2.214,0.096,3.366-1.092,5.298c-5.842,9.505-13.84,13.474-25.921,12.872c-9.513-0.475-19.075,0.228-29.198,0.974
	c-4.362,0.321-8.867,0.653-13.498,0.899c24.39-33.809,37.231-74.079,40.394-126.648l23.04,10.895
	C136.379,203.809,136.099,204.637,135.744,205.686z M71.766,331.061c0.215-0.398,1.009-0.613,2.498-0.676
	c19.567-0.838,37.514-1.727,54.868-2.719c3.462-0.199,6.225,1.155,9.148,2.586c0.903,0.443,1.838,0.9,2.783,1.3
	c9.417,3.992,15.37,10.056,18.735,19.085c4.65,12.479,11.617,23.804,18.949,35.269c3.631,5.677,1.549,15.924-3.979,19.579
	c-21.562,14.258-44.993,29.237-71.634,45.792c-0.859,0.533-1.726,1.052-2.789,1.687c-0.458,0.274-0.952,0.569-1.498,0.897
	l0.001-6.222c0.002-4.799,0.003-9.373-0.003-13.947c-0.033-26.462-5.299-52.95-15.653-78.73c-3.038-7.565-6.587-14.76-10.547-21.386
	C71.94,332.397,71.52,331.517,71.766,331.061z M230.958,446.727c5.118,4.358,10.412,8.865,15.636,13.277
	c0.798,0.674,1.055,1.041,0.371,1.973c-1.731,2.358-3.402,4.767-5.171,7.318c-0.62,0.893-1.253,1.806-1.907,2.742
	c-3.694-10.762-8.276-20.078-12.738-28.554L230.958,446.727z M107.732,461.624l10.842-6.879c8.122-5.152,15.93-10.104,23.728-15.074
	c2.445-1.559,4.893-3.116,7.339-4.673c10.418-6.629,21.192-13.485,31.69-20.374c2.458-1.614,4.02-1.597,6.421,0.067
	c21.544,14.926,36.573,35.454,45.944,62.758c0.612,1.783,0.422,3.082-0.676,4.635c-8.413,11.896-16.768,23.776-25.614,36.355
	l-7.57,10.762c-7.734-19.723-19.837-34.818-36.991-46.137C148.742,473.758,131.217,466.94,107.732,461.624z M295.532,492.806
	c-0.179,1.003-0.368,1.663-0.756,1.858c-0.345,0.171-0.935,0.03-1.914-0.462c-16.782-8.409-30.284-12.937-43.743-14.666
	c-0.004-0.103-0.009-0.191-0.014-0.266c-0.006-0.083-0.011-0.177-0.007-0.214c0.717-1.037,1.381-2.235,2.024-3.394
	c1.454-2.62,2.957-5.33,5.119-6.242c2.313-0.976,4.392,0.961,6.594,3.01c1.031,0.959,2.097,1.951,3.194,2.621
	c9.758,5.961,18.252,9.945,26.729,12.538C296.101,488.612,295.99,490.238,295.532,492.806z M273.394,355.904
	c-4.606,9.658-9.436,18.879-17.818,25.538c-4.371,3.471-9.131,4.265-14.552,2.424c-13.134-4.458-24.652-12.704-35.209-25.208
	c-14.231-16.856-23.525-36.566-33.356-58.719c-0.956-2.154-1.897-4.357-2.809-6.488c-0.411-0.961-0.821-1.922-1.234-2.882
	l0.356-0.379c4.306,2.817,8.667,5.706,12.884,8.501c9.574,6.344,19.474,12.905,29.401,19.053
	c19.401,12.016,39.635,22.931,60.14,32.442c1.66,0.77,2.534,1.488,2.837,2.328C274.329,353.333,274.137,354.346,273.394,355.904z
	 M95.118,469.789c1.525-0.934,2.962-1.816,5.086-1.35c23.267,5.122,40.353,11.248,55.399,19.861
	c16.959,9.709,27.231,25.319,35.041,39.307c3.769,6.747,3.4,11.199-1.461,17.643c-8.525,11.299-16.811,23.071-24.825,34.457
	c-3.263,4.636-6.637,9.429-9.981,14.124h-0.001c-0.467,0.656-0.96,1.304-1.584,2.125c-0.249,0.327-0.52,0.683-0.819,1.08
	c-1.828-9.797-3.99-17.01-6.987-23.331c-11.381-24.011-29.426-42.283-55.165-55.86c-12.116-6.392-25.42-12.143-43.083-18.624
	l3.658-2.253c2.878-1.775,5.613-3.461,8.357-5.129c12.095-7.35,23.945-14.547,35.938-21.788L95.118,469.789z M209.321,535.868
	l6.474-9.258c6.196-8.859,12.235-17.495,18.273-26.133c0.465-0.665,0.972-1.33,1.464-1.973c1.148-1.504,2.335-3.058,3.102-4.781
	c2.558-5.746,6.605-7.442,13.971-5.851c12.484,2.695,25.323,7.491,40.403,15.09c1.307,0.659,1.517,1.488,1.707,2.776
	c1.872,12.667,6.957,24.289,12.003,35.107c1.784,3.826,3.127,8.052,0.892,13.033c-1.046,2.333-1.586,4.926-2.107,7.434
	c-0.216,1.044-0.441,2.123-0.699,3.164c-0.321,1.303-0.858,2.104-1.596,2.381c-1.034,0.388-2.336-0.299-3.251-0.939
	c-12.812-8.977-27.264-14.018-40.97-18.413c-15-4.808-30.273-7.816-46.444-11L209.321,535.868z"/>
<path fill="#CB262A" d="M397.434,395.055c6.538-7.831,13.025-15.743,20.559-22.682c4.407-4.059,4.797-3.949,6.796,1.493
	c5.289,14.403,14.436,25.803,26.994,34.508c13.846,9.597,28.353,17.888,44.825,22.174c2.535,0.66,3.624,1.886,3.487,4.722
	c-0.231,4.775-0.015,9.577,0.144,14.363c0.111,3.327-1.676,5.06-4.767,3.955c-11.087-3.963-21.729-2.201-32.206,2.199
	c-3.385,1.421-6.767,2.864-10.066,4.468c-3.27,1.59-4.535,1.064-5.223-2.889c-1.507-8.653-3.918-17.032-9.714-24.109
	c-10.501-12.821-28.95-13.892-41.032-8.021c-5.152,2.504-9.365,6.044-13.061,10.276c-1.281,1.467-2.37,2.092-4.46,1.525
	c-26.344-7.144-44.825,10.66-46.621,34.046c-0.526,6.844-0.967,13.695-1.217,17.265c0.11,20.434,2.34,37.326,6.154,54.03
	c0.33,1.447,1.618,3.236,0.047,4.433c-1.185,0.903-2.742-0.078-4.071-0.62c-3.6-1.468-7.464-1.659-11.241-2.111
	c-2.94-0.352-4.446-1.623-5.387-4.455c-2.917-8.777-6.083-17.473-9.213-26.179c-3.294-9.164-2.241-18.207,0.504-27.262
	c9.019-29.746,28.498-49.637,57.246-60.755c5.107-1.975,10.5-2.736,15.987-2.6c2.594,0.064,4.82-0.88,4.606-3.626
	C385.717,409.073,391.616,402.025,397.434,395.055z M452.772,393.792c13.526,11.443,29.338,18.898,45.576,25.569
	c1.903,0.782,3.608,0.929,4.06-1.235c2.372-11.364,8.716-19.991,17.884-26.774c2.596-1.921,1.155-2.849-0.821-3.985
	c-13.371-7.686-21.548-19.198-24.393-34.298c-0.739-3.925-2.068-5.833-6.25-4.858c-6.582,0.97-13.308,0.784-19.972,1.37
	c-10.571,0.93-20.717,3.754-30.279,8.34c-2.215,1.062-5.936,1.651-4.636,5.94C437.492,375.57,443.375,385.843,452.772,393.792z
	 M228.961,136.865c-4.571-0.738-5.126-0.143-3.731,4.393c4.121,13.406,8.338,26.782,12.476,40.183
	c0.595,1.926,1.7,3.209,3.377,4.392c7.224,5.096,15.384,6.68,25.645,6.967c4.958,0.539,11.18-1.315,16.654-4.592
	c4.065-2.433,9.514-4.525,8.687-11.223c-1.973-15.978-3.84-31.97-5.687-47.963c-0.415-3.595-1.588-4.266-4.744-2.111
	C265.557,137.885,247.723,139.894,228.961,136.865z M610.678,297.614c-16.369-0.062-31.52-4.516-45.365-13.253
	c-5.353-3.378-5.216-3.451-7.133,2.486c-3.724,11.534-6.609,23.41-12.481,34.116c-1.815,3.31-1.754,5.732,0.269,8.737
	c8.295,12.318,19.822,19.568,34.268,22.49c2.076,0.42,3.752,0.064,5.36-1.201c6.165-4.85,12.005-10.017,16.349-16.652
	c6.436-9.83,11.357-20.296,13.386-31.921C615.864,298.726,614.169,297.627,610.678,297.614z M555.338,617.46
	c-3.745-13.057-3.641-13.087-18.362-13.021c-6.86-0.448-13.909,1.581-20.495,5.66c-8.358,5.177-8.3,5.143-4.999,14.108
	c5.515,14.977,11.374,29.793,19.284,43.7c5.237,9.208,10.856,11.176,20.762,7.51c9.036-3.345,16.044-14.284,13.138-22.356
	C560.48,641.431,558.719,629.252,555.338,617.46z M400.164,298.546c-1.913,20.885-7.584,40.638-22.29,56.403
	c-5.704,6.115-8.019,13.072-9.544,20.839c-0.981,4.999-0.388,8.569,4.977,10.506c2.816,1.016,5.388,2.769,7.971,4.35
	c2.428,1.486,4.062,1.382,6.053-1.077c5.317-6.566,10.942-12.888,16.574-19.192c1.607-1.799,2.233-3.684,2.297-6.031
	c0.208-7.656,0.558-15.309,0.86-22.963c1.486-37.691,1.956-75.373-2.955-112.877c-1.778-13.577-5.384-26.78-11.771-39.11
	c1.495,14.271,2.655,28.587,4.564,42.802C399.859,254.243,402.2,276.32,400.164,298.546z M176.159,187.273
	c-2.529,1.889-2.651,3.329-1.23,5.853c6.014,10.683,12.438,21.105,19.208,31.323c1.463,2.209,2.598,2.125,4.434,0.417
	c11.33-10.54,22.361-21.353,31.819-33.66c0.694-0.903,1.357-1.778,1.184-3.446c-0.039-0.185-0.121-0.823-0.308-1.428
	c-4.534-14.607-9.072-29.213-13.641-43.809c-0.266-0.851-0.417-2.093-1.645-2.016c-1.059,0.066-1.354,1.161-1.794,2.009
	C204.937,160.344,192.229,175.271,176.159,187.273z M349.229,150.665c-12.899-1.528-24.681-6.263-35.706-13.03
	c-6.337-3.889-12.726-7.692-19.598-11.839c0,1.428-0.062,2.052,0.009,2.66c1.765,15.068,3.687,30.125,4.445,45.286
	c0.131,2.629,1.576,3.55,3.488,4.51c13.532,6.789,27.81,10.166,42.992,9.701c2.593-0.079,3.644-1.054,4.005-3.577
	c1.381-9.637,2.893-19.255,4.425-28.869C353.814,152.215,352.49,151.052,349.229,150.665z M527.135,546.059
	c3.748,0.299,3.994-1.002,2.819-4.092c-3.169-8.339-6.103-16.767-9.152-25.152c-2.687-7.388-2.7-7.384-10.523-7.471
	c-0.798-0.009-1.596-0.001-3.312-0.001c-3.587-0.287-8.047,0.341-12.399,1.26c-10.58,2.235-20.593,5.659-27.743,14.588
	c-2.13,2.66-2.526,4.835-0.043,7.485c2.629,2.805,4.475,6.187,6.162,9.646c2.795,5.731,5.674,11.421,8.486,17.144
	c0.972,1.977,1.781,3.2,4.08,1.072C497.248,549.664,511.167,544.784,527.135,546.059z M220.328,124.693
	c0.575,2.388,2.063,3.304,4.3,3.799c6.55,1.451,13.111,2.699,19.114,2.423c14.805-0.003,26.611-4.1,37.051-12.415
	c2.306-1.837,3.681-3.633,2.902-6.865c-0.967-4.012-1.729-8.131-1.977-12.241c-0.257-4.255-2.398-5.141-6.175-5.282
	c-19.835-0.738-38.6,3.293-56.417,11.983c-2.136,1.042-3.309,2.119-2.503,4.754C218.019,115.415,219.21,120.049,220.328,124.693z
	 M402.534,541.787c0.962,4.529,3.633,6.202,8.078,6.432c13.916,0.721,23.905-5.981,32.397-16.177
	c4.143-4.974,7.074-9.743,3.313-16.218c-0.858-1.476-1.068-3.327-1.587-5.002c-3.314-10.687-4.465-11.538-15.916-11.762
	c-0.478-0.009-0.957-0.001-1.435-0.001c-10.734,0.174-20.316,3.26-28.287,10.797c-2.249,2.127-2.939,4.32-2.237,7.255
	C398.823,525.32,400.78,533.532,402.534,541.787z M536.709,594.597c2.745,0,4.685-0.189,6.575,0.04
	c3.711,0.451,4.927-0.615,3.588-4.416c-3.285-9.329-6.423-18.712-9.454-28.127c-0.747-2.32-2.148-3.159-4.335-3.809
	c-16.672-4.957-29.956,1.193-41.802,12.413c-1.634,1.548-1.965,2.973-1.007,5.059c4.258,9.278,8.476,18.576,12.506,27.954
	c1.094,2.546,2.051,2.748,4.106,1.082C515.808,597.556,526.081,594.266,536.709,594.597z M232.189,201.373
	c-8.814,10.526-18.01,20.697-28.62,29.445c-2.913,2.402-2.454,4.097-0.442,6.577c4.623,5.696,9.043,11.556,13.616,17.293
	c7.039,8.831,8.979,9.352,18.62,3.336c7.36-4.592,11.215-11.916,13.705-19.413c-0.142-1.126-0.117-1.63-0.273-2.07
	c-4.211-11.86-8.359-23.743-12.715-35.549C234.707,197.269,233.233,200.126,232.189,201.373z M287.519,420.308
	c-5.975-3.105-11.53-6.871-16.454-11.437c-2.386-2.213-3.404-1.425-5.133,0.733c-6.584,8.216-13.59,16.087-21.439,23.122
	c-2.544,2.28-2.083,3.692,0.178,5.586c6.597,5.525,13.075,11.192,19.691,16.695c5.406,4.496,11.304,8.282,17.46,11.686
	c2.853,1.577,4.31,1.26,4.615-2.344c1.127-13.347,2.395-26.683,3.656-40.531C290.7,422.039,289.166,421.163,287.519,420.308z
	 M564.108,358.896c-10.86-5.152-20.042-12.285-26.738-22.408c-0.557-0.842-0.841-2.203-2.415-1.862
	c-0.402,0.195-0.879,0.34-1.254,0.621c-7.527,5.653-16.136,8.866-25.162,11.097c-2.717,0.672-2.485,2.562-2.076,4.477
	c3.013,14.102,11.226,23.963,24.374,29.809c2.116,0.941,3.805,0.707,5.746-0.636c8.899-6.158,17.952-12.084,27.685-16.882
	c0.988-0.487,2.38-0.865,2.491-1.99C566.92,359.489,565.173,359.401,564.108,358.896z M342.346,195.503
	c-11.398-0.12-22.561-1.992-33.274-6.055c-8.776-3.328-8.762-3.364-7.992,6.037c0.598,9.079,1.181,18.159,1.81,27.236
	c0.116,1.678-0.242,3.716,2.237,4.139c10.69,1.828,21.337,4.214,32.276,1.65c2.507-0.588,3.854-1.791,4.351-4.331
	c1.535-7.833,3.181-15.645,4.829-23.455C347.332,197.174,346.504,195.547,342.346,195.503z M291.098,110.983
	c0.362,2.441,1.131,4.486,3.416,5.924c6.611,4.16,13.077,8.55,19.677,12.727c10.88,6.886,22.475,11.93,35.351,13.806
	c3.754,0.547,5.974-0.052,5.759-4.375c-0.047-0.947,0.159-1.906,0.336-3.798c1.093-3.294-1.179-5.896-4.135-8.477
	c-7.722-6.742-16.031-12.59-24.972-17.6c-10.38-5.817-21.376-9.933-32.962-12.552c-3.458-0.782-5.238-0.194-4.184,3.981
	C290.237,104.003,290.584,107.518,291.098,110.983z M298.115,473.728c3.621,1.382,4.095-1.452,4.901-3.507
	c2.106-5.366,4.843-10.374,7.932-15.217c7.495-11.748,17.423-21.057,28.986-28.659c2.691-1.769,3.061-3.342,1.639-6.236
	c-2.672-5.436-5.712-9.726-11.625-7.731c-11.607,0.026-21.147,3.161-30.063,8.559c-1.717,1.04-2.36,2.174-2.534,4.136
	c-1.262,14.276-2.411,28.571-4.157,42.791C292.632,472.449,295.287,472.649,298.115,473.728z M289.163,193.59
	c-13.562,8.654-27.878,8.945-42.656,3.61c-0.999-0.361-2.124-1.323-3.102-0.548c-1.097,0.869-0.185,2.092,0.161,3.083
	c3.262,9.337,6.624,18.64,9.83,27.996c1.015,2.96,2.905,4.229,5.944,4.596c7.879,0.952,15.584,0.43,23.215-1.796
	c12.146-3.543,13.013-4.729,11.926-17.347c-0.014-0.159-0.026-0.318-0.04-0.477c0.032-0.003,0.065-0.006,0.097-0.009
	c-0.482-5.722-1.102-11.438-1.393-17.17C292.968,192.029,291.868,191.864,289.163,193.59z M464.272,560.282
	c1.193-1.635,1.822-3.281,0.751-5.312c-4.006-7.6-7.938-15.239-12.219-23.482c-10.959,15.277-23.9,25.19-42.911,24.132
	c-3.172-0.176-2.141,2.17-1.538,3.661c1.612,3.99,3.786,7.781,5.101,11.857c1.677,5.196,5.188,7.211,10.27,7.687
	C440.827,580.424,454.227,574.052,464.272,560.282z M173.403,180.577c13.638-10.476,24.322-23.425,32.604-38.358
	c2.755-4.967,5.73-9.982,6.576-15.459c-0.077-0.677-0.075-1.003-0.154-1.309c-0.596-2.318-1.215-4.63-1.813-6.948
	c-1.617-6.268-1.92-6.348-7.204-2.338c-15.975,12.123-27.066,28.069-36.69,45.415c-3.7,6.669-3.485,11.908,0.542,17.953
	C169.296,182.586,170.429,182.862,173.403,180.577z M388.262,554.661c1.841-1.459,1.343-3.028,0.535-4.674
	c-3.461-7.049-5.572-14.579-7.811-22.056c-0.604-2.016-1.532-3.345-3.705-3.849c-6.801-1.58-13.626-1.742-20.365-0.006
	c-6.277,1.617-9.384,5.846-8.257,10.809c1.762,7.759,3.6,15.503,5.541,23.219c1.55,6.164,3.264,7.401,10.993,7.342
	C372.88,564.182,380.998,560.42,388.262,554.661z M394.969,502.545c4.353-2.62,8.048-5.159,12.012-7.166
	c9.345-4.733,19.408-4.862,29.511-3.769c2.98,0.322,3.831-0.53,3.242-3.244c-0.988-4.556-1.071-9.181-1.222-13.811
	c-0.082-2.528-1.226-4.464-3.503-5.881c-12.584-7.833-27.846-6.923-39.361,2.33c-2.17,1.744-3.458,3.635-3.161,6.507
	C393.334,485.719,394.12,493.935,394.969,502.545z M196.495,240.117c-2.16,0.799-2.159,2.027-2.414,3.05
	c-2.948,11.819-7.078,23.207-12.659,34.033c-1.19,2.309-0.514,3.35,1.424,4.589c7.39,4.722,14.779,9.454,21.982,14.452
	c2.6,1.804,3.856,1.106,5.172-1.25c3.744-6.701,7.004-13.619,9.67-20.82c0.721-1.949,0.644-3.582-0.792-5.306
	c-7.35-8.827-14.804-17.576-21.442-26.968C196.978,241.249,196.686,240.484,196.495,240.117z M467.242,568.447
	c-11.37,13.174-25.587,19.753-43.205,17.751c-4.014-0.456-4.089,1.311-2.603,3.984c2.422,4.358,5.58,8.198,9.515,11.259
	c9.008,7.008,18.902,8.982,29.6,4.368c10.228-4.412,13.929-12.911,14.086-23.438c0.216-4.595-1.022-8.853-2.652-13.065
	C470.795,566.236,469.745,565.547,467.242,568.447z M616.295,283.168c-0.254-3.054-0.776-6.033-1.682-8.901
	c-3.493-11.056-10.765-18.522-22.211-20.78c-11.33-2.235-19.011,4.384-25.746,12.356c-2.324,2.751-1.965,4.915,1.129,7.071
	c12.464,8.684,26.172,13.71,41.797,14.699c0.352,0,1.186-0.153,1.941,0.026C615.428,288.564,616.612,286.981,616.295,283.168z
	 M334.75,236.382c-8.792,1.282-17.537,0.668-26.114-1.432c-4.477-1.096-6,0.184-4.244,4.599c0,8.763,0.033,17.527-0.022,26.29
	c-0.014,2.331,0.518,3.915,3.146,4.49c5.909,1.293,11.767,2.814,17.649,4.228c1.78,0.428,2.916,0.054,3.585-1.985
	c3.525-10.755,6.704-21.599,9.478-32.576C339.192,236.18,337.75,235.944,334.75,236.382z M267.211,390.266
	c-9.168,8.624-19.602,11.485-31.639,6.912c-2.379-0.904-4.744-1.875-7.025-3.001c-1.952-0.964-3.658-0.868-5.32,0.493
	c-2.938,2.405-5.831,4.865-8.823,7.2c-2.626,2.049-2.538,4.011-0.334,6.349c5.893,6.249,11.546,12.715,17.617,18.811
	c3.113,3.126,5.214,2.899,8.164,0.021c13.593-13.263,25.672-27.714,35.767-44.65C272.532,385.286,269.865,387.769,267.211,390.266z
	 M275.972,274.435c5.548-1.392,11.107-2.741,16.68-4.027c3.127-0.721,4.41-2.397,4.159-5.745c-0.309-4.113-0.074-8.266-0.074-12.402
	c-0.274,0-0.547,0-0.821,0c0-4.773-0.075-9.548,0.026-14.319c0.07-3.307-0.997-4.357-4.248-2.922
	c-9.338,4.122-19.128,5.885-29.328,5.115c-3.105-0.234-3.648,1.094-2.553,3.689c4.013,9.507,8.029,19.014,12.011,28.535
	C272.636,274.301,273.913,274.952,275.972,274.435z M428.656,457.994c2.972,0.876,6.651,4.35,8.587,2.451
	c2.461-2.414-0.152-6.66-1.014-9.955c-3.525-13.47-12.913-20.189-25.445-18.576c-12.279,1.581-21.914,12.096-21.889,23.962
	c0,0.638-0.047,1.28,0.007,1.914c0.64,7.509,1.238,7.866,7.545,4.038C406.621,455.653,417.321,454.653,428.656,457.994z
	 M168.621,273.051c3.334,3.144,5.383,2.181,7.123-1.568c5.724-12.329,10.254-25.047,12.755-38.441
	c0.264-1.416,0.479-2.899-0.345-4.197c-4.671-7.36-9.379-14.697-14.3-22.394c-1.684,1.547-1.647,2.858-1.689,4.123
	c-0.517,15.582-3.561,30.645-8.824,45.326c-1.226,3.42-4.479,6.756-3.459,10.175C160.967,269.713,165.873,270.46,168.621,273.051z
	 M165.494,197.435c-0.277-6.404-2.006-12.113-6.326-17.775c-6.788,15.75-9.544,31.699-11.277,47.917
	c-1.023,9.576-0.474,19.112,0.181,28.654c0.167,2.431,0.919,5.067,3.786,5.431c2.921,0.371,2.809-2.656,3.473-4.346
	C162.892,238.076,166.391,218.144,165.494,197.435z M340.435,554.933c-5.179-2.862-10.664-4.925-16.722-5.166
	c-2.243-0.089-3.249,0.518-4.159,2.755c-2.35,5.782-2.955,12.019-5.307,17.818c-3.818,9.414-2.62,11.917,6.598,16.694
	c1.271,0.659,2.562,1.311,3.905,1.794c12.085,4.337,10.372,2.723,13.499-5.966c1.617-4.493,3.171-9.008,4.73-13.521
	c0.519-1.501,0.962-3.029,1.542-4.869C342.669,561.614,344.249,557.04,340.435,554.933z M376.208,445.86
	c-7.44-1.189-14.673-0.946-20.825,4.188c-8.374,6.988-11.237,16.275-11.034,26.831c0,1.432-0.094,2.872,0.027,4.294
	c0.115,1.347-0.719,3.18,0.767,3.918c1.479,0.735,2.578-0.889,3.641-1.718c6.923-5.404,14.692-7.395,23.313-5.847
	c2.214,0.398,3.27,0.004,3.24-2.485c-0.1-8.157,0.479-16.204,3.737-23.872C380.194,448.535,379.299,446.354,376.208,445.86z
	 M374.642,515.778c2.826,0.251,3.62,0.055,3.18-3.03c-1.1-7.716-2.614-15.41-2.446-23.256c0.049-2.283-0.902-3.367-3.029-4.136
	c-7.496-2.711-13.859-0.186-19.588,4.322c-4.99,3.926-11.669,7.238-8.679,15.732c0.479,3.785,0.968,7.57,1.433,11.357
	c0.35,2.854,1.559,4.129,4.44,2.524C357.726,514.96,366.187,515.027,374.642,515.778z M377.585,594.271
	c9.001-2.049,15.42-7.944,21.585-14.261c1.664-1.705,1.863-3.453,0.819-5.615c-1.661-3.44-3.317-6.91-4.573-10.508
	c-1.192-3.415-2.5-3.537-5.345-1.497c-9.376,6.722-19.575,11.224-32.187,10.071c1.733,5.199,3.492,9.651,4.676,14.251
	c1.295,5.03,4.236,7.523,9.36,7.886C373.859,594.735,375.686,594.703,377.585,594.271z M231.871,268.183
	c-2.979,1.143-1.232,2.642-0.101,3.854c5.103,5.469,10.234,10.912,15.42,16.301c8.036,8.35,9.343,8.218,16.125-1.384
	c0.552-0.781,1.173-1.527,1.62-2.365c0.87-1.63,2.206-3.065,1.277-5.268c-4.194-9.947-8.28-19.939-12.816-30.909
	C247.856,257.984,241.208,264.6,231.871,268.183z M329.121,598.25c-7.041-1.616-13.65-4.381-18.93-9.535
	c-1.995-1.948-3.074-1.651-4.166,0.776c-2.218,4.93-4.578,9.796-6.859,14.698c-3.008,6.463-1.403,11.265,4.645,15.278
	c4.721,3.133,10.081,2.416,15.103,3.066c5.037,1.297,6.921-1.334,8.055-5.674c1.244-4.76,2.955-9.411,4.671-14.031
	C332.655,600.098,332.157,598.947,329.121,598.25z M298.7,413.102c10.519-5.327,20.579-8.663,31.523-8.746
	c3.103-0.023,2.123-2.026,1.214-3.65c-3.041-5.432-6.134-10.835-9.171-16.269c-4.436-7.936-9.308-10.31-18.209-8.972
	c-2.003,0.301-3.29,1.033-3.411,3.218C300.025,389.824,299.388,400.965,298.7,413.102z M406.264,588.861
	c-1.154-3.267-2.439-3.098-4.681-0.959c-7.986,7.62-16.601,14.071-28.357,14.235c-2.119,0.029-2.465,1.014-1.337,2.726
	c3.551,5.391,7.527,10.373,13.566,13.151c7.37,3.39,15.402,1.891,19.579-3.747c3.104-4.189,3.373-9.182,3.322-14.173
	C408.451,596.197,407.558,592.523,406.264,588.861z M215.154,392.071c2.277-1.913,2.912-3.378-0.266-5.581
	c-13.022-9.03-22.947-21.028-31.609-34.155c-9.15-13.865-15.858-29.017-23.497-43.541c1.018,3.505,1.824,7.088,3.088,10.502
	c9.363,25.299,21.25,49.305,36.998,71.29c2.086,2.912,4.411,7.616,6.862,7.773C209.398,398.53,212.378,394.404,215.154,392.071z
	 M348.082,415.564c1.237,3.432,3.383,4.144,6.623,2.481c5.562-2.854,11.503-4.576,17.675-5.54c1.08-0.169,2.431-0.207,2.961-1.288
	c1.812-3.695,1.76-8.141,4.469-11.071c0.223-1.327-0.44-1.769-1.044-2.309c-10.368-9.267-15.854-9.389-26.465-0.568
	c-0.489,0.406-1.029,0.75-1.519,1.154c-7.998,6.575-8.171,7.476-3.157,16.302C347.783,415.004,347.976,415.269,348.082,415.564z
	 M357.712,195.358c5.272,3.544,10.966,5.871,17.419,5.907c4.221,0.023,8.868-7.861,6.561-11.393
	c-6.59-10.091-14.664-19.134-21.131-30.874c-1.728,11.715-3.216,22.062-4.811,32.392
	C355.452,193.317,356.303,194.411,357.712,195.358z M315.004,629.629c-7.499-0.465-14.577-1.531-19.872-7.643
	c-2.106-2.431-2.597-0.023-2.984,1.356c-1.301,4.639-1.743,9.416-1.575,14.214c0.281,8.027,4.703,12.204,12.726,12.237
	c7.078,0.029,10.777-2.655,16.035-11.637C323.623,630.827,323.392,630.149,315.004,629.629z M296.873,279.176
	c-0.001-2.253-1.454-2.065-2.972-1.706c-4.805,1.136-9.581,2.418-14.424,3.363c-2.665,0.52-3.109,1.691-2.055,3.937
	c1.356,2.886,2.594,5.831,4.018,8.682c4.734,9.475,8.979,19.21,15.436,28.085C296.877,307.417,296.88,293.296,296.873,279.176z
	 M321.99,282.094c-4.317-1.145-8.657-2.209-12.948-3.445c-3.484-1.004-4.621,0.339-4.569,3.75c0.105,6.865-0.02,13.733-0.035,20.6
	c-0.012,5.645-0.003,11.29-0.003,16.935c7.904-11.109,14.723-22.495,19.534-34.979C324.779,282.855,323.453,282.482,321.99,282.094z
	 M371.018,208.895c-5.221-0.82-10.186-2.373-14.739-5.142c-1.396-0.849-2.628-1.061-3.058,1.169
	c-1.263,6.548-2.63,13.076-3.833,19.01c-0.058,3.669,7.317,11.114,10.524,11.361c1.449,0.112,1.878-0.778,2.392-1.825
	c3.43-6.985,6.861-13.968,10.374-20.912C373.722,210.492,373.484,209.282,371.018,208.895z M340.178,398.023
	c3.903-4.249,8.52-7.651,13.325-10.805c0.667-0.437,1.37-0.818,2.673-1.592c-1.54-1.144-2.278-1.737-3.06-2.265
	c-7.781-5.257-15.587-10.478-23.344-15.771c-1.833-1.251-3.208-0.69-4.687,0.584c-1.664,1.433-2.209,2.84-1.02,4.96
	c4.514,8.049,8.888,16.177,13.334,24.264C338.055,398.589,338.687,399.645,340.178,398.023z M292.829,382.386
	c-0.642-1.711,1.644-4.999-1.581-5.788c-3.228-0.79-4.951,1.846-6.345,4.621c-2.787,5.547-5.99,10.875-9.771,15.817
	c-1.451,1.896-1.971,3.546,0.041,5.388c3.76,3.443,7.586,6.764,12.146,9.162c2.588,1.361,3.616,0.813,3.777-2.172
	C291.576,400.519,292.224,391.634,292.829,382.386z M356.445,241.749c-2.61-0.92-4.678-2.695-6.83-4.31
	c-2.227-1.671-2.855-0.688-3.38,1.537c-2.959,12.537-6.331,24.96-10.591,37.13c-0.377,1.077-1.401,2.554,0.368,3.271
	c1.312,0.532,2.904,0.597,4.014-0.597c0.856-0.921,1.624-1.988,2.179-3.115c4.919-9.972,9.783-19.971,14.655-29.966
	c0.347-0.713,0.629-1.457,0.845-1.963C357.859,242.501,357.2,242.015,356.445,241.749z M254.495,328.027
	c8.74,5.351,19.456,6.592,30.458,3.544c-8.712-7.312-20.989-18.97-25.506-21.407c-2.54-1.37-8.79,8.827-11,12.692
	C247.616,324.31,252.921,327.064,254.495,328.027z M272.477,292.093c-0.541-1.096-1.091-2.515-2.695-0.801
	c-2.502,2.672-5.137,5.219-7.723,7.812c-0.979,0.982-1.569,1.768-0.182,3.092c7.943,7.581,16.388,14.548,25.683,20.661
	C282.537,312.599,277.529,302.335,272.477,292.093z M384.73,181.439c0.508,0.677,0.878,1.966,2.06,1.572
	c1.114-0.372,1.624-1.469,1.863-2.604c0.287-1.36-0.369-2.46-1-3.586c-3.429-6.112-6.623-12.368-10.301-18.326
	c-4.068-6.588-8.234-13.162-13.796-18.797c-2.147,2.446-0.943,4.654-0.163,6.855C368.045,159.683,376.51,170.489,384.73,181.439z
	 M338.657,361.613c-1.203-0.531-2.418-0.727-4.339-0.253c4.901,3.463,9.278,6.576,13.679,9.654c1.169,0.817,2.417,1.52,3.619,2.29
	c8.914,5.711,8.775,5.684,10.861-4.647c0.684-3.388-0.597-3.817-3.368-3.623C352.03,365.53,345.18,364.494,338.657,361.613z
	 M303.692,361.52c-2.47,0.668-2.542,2.662-2.293,4.59c0.31,2.402,2.315,1.641,3.791,1.679c2.214,0.057,4.431,0.015,7.053,0.015
	c-0.56-2.771-1.944-4.355-3.059-6.063C307.501,359.163,305.548,361.018,303.692,361.52z M333.237,287.245
	c-1.007-0.3-1.979,0.021-2.454,0.961c-1.074,2.122-1.995,4.321-3.027,6.465c-2.084,4.329-4.201,8.643-6.304,12.963
	c0.423,0.226,0.845,0.453,1.268,0.679c3.707-6.375,7.43-12.74,11.096-19.138C334.202,288.501,334.289,287.558,333.237,287.245z
	 M464.298,512.88c12.223-10.326,26.351-14.565,42.243-12.562c3.73,0.47,4.035-0.819,3.003-3.959
	c-2.785-8.475-5.331-17.028-7.994-25.544c-2.347-7.503-2.36-7.5-10.171-7.944c-0.797-0.045-11.363-0.179-15.753,0.54
	c-10.671,1.75-20.83,4.713-28.38,13.307c-2.249,2.56-1.71,4.094-0.385,7.475c1.579,4.026,10.862,21.585,13.41,27.43
	C461.152,513.643,461.905,514.902,464.298,512.88z M216.399,304.463c7.39,4.722,14.779,9.454,21.982,14.452
	c2.6,1.804,3.546,0.903,5.172-1.25c3.714-4.915,5.515-7.566,7.32-10.99c0.969-1.838,0.644-3.582-0.792-5.306
	c-7.35-8.827-18.448-24.117-22.767-24.117c-5.086,0-6.757,11.796-12.339,22.622C213.785,302.183,214.461,303.225,216.399,304.463z
	 M318.415,364.722c2.016-0.31,2.911-1.213,5.012-3.104c-2.105-1.563-2.802-2.858-4.614-4.132c-1.208-0.849-2.364-2.655-4.045-0.912
	c-1.35,1.4-2.48,3.044-0.895,5.053C315.064,363.136,316.813,364.968,318.415,364.722z"/>
<g>
</g>
<g>
</g>
<g>
</g>
<g>
</g>
<g>
</g>
</svg>
