<svg xmlns="http://www.w3.org/2000/svg" xmlns:xlink="http://www.w3.org/1999/xlink" baseProfile="full" version="1.1" width="936px" height="302px" viewBox="52 67 936 302">
    <defs>
        <radialGradient id="A_gradient" gradientUnits="userSpaceOnUse" cx="613.0" cy="302.0" r="161.0">
            <stop offset="0.0" stop-color="#ffffff"/>
            <stop offset="1.0" stop-color="#ff8258"/>
        </radialGradient>
        <radialGradient id="Intersection_gradient" gradientUnits="userSpaceOnUse" cx="508.68" cy="505.0" r="122.63">
            <stop offset="0.0" stop-color="#081b29"/>
            <stop offset="1.0" stop-color="#425ba6"/>
        </radialGradient>
        <linearGradient id="B_gradient" gradientUnits="userSpaceOnUse" x1="724.0" y1="754.0" x2="453.0" y2="484.0">
            <stop offset="-0.0" stop-color="#4aa5ff"/>
            <stop offset="1.0" stop-color="#ffffff"/>
        </linearGradient>
    </defs>
    <g id="Group" transform="matrix(1 0 0 1 -14 -12)">
        <g id="Blend2D" transform="matrix(0.644944 0 0 0.644944 11.4404 34.9045)">
            <path id="Background" d="M 416.306 255 L 517 255 C 530.807 255 542 266.193 542 280 L 542 500 C 542 513.807 530.807 525 517 525 L 297 525 C 283.193 525 272 513.807 272 500 L 272 399.306 C 267.062 399.765 262.058 400 257 400 C 168.634 400 97 328.366 97 240 C 97 151.634 168.634 80 257 80 C 345.366 80 417 151.634 417 240 C 417 245.058 416.765 250.062 416.306 255" fill-rule="evenodd" fill="#000000" stroke="#000000" stroke-width="23.0" transform="matrix(1 0 0 1 -5.68434e-14 -7.10543e-14)"/>
            <g id="Foreground" transform="matrix(1 0 0 1 0 -2.55795e-13)">
                <path id="A" d="M 773.306 316 L 654 316 C 640.193 316 629 327.193 629 341 L 629 460.306 C 624.062 460.765 619.058 461 614 461 C 525.634 461 454 389.366 454 301 C 454 212.634 525.634 141 614 141 C 702.366 141 774 212.634 774 301 C 774 306.058 773.765 311.062 773.306 316" fill-rule="evenodd" fill="url(#A_gradient)" transform="matrix(1 0 0 1 -357 -61)"/>
                <path id="Intersection" d="M 644.306 498 C 637.203 574.394 576.394 635.203 500 642.306 L 500 523 C 500 509.193 511.193 498 525 498 L 644.306 498" fill-rule="evenodd" fill="url(#Intersection_gradient)" transform="matrix(1 0 0 1 -228 -243)"/>
                <path id="B" d="M 597.306 484 L 698 484 C 711.807 484 723 495.193 723 509 L 723 729 C 723 742.807 711.807 754 698 754 L 478 754 C 464.193 754 453 742.807 453 729 L 453 628.306 C 529.394 621.203 590.203 560.394 597.306 484" fill-rule="evenodd" fill="url(#B_gradient)" transform="matrix(1 0 0 1 -181 -229)"/>
            </g>
        </g>
        <g id="Text" transform="matrix(1 0 0 1 -207 -149)">
            <path id="Blend2D-2" d="M 8.74125 9.54863 C 9.46575 9.70612 10.0249 10.0185 10.4186 10.4857 C 10.8124 10.953 11.0092 11.5541 11.0092 12.2891 C 11.0092 13.2341 10.6601 13.9612 9.96188 14.4705 C 9.26362 14.9797 8.232 15.2344 6.867 15.2344 L 1.7955 15.2344 L 1.7955 4.20938 L 6.552 4.20938 C 7.7805 4.20938 8.73337 4.45613 9.41062 4.94963 C 10.0879 5.44312 10.4265 6.14137 10.4265 7.04437 C 10.4265 7.65338 10.2769 8.1705 9.97763 8.59575 C 9.67837 9.021 9.26625 9.33862 8.74125 9.54863 M 2.961 5.17013 L 2.961 9.17062 L 6.47325 9.17062 C 7.36575 9.17062 8.0535 9 8.5365 8.65875 C 9.0195 8.3175 9.261 7.82137 9.261 7.17038 C 9.261 6.51937 9.0195 6.02325 8.5365 5.682 C 8.0535 5.34075 7.36575 5.17012 6.47325 5.17013 L 2.961 5.17013 M 6.85125 14.2736 C 7.83825 14.2736 8.58375 14.1056 9.08775 13.7696 C 9.59175 13.4336 9.84375 12.9086 9.84375 12.1946 C 9.84375 10.8191 8.84625 10.1314 6.85125 10.1314 L 2.961 10.1314 L 2.961 14.2736 L 6.85125 14.2736 M 13.4303 3.54788 L 14.5486 3.54788 L 14.5486 15.2344 L 13.4303 15.2344 L 13.4303 3.54788 M 24.8743 11.4386 L 17.9443 11.4386 C 18.0073 12.2996 18.3381 12.9952 18.9366 13.5255 C 19.5351 14.0557 20.2911 14.3209 21.2046 14.3209 C 21.7191 14.3209 22.1916 14.229 22.6221 14.0452 C 23.0526 13.8615 23.4253 13.5911 23.7403 13.2341 L 24.3703 13.9586 C 24.0028 14.3996 23.5434 14.7356 22.9922 14.9666 C 22.4409 15.1976 21.8346 15.3131 21.1731 15.3131 C 20.3226 15.3131 19.5692 15.132 18.9129 14.7698 C 18.2567 14.4075 17.7448 13.9061 17.3773 13.2656 C 17.0098 12.6251 16.8261 11.9006 16.8261 11.0921 C 16.8261 10.2836 17.0019 9.55913 17.3537 8.91863 C 17.7054 8.27813 18.1884 7.77938 18.8027 7.42238 C 19.4169 7.06537 20.1073 6.88687 20.8738 6.88687 C 21.6403 6.88687 22.3281 7.06537 22.9371 7.42238 C 23.5461 7.77938 24.0238 8.2755 24.3703 8.91075 C 24.7168 9.546 24.8901 10.2731 24.8901 11.0921 L 24.8743 11.4386 M 20.8738 7.84763 C 20.0758 7.84762 19.4064 8.10225 18.8657 8.6115 C 18.3249 9.12075 18.0178 9.78487 17.9443 10.6039 L 23.8191 10.6039 C 23.7456 9.78487 23.4384 9.12075 22.8977 8.6115 C 22.3569 8.10225 21.6823 7.84762 20.8738 7.84763 M 31.3857 6.88687 C 32.4252 6.88687 33.2521 7.18875 33.8663 7.7925 C 34.4806 8.39625 34.7877 9.27563 34.7877 10.4306 L 34.7877 15.2344 L 33.6695 15.2344 L 33.6695 10.5409 C 33.6695 9.67987 33.4542 9.02362 33.0237 8.57213 C 32.5932 8.12062 31.979 7.89487 31.181 7.89487 C 30.2885 7.89487 29.5823 8.16 29.0626 8.69025 C 28.5428 9.2205 28.283 9.95288 28.283 10.8874 L 28.283 15.2344 L 27.1647 15.2344 L 27.1647 6.94988 L 28.2357 6.94988 L 28.2357 8.47763 C 28.5402 7.97362 28.9628 7.5825 29.5036 7.30425 C 30.0443 7.026 30.6717 6.88687 31.3857 6.88687 M 45.4122 3.54788 L 45.4122 15.2344 L 44.3412 15.2344 L 44.3412 13.5964 C 44.0052 14.1529 43.5616 14.5781 43.0103 14.8721 C 42.4591 15.1661 41.837 15.3131 41.144 15.3131 C 40.367 15.3131 39.6635 15.1346 39.0335 14.7776 C 38.4035 14.4206 37.91 13.9219 37.553 13.2814 C 37.196 12.6409 37.0175 11.9111 37.0175 11.0921 C 37.0175 10.2731 37.196 9.54338 37.553 8.90288 C 37.91 8.26238 38.4035 7.76625 39.0335 7.4145 C 39.6635 7.06275 40.367 6.88687 41.144 6.88687 C 41.816 6.88687 42.4223 7.026 42.9631 7.30425 C 43.5038 7.5825 43.9475 7.98937 44.294 8.52487 L 44.294 3.54788 L 45.4122 3.54788 M 41.2385 14.3209 C 41.816 14.3209 42.3383 14.187 42.8056 13.9193 C 43.2728 13.6515 43.6403 13.2709 43.9081 12.7774 C 44.1758 12.2839 44.3097 11.7221 44.3097 11.0921 C 44.3097 10.4621 44.1758 9.90037 43.9081 9.40687 C 43.6403 8.91337 43.2728 8.53275 42.8056 8.265 C 42.3383 7.99725 41.816 7.86337 41.2385 7.86337 C 40.6505 7.86337 40.1228 7.99725 39.6556 8.265 C 39.1883 8.53275 38.8208 8.91337 38.5531 9.40687 C 38.2853 9.90037 38.1515 10.4621 38.1515 11.0921 C 38.1515 11.7221 38.2853 12.2839 38.5531 12.7774 C 38.8208 13.2709 39.1883 13.6515 39.6556 13.9193 C 40.1228 14.187 40.6505 14.3209 41.2385 14.3209 M 55.3162 14.2264 L 55.3162 15.2344 L 47.583 15.2344 L 47.583 14.4311 L 52.1663 9.94238 C 52.7437 9.37537 53.1349 8.8845 53.3396 8.46975 C 53.5444 8.055 53.6467 7.63762 53.6467 7.21762 C 53.6467 6.56662 53.4236 6.06 52.9774 5.69775 C 52.5311 5.3355 51.8932 5.15437 51.0637 5.15438 C 49.7722 5.15437 48.7695 5.56387 48.0555 6.38287 L 47.2522 5.68988 C 47.6827 5.18587 48.2314 4.79737 48.8981 4.52438 C 49.5649 4.25137 50.3182 4.11487 51.1582 4.11487 C 52.2817 4.11487 53.1716 4.38 53.8279 4.91025 C 54.4841 5.4405 54.8122 6.16762 54.8123 7.09163 C 54.8122 7.65863 54.6862 8.20462 54.4343 8.72962 C 54.1822 9.25462 53.7045 9.85837 53.001 10.5409 L 49.2525 14.2264 L 55.3162 14.2264 M 57.7057 4.20938 L 62.1944 4.20938 C 63.3599 4.20938 64.3889 4.443 65.2814 4.91025 C 66.1739 5.3775 66.8669 6.0285 67.3604 6.86325 C 67.8539 7.698 68.1007 8.65088 68.1007 9.72187 C 68.1007 10.7929 67.8539 11.7457 67.3604 12.5805 C 66.8669 13.4153 66.1739 14.0663 65.2814 14.5335 C 64.3889 15.0007 63.3599 15.2344 62.1944 15.2344 L 57.7057 15.2344 L 57.7057 4.20938 M 62.1314 14.2264 C 63.0974 14.2264 63.9426 14.0347 64.6672 13.6515 C 65.3917 13.2682 65.9534 12.738 66.3524 12.0607 C 66.7514 11.3835 66.9509 10.6039 66.9509 9.72187 C 66.9509 8.83987 66.7514 8.06025 66.3524 7.383 C 65.9534 6.70575 65.3917 6.1755 64.6672 5.79225 C 63.9426 5.409 63.0974 5.21737 62.1314 5.21738 L 58.8712 5.21738 L 58.8712 14.2264 L 62.1314 14.2264" fill-rule="evenodd" fill="#000000" transform="matrix(9.02552 0 0 8.9983 593.523 261.425)"/>
            <path id="2D Vector Graphics Engine" d="M 8.3475 14.2264 L 8.3475 15.2344 L 0.61425 15.2344 L 0.61425 14.4311 L 5.1975 9.94238 C 5.775 9.37537 6.16613 8.8845 6.37088 8.46975 C 6.57562 8.055 6.678 7.63762 6.678 7.21762 C 6.678 6.56662 6.45488 6.06 6.00863 5.69775 C 5.56238 5.3355 4.9245 5.15437 4.095 5.15438 C 2.8035 5.15437 1.80075 5.56387 1.08675 6.38287 L 0.2835 5.68988 C 0.714 5.18587 1.26262 4.79737 1.92937 4.52438 C 2.59612 4.25137 3.3495 4.11487 4.1895 4.11487 C 5.313 4.11487 6.20288 4.38 6.85913 4.91025 C 7.51538 5.4405 7.8435 6.16762 7.8435 7.09163 C 7.8435 7.65863 7.7175 8.20462 7.4655 8.72962 C 7.2135 9.25462 6.73575 9.85837 6.03225 10.5409 L 2.28375 14.2264 L 8.3475 14.2264 M 10.7369 4.20938 L 15.2257 4.20938 C 16.3912 4.20938 17.4202 4.443 18.3127 4.91025 C 19.2052 5.3775 19.8982 6.0285 20.3917 6.86325 C 20.8852 7.698 21.1319 8.65088 21.1319 9.72187 C 21.1319 10.7929 20.8852 11.7457 20.3917 12.5805 C 19.8982 13.4153 19.2052 14.0663 18.3127 14.5335 C 17.4202 15.0007 16.3912 15.2344 15.2257 15.2344 L 10.7369 15.2344 L 10.7369 4.20938 M 15.1627 14.2264 C 16.1287 14.2264 16.9739 14.0347 17.6984 13.6515 C 18.4229 13.2682 18.9847 12.738 19.3837 12.0607 C 19.7827 11.3835 19.9822 10.6039 19.9822 9.72187 C 19.9822 8.83987 19.7827 8.06025 19.3837 7.383 C 18.9847 6.70575 18.4229 6.1755 17.6984 5.79225 C 16.9739 5.409 16.1287 5.21737 15.1627 5.21738 L 11.9024 5.21738 L 11.9024 14.2264 L 15.1627 14.2264 M 37.0362 4.20938 L 32.1537 15.2344 L 31.004 15.2344 L 26.1215 4.20938 L 27.3815 4.20938 L 31.6025 13.7854 L 35.855 4.20938 L 37.0362 4.20938 M 44.972 11.4386 L 38.042 11.4386 C 38.105 12.2996 38.4357 12.9952 39.0342 13.5255 C 39.6327 14.0557 40.3887 14.3209 41.3022 14.3209 C 41.8167 14.3209 42.2892 14.229 42.7197 14.0452 C 43.1502 13.8615 43.523 13.5911 43.838 13.2341 L 44.468 13.9586 C 44.1005 14.3996 43.6411 14.7356 43.0898 14.9666 C 42.5386 15.1976 41.9322 15.3131 41.2707 15.3131 C 40.4202 15.3131 39.6668 15.132 39.0106 14.7698 C 38.3543 14.4075 37.8425 13.9061 37.475 13.2656 C 37.1075 12.6251 36.9237 11.9006 36.9237 11.0921 C 36.9237 10.2836 37.0996 9.55913 37.4513 8.91863 C 37.8031 8.27813 38.2861 7.77938 38.9003 7.42238 C 39.5146 7.06537 40.205 6.88687 40.9715 6.88687 C 41.738 6.88687 42.4257 7.06537 43.0347 7.42238 C 43.6437 7.77938 44.1215 8.2755 44.468 8.91075 C 44.8145 9.546 44.9877 10.2731 44.9877 11.0921 L 44.972 11.4386 M 40.9715 7.84763 C 40.1735 7.84762 39.5041 8.10225 38.9633 8.6115 C 38.4226 9.12075 38.1155 9.78487 38.042 10.6039 L 43.9167 10.6039 C 43.8432 9.78487 43.5361 9.12075 42.9953 8.6115 C 42.4546 8.10225 41.78 7.84762 40.9715 7.84763 M 50.6959 15.3131 C 49.8769 15.3131 49.1445 15.1346 48.4988 14.7776 C 47.853 14.4206 47.3464 13.9193 46.9789 13.2735 C 46.6114 12.6277 46.4276 11.9006 46.4276 11.0921 C 46.4276 10.2836 46.6114 9.55913 46.9789 8.91863 C 47.3464 8.27813 47.853 7.77938 48.4988 7.42238 C 49.1445 7.06537 49.8769 6.88687 50.6959 6.88687 C 51.4099 6.88687 52.0477 7.026 52.6095 7.30425 C 53.1712 7.5825 53.6149 7.98937 53.9404 8.52487 L 53.1056 9.09188 C 52.8326 8.68237 52.4861 8.37525 52.0661 8.1705 C 51.6461 7.96575 51.1894 7.86337 50.6959 7.86337 C 50.0974 7.86337 49.5592 7.99725 49.0815 8.265 C 48.6038 8.53275 48.231 8.91337 47.9633 9.40687 C 47.6955 9.90037 47.5616 10.4621 47.5616 11.0921 C 47.5616 11.7326 47.6955 12.297 47.9633 12.7853 C 48.231 13.2735 48.6038 13.6515 49.0815 13.9193 C 49.5592 14.187 50.0974 14.3209 50.6959 14.3209 C 51.1894 14.3209 51.6461 14.2211 52.0661 14.0216 C 52.4861 13.8221 52.8326 13.5176 53.1056 13.1081 L 53.9404 13.6751 C 53.6149 14.2106 53.1686 14.6175 52.6016 14.8958 C 52.0346 15.174 51.3994 15.3131 50.6959 15.3131 M 60.5782 14.7304 C 60.3682 14.9194 60.1084 15.0637 59.7986 15.1635 C 59.4889 15.2632 59.166 15.3131 58.83 15.3131 C 58.053 15.3131 57.4545 15.1031 57.0345 14.6831 C 56.6145 14.2631 56.4045 13.6699 56.4045 12.9034 L 56.4045 7.89487 L 54.924 7.89487 L 54.924 6.94988 L 56.4045 6.94988 L 56.4045 5.13863 L 57.5227 5.13863 L 57.5227 6.94988 L 60.0427 6.94988 L 60.0427 7.89487 L 57.5227 7.89487 L 57.5227 12.8404 C 57.5227 13.3339 57.6461 13.7092 57.8929 13.9665 C 58.1396 14.2238 58.494 14.3524 58.956 14.3524 C 59.187 14.3524 59.4101 14.3156 59.6254 14.2421 C 59.8406 14.1686 60.027 14.0636 60.1845 13.9271 L 60.5782 14.7304 M 65.6838 15.3131 C 64.8858 15.3131 64.1665 15.132 63.526 14.7698 C 62.8855 14.4075 62.3815 13.9061 62.014 13.2656 C 61.6465 12.6251 61.4628 11.9006 61.4628 11.0921 C 61.4628 10.2836 61.6465 9.55913 62.014 8.91863 C 62.3815 8.27813 62.8855 7.77938 63.526 7.42238 C 64.1665 7.06537 64.8858 6.88687 65.6838 6.88687 C 66.4818 6.88687 67.201 7.06537 67.8415 7.42238 C 68.482 7.77938 68.9834 8.27813 69.3457 8.91863 C 69.7079 9.55913 69.889 10.2836 69.889 11.0921 C 69.889 11.9006 69.7079 12.6251 69.3457 13.2656 C 68.9834 13.9061 68.482 14.4075 67.8415 14.7698 C 67.201 15.132 66.4818 15.3131 65.6838 15.3131 M 65.6838 14.3209 C 66.2718 14.3209 66.7994 14.187 67.2667 13.9193 C 67.7339 13.6515 68.0988 13.2709 68.3613 12.7774 C 68.6238 12.2839 68.755 11.7221 68.755 11.0921 C 68.755 10.4621 68.6238 9.90037 68.3613 9.40687 C 68.0988 8.91337 67.7339 8.53275 67.2667 8.265 C 66.7994 7.99725 66.2718 7.86337 65.6838 7.86337 C 65.0958 7.86337 64.5681 7.99725 64.1009 8.265 C 63.6337 8.53275 63.2662 8.91337 62.9984 9.40687 C 62.7307 9.90037 62.5968 10.4621 62.5968 11.0921 C 62.5968 11.7221 62.7307 12.2839 62.9984 12.7774 C 63.2662 13.2709 63.6337 13.6515 64.1009 13.9193 C 64.5681 14.187 65.0958 14.3209 65.6838 14.3209 M 73.2357 8.57213 C 73.4982 8.01562 73.8893 7.59562 74.4091 7.31213 C 74.9288 7.02863 75.572 6.88687 76.3385 6.88687 L 76.3385 7.97363 L 76.0707 7.95788 C 75.1992 7.95788 74.5167 8.22563 74.0232 8.76113 C 73.5297 9.29663 73.283 10.0474 73.283 11.0134 L 73.283 15.2344 L 72.1647 15.2344 L 72.1647 6.94988 L 73.2357 6.94988 L 73.2357 8.57213 M 90.5954 9.72187 L 91.7137 9.72187 L 91.7137 13.9271 C 91.1992 14.3786 90.5901 14.7251 89.8867 14.9666 C 89.1832 15.2081 88.4429 15.3289 87.6659 15.3289 C 86.5634 15.3289 85.5712 15.0874 84.6892 14.6044 C 83.8072 14.1214 83.1142 13.452 82.6102 12.5963 C 82.1062 11.7405 81.8542 10.7824 81.8542 9.72187 C 81.8542 8.66138 82.1062 7.70325 82.6102 6.8475 C 83.1142 5.99175 83.8072 5.32237 84.6892 4.83938 C 85.5712 4.35637 86.5687 4.11487 87.6817 4.11487 C 88.5217 4.11487 89.2934 4.24875 89.9969 4.5165 C 90.7004 4.78425 91.2937 5.18062 91.7767 5.70563 L 91.0522 6.44588 C 90.1807 5.58487 89.0729 5.15437 87.7289 5.15438 C 86.8364 5.15437 86.0305 5.35125 85.3113 5.745 C 84.592 6.13875 84.0277 6.68475 83.6182 7.383 C 83.2087 8.08125 83.0039 8.86087 83.0039 9.72187 C 83.0039 10.5829 83.2087 11.3599 83.6182 12.0529 C 84.0277 12.7459 84.5894 13.2919 85.3034 13.6909 C 86.0174 14.0899 86.8207 14.2894 87.7132 14.2894 C 88.8472 14.2894 89.8079 14.0059 90.5954 13.4389 L 90.5954 9.72187 M 95.8295 8.57213 C 96.092 8.01562 96.4831 7.59562 97.0028 7.31213 C 97.5226 7.02863 98.1657 6.88687 98.9322 6.88687 L 98.9322 7.97363 L 98.6645 7.95788 C 97.793 7.95788 97.1105 8.22563 96.617 8.76113 C 96.1235 9.29663 95.8767 10.0474 95.8767 11.0134 L 95.8767 15.2344 L 94.7585 15.2344 L 94.7585 6.94988 L 95.8295 6.94988 L 95.8295 8.57213 M 103.821 6.88687 C 104.902 6.88687 105.732 7.15725 106.309 7.698 C 106.887 8.23875 107.175 9.03937 107.175 10.0999 L 107.175 15.2344 L 106.104 15.2344 L 106.104 13.9429 C 105.852 14.3734 105.482 14.7094 104.994 14.9509 C 104.506 15.1924 103.926 15.3131 103.254 15.3131 C 102.33 15.3131 101.595 15.0926 101.049 14.6516 C 100.503 14.2106 100.23 13.6279 100.23 12.9034 C 100.23 12.1999 100.484 11.6329 100.993 11.2024 C 101.503 10.7719 102.314 10.5566 103.427 10.5566 L 106.057 10.5566 L 106.057 10.0526 C 106.057 9.33862 105.858 8.79525 105.459 8.4225 C 105.06 8.04975 104.477 7.86337 103.71 7.86337 C 103.185 7.86337 102.681 7.95 102.198 8.12325 C 101.715 8.2965 101.301 8.53537 100.954 8.83987 L 100.45 8.00513 C 100.87 7.64813 101.374 7.3725 101.962 7.17825 C 102.55 6.984 103.17 6.88687 103.821 6.88687 M 103.427 14.4311 C 104.057 14.4311 104.598 14.2867 105.049 13.998 C 105.501 13.7092 105.837 13.2919 106.057 12.7459 L 106.057 11.3914 L 103.458 11.3914 C 102.041 11.3914 101.332 11.8849 101.332 12.8719 C 101.332 13.3549 101.516 13.7355 101.883 14.0137 C 102.251 14.292 102.765 14.4311 103.427 14.4311 M 114.472 6.88687 C 115.249 6.88687 115.953 7.06275 116.583 7.4145 C 117.213 7.76625 117.706 8.26238 118.063 8.90288 C 118.42 9.54338 118.599 10.2731 118.599 11.0921 C 118.599 11.9216 118.42 12.6566 118.063 13.2971 C 117.706 13.9376 117.215 14.4337 116.59 14.7855 C 115.966 15.1372 115.26 15.3131 114.472 15.3131 C 113.8 15.3131 113.194 15.174 112.653 14.8958 C 112.112 14.6175 111.669 14.2106 111.322 13.6751 L 111.322 18.2899 L 110.204 18.2899 L 110.204 6.94988 L 111.275 6.94988 L 111.275 8.58788 C 111.611 8.04187 112.054 7.62188 112.606 7.32788 C 113.157 7.03387 113.779 6.88687 114.472 6.88687 M 114.393 14.3209 C 114.971 14.3209 115.496 14.187 115.968 13.9193 C 116.441 13.6515 116.811 13.2709 117.079 12.7774 C 117.346 12.2839 117.48 11.7221 117.48 11.0921 C 117.48 10.4621 117.346 9.903 117.079 9.41475 C 116.811 8.9265 116.441 8.54587 115.968 8.27288 C 115.496 7.99988 114.971 7.86337 114.393 7.86337 C 113.805 7.86337 113.278 7.99988 112.81 8.27288 C 112.343 8.54587 111.976 8.9265 111.708 9.41475 C 111.44 9.903 111.306 10.4621 111.306 11.0921 C 111.306 11.7221 111.44 12.2839 111.708 12.7774 C 111.976 13.2709 112.343 13.6515 112.81 13.9193 C 113.278 14.187 113.805 14.3209 114.393 14.3209 M 125.101 6.88687 C 126.14 6.88687 126.967 7.18875 127.581 7.7925 C 128.195 8.39625 128.503 9.27563 128.503 10.4306 L 128.503 15.2344 L 127.384 15.2344 L 127.384 10.5409 C 127.384 9.67987 127.169 9.02362 126.739 8.57213 C 126.308 8.12062 125.694 7.89487 124.896 7.89487 C 124.003 7.89487 123.297 8.16 122.777 8.69025 C 122.258 9.2205 121.998 9.95288 121.998 10.8874 L 121.998 15.2344 L 120.88 15.2344 L 120.88 3.54788 L 121.998 3.54788 L 121.998 8.39887 C 122.302 7.91587 122.722 7.54312 123.258 7.28063 C 123.793 7.01813 124.408 6.88687 125.101 6.88687 M 131.532 6.94988 L 132.65 6.94988 L 132.65 15.2344 L 131.532 15.2344 L 131.532 6.94988 M 132.099 5.13863 C 131.868 5.13863 131.674 5.05988 131.516 4.90237 C 131.359 4.74487 131.28 4.55588 131.28 4.33538 C 131.28 4.12538 131.359 3.94162 131.516 3.78412 C 131.674 3.62662 131.868 3.54788 132.099 3.54788 C 132.33 3.54788 132.524 3.624 132.682 3.77625 C 132.839 3.9285 132.918 4.10963 132.918 4.31963 C 132.918 4.55063 132.839 4.74487 132.682 4.90237 C 132.524 5.05988 132.33 5.13863 132.099 5.13863 M 139.196 15.3131 C 138.377 15.3131 137.644 15.1346 136.999 14.7776 C 136.353 14.4206 135.846 13.9193 135.479 13.2735 C 135.111 12.6277 134.928 11.9006 134.928 11.0921 C 134.928 10.2836 135.111 9.55913 135.479 8.91863 C 135.846 8.27813 136.353 7.77938 136.999 7.42238 C 137.644 7.06537 138.377 6.88687 139.196 6.88687 C 139.91 6.88687 140.548 7.026 141.109 7.30425 C 141.671 7.5825 142.115 7.98937 142.44 8.52487 L 141.606 9.09188 C 141.333 8.68237 140.986 8.37525 140.566 8.1705 C 140.146 7.96575 139.689 7.86337 139.196 7.86337 C 138.597 7.86337 138.059 7.99725 137.582 8.265 C 137.104 8.53275 136.731 8.91337 136.463 9.40687 C 136.195 9.90037 136.062 10.4621 136.062 11.0921 C 136.062 11.7326 136.195 12.297 136.463 12.7853 C 136.731 13.2735 137.104 13.6515 137.582 13.9193 C 138.059 14.187 138.597 14.3209 139.196 14.3209 C 139.689 14.3209 140.146 14.2211 140.566 14.0216 C 140.986 13.8221 141.333 13.5176 141.606 13.1081 L 142.44 13.6751 C 142.115 14.2106 141.669 14.6175 141.102 14.8958 C 140.535 15.174 139.899 15.3131 139.196 15.3131 M 146.842 15.3131 C 146.17 15.3131 145.527 15.216 144.913 15.0217 C 144.299 14.8275 143.818 14.5834 143.472 14.2894 L 143.976 13.4074 C 144.322 13.6804 144.758 13.9035 145.283 14.0768 C 145.808 14.25 146.354 14.3366 146.921 14.3366 C 147.677 14.3366 148.236 14.2185 148.599 13.9822 C 148.961 13.746 149.142 13.4126 149.142 12.9821 C 149.142 12.6776 149.042 12.4387 148.843 12.2655 C 148.643 12.0922 148.391 11.961 148.087 11.8718 C 147.782 11.7825 147.378 11.6959 146.874 11.6119 C 146.202 11.4859 145.661 11.3572 145.252 11.226 C 144.842 11.0947 144.493 10.8716 144.204 10.5566 C 143.916 10.2416 143.771 9.80587 143.771 9.24938 C 143.771 8.55637 144.06 7.98937 144.638 7.54837 C 145.215 7.10737 146.018 6.88687 147.047 6.88687 C 147.583 6.88687 148.118 6.95775 148.654 7.0995 C 149.189 7.24125 149.63 7.42762 149.977 7.65863 L 149.488 8.55637 C 148.806 8.08387 147.992 7.84762 147.047 7.84763 C 146.333 7.84762 145.795 7.97362 145.433 8.22562 C 145.071 8.47762 144.89 8.80837 144.89 9.21787 C 144.89 9.53287 144.992 9.78487 145.197 9.97388 C 145.401 10.1629 145.656 10.302 145.96 10.3912 C 146.265 10.4805 146.685 10.5724 147.221 10.6669 C 147.882 10.7929 148.412 10.9189 148.811 11.0449 C 149.21 11.1709 149.551 11.3861 149.835 11.6906 C 150.118 11.9951 150.26 12.4151 150.26 12.9506 C 150.26 13.6751 149.958 14.25 149.355 14.6752 C 148.751 15.1005 147.914 15.3131 146.842 15.3131 M 164.478 14.2264 L 164.478 15.2344 L 156.682 15.2344 L 156.682 4.20938 L 164.242 4.20938 L 164.242 5.21738 L 157.848 5.21738 L 157.848 9.13913 L 163.549 9.13913 L 163.549 10.1314 L 157.848 10.1314 L 157.848 14.2264 L 164.478 14.2264 M 171.202 6.88687 C 172.242 6.88687 173.068 7.18875 173.683 7.7925 C 174.297 8.39625 174.604 9.27563 174.604 10.4306 L 174.604 15.2344 L 173.486 15.2344 L 173.486 10.5409 C 173.486 9.67987 173.271 9.02362 172.84 8.57213 C 172.41 8.12062 171.795 7.89487 170.997 7.89487 C 170.105 7.89487 169.399 8.16 168.879 8.69025 C 168.359 9.2205 168.099 9.95288 168.099 10.8874 L 168.099 15.2344 L 166.981 15.2344 L 166.981 6.94988 L 168.052 6.94988 L 168.052 8.47763 C 168.357 7.97362 168.779 7.5825 169.32 7.30425 C 169.861 7.026 170.488 6.88687 171.202 6.88687 M 185.339 6.94988 L 185.339 14.2264 C 185.339 15.6334 184.995 16.6755 184.307 17.3527 C 183.619 18.03 182.583 18.3686 181.197 18.3686 C 180.43 18.3686 179.703 18.2557 179.015 18.03 C 178.327 17.8043 177.768 17.4919 177.338 17.0929 L 177.905 16.2424 C 178.304 16.5994 178.79 16.8776 179.362 17.0771 C 179.934 17.2766 180.535 17.3764 181.165 17.3764 C 182.215 17.3764 182.987 17.1322 183.48 16.644 C 183.974 16.1557 184.221 15.3971 184.221 14.3681 L 184.221 13.3129 C 183.874 13.8379 183.42 14.2369 182.858 14.5099 C 182.296 14.7829 181.674 14.9194 180.992 14.9194 C 180.215 14.9194 179.509 14.7487 178.874 14.4075 C 178.238 14.0662 177.739 13.5885 177.377 12.9742 C 177.015 12.36 176.834 11.6644 176.834 10.8874 C 176.834 10.1104 177.015 9.41737 177.377 8.80838 C 177.739 8.19937 178.236 7.72687 178.866 7.39087 C 179.496 7.05487 180.204 6.88687 180.992 6.88687 C 181.695 6.88687 182.331 7.02863 182.898 7.31213 C 183.465 7.59562 183.921 8.00512 184.268 8.54062 L 184.268 6.94988 L 185.339 6.94988 M 181.102 13.9271 C 181.701 13.9271 182.241 13.7985 182.724 13.5413 C 183.207 13.284 183.583 12.9244 183.851 12.4624 C 184.118 12.0004 184.252 11.4754 184.252 10.8874 C 184.252 10.2994 184.118 9.777 183.851 9.32025 C 183.583 8.8635 183.21 8.5065 182.732 8.24925 C 182.254 7.992 181.711 7.86337 181.102 7.86337 C 180.504 7.86337 179.965 7.98938 179.488 8.24138 C 179.01 8.49338 178.637 8.85037 178.37 9.31238 C 178.102 9.77437 177.968 10.2994 177.968 10.8874 C 177.968 11.4754 178.102 12.0004 178.37 12.4624 C 178.637 12.9244 179.01 13.284 179.488 13.5413 C 179.965 13.7985 180.504 13.9271 181.102 13.9271 M 188.462 6.94988 L 189.58 6.94988 L 189.58 15.2344 L 188.462 15.2344 L 188.462 6.94988 M 189.029 5.13863 C 188.798 5.13863 188.603 5.05988 188.446 4.90237 C 188.288 4.74487 188.21 4.55588 188.21 4.33538 C 188.21 4.12538 188.288 3.94162 188.446 3.78412 C 188.603 3.62662 188.798 3.54788 189.029 3.54788 C 189.26 3.54788 189.454 3.624 189.611 3.77625 C 189.769 3.9285 189.848 4.10963 189.848 4.31963 C 189.848 4.55063 189.769 4.74487 189.611 4.90237 C 189.454 5.05988 189.26 5.13863 189.029 5.13863 M 196.913 6.88687 C 197.953 6.88687 198.779 7.18875 199.394 7.7925 C 200.008 8.39625 200.315 9.27563 200.315 10.4306 L 200.315 15.2344 L 199.197 15.2344 L 199.197 10.5409 C 199.197 9.67987 198.982 9.02362 198.551 8.57213 C 198.121 8.12062 197.506 7.89487 196.708 7.89487 C 195.816 7.89487 195.11 8.16 194.59 8.69025 C 194.07 9.2205 193.81 9.95288 193.81 10.8874 L 193.81 15.2344 L 192.692 15.2344 L 192.692 6.94988 L 193.763 6.94988 L 193.763 8.47763 C 194.068 7.97362 194.49 7.5825 195.031 7.30425 C 195.572 7.026 196.199 6.88687 196.913 6.88687 M 210.593 11.4386 L 203.663 11.4386 C 203.726 12.2996 204.057 12.9952 204.655 13.5255 C 205.254 14.0557 206.01 14.3209 206.923 14.3209 C 207.438 14.3209 207.91 14.229 208.341 14.0452 C 208.771 13.8615 209.144 13.5911 209.459 13.2341 L 210.089 13.9586 C 209.722 14.3996 209.262 14.7356 208.711 14.9666 C 208.16 15.1976 207.553 15.3131 206.892 15.3131 C 206.041 15.3131 205.288 15.132 204.632 14.7698 C 203.975 14.4075 203.464 13.9061 203.096 13.2656 C 202.729 12.6251 202.545 11.9006 202.545 11.0921 C 202.545 10.2836 202.721 9.55913 203.072 8.91863 C 203.424 8.27813 203.907 7.77938 204.521 7.42238 C 205.136 7.06537 205.826 6.88687 206.593 6.88687 C 207.359 6.88687 208.047 7.06537 208.656 7.42238 C 209.265 7.77938 209.743 8.2755 210.089 8.91075 C 210.436 9.546 210.609 10.2731 210.609 11.0921 L 210.593 11.4386 M 206.593 7.84763 C 205.795 7.84762 205.125 8.10225 204.584 8.6115 C 204.044 9.12075 203.737 9.78487 203.663 10.6039 L 209.538 10.6039 C 209.464 9.78487 209.157 9.12075 208.616 8.6115 C 208.076 8.10225 207.401 7.84762 206.593 7.84763" fill-rule="evenodd" fill="#000000" transform="matrix(2.84952 0 0 2.83827 608.476 412.712)"/>
        </g>
    </g>
</svg>
